<?xml version="1.0" encoding="UTF-8"?>
<svg version="1.1" xmlns="http://www.w3.org/2000/svg" width="512" height="512">
<path d="M0 0 C1.25781159 -0.00538554 2.51562317 -0.01077108 3.81155026 -0.01631981 C7.27754965 -0.03069615 10.74330968 -0.02655442 14.20932174 -0.019153 C17.95721744 -0.01440412 21.70506262 -0.02694634 25.45294189 -0.03717041 C32.7856214 -0.05433032 40.11821511 -0.05520425 47.45090948 -0.04995751 C53.41358232 -0.04590924 59.37622988 -0.04736715 65.33890152 -0.05270576 C66.61388905 -0.0538284 66.61388905 -0.0538284 67.91463391 -0.05497371 C69.6416258 -0.05650525 71.36861768 -0.0580436 73.09560956 -0.05958868 C89.2760597 -0.07330362 105.45646143 -0.06788316 121.63691045 -0.05640347 C136.42362861 -0.0464727 151.2102216 -0.05941084 165.99692045 -0.08333766 C181.19823481 -0.10774911 196.39949092 -0.11733147 211.60082448 -0.11068493 C220.12788033 -0.10719719 228.65483996 -0.10939533 237.18188095 -0.12693596 C244.44089113 -0.14168358 251.69973734 -0.14226007 258.95874439 -0.12486505 C262.65854004 -0.11637355 266.35804307 -0.11415972 270.05782318 -0.1295166 C274.07768385 -0.14599477 278.0968435 -0.13116907 282.11669922 -0.11352539 C283.273336 -0.1231304 284.42997278 -0.1327354 285.62165916 -0.14263147 C299.83635675 -0.014715 310.60976892 5.1202254 320.93533325 14.70018005 C333.14073686 27.59645556 333.63172592 41.7588295 333.58938599 58.52146912 C333.59509434 60.56244784 333.6020604 62.60342338 333.61018372 64.64439392 C333.62807249 70.16473606 333.62695554 75.68491888 333.62124133 81.20528126 C333.61814525 85.81799831 333.62424615 90.43068495 333.63028008 95.04339767 C333.64430776 105.92218175 333.64277681 116.80088727 333.63137817 127.67967224 C333.61988061 138.90085898 333.63400421 150.12180717 333.66077465 161.3429625 C333.68291748 170.98565804 333.68957275 180.6282786 333.68369824 190.27099776 C333.68032627 196.02679015 333.68276063 201.78242939 333.69994926 207.53820038 C333.71539512 212.94574569 333.71148896 218.35293635 333.69264412 223.76046753 C333.68895265 225.74462567 333.6920829 227.72880996 333.70252991 229.71294403 C333.71570232 232.4213599 333.70422608 235.12859493 333.6865387 237.83695984 C333.6961437 238.62197884 333.70574871 239.40699784 333.71564478 240.21580529 C333.64554815 245.43201093 332.46057256 248.35858058 329.18533325 252.38768005 C325.36603153 256.01601669 322.30254319 256.69768464 317.18533325 256.88768005 C312.06812331 256.69768464 309.00463497 256.01601669 305.18533325 252.38768005 C301.41428398 247.70762009 300.60961159 244.06791238 300.6865387 238.20986938 C300.67846186 236.99888965 300.67846186 236.99888965 300.67022187 235.76344568 C300.65697987 233.06650832 300.67208074 230.37048587 300.68704224 227.67356873 C300.68321805 225.73656802 300.67759817 223.79957015 300.6703186 221.86257935 C300.65837153 217.69483518 300.65885482 213.52734296 300.66891289 209.35959435 C300.68447995 202.76578084 300.67079056 196.17222582 300.65287781 189.57843018 C300.6220566 176.76760003 300.62055633 163.95684884 300.62252808 151.14598846 C300.62392077 134.85028358 300.61353964 118.55463968 300.57395035 102.25897962 C300.55903414 95.70824349 300.55927425 89.15773645 300.57142818 82.60699689 C300.57614766 78.5257557 300.56860587 74.44460171 300.55788422 70.36337471 C300.55548331 68.47561962 300.55819487 66.58784978 300.56649208 64.70011139 C300.57717043 62.1153259 300.56931855 59.53120641 300.55714417 56.94644165 C300.56472022 56.20634218 300.57229627 55.46624271 300.58010191 54.70371598 C300.51619598 48.26780258 299.39867155 41.78546321 294.93533325 36.95018005 C287.98912866 33.0034729 281.2746434 33.10002516 273.47052002 33.12698364 C272.29482606 33.1231581 271.1191321 33.11933255 269.90781105 33.11539108 C266.65730175 33.10687615 263.40693736 33.10728776 260.15642428 33.11157167 C256.64576456 33.11404254 253.13513121 33.10502024 249.6244812 33.09753418 C242.75162226 33.08479509 235.87880241 33.08299251 229.00593366 33.08533444 C223.41835844 33.08711868 217.83079508 33.0853657 212.24322128 33.08111 C211.44746418 33.08051481 210.65170708 33.07991962 209.83183613 33.0793064 C208.21516244 33.07809462 206.59848876 33.07688049 204.98181508 33.07566402 C189.82584478 33.06479148 174.66989674 33.0669496 159.51392518 33.07304887 C145.6561895 33.07821753 131.79852412 33.06696341 117.94080235 33.04795065 C103.70350439 33.02856722 89.46623969 33.02031715 75.22892845 33.0240739 C67.239053 33.02598521 59.24923738 33.02350525 51.25937271 33.00935936 C44.4573345 32.99743814 37.65539295 32.99604895 30.8533534 33.00814953 C27.38487054 33.01403309 23.91656443 33.01515228 20.44809341 33.00314713 C16.68326977 32.99269965 12.91892036 33.0007651 9.15411377 33.01345825 C7.51970972 33.00239682 7.51970972 33.00239682 5.85228741 32.99111193 C-1.45516043 33.04290223 -8.67359119 33.48822569 -14.25216675 38.63768005 C-18.1988739 45.58388465 -18.10232164 52.29836991 -18.07536316 60.10249329 C-18.07918871 61.27818725 -18.08301425 62.45388121 -18.08695573 63.66520226 C-18.09547065 66.91571155 -18.09505905 70.16607595 -18.09077513 73.41658902 C-18.08830426 76.92724874 -18.09732656 80.43788209 -18.10481262 83.9485321 C-18.11755172 90.82139104 -18.11935429 97.69421089 -18.11701236 104.56707965 C-18.11522812 110.15465486 -18.1169811 115.74221823 -18.1212368 121.32979202 C-18.12183199 122.12554912 -18.12242718 122.92130623 -18.1230404 123.74117718 C-18.12425218 125.35785086 -18.12546631 126.97452454 -18.12668278 128.59119822 C-18.13755532 143.74716852 -18.13539721 158.90311657 -18.12929793 174.05908813 C-18.12412927 187.91682381 -18.13538339 201.77448918 -18.15439615 215.63221096 C-18.17377958 229.86950891 -18.18202965 244.10677362 -18.1782729 258.34408486 C-18.17636159 266.33396031 -18.17884155 274.32377592 -18.19298744 282.31364059 C-18.20490866 289.1156788 -18.20629786 295.91762035 -18.19419727 302.71965991 C-18.18831371 306.18814276 -18.18719452 309.65644887 -18.19919968 313.12491989 C-18.20964715 316.88974354 -18.20158171 320.65409295 -18.18888855 324.41889954 C-18.19626283 325.50850223 -18.20363712 326.59810493 -18.21123487 327.72072589 C-18.15944457 335.02817373 -17.71412111 342.24660449 -12.56466675 347.82518005 C-6.78517678 351.10898117 -1.02710508 351.68006361 5.50358582 351.63923645 C6.71902223 351.64369166 6.71902223 351.64369166 7.95901293 351.64823687 C10.65960749 351.65584282 13.35998238 351.64939695 16.06057739 351.64305115 C18.0025904 351.64580257 19.94460228 351.64948339 21.88661194 351.65402222 C26.0613717 351.66212123 30.23607795 351.66430598 34.4108448 351.66207504 C41.01226798 351.65923889 47.61358441 351.67360431 54.21498108 351.6910553 C72.98413501 351.73805632 91.75328127 351.7620299 110.52249146 351.76853943 C120.89404185 351.77228829 131.26547106 351.79030088 141.63696951 351.82363379 C148.19943491 351.84386172 154.7615881 351.84621157 161.324072 351.83535361 C165.4052095 351.83274841 169.48616473 351.84674073 173.56725502 351.86543465 C175.45948879 351.87076124 177.35175603 351.86925189 179.24397659 351.86039925 C181.82777572 351.84928589 184.41034062 351.86269973 186.99406433 351.88215637 C187.74222021 351.87303172 188.49037608 351.86390706 189.26120335 351.8545059 C194.3731017 351.92938154 197.23105464 353.20105746 201.18533325 356.38768005 C204.81366989 360.20698177 205.49533783 363.27047011 205.68533325 368.38768005 C205.49533783 373.50488999 204.81366989 376.56837833 201.18533325 380.38768005 C196.41521722 384.26327428 192.62383923 384.9636562 186.64807129 384.89561462 C185.37901331 384.90497457 185.37901331 384.90497457 184.0843178 384.9145236 C181.25621318 384.93044716 178.42897124 384.91785163 175.6008606 384.90525818 C173.57020567 384.91067982 171.53955468 384.91780272 169.50891113 384.92649841 C163.99614176 384.94473651 158.48367181 384.93766026 152.9708972 384.92498207 C147.1949251 384.91484872 141.41897849 384.92424946 135.64300537 384.93052673 C125.9368531 384.93780564 116.23082252 384.92821264 106.52468872 384.90916443 C95.32187242 384.88743207 84.11934773 384.89441971 72.9165386 384.91647005 C63.28740973 384.93466102 53.65836836 384.9371632 44.02922785 384.92671537 C38.2832548 384.92049603 32.53741845 384.91960111 26.79145432 384.93286133 C21.38228701 384.94447165 15.97349268 384.93629963 10.56436539 384.9132843 C8.58596158 384.90802323 6.60752605 384.90946604 4.62913513 384.91833496 C-12.77554975 384.98912441 -25.41432536 382.27593442 -38.56466675 370.07518005 C-48.55008325 359.5245513 -51.27553372 347.71220771 -51.2023468 333.57301331 C-51.20773234 332.31520172 -51.21311788 331.05739013 -51.21866661 329.76146305 C-51.23304295 326.29546365 -51.22890122 322.82970363 -51.2214998 319.36369157 C-51.21675092 315.61579587 -51.22929314 311.86795068 -51.23951721 308.12007141 C-51.25667712 300.7873919 -51.25755105 293.45479819 -51.25230431 286.12210383 C-51.24825604 280.15943099 -51.24971395 274.19678342 -51.25505257 268.23411179 C-51.25580099 267.3841201 -51.25654941 266.53412841 -51.25732051 265.6583794 C-51.25885206 263.93138751 -51.2603904 262.20439562 -51.26193548 260.47740375 C-51.27565042 244.29695361 -51.27022996 228.11655188 -51.25875027 211.93610285 C-51.2488195 197.1493847 -51.26175764 182.36279171 -51.28568446 167.57609285 C-51.31009591 152.3747785 -51.31967827 137.17352239 -51.31303173 121.97218883 C-51.30954399 113.44513298 -51.31174213 104.91817334 -51.32928276 96.39113235 C-51.34403038 89.13212217 -51.34460687 81.87327597 -51.32721185 74.61426891 C-51.31872035 70.91447327 -51.31650652 67.21497024 -51.3318634 63.51519012 C-51.34834157 59.49532945 -51.33351588 55.47616981 -51.31587219 51.45631409 C-51.3302797 49.72135892 -51.3302797 49.72135892 -51.34497827 47.95135415 C-51.2170618 33.73665656 -46.0821214 22.96324439 -36.50216675 12.63768005 C-25.951538 2.65226356 -14.1391944 -0.07318692 0 0 Z " fill="#000000" transform="translate(82.81466674804688,31.612319946289063)"/>
<path d="M0 0 C11.82573996 7.33763394 22.64138014 16.39416156 33.09108543 25.53835678 C37.04392273 28.9819362 41.01093729 32.27083334 45.27685547 35.32128906 C60.45854108 46.48298797 63.25803033 53.766694 74 72 C74 106.32 74 140.64 74 176 C-10.48 176 -94.96 176 -182 176 C-182 141.68 -182 107.36 -182 72 C-160 50 -160 50 -152 47 C-141.75338953 47.15525167 -136.53331913 53.1761611 -129.7578125 60.046875 C-128.98944061 60.81807678 -128.22106873 61.58927856 -127.42941284 62.3838501 C-124.98985106 64.83455682 -122.55735761 67.29214497 -120.125 69.75 C-118.46660843 71.41842869 -116.80775914 73.08640255 -115.1484375 74.75390625 C-111.09364317 78.8306855 -107.04462098 82.91312879 -103 87 C-99.89634594 85.620952 -97.80116463 84.04120278 -95.42181396 81.62867737 C-94.7295018 80.93188873 -94.03718964 80.2351001 -93.32389832 79.51719666 C-92.57473648 78.75298904 -91.82557465 77.98878143 -91.05371094 77.20141602 C-90.25643082 76.39639648 -89.4591507 75.59137695 -88.63771057 74.76196289 C-86.90646732 73.01306249 -85.1774318 71.26197454 -83.45034027 69.50897408 C-80.71477307 66.73402211 -77.97177539 63.96662695 -75.22637939 61.20140076 C-67.42094384 53.33846079 -59.62554712 45.46566341 -51.84521484 37.57788086 C-47.08618424 32.75330422 -42.31394011 27.94208867 -37.53437042 23.13786125 C-35.7164598 21.3056998 -33.90323409 19.46887739 -32.094841 17.62732124 C-29.56258083 15.04928115 -27.01516965 12.48715561 -24.46386719 9.92797852 C-23.35226982 8.78470345 -23.35226982 8.78470345 -22.21821594 7.61833191 C-15.55715757 0.99498151 -9.47142657 -2.29147417 0 0 Z " fill="#000000" transform="translate(278,176)"/>
<path d="M0 0 C4.64033987 2.15444351 8.03598049 5.2220809 10 10 C10.54851096 14.13732054 10.46541986 18.23134214 10.390625 22.3984375 C10.38496521 23.58853424 10.37930542 24.77863098 10.37347412 26.00479126 C10.35113451 29.79527486 10.30093963 33.58480345 10.25 37.375 C10.22993201 39.94920507 10.21168177 42.523425 10.1953125 45.09765625 C10.15127745 51.39876178 10.08438805 57.69931265 10 64 C10.66319244 63.99111755 11.32638489 63.98223511 12.00967407 63.9730835 C18.92026134 63.88450044 25.83068696 63.82421985 32.74169922 63.78027344 C35.31989088 63.76017437 37.89803704 63.73289059 40.47607422 63.69824219 C44.18468461 63.64965153 47.89269156 63.62701342 51.6015625 63.609375 C52.75177887 63.58872986 53.90199524 63.56808472 55.08706665 63.54681396 C61.38852193 63.54505226 65.23604813 63.72116563 70 68 C73.62833663 71.81930172 74.31000458 74.88279006 74.5 80 C74.31000458 85.11720994 73.62833663 88.18069828 70 92 C64.37931362 97.04832683 58.89755008 96.5215801 51.6015625 96.390625 C50.41146576 96.38496521 49.22136902 96.37930542 47.99520874 96.37347412 C44.20472514 96.35113451 40.41519655 96.30093963 36.625 96.25 C34.05079493 96.22993201 31.476575 96.21168177 28.90234375 96.1953125 C22.60123822 96.15127745 16.30068735 96.08438805 10 96 C10.00888245 96.66319244 10.01776489 97.32638489 10.0269165 98.00967407 C10.11549956 104.92026134 10.17578015 111.83068696 10.21972656 118.74169922 C10.23982563 121.31989088 10.26710941 123.89803704 10.30175781 126.47607422 C10.35034847 130.18468461 10.37298658 133.89269156 10.390625 137.6015625 C10.41127014 138.75177887 10.43191528 139.90199524 10.45318604 141.08706665 C10.45494774 147.38852193 10.27883437 151.23604813 6 156 C2.18069828 159.62833663 -0.88279006 160.31000458 -6 160.5 C-11.11720994 160.31000458 -14.18069828 159.62833663 -18 156 C-23.04832683 150.37931362 -22.5215801 144.89755008 -22.390625 137.6015625 C-22.38496521 136.41146576 -22.37930542 135.22136902 -22.37347412 133.99520874 C-22.35113451 130.20472514 -22.30093963 126.41519655 -22.25 122.625 C-22.22993201 120.05079493 -22.21168177 117.476575 -22.1953125 114.90234375 C-22.15127745 108.60123822 -22.08438805 102.30068735 -22 96 C-22.99478867 96.01332367 -22.99478867 96.01332367 -24.00967407 96.0269165 C-30.92026134 96.11549956 -37.83068696 96.17578015 -44.74169922 96.21972656 C-47.31989088 96.23982563 -49.89803704 96.26710941 -52.47607422 96.30175781 C-56.18468461 96.35034847 -59.89269156 96.37298658 -63.6015625 96.390625 C-65.32688705 96.42159271 -65.32688705 96.42159271 -67.08706665 96.45318604 C-73.38852193 96.45494774 -77.23604813 96.27883437 -82 92 C-85.62833663 88.18069828 -86.31000458 85.11720994 -86.5 80 C-86.31000458 74.88279006 -85.62833663 71.81930172 -82 68 C-76.37931362 62.95167317 -70.89755008 63.4784199 -63.6015625 63.609375 C-62.41146576 63.61503479 -61.22136902 63.62069458 -59.99520874 63.62652588 C-56.20472514 63.64886549 -52.41519655 63.69906037 -48.625 63.75 C-46.05079493 63.77006799 -43.476575 63.78831823 -40.90234375 63.8046875 C-34.60123822 63.84872255 -28.30068735 63.91561195 -22 64 C-22.00888245 63.33680756 -22.01776489 62.67361511 -22.0269165 61.99032593 C-22.11549956 55.07973866 -22.17578015 48.16931304 -22.21972656 41.25830078 C-22.23982563 38.68010912 -22.26710941 36.10196296 -22.30175781 33.52392578 C-22.35034847 29.81531539 -22.37298658 26.10730844 -22.390625 22.3984375 C-22.41127014 21.24822113 -22.43191528 20.09800476 -22.45318604 18.91293335 C-22.45494774 12.61147807 -22.27883437 8.76395187 -18 4 C-12.72867143 -1.00776214 -6.89190982 -0.92775709 0 0 Z " fill="#000000" transform="translate(406,320)"/>
<path d="M0 0 C8.80288754 6.34043826 15.4186507 14.72648904 17.58203125 25.4921875 C18.92007691 37.90936834 17.85729499 48.88109459 10.39453125 59.2421875 C3.58210875 67.3274193 -4.72289951 73.55522767 -15.48876953 74.71533203 C-28.40007937 75.61089799 -39.16843729 74.04490094 -49.3515625 65.46484375 C-57.86959925 57.33325857 -62.42046403 48.68416257 -62.88867188 36.85693359 C-63.04371176 24.34263074 -60.22647828 14.71931927 -51.41796875 5.4921875 C-37.63784493 -7.66275112 -16.31305228 -10.17259803 0 0 Z " fill="#000000" transform="translate(198.41796875,101.5078125)"/>
</svg>
