<?xml version="1.0" encoding="UTF-8"?>
<svg version="1.1" xmlns="http://www.w3.org/2000/svg" width="243" height="152">
<path d="M0 0 C80.19 0 160.38 0 243 0 C243 50.16 243 100.32 243 152 C162.81 152 82.62 152 0 152 C0 101.84 0 51.68 0 0 Z " fill="#F9D8BD" transform="translate(0,0)"/>
<path d="M0 0 C0.80739624 0.00009567 1.61479248 0.00019135 2.44665527 0.00028992 C5.13645529 0.00404636 7.82589889 0.02313841 10.515625 0.04296875 C12.41764176 0.04989507 14.31966011 0.05639477 16.22167969 0.0625 C42.404676 0.17875128 68.58791729 0.71919503 94.765625 1.23046875 C91.94291758 3.36286829 89.07373088 5.37777195 86.140625 7.35546875 C80.01964756 11.61748267 74.18230981 16.45457257 69.16796875 21.99609375 C67.765625 23.23046875 67.765625 23.23046875 64.765625 23.23046875 C64.65347656 24.08705078 64.65347656 24.08705078 64.5390625 24.9609375 C61.7653703 33.099903 49.90398222 39.23964009 42.765625 43.23046875 C41.775625 43.56046875 40.785625 43.89046875 39.765625 44.23046875 C39.765625 44.89046875 39.765625 45.55046875 39.765625 46.23046875 C38.755 47.03484375 37.744375 47.83921875 36.703125 48.66796875 C28.75499358 55.29677471 24.81539674 64.57541248 21.765625 74.23046875 C21.146875 76.05578125 21.146875 76.05578125 20.515625 77.91796875 C20.268125 78.68109375 20.020625 79.44421875 19.765625 80.23046875 C18.445625 79.90046875 17.125625 79.57046875 15.765625 79.23046875 C15.765625 79.89046875 15.765625 80.55046875 15.765625 81.23046875 C17.085625 81.23046875 18.405625 81.23046875 19.765625 81.23046875 C20.260625 86.67546875 20.260625 86.67546875 20.765625 92.23046875 C22.1578125 91.24046875 22.1578125 91.24046875 23.578125 90.23046875 C26.765625 88.23046875 26.765625 88.23046875 29.765625 88.23046875 C29.765625 89.55046875 29.765625 90.87046875 29.765625 92.23046875 C28.84330078 92.39869141 28.84330078 92.39869141 27.90234375 92.5703125 C25.26388599 93.21414669 23.13047259 93.88212759 20.765625 95.23046875 C19.07940371 98.10507456 18.4238588 100.98631646 17.765625 104.23046875 C17.270625 105.71546875 17.270625 105.71546875 16.765625 107.23046875 C16.105625 107.23046875 15.445625 107.23046875 14.765625 107.23046875 C13.4384989 103.24909045 13.69646587 99.38001648 13.765625 95.23046875 C14.755625 94.90046875 15.745625 94.57046875 16.765625 94.23046875 C16.765625 93.57046875 16.765625 92.91046875 16.765625 92.23046875 C15.775625 92.56046875 14.785625 92.89046875 13.765625 93.23046875 C13.435625 92.24046875 13.105625 91.25046875 12.765625 90.23046875 C10.75054142 89.49723079 10.75054142 89.49723079 8.765625 89.23046875 C8.56814931 103.68292611 8.56814931 103.68292611 13.765625 116.23046875 C16.31275904 116.22124173 16.31275904 116.22124173 18.765625 115.23046875 C20.12582651 113.26288602 20.12582651 113.26288602 20.765625 111.23046875 C21.425625 111.23046875 22.085625 111.23046875 22.765625 111.23046875 C22.765625 113.87046875 22.765625 116.51046875 22.765625 119.23046875 C23.33410156 119.34261719 23.90257812 119.45476562 24.48828125 119.5703125 C29.41337786 120.8283088 32.11806978 122.15717261 35.078125 126.35546875 C43.14265147 137.79107903 56.31128638 144.43805885 69.765625 147.23046875 C69.765625 147.56046875 69.765625 147.89046875 69.765625 148.23046875 C60.68112073 148.30024893 51.59670998 148.35342137 42.51199532 148.38590527 C38.2927307 148.40150281 34.07365063 148.42263177 29.85449219 148.45678711 C25.7760832 148.48959312 21.69785076 148.50736612 17.61931992 148.51510048 C16.07013041 148.52060614 14.5209496 148.53135648 12.97183609 148.54765892 C-6.97844356 148.74909295 -6.97844356 148.74909295 -14.734375 142.85546875 C-18.36875322 139.03937162 -19.45060204 135.57269443 -19.63882446 130.36820984 C-19.67615881 129.43033788 -19.71349316 128.49246592 -19.75195885 127.52617359 C-19.78176653 126.5193991 -19.81157421 125.51262461 -19.84228516 124.4753418 C-19.87960062 123.4143587 -19.91691608 122.35337561 -19.95536232 121.26024151 C-20.33770664 109.61335074 -20.45483175 97.96487548 -20.5078125 86.3125 C-20.51313618 85.19336401 -20.51845985 84.07422802 -20.52394485 82.92117882 C-20.55030271 77.03445506 -20.56981941 71.1477501 -20.58447266 65.26098633 C-20.59795697 60.41477192 -20.62612341 55.56896418 -20.66650391 50.72290039 C-20.71567889 44.8142934 -20.74056743 38.90606197 -20.74769974 32.99725914 C-20.75440853 30.76010676 -20.7696208 28.52296275 -20.79359055 26.28592873 C-20.8250847 23.17819992 -20.82530671 20.07195666 -20.81787109 16.96411133 C-20.83427643 16.04731598 -20.85068176 15.13052063 -20.86758423 14.1859436 C-20.82384415 9.73088974 -20.69901673 7.83405698 -17.90402222 4.20324707 C-12.4199733 0.1507218 -6.60535499 -0.06385921 0 0 Z " fill="#FDFDFD" transform="translate(23.234375,1.76953125)"/>
<path d="M0 0 C5.11878403 -0.07534442 10.2372306 -0.12915241 15.35644531 -0.16479492 C17.09022661 -0.1796861 18.82397161 -0.20000587 20.55761719 -0.22631836 C49.59253448 -0.65528151 49.59253448 -0.65528151 60.421875 6.328125 C65.51302669 11.72172135 66.58822625 16.58637171 66.48583984 23.72314453 C66.48963654 24.56825592 66.49343323 25.41336731 66.49734497 26.28408813 C66.50472754 29.06737925 66.48337563 31.84961453 66.4609375 34.6328125 C66.45854848 36.59032062 66.45764872 38.54783107 66.4581604 40.50534058 C66.4550347 44.61259297 66.43850586 48.71949581 66.41162109 52.82666016 C66.37795681 58.0293036 66.36998411 63.231558 66.37151146 68.43429756 C66.37096036 72.48415686 66.35987172 76.53393507 66.34550858 80.58376694 C66.33924339 82.49783593 66.33522648 84.41191393 66.33372116 86.32599258 C66.31310498 98.8576974 65.65467333 111.19117434 64.25825882 123.64757919 C64.0811771 125.26057625 63.9188546 126.87524207 63.76905441 128.49100113 C63.65392439 129.68559763 63.65392439 129.68559763 63.53646851 130.90432739 C63.47190649 131.61423388 63.40734447 132.32414036 63.34082603 133.05555916 C62.36492939 138.6231306 58.32199659 141.83270384 53.9765625 144.921875 C48.66742267 147.81776945 43.50030541 148.32483216 37.5546875 148.4140625 C36.72710434 148.43347397 35.89952118 148.45288544 35.04685974 148.47288513 C32.32301104 148.53345926 29.59914243 148.57970491 26.875 148.625 C24.9768008 148.66303986 23.07860749 148.70137448 21.18041992 148.73999023 C0.45546808 149.13424749 -20.27239162 149.09799218 -41 149 C-38.90970197 147.93202273 -36.89926836 146.96375703 -34.6875 146.16796875 C-27.42812071 143.51956148 -21.451776 139.79982948 -15.0625 135.5 C0.05764167 125.38501002 0.05764167 125.38501002 8 124 C10.34375 124.90234375 10.34375 124.90234375 12 126 C12 126.99 12 127.98 12 129 C13.093125 128.79375 14.18625 128.5875 15.3125 128.375 C19 128 19 128 22 130 C27.33974353 130.65415662 32.31194319 130.82747883 37.1875 128.4375 C39.58298186 125.21598992 39.92992289 122.99439518 40 119 C39.18954426 115.75817703 38.65689469 114.44436994 35.875 112.5625 C34 111 34 111 33.625 108.375 C34.09340169 104.15938481 34.97651183 100.11222926 36 96 C35.34 96 34.68 96 34 96 C34.18175781 95.42894531 34.36351562 94.85789062 34.55078125 94.26953125 C38.03134114 83.04249447 40.2997091 72.3617367 40.7890625 60.62890625 C40.97991382 57.34555667 41.39120916 54.2285875 42 51 C42.66 51 43.32 51 44 51 C44.495 53.97 44.495 53.97 45 57 C47.11399282 55.87160059 47.11399282 55.87160059 49 54 C49.34192628 51.41861562 49.34192628 51.41861562 48.875 48.625 C48.76929688 47.68914063 48.66359375 46.75328125 48.5546875 45.7890625 C47.98966938 42.94805592 47.2993411 40.58978261 46 38 C44.96875 37.34 43.9375 36.68 42.875 36 C41.92625 35.34 40.9775 34.68 40 34 C39.625 31.25 39.625 31.25 40 29 C40.99 28.67 41.98 28.34 43 28 C42.2885206 24.3003071 40.99060657 21.19918912 39 18 C35.55782221 16.42643301 33.5012126 17.16034711 30.125 18.375 C28.0703125 18.984375 28.0703125 18.984375 26 19 C23.17333689 17.05866911 21.10158157 14.69265139 19 12 C19.66 11.67 20.32 11.34 21 11 C21 10.34 21 9.68 21 9 C19.99839844 9.0721875 18.99679688 9.144375 17.96484375 9.21875 C13.33240311 8.96316707 10.55542183 7.68871271 6.5625 5.5 C5.60827148 4.99919922 5.60827148 4.99919922 4.63476562 4.48828125 C3.08306893 3.67159878 1.54052429 2.8375666 0 2 C0 1.34 0 0.68 0 0 Z " fill="#FCFBFB" transform="translate(174,1)"/>
<path d="M0 0 C80.19 0 160.38 0 243 0 C243 50.16 243 100.32 243 152 C162.81 152 82.62 152 0 152 C0 101.84 0 51.68 0 0 Z M164.54379272 1.02603149 C162.9939661 1.02894432 161.44413947 1.03186034 159.89431286 1.03477955 C159.12709955 1.03621483 158.35988623 1.03765012 157.56942403 1.0391289 C141.43029135 1.0740876 125.29120021 1.15584798 109.1522398 1.23571491 C99.94273127 1.28100233 90.73326668 1.320456 81.52368164 1.34643555 C73.37490353 1.36942954 65.22624598 1.40278032 57.07756358 1.44870156 C52.79710543 1.47248967 48.5167649 1.49131593 44.23624229 1.49761391 C40.23757032 1.50367089 36.23920747 1.52369198 32.24065018 1.55427551 C30.7818307 1.56302448 29.32297083 1.56678487 27.86412621 1.56500816 C15.1775575 1.37895922 15.1775575 1.37895922 3.95977783 6.58624268 C2.39137892 10.53062879 2.60146745 14.4163609 2.64355469 18.62011719 C2.64151031 19.59652161 2.63946594 20.57292603 2.63735962 21.57891846 C2.63434468 24.81842605 2.6528762 28.05742744 2.671875 31.296875 C2.67493642 33.56536738 2.67680963 35.83386164 2.67755127 38.10235596 C2.68216162 42.87397393 2.69659676 47.64542386 2.71875 52.41699219 C2.74671128 58.46346889 2.75792945 64.50981171 2.7624321 70.55634689 C2.76765986 76.38653942 2.7821621 82.21670013 2.796875 88.046875 C2.79875572 89.12844627 2.80063644 90.21001755 2.80257416 91.32436371 C2.82862861 102.94728114 2.9628814 114.56689317 3.32519531 126.18457031 C3.35773973 127.68196306 3.35773973 127.68196306 3.39094162 129.20960617 C3.61237766 135.21113002 4.18980241 140.06885719 8.54296875 144.609375 C9.35701172 145.17398438 9.35701172 145.17398438 10.1875 145.75 C10.71730469 146.13671875 11.24710938 146.5234375 11.79296875 146.921875 C19.62820696 150.7493542 27.94330224 150.27942987 36.4543457 150.24291992 C37.91283249 150.24399466 39.37131885 150.24593619 40.82980347 150.24867249 C44.78461252 150.25350836 48.73930811 150.24586866 52.69410348 150.23571944 C56.88202017 150.22685872 61.06993411 150.22869832 65.25785828 150.2290802 C72.32679092 150.22814334 79.39568071 150.2194775 86.46459961 150.20581055 C93.63387912 150.19199625 100.80311912 150.18479249 107.97241211 150.18530273 C130.29481894 150.18650026 152.61651732 150.14793086 174.93855381 150.01239681 C176.91768896 150.00049499 178.8968289 149.98940006 180.87596893 149.97834015 C187.32263141 149.93987079 193.76825342 149.88182385 200.21422386 149.77865028 C201.97966503 149.75229086 203.74521033 149.73200782 205.5107975 149.71861839 C217.20897187 149.61992095 226.30889557 148.47912628 235 140 C237.2748891 136.4739219 237.60837567 132.70817007 238.0625 128.625 C238.29646484 126.69527344 238.29646484 126.69527344 238.53515625 124.7265625 C239.89266002 111.55019185 240.20481945 98.46084047 240.2734375 85.2265625 C240.28142302 83.77140291 240.28142302 83.77140291 240.28956985 82.28684616 C240.31607358 77.16828967 240.33553374 72.04975584 240.35009766 66.93115234 C240.3635058 62.7160913 240.39151681 58.50150643 240.43212891 54.28662109 C240.48147641 49.16109778 240.50621711 44.03600991 240.51332474 38.91025925 C240.52001769 36.96864406 240.53518849 35.0270379 240.55921555 33.08555984 C240.59092586 30.37244084 240.59089751 27.66101044 240.58349609 24.94775391 C240.59990143 24.15694427 240.61630676 23.36613464 240.63320923 22.55136108 C240.56709006 16.605599 238.70775571 12.63262635 235 8 C224.2286799 -0.76117938 207.66667033 0.72934288 194.57348633 0.86791992 C192.89766148 0.87788993 191.22183025 0.88683274 189.54599476 0.8948164 C186.07680369 0.91263161 182.60771177 0.9357989 179.13858414 0.96328354 C174.27364765 1.00044718 169.40885486 1.01729303 164.54379272 1.02603149 Z " fill="#707070" transform="translate(0,0)"/>
<path d="M0 0 C1.05994631 3.34594992 0.97506299 6.085523 0.625 9.5625 C0.53476562 10.51253906 0.44453125 11.46257812 0.3515625 12.44140625 C0 15 0 15 -1 18 C-0.20335937 18.38478516 -0.20335937 18.38478516 0.609375 18.77734375 C5.58306082 21.47293624 8.34028158 23.99388778 10.390625 29.30859375 C11.56461642 34.49372253 11.29370034 39.72155223 11 45 C10.113125 44.773125 9.22625 44.54625 8.3125 44.3125 C4.31438057 43.93531892 3.30761625 44.91016446 0 47 C-2.97265625 47.36328125 -2.97265625 47.36328125 -6.0625 47.3125 C-7.59583984 47.30669922 -7.59583984 47.30669922 -9.16015625 47.30078125 C-11.94132634 47.0062144 -13.62614466 46.42886736 -16 45 C-16 42.36 -16 39.72 -16 37 C-16.66 37 -17.32 37 -18 37 C-18.12375 37.61875 -18.2475 38.2375 -18.375 38.875 C-19 41 -19 41 -21 43 C-24.29714793 42.67028521 -25.6226839 42.3773161 -28 40 C-28.84039225 36.78370842 -29.21701908 33.47623116 -29.6875 30.1875 C-29.82994141 29.28451172 -29.97238281 28.38152344 -30.11914062 27.45117188 C-30.24869141 26.57396484 -30.37824219 25.69675781 -30.51171875 24.79296875 C-30.62990967 23.9939917 -30.74810059 23.19501465 -30.86987305 22.37182617 C-31.01385103 19.7475371 -30.61396303 17.54654801 -30 15 C-27.5625 15.375 -27.5625 15.375 -25 16 C-24.67 16.66 -24.34 17.32 -24 18 C-23.34 18 -22.68 18 -22 18 C-22 18.66 -22 19.32 -22 20 C-22.66 20.33 -23.32 20.66 -24 21 C-24 24.96 -24 28.92 -24 33 C-23.34 33 -22.68 33 -22 33 C-21.896875 32.13375 -21.79375 31.2675 -21.6875 30.375 C-20.93879869 26.69955723 -20.03381495 24.15591975 -18 21 C-14.74533864 18.96583665 -12.8455896 18 -9 18 C-9.33 17.030625 -9.66 16.06125 -10 15.0625 C-11.21953959 10.72341347 -11.704318 6.47553968 -11 2 C-7.97861788 -2.10907968 -4.59200188 -0.97138501 0 0 Z " fill="#EA7E2B" transform="translate(62,76)"/>
<path d="M0 0 C2.2386565 2.2386565 2.8996395 4.06570533 4 7 C4.495 7.99 4.495 7.99 5 9 C4.505 9.391875 4.01 9.78375 3.5 10.1875 C1.80598594 11.94285404 1.80598594 11.94285404 1.5 14.5 C1.74884453 17.23003229 1.74884453 17.23003229 4.375 18.6875 C5.24125 19.120625 6.1075 19.55375 7 20 C10.67988294 23.67988294 10.84733528 29.351221 11.3125 34.375 C11 37 11 37 9.625 38.875 C8 40 8 40 6 40 C5.505 37.03 5.505 37.03 5 34 C4.34 34 3.68 34 3 34 C2.67 36.97 2.34 39.94 2 43 C-3.65962144 43.34650743 -7.03888782 42.48055609 -12 40 C-13 39 -13 39 -13.09765625 36.93359375 C-13.08605469 36.10988281 -13.07445312 35.28617188 -13.0625 34.4375 C-13.05347656 33.61121094 -13.04445312 32.78492188 -13.03515625 31.93359375 C-13.02355469 31.29550781 -13.01195312 30.65742187 -13 30 C-13.44730469 30.433125 -13.89460937 30.86625 -14.35546875 31.3125 C-19.2858592 35.85392575 -19.2858592 35.85392575 -22.75 36.5625 C-25.43904144 35.89023964 -26.28111623 35.14579608 -28 33 C-28.37231445 31.04223633 -28.37231445 31.04223633 -28.36328125 28.83203125 C-28.36263672 28.02056641 -28.36199219 27.20910156 -28.36132812 26.37304688 C-28.34521484 25.52806641 -28.32910156 24.68308594 -28.3125 23.8125 C-28.31572266 22.98685547 -28.31894531 22.16121094 -28.32226562 21.31054688 C-28.27534123 15.89717815 -27.50518598 11.19918823 -26 6 C-24.02 5.67 -22.04 5.34 -20 5 C-19.34 8.63 -18.68 12.26 -18 16 C-19.65 16 -21.3 16 -23 16 C-22.67 19.63 -22.34 23.26 -22 27 C-20.7625 25.906875 -19.525 24.81375 -18.25 23.6875 C-10.67924528 17 -10.67924528 17 -7 17 C-7 16.01 -7 15.02 -7 14 C-7.66 14 -8.32 14 -9 14 C-9 13.01 -9 12.02 -9 11 C-9.66 11 -10.32 11 -11 11 C-11.66 8.03 -12.32 5.06 -13 2 C-8.57630209 -0.94913194 -5.12205419 -1.52277287 0 0 Z " fill="#EE802B" transform="translate(213,18)"/>
<path d="M0 0 C0.66 0.33 1.32 0.66 2 1 C2.886875 1.37125 3.77375 1.7425 4.6875 2.125 C7 4 7 4 7.625 7.375 C7.74875 8.57125 7.8725 9.7675 8 11 C8.53625 11.804375 9.0725 12.60875 9.625 13.4375 C11.66301933 17.23562694 10.77944674 19.81933114 10 24 C13.29075996 23.62095792 13.29075996 23.62095792 16 22 C17.66617115 21.95936168 19.33388095 21.957279 21 22 C19.8318262 29.53210572 17.58180224 35.90222509 11.6875 41 C11.130625 41.33 10.57375 41.66 10 42 C9.34 41.67 8.68 41.34 8 41 C8 41.99 8 42.98 8 44 C5.89646505 44.0810206 3.79204048 44.13919907 1.6875 44.1875 C0.51574219 44.22230469 -0.65601562 44.25710937 -1.86328125 44.29296875 C-5 44 -5 44 -6.87890625 42.6171875 C-8.16912298 40.75603863 -8.57207865 39.21092697 -9 37 C-9.33 36.34 -9.66 35.68 -10 35 C-10.26144827 32.05725448 -10.46725939 29.13585749 -10.625 26.1875 C-10.6765625 25.37990234 -10.728125 24.57230469 -10.78125 23.74023438 C-11.24466004 15.41929823 -9.99109049 8.68134214 -4.5625 2 C-2 0 -2 0 0 0 Z " fill="#B98873" transform="translate(122,64)"/>
<path d="M0 0 C0.85298376 3.67387495 1.10789471 7.0447393 1.0625 10.8125 C1.05347656 11.78832031 1.04445313 12.76414062 1.03515625 13.76953125 C1.02355469 14.50558594 1.01195313 15.24164063 1 16 C0.34 16 -0.32 16 -1 16 C-1 16.66 -1 17.32 -1 18 C-0.4225 18.04125 0.155 18.0825 0.75 18.125 C4.13312465 19.44065958 5.19222685 21.96552364 7 25 C7 22.03 7 19.06 7 16 C7.66 16 8.32 16 9 16 C9 15.34 9 14.68 9 14 C10.32 14 11.64 14 13 14 C13.08107646 16.75059381 13.14052813 19.49879021 13.1875 22.25 C13.21263672 23.02730469 13.23777344 23.80460937 13.26367188 24.60546875 C13.30804894 28.06687959 13.29333278 30.40788553 11.73828125 33.546875 C10 35 10 35 6 35 C5.87625 36.175625 5.87625 36.175625 5.75 37.375 C5 40 5 40 3.375 41.3125 C-0.42547996 42.41263894 -4.39854108 42.80072946 -8 41 C-8.625 38.9375 -8.625 38.9375 -9 37 C-9.33 37.66 -9.66 38.32 -10 39 C-13 38 -13 38 -15 35 C-15.77142949 30.29069208 -15.38777675 26.7755535 -13.25 22.5 C-11.05574452 20.06193835 -10.21020798 19.22930057 -7 19 C-7.309375 18.113125 -7.61875 17.22625 -7.9375 16.3125 C-8.8290671 13.53290845 -9.49377007 10.86863625 -10 8 C-11.32 8 -12.64 8 -14 8 C-13.979375 8.94875 -13.95875 9.8975 -13.9375 10.875 C-14 14 -14 14 -15 16 C-13.68 15.67 -12.36 15.34 -11 15 C-12.58358642 18.16717283 -13.45263699 19.73268318 -16.6875 21.3125 C-17.450625 21.539375 -18.21375 21.76625 -19 22 C-18.49396008 19.83125748 -18.00016187 18.00032373 -17 16 C-17.804375 15.7525 -18.60875 15.505 -19.4375 15.25 C-22 14 -22 14 -22.8125 11.875 C-22.874375 11.25625 -22.93625 10.6375 -23 10 C-21.68 10.33 -20.36 10.66 -19 11 C-18.34 9.68 -17.68 8.36 -17 7 C-16.01 7 -15.02 7 -14 7 C-14.061875 6.05125 -14.12375 5.1025 -14.1875 4.125 C-14.125625 3.09375 -14.06375 2.0625 -14 1 C-8.81640448 -2.45573035 -5.74221699 -2.27017881 0 0 Z " fill="#EE812D" transform="translate(36,30)"/>
<path d="M0 0 C3.44008056 0.25962872 6.2933373 0.67384798 9.4375 2.125 C11 4 11 4 11.3125 7.5625 C11 11 11 11 10 13 C9.49957854 15.91538029 9.49957854 15.91538029 10 19 C10.804375 19.598125 11.60875 20.19625 12.4375 20.8125 C15.28090729 23.23979891 15.51292686 23.89450721 16.0625 27.4375 C16.27321511 30.90006186 16.09435671 31.84161553 14.25 34.9375 C10.37850803 38.48636764 8.23673599 39.27558337 3.0625 39.25 C2.02222656 39.25515625 0.98195312 39.2603125 -0.08984375 39.265625 C-2.97887705 39.001928 -4.49800933 38.36082576 -7 37 C-10.16695956 36.83275263 -10.16695956 36.83275263 -13 37 C-15.27141454 31.60539047 -15.20413361 26.73842251 -15 21 C-13.02 21 -11.04 21 -9 21 C-8.814375 19.7934375 -8.814375 19.7934375 -8.625 18.5625 C-8.41875 17.716875 -8.2125 16.87125 -8 16 C-7.34 15.67 -6.68 15.34 -6 15 C-5.67 14.01 -5.34 13.02 -5 12 C-4.01 12 -3.02 12 -2 12 C-0.68 14.97 0.64 17.94 2 21 C2.99 20.67 3.98 20.34 5 20 C5.13504138 18.06440687 5.23201129 16.126128 5.3125 14.1875 C5.37050781 13.10855469 5.42851562 12.02960938 5.48828125 10.91796875 C5.30082958 7.81704988 5.30082958 7.81704988 2.66796875 6.11328125 C0.02038252 4.80745247 0.02038252 4.80745247 -3 5 C-1.125 1.125 -1.125 1.125 0 0 Z " fill="#EE7F2B" transform="translate(199,93)"/>
<path d="M0 0 C4.79894282 -0.01480543 9.59769111 -0.03918934 14.39654541 -0.07177734 C20.1216949 -0.11007563 25.84657851 -0.12831941 31.57185173 -0.13184166 C33.69152343 -0.13632896 35.81119367 -0.14758598 37.93078804 -0.16623878 C65.57404261 -0.39719447 65.57404261 -0.39719447 75.83731079 8.28710938 C80.64385164 13.74318277 80.98620981 17.16847729 80.98257446 24.28466797 C80.98593307 25.21843765 80.98929169 26.15220734 80.99275208 27.11427307 C81.0022961 30.22137771 81.00420819 33.32842846 81.00527954 36.43554688 C81.00849429 38.60438051 81.01185853 40.77321393 81.0153656 42.94204712 C81.02136864 47.50694275 81.02320475 52.07181944 81.02261353 56.63671875 C81.02251287 62.43256891 81.03605818 68.22829387 81.05338573 74.02411461 C81.06462454 78.51655613 81.06652898 83.00896876 81.0660038 87.50142288 C81.06717023 89.6340337 81.07151513 91.76664561 81.07933617 93.8992424 C81.11409449 104.3737549 80.99245817 114.8139648 80.13540649 125.25830078 C80.08296626 126.0547167 80.03052603 126.85113262 79.9764967 127.67168236 C79.27335512 134.93054514 76.11689529 140.46929627 70.71231079 145.34960938 C69.76356079 145.98898438 68.81481079 146.62835938 67.83731079 147.28710938 C66.84731079 146.95710937 65.85731079 146.62710938 64.83731079 146.28710938 C65.6687561 145.70703125 65.6687561 145.70703125 66.51699829 145.11523438 C67.24145142 144.59445313 67.96590454 144.07367188 68.71231079 143.53710938 C69.43160767 143.02664062 70.15090454 142.51617187 70.89199829 141.99023438 C75.0123878 138.38282509 75.31878474 134.13629142 75.89981079 128.91210938 C76.13377563 126.98238281 76.13377563 126.98238281 76.37246704 125.01367188 C77.73071439 111.82139469 78.02816335 98.72838757 78.07559204 85.47851562 C78.07966757 84.50716108 78.0837431 83.53580654 78.08794212 82.53501701 C78.1086277 77.41112367 78.12301406 72.28725585 78.13247681 67.16333008 C78.14361637 61.8887957 78.17815201 56.61467441 78.21764851 51.34028721 C78.24378854 47.26101401 78.2521654 43.18184096 78.25575829 39.10249138 C78.26061639 37.15727831 78.27220817 35.21206948 78.29079628 33.26693916 C78.31517382 30.55139883 78.31422754 27.83695438 78.30728149 25.12133789 C78.32009155 24.32693298 78.33290161 23.53252808 78.34609985 22.71405029 C78.29419561 17.13282 77.01148295 13.89708003 73.83731079 9.28710938 C62.94165056 0.51841044 46.3954585 1.9992539 33.20523071 2.06005859 C31.46934516 2.06062398 29.73345913 2.06030367 27.99757385 2.05917358 C23.32489616 2.05860403 18.65232293 2.07029346 13.97966933 2.0843215 C9.08166149 2.09689562 4.18365077 2.09800459 -0.71437073 2.10037231 C-9.97169452 2.10656756 -19.2289706 2.12295171 -28.48627347 2.14307129 C-39.03292138 2.16549143 -49.57957167 2.17643905 -60.12623751 2.18646216 C-81.80508129 2.20731983 -103.48388223 2.24245747 -125.16268921 2.28710938 C-125.16268921 1.95710937 -125.16268921 1.62710937 -125.16268921 1.28710938 C-83.44528396 0.54260991 -41.7238631 0.12308258 0 0 Z " fill="#32302F" transform="translate(161.16268920898438,-0.287109375)"/>
<path d="M0 0 C8.25 0 16.5 0 25 0 C25 50.16 25 100.32 25 152 C-0.41 152 -25.82 152 -52 152 C-52 151.67 -52 151.34 -52 151 C-51.38327423 150.99413376 -50.76654846 150.98826752 -50.13113403 150.98222351 C-43.67371874 150.91796046 -37.21678674 150.83345819 -30.75976562 150.73754883 C-28.35455728 150.70443036 -25.94927366 150.67635833 -23.54394531 150.65356445 C-20.07324341 150.61977759 -16.60322327 150.56744905 -13.1328125 150.51171875 C-12.06886261 150.50532883 -11.00491272 150.4989389 -9.90872192 150.49235535 C-0.37794913 150.30745574 7.47194115 148.62077549 15.2109375 142.890625 C20.31365885 137.49822952 21.69130689 132.19204305 22.22900391 125.02490234 C22.34158759 123.72431413 22.34158759 123.72431413 22.45644569 122.3974514 C23.29307013 111.81183533 23.32842968 101.21398742 23.3359375 90.6015625 C23.34238432 88.42491575 23.34911398 86.24826981 23.35610962 84.07162476 C23.36796521 79.55554184 23.37180154 75.03953484 23.37060547 70.5234375 C23.3704003 64.74227195 23.39795692 58.96158708 23.43214989 53.18053627 C23.45436346 48.70583855 23.45844509 44.23125891 23.45738602 39.75651169 C23.4597405 37.62348106 23.46855536 35.49044711 23.48405075 33.35747147 C23.50364387 30.38851642 23.49790409 27.42063238 23.48583984 24.45166016 C23.49707886 23.5789296 23.50831787 22.70619904 23.51989746 21.80702209 C23.46387734 16.38231706 22.58327913 13.32157148 19 9 C13.63408489 4.18382229 6.87772833 2.5550746 0 1 C0 0.67 0 0.34 0 0 Z " fill="#F9F9F9" transform="translate(218,0)"/>
<path d="M0 0 C0.85298376 3.67387495 1.10789471 7.0447393 1.0625 10.8125 C1.05347656 11.78832031 1.04445313 12.76414062 1.03515625 13.76953125 C1.02355469 14.50558594 1.01195313 15.24164063 1 16 C0.34 16 -0.32 16 -1 16 C-1 16.66 -1 17.32 -1 18 C-0.401875 18.0825 0.19625 18.165 0.8125 18.25 C3.5966296 19.20455872 4.43311142 20.57132271 6 23 C5.67 23.66 5.34 24.32 5 25 C4.0925 24.154375 3.185 23.30875 2.25 22.4375 C0.6541102 21.03180547 0.6541102 21.03180547 -1 20 C-3.20800528 20.21717352 -3.20800528 20.21717352 -5 21 C-8.48052073 17.51947927 -9.16404868 12.73705746 -10 8 C-11.32 8 -12.64 8 -14 8 C-13.979375 8.94875 -13.95875 9.8975 -13.9375 10.875 C-14 14 -14 14 -15 16 C-13.68 15.67 -12.36 15.34 -11 15 C-12.58358642 18.16717283 -13.45263699 19.73268318 -16.6875 21.3125 C-17.450625 21.539375 -18.21375 21.76625 -19 22 C-18.49396008 19.83125748 -18.00016187 18.00032373 -17 16 C-17.804375 15.7525 -18.60875 15.505 -19.4375 15.25 C-22 14 -22 14 -22.8125 11.875 C-22.874375 11.25625 -22.93625 10.6375 -23 10 C-21.68 10.33 -20.36 10.66 -19 11 C-18.34 9.68 -17.68 8.36 -17 7 C-16.01 7 -15.02 7 -14 7 C-14.061875 6.05125 -14.12375 5.1025 -14.1875 4.125 C-14.125625 3.09375 -14.06375 2.0625 -14 1 C-8.81640448 -2.45573035 -5.74221699 -2.27017881 0 0 Z " fill="#E8C1A3" transform="translate(36,30)"/>
<path d="M0 0 C0.66 0.66 1.32 1.32 2 2 C1.89637225 5.00520472 0.88866399 6.12443437 -1.125 8.375 C-3.89431338 10.90350352 -6.7285299 13.31154122 -9.64453125 15.66796875 C-10.09183594 16.10753906 -10.53914063 16.54710938 -11 17 C-11 17.66 -11 18.32 -11 19 C-6.32215477 18.54463453 -4.44956678 16.84087126 -1.3125 13.4375 C0.09073059 11.92578436 1.52132422 10.43800494 3 9 C3.66 9 4.32 9 5 9 C4.45276317 12.37462715 3.9451 14.08235 2 17 C1.60986284 18.9896995 1.26797351 20.99019869 1 23 C-1.10353495 23.0810206 -3.20795952 23.13919907 -5.3125 23.1875 C-6.48425781 23.22230469 -7.65601562 23.25710937 -8.86328125 23.29296875 C-12 23 -12 23 -13.87890625 21.6171875 C-15.16912298 19.75603863 -15.57207865 18.21092697 -16 16 C-16.33 15.34 -16.66 14.68 -17 14 C-17.07065617 11.95944995 -17.08421976 9.91665743 -17.0625 7.875 C-17.05347656 6.77929688 -17.04445313 5.68359375 -17.03515625 4.5546875 C-17.02355469 3.71164063 -17.01195313 2.86859375 -17 2 C-16.01 2 -15.02 2 -14 2 C-14 2.66 -14 3.32 -14 4 C-11.69 4.33 -9.38 4.66 -7 5 C-7.33 3.35 -7.66 1.7 -8 0 C-4.67679974 -1.10773342 -3.30835256 -0.93312508 0 0 Z " fill="#E37D2F" transform="translate(129,85)"/>
<path d="M0 0 C2.2386565 2.2386565 2.8996395 4.06570533 4 7 C4.33 7.66 4.66 8.32 5 9 C4.54625 9.350625 4.0925 9.70125 3.625 10.0625 C1.35338666 12.77096206 0.83201146 15.60795328 0 19 C-1.65 19.33 -3.3 19.66 -5 20 C-7 17 -7 17 -7 14 C-7.66 14 -8.32 14 -9 14 C-9 13.01 -9 12.02 -9 11 C-9.66 11 -10.32 11 -11 11 C-11.66 8.03 -12.32 5.06 -13 2 C-8.57630209 -0.94913194 -5.12205419 -1.52277287 0 0 Z " fill="#E6986F" transform="translate(213,18)"/>
<path d="M0 0 C2.5625 1.8125 2.5625 1.8125 4 5 C4.01571373 8.72939235 3.59261501 12.32192203 3 16 C-6.9975892 16.62054002 -6.9975892 16.62054002 -10.625 14.375 C-12.37958338 11.34435597 -13.07062883 9.53144128 -13 6 C-9.53408644 -0.03739782 -6.85115867 -1.19623405 0 0 Z " fill="#F2D2B8" transform="translate(191,86)"/>
<path d="M0 0 C1.05199859 3.32871197 0.97654538 6.04155358 0.625 9.5 C0.53476562 10.4384375 0.44453125 11.376875 0.3515625 12.34375 C0.04830252 14.63504759 -0.3812306 16.77662519 -1 19 C-1.66 19 -2.32 19 -3 19 C-3 19.66 -3 20.32 -3 21 C-6.14624993 21.26218749 -7.61837017 21.24754367 -10.3125 19.5 C-10.869375 19.005 -11.42625 18.51 -12 18 C-11.01 18 -10.02 18 -9 18 C-9.33 17.030625 -9.66 16.06125 -10 15.0625 C-11.21953959 10.72341347 -11.704318 6.47553968 -11 2 C-7.97861788 -2.10907968 -4.59200188 -0.97138501 0 0 Z " fill="#EA9A6F" transform="translate(62,76)"/>
<path d="M0 0 C0.639375 0.309375 1.27875 0.61875 1.9375 0.9375 C2.68 1.288125 3.4225 1.63875 4.1875 2 C5.05375 2.4640625 5.05375 2.4640625 5.9375 2.9375 C5.9375 4.5875 5.9375 6.2375 5.9375 7.9375 C5.2775 6.9475 4.6175 5.9575 3.9375 4.9375 C3.2775 4.9375 2.6175 4.9375 1.9375 4.9375 C1.2775 6.2575 0.6175 7.5775 -0.0625 8.9375 C-1.3825 8.9375 -2.7025 8.9375 -4.0625 8.9375 C-3.85753906 9.494375 -3.65257813 10.05125 -3.44140625 10.625 C-1.62371505 15.77367554 -0.55679453 20.50026016 -0.0625 25.9375 C-6.8125 25.1875 -6.8125 25.1875 -9.0625 22.9375 C-9.7225 22.9375 -10.3825 22.9375 -11.0625 22.9375 C-11.11645478 21.31286158 -11.15527195 19.68771459 -11.1875 18.0625 C-11.22230469 16.70511719 -11.22230469 16.70511719 -11.2578125 15.3203125 C-11.0625 12.9375 -11.0625 12.9375 -9.0625 10.9375 C-8.794375 10.009375 -8.52625 9.08125 -8.25 8.125 C-6.81709103 4.27877065 -4.62064037 -0.14001941 0 0 Z " fill="#2D373B" transform="translate(122.0625,64.0625)"/>
<path d="M0 0 C2.01822402 0.60927518 4.02416285 1.26480478 6 2 C6 1.34 6 0.68 6 0 C10.85514421 0.45164132 13.57562584 1.48050434 17 5 C18.60139957 8.66034187 19 10.97072833 19 15 C15.1863421 15.36320551 13.1673455 15.08209402 9.6875 13.375 C7 11 7 11 6.125 7.75 C6.08375 6.8425 6.0425 5.935 6 5 C0.98464948 5.32960216 0.98464948 5.32960216 -3 8 C-4.98 6.35 -6.96 4.7 -9 3 C-5.91223502 0.25532002 -4.11814532 -0.4902554 0 0 Z " fill="#EE802B" transform="translate(53,95)"/>
<path d="M0 0 C36.63 0 73.26 0 111 0 C111 0.33 111 0.66 111 1 C109.6605407 1.0154612 109.6605407 1.0154612 108.29402161 1.03123474 C99.7798657 1.13018666 91.26576318 1.23281757 82.75169849 1.33933926 C78.37704801 1.39394838 74.00239061 1.44725163 69.62768555 1.49731445 C46.65787065 1.71716009 46.65787065 1.71716009 23.69921875 2.41015625 C22.93027786 2.43887314 22.16133698 2.46759003 21.36909485 2.49717712 C17.42148935 2.69523541 13.54460889 3.14581641 9.64379883 3.78686523 C8.82897537 3.92076157 8.01415192 4.0546579 7.17463684 4.19261169 C4.38342833 5.22891765 3.49299555 6.45987664 2 9 C1.42562939 12.03883681 1.42562939 12.03883681 1.3125 15.25 C1.24675781 16.32765625 1.18101562 17.4053125 1.11328125 18.515625 C1.07589844 19.33546875 1.03851563 20.1553125 1 21 C0.67 21 0.34 21 0 21 C0 14.07 0 7.14 0 0 Z " fill="#858585" transform="translate(0,0)"/>
<path d="M0 0 C0.99 0.33 1.98 0.66 3 1 C2.071875 1.4021875 2.071875 1.4021875 1.125 1.8125 C-1.2995233 2.95556848 -1.2995233 2.95556848 -3 6 C-4.8990923 15.60779466 -4.22178622 26.03002226 -4.31640625 35.79296875 C-4.33701759 37.59329154 -4.35801503 39.39360994 -4.37937927 41.19392395 C-4.43416884 45.89719051 -4.48376541 50.60049756 -4.53222656 55.30383301 C-4.58275956 60.11730487 -4.63827842 64.93071904 -4.69335938 69.74414062 C-4.80041231 79.16271096 -4.90197118 88.58133171 -5 98 C-5.33 98 -5.66 98 -6 98 C-7.16892266 89.67766534 -7.14576588 81.39701939 -7.1328125 73.01171875 C-7.13348775 71.46149175 -7.13445961 69.91126485 -7.13571167 68.36103821 C-7.13717955 65.12259913 -7.13506436 61.88418778 -7.13037109 58.64575195 C-7.12468877 54.52748485 -7.12794914 50.40928316 -7.13394356 46.29101849 C-7.13758614 43.09167503 -7.1363935 39.89234665 -7.13381577 36.6930027 C-7.13315593 35.17619633 -7.13394129 33.65938853 -7.13629532 32.14258385 C-7.16563806 7.91766261 -7.16563806 7.91766261 -4.0625 2.8125 C-2 1 -2 1 0 0 Z " fill="#131313" transform="translate(7,3)"/>
<path d="M0 0 C0.66 0 1.32 0 2 0 C2 0.99 2 1.98 2 3 C2.7425 3.20625 3.485 3.4125 4.25 3.625 C7.83368332 5.41684166 9.03492182 7.56111318 11 11 C12.52395071 15.57185213 12.85658438 19.7968201 11.10546875 24.30078125 C10.12928457 26.24280136 9.11225117 28.13300697 8 30 C7.67 30 7.34 30 7 30 C6.81824219 28.95199219 6.63648438 27.90398438 6.44921875 26.82421875 C6.19592942 25.44519905 5.94198904 24.06629881 5.6875 22.6875 C5.56955078 21.99720703 5.45160156 21.30691406 5.33007812 20.59570312 C4.39606624 15.57021531 4.39606624 15.57021531 1 12 C-1.09989652 10.82425289 -1.09989652 10.82425289 -3 10 C-3 8.35 -3 6.7 -3 5 C-2.01 4.67 -1.02 4.34 0 4 C0 2.68 0 1.36 0 0 Z " fill="#F1EFEE" transform="translate(217,25)"/>
<path d="M0 0 C2.31 0 4.62 0 7 0 C7.061875 0.94875 7.12375 1.8975 7.1875 2.875 C7.63954615 6.12482321 7.63954615 6.12482321 10.125 7.25 C11.07375 7.4975 12.0225 7.745 13 8 C14.258125 8.37125 15.51625 8.7425 16.8125 9.125 C17.864375 9.41375 18.91625 9.7025 20 10 C20.33 9.34 20.66 8.68 21 8 C21 12.29 21 16.58 21 21 C17.6875 20.9375 17.6875 20.9375 14 20 C12.125 16.625 12.125 16.625 11 13 C10.67 12.01 10.34 11.02 10 10 C6.7 10.33 3.4 10.66 0 11 C0 7.37 0 3.74 0 0 Z " fill="#E8976B" transform="translate(52,100)"/>
<path d="M0 0 C2.4375 0.375 2.4375 0.375 5 1 C5.33 1.66 5.66 2.32 6 3 C6.66 3 7.32 3 8 3 C8 3.66 8 4.32 8 5 C7.01 5.495 7.01 5.495 6 6 C5.91666643 10.8333472 6.04738513 15.23692563 7 20 C9.31 20.33 11.62 20.66 14 21 C13.34 21.33 12.68 21.66 12 22 C11.65657551 23.33076989 11.32380126 24.66431979 11 26 C10.34 26.66 9.68 27.32 9 28 C5.70285207 27.67028521 4.3773161 27.3773161 2 25 C1.15960775 21.78370842 0.78298092 18.47623116 0.3125 15.1875 C0.17005859 14.28451172 0.02761719 13.38152344 -0.11914062 12.45117188 C-0.24869141 11.57396484 -0.37824219 10.69675781 -0.51171875 9.79296875 C-0.62990967 8.9939917 -0.74810059 8.19501465 -0.86987305 7.37182617 C-1.01385103 4.7475371 -0.61396303 2.54654801 0 0 Z " fill="#EB9D74" transform="translate(32,91)"/>
<path d="M0 0 C1.82910376 3.18399544 2.44078552 5.91969813 2.8125 9.5625 C2.92207031 10.51253906 3.03164062 11.46257813 3.14453125 12.44140625 C3 15 3 15 1.63671875 16.83984375 C0 18 0 18 -2 18 C-2.33 16.02 -2.66 14.04 -3 12 C-3.66 12 -4.32 12 -5 12 C-5.33 14.97 -5.66 17.94 -6 21 C-8.31 21 -10.62 21 -13 21 C-13.33 20.34 -13.66 19.68 -14 19 C-11.69 19 -9.38 19 -7 19 C-7 18.01 -7 17.02 -7 16 C-7.78375 15.87625 -8.5675 15.7525 -9.375 15.625 C-12 15 -12 15 -14 13 C-12.35 11.35 -10.7 9.7 -9 8 C-12.3 7.67 -15.6 7.34 -19 7 C-19 6.67 -19 6.34 -19 6 C-11.55614973 5.87165775 -11.55614973 5.87165775 -7.75 6.75 C-4.8856322 7.32147777 -4.8856322 7.32147777 -2.6875 5.25 C-0.832004 3.02305827 -0.832004 3.02305827 0 0 Z " fill="#EF8634" transform="translate(221,40)"/>
<path d="M0 0 C0.33 0 0.66 0 1 0 C1.01458252 1.29623291 1.02916504 2.59246582 1.04418945 3.92797852 C1.10235099 8.75702908 1.17958291 13.58562207 1.26245117 18.41430664 C1.29561661 20.50049387 1.32367443 22.58676902 1.34643555 24.6730957 C1.38013569 27.67957879 1.43245968 30.68526225 1.48828125 33.69140625 C1.49467117 34.61772354 1.5010611 35.54404083 1.50764465 36.49842834 C1.65675717 43.13050241 2.41885393 48.37873249 7.26171875 53.296875 C10.3851392 55.2395445 13.27666788 56.24996667 16.8125 57.25 C17.97394531 57.58515625 19.13539062 57.9203125 20.33203125 58.265625 C21.21246094 58.50796875 22.09289062 58.7503125 23 59 C23 59.33 23 59.66 23 60 C15.41 60 7.82 60 0 60 C0 40.2 0 20.4 0 0 Z " fill="#F6F6F6" transform="translate(0,92)"/>
<path d="M0 0 C1 1 1 1 1.09765625 3.50390625 C1.08605469 4.51324219 1.07445312 5.52257813 1.0625 6.5625 C1.05347656 7.57441406 1.04445313 8.58632813 1.03515625 9.62890625 C1.02355469 10.41136719 1.01195312 11.19382812 1 12 C0.34 12 -0.32 12 -1 12 C-1 12.66 -1 13.32 -1 14 C-0.401875 14.0825 0.19625 14.165 0.8125 14.25 C3.5966296 15.20455872 4.43311142 16.57132271 6 19 C5.67 19.66 5.34 20.32 5 21 C4.0925 20.154375 3.185 19.30875 2.25 18.4375 C0.6541102 17.03180547 0.6541102 17.03180547 -1 16 C-3.20800528 16.21717352 -3.20800528 16.21717352 -5 17 C-8.48052073 13.51947927 -9.16404868 8.73705746 -10 4 C-6.62005298 0.90976272 -4.6589257 -0.64707301 0 0 Z " fill="#B17358" transform="translate(36,34)"/>
<path d="M0 0 C0.99 0 1.98 0 3 0 C3.66 1.98 4.32 3.96 5 6 C4.21625 6.226875 3.4325 6.45375 2.625 6.6875 C-0.10182728 7.76954878 -0.10182728 7.76954878 -1.3125 10.0625 C-2.25266448 14.0795664 -2.13831387 17.89668847 -2 22 C-2 22.99 -2 23.98 -2 25 C-3.98 25 -5.96 25 -8 25 C-10.27141454 19.60539047 -10.20413361 14.73842251 -10 9 C-8.02 9 -6.04 9 -4 9 C-3.814375 7.7934375 -3.814375 7.7934375 -3.625 6.5625 C-3.41875 5.716875 -3.2125 4.87125 -3 4 C-2.34 3.67 -1.68 3.34 -1 3 C-0.67 2.01 -0.34 1.02 0 0 Z " fill="#ED8839" transform="translate(194,105)"/>
<path d="M0 0 C0.66 3.63 1.32 7.26 2 11 C0.35 11 -1.3 11 -3 11 C-2.34 14.96 -1.68 18.92 -1 23 C-2.65 23 -4.3 23 -6 23 C-6.33 24.65 -6.66 26.3 -7 28 C-7.33 28 -7.66 28 -8 28 C-8.05444001 24.99975053 -8.0938836 22.00050961 -8.125 19 C-8.14175781 18.16082031 -8.15851563 17.32164063 -8.17578125 16.45703125 C-8.2184138 10.95743214 -7.70532225 6.24714539 -6 1 C-4 0 -4 0 0 0 Z " fill="#F08939" transform="translate(193,23)"/>
<path d="M0 0 C2.27024968 -0.08097324 4.54132075 -0.13917704 6.8125 -0.1875 C8.07707031 -0.22230469 9.34164062 -0.25710937 10.64453125 -0.29296875 C14 0 14 0 15.90625 1.375 C17.15320561 3.22761976 17.62229936 4.8093363 18 7 C14.53767506 9.30821663 13.08201684 9.27000989 9 9.25 C7.948125 9.25515625 6.89625 9.2603125 5.8125 9.265625 C3 9 3 9 0 7 C-0.1875 3.375 -0.1875 3.375 0 0 Z " fill="#EF8736" transform="translate(193,123)"/>
<path d="M0 0 C0.66 0.66 1.32 1.32 2 2 C1.89478441 5.05125216 0.83666711 6.18666616 -1.1875 8.5 C-4.02023122 11.0179833 -6.7988459 12.989973 -10 15 C-10.66 14.34 -11.32 13.68 -12 13 C-12 11.68 -12 10.36 -12 9 C-13.32 8.67 -14.64 8.34 -16 8 C-16 7.34 -16 6.68 -16 6 C-15.34 6 -14.68 6 -14 6 C-14 5.34 -14 4.68 -14 4 C-11.69 4.33 -9.38 4.66 -7 5 C-7.33 3.35 -7.66 1.7 -8 0 C-4.67679974 -1.10773342 -3.30835256 -0.93312508 0 0 Z " fill="#E97D2A" transform="translate(129,85)"/>
<path d="M0 0 C2.9719385 1.12451727 5.33440687 2.22293791 8 4 C8.29296875 6.8203125 8.29296875 6.8203125 8.1875 10.125 C8.16042969 11.22070312 8.13335937 12.31640625 8.10546875 13.4453125 C8.07066406 14.28835937 8.03585938 15.13140625 8 16 C6.02 16.99 6.02 16.99 4 18 C1.71636622 15.71636622 1.2847151 14.25204532 0.375 11.1875 C0.11460937 10.33542969 -0.14578125 9.48335937 -0.4140625 8.60546875 C-1.00842615 5.96253173 -1.17899385 3.69903878 -1 1 C-0.67 0.67 -0.34 0.34 0 0 Z " fill="#F7B897" transform="translate(197,97)"/>
<path d="M0 0 C1.66666667 0 3.33333333 0 5 0 C4.88601335 1.62580966 4.75844341 3.25067157 4.625 4.875 C4.55539063 5.77992187 4.48578125 6.68484375 4.4140625 7.6171875 C4 10 4 10 2 12 C1.29289322 13.64991582 0.62056011 15.31562256 0 17 C-0.99 17 -1.98 17 -3 17 C-3.50559908 15.56445975 -4.0042749 14.1264798 -4.5 12.6875 C-4.7784375 11.88699219 -5.056875 11.08648437 -5.34375 10.26171875 C-6 8 -6 8 -6 5 C-4.68 5 -3.36 5 -2 5 C-1.34 3.35 -0.68 1.7 0 0 Z " fill="#987669" transform="translate(124,68)"/>
<path d="M0 0 C3.44008056 0.25962872 6.2933373 0.67384798 9.4375 2.125 C11 4 11 4 11.375 7.25 C10.98744131 11.12558689 10.20428289 14.31188366 9 18 C8.01 18 7.02 18 6 18 C5.98582031 17.31292969 5.97164062 16.62585938 5.95703125 15.91796875 C5.81301725 13.19727177 5.59545102 10.66025239 5 8 C2.12950744 5.43166455 0.83220184 5 -3 5 C-1.125 1.125 -1.125 1.125 0 0 Z " fill="#2E3A40" transform="translate(199,93)"/>
<path d="M0 0 C1.32 0 2.64 0 4 0 C4.08107646 2.75059381 4.14052813 5.49879021 4.1875 8.25 C4.22520508 9.41595703 4.22520508 9.41595703 4.26367188 10.60546875 C4.30804894 14.06687959 4.29333278 16.40788553 2.73828125 19.546875 C1 21 1 21 -3 21 C-3 20.34 -3 19.68 -3 19 C-3.66 18.67 -4.32 18.34 -5 18 C-4.01 17.34 -3.02 16.68 -2 16 C-1.63441883 12.64496524 -1.63441883 12.64496524 -1.8125 8.875 C-1.83957031 7.59367187 -1.86664063 6.31234375 -1.89453125 4.9921875 C-1.94673828 3.51105469 -1.94673828 3.51105469 -2 2 C-1.34 2 -0.68 2 0 2 C0 1.34 0 0.68 0 0 Z " fill="#C8927B" transform="translate(45,44)"/>
<path d="M0 0 C1.32 0 2.64 0 4 0 C4.309375 0.804375 4.61875 1.60875 4.9375 2.4375 C5.76335345 4.89080405 5.76335345 4.89080405 7 6 C7.375 8.375 7.375 8.375 7 11 C4.625 12.5625 4.625 12.5625 2 14 C-0.59423553 17.50221796 -0.57838198 21.7838198 -1 26 C-3.58926331 23.41073669 -3.37398043 21.97294721 -3.625 18.375 C-3.69976563 17.37210938 -3.77453125 16.36921875 -3.8515625 15.3359375 C-3.90054687 14.56507812 -3.94953125 13.79421875 -4 13 C-2.68 12.67 -1.36 12.34 0 12 C0.33 10.68 0.66 9.36 1 8 C0.34 8 -0.32 8 -1 8 C-0.67 5.36 -0.34 2.72 0 0 Z " fill="#F8F4F0" transform="translate(22,38)"/>
<path d="M0 0 C-0.3125 2.875 -0.3125 2.875 -1 6 C-4 8 -4 8 -7 8 C-7 8.66 -7 9.32 -7 10 C-5.35 9.34 -3.7 8.68 -2 8 C-2 9.32 -2 10.64 -2 12 C-1.34 12 -0.68 12 0 12 C0 13.98 0 15.96 0 18 C-0.66 18 -1.32 18 -2 18 C-2.33 18.66 -2.66 19.32 -3 20 C-6 19 -6 19 -8 16 C-8.78189215 11.2268212 -8.41655771 7.77757438 -6.125 3.5 C-3.15 0 -3.15 0 0 0 Z " fill="#EE8A3D" transform="translate(29,49)"/>
<path d="M0 0 C1.5 1.1875 1.5 1.1875 3 3 C3.1875 5.6875 3.1875 5.6875 3 8 C-0.4766338 10.14336161 -3.21229195 10.21277626 -7.25 10.125 C-8.32765625 10.10695313 -9.4053125 10.08890625 -10.515625 10.0703125 C-11.74539062 10.03550781 -11.74539062 10.03550781 -13 10 C-12.01 9.34 -11.02 8.68 -10 8 C-11.65 6.68 -13.3 5.36 -15 4 C-14.67 3.01 -14.34 2.02 -14 1 C-13.01 1.33 -12.02 1.66 -11 2 C-11 2.66 -11 3.32 -11 4 C-8.525 4.99 -8.525 4.99 -6 6 C-2.47618313 3.45395403 -2.47618313 3.45395403 0 0 Z " fill="#EE8737" transform="translate(63,113)"/>
<path d="M0 0 C6.62103741 0.49657781 11.22878635 3.56542458 16.09619141 7.84155273 C19.04870476 12.73981707 18.49278166 17.4732069 18.390625 23.08203125 C18.38496521 24.25134689 18.37930542 25.42066254 18.37347412 26.62541199 C18.35110936 30.35486025 18.30091 34.0833428 18.25 37.8125 C18.22993525 40.34308507 18.21168445 42.87368522 18.1953125 45.40429688 C18.15124409 51.60319328 18.08432971 57.80152764 18 64 C17.67 64 17.34 64 17 64 C16.99635437 63.38914047 16.99270874 62.77828094 16.98895264 62.14891052 C16.94704045 55.77296329 16.87763362 49.39773005 16.79248047 43.0222168 C16.76430953 40.6450109 16.7430758 38.26771202 16.72900391 35.89038086 C16.70752151 32.46680221 16.66084127 29.04433711 16.609375 25.62109375 C16.60814636 24.56353378 16.60691772 23.50597382 16.60565186 22.41636658 C16.48098528 16.09087508 15.80435852 12.12776388 12 7 C9.04278591 4.92350729 9.04278591 4.92350729 5.75 3.5625 C4.67234375 3.06878906 3.5946875 2.57507813 2.484375 2.06640625 C1.66453125 1.71449219 0.8446875 1.36257812 0 1 C0 0.67 0 0.34 0 0 Z " fill="#050505" transform="translate(223,2)"/>
<path d="M0 0 C2.2386565 2.2386565 2.8996395 4.06570533 4 7 C4.33 7.66 4.66 8.32 5 9 C4.01 9.99 3.02 10.98 2 12 C1.67 11.01 1.34 10.02 1 9 C1.33 8.34 1.66 7.68 2 7 C1.01 7 0.02 7 -1 7 C-1 5.68 -1 4.36 -1 3 C-3.64 3.33 -6.28 3.66 -9 4 C-9 5.98 -9 7.96 -9 10 C-9.66 10 -10.32 10 -11 10 C-11.66 7.36 -12.32 4.72 -13 2 C-8.57630209 -0.94913194 -5.12205419 -1.52277287 0 0 Z " fill="#393F42" transform="translate(213,18)"/>
<path d="M0 0 C0 1.32 0 2.64 0 4 C-0.61488281 4.11214844 -1.22976562 4.22429687 -1.86328125 4.33984375 C-4.50173901 4.98367794 -6.63515241 5.65165884 -9 7 C-10.68622129 9.87460581 -11.3417662 12.75584771 -12 16 C-12.33 16.99 -12.66 17.98 -13 19 C-13.66 19 -14.32 19 -15 19 C-16.3271261 15.0186217 -16.06915913 11.14954773 -16 7 C-15.34 7.66 -14.68 8.32 -14 9 C-13.29875 8.2575 -12.5975 7.515 -11.875 6.75 C-4.81818182 0 -4.81818182 0 0 0 Z " fill="#F4EFEB" transform="translate(53,90)"/>
<path d="M0 0 C2.98699032 3.30560262 3.39351208 5.66336275 3.5625 10.0625 C3.72888199 14.83342179 3.72888199 14.83342179 6 19 C6 19.99 6 20.98 6 22 C2.15521125 20.54163185 0.8177085 18.63541701 -1 15 C-2.58252177 10.68403153 -2.74612416 5.81867765 -1 1.5625 C-0.67 1.046875 -0.34 0.53125 0 0 Z " fill="#F8F7F5" transform="translate(109,83)"/>
<path d="M0 0 C-0.5554983 5.92531524 -3.87444438 11.16168162 -8.3125 15 C-8.869375 15.33 -9.42625 15.66 -10 16 C-10.66 15.67 -11.32 15.34 -12 15 C-11.21769326 11.08846628 -9.7529462 7.57331341 -8 4 C-7.01 3.67 -6.02 3.34 -5 3 C-5 2.34 -5 1.68 -5 1 C-2 0 -2 0 0 0 Z " fill="#BC907E" transform="translate(142,90)"/>
<path d="M0 0 C0.66 0.33 1.32 0.66 2 1 C2 2.32 2 3.64 2 5 C1.34 5 0.68 5 0 5 C0 5.66 0 6.32 0 7 C1.65 7.33 3.3 7.66 5 8 C5.79953138 11.28696233 6.09658936 12.71023192 5 16 C4.34 16 3.68 16 3 16 C3.33 17.65 3.66 19.3 4 21 C3.01 20.67 2.02 20.34 1 20 C0.855625 19.21625 0.71125 18.4325 0.5625 17.625 C0.12201075 15.03578982 0.12201075 15.03578982 -1 13 C-1.0962762 10.98103136 -1.12981825 8.9587571 -1.125 6.9375 C-1.12757812 5.85339844 -1.13015625 4.76929687 -1.1328125 3.65234375 C-1 1 -1 1 0 0 Z " fill="#EF8533" transform="translate(113,86)"/>
<path d="M0 0 C6.27 0 12.54 0 19 0 C19 0.33 19 0.66 19 1 C18.02160156 1.14695313 18.02160156 1.14695313 17.0234375 1.296875 C11.38000545 2.26241795 7.44905046 3.34949706 3 7 C1.64908472 9.70183055 1.66141942 12.11808206 1.4375 15.125 C1.35371094 16.22070312 1.26992188 17.31640625 1.18359375 18.4453125 C1.12300781 19.28835937 1.06242188 20.13140625 1 21 C0.67 21 0.34 21 0 21 C0 14.07 0 7.14 0 0 Z " fill="#F6F6F6" transform="translate(0,0)"/>
<path d="M0 0 C4.84380135 0.44034558 6.76409803 1.42934955 10 5 C10.99 5.33 11.98 5.66 13 6 C12.67 9.3 12.34 12.6 12 16 C10 15 10 15 8.875 11.75 C7.01604086 7.02960638 3.34765489 5.24095276 -1 3 C-0.67 2.01 -0.34 1.02 0 0 Z " fill="#F7EEE7" transform="translate(61,91)"/>
<path d="M0 0 C2.31 0 4.62 0 7 0 C7 0.99 7 1.98 7 3 C7.66 3 8.32 3 9 3 C9 3.99 9 4.98 9 6 C8.071875 6.433125 7.14375 6.86625 6.1875 7.3125 C3.48254066 8.7445373 2.0458389 9.85186916 0 12 C-0.66 12 -1.32 12 -2 12 C-1.44687265 7.97007218 -0.8441938 3.97977076 0 0 Z " fill="#F8F5F2" transform="translate(197,29)"/>
<path d="M0 0 C2.625 0.375 2.625 0.375 5 1 C6.14947895 4.55293493 6.0868937 5.79976669 4.5625 9.3125 C3.7890625 10.6428125 3.7890625 10.6428125 3 12 C2.34 12 1.68 12 1 12 C-1.50116925 8.6330414 -2.56753383 6.19975031 -2 2 C-1.34 1.34 -0.68 0.68 0 0 Z " fill="#4E585D" transform="translate(45,30)"/>
<path d="M0 0 C4.70588235 0.70588235 4.70588235 0.70588235 6 2 C5.53017945 8.34257749 5.53017945 8.34257749 3.4375 10.9375 C2.963125 11.288125 2.48875 11.63875 2 12 C-2.04832714 6.72490706 -2.04832714 6.72490706 -1.8125 3.1875 C-1 1 -1 1 0 0 Z " fill="#565756" transform="translate(79,87)"/>
<path d="M0 0 C0.33 0.99 0.66 1.98 1 3 C-0.11375 3.28875 -1.2275 3.5775 -2.375 3.875 C-6.00291092 4.69241329 -6.00291092 4.69241329 -8 7 C-9.32 7 -10.64 7 -12 7 C-12.1875 4.125 -12.1875 4.125 -12 1 C-7.78782903 -1.80811398 -4.38258284 -3.13041631 0 0 Z " fill="#303B40" transform="translate(34,30)"/>
<path d="M0 0 C2.625 0.375 2.625 0.375 5 1 C6.14947895 4.55293493 6.0868937 5.79976669 4.5625 9.3125 C3.7890625 10.6428125 3.7890625 10.6428125 3 12 C2.34 12 1.68 12 1 12 C-1.50116925 8.6330414 -2.56753383 6.19975031 -2 2 C-1.34 1.34 -0.68 0.68 0 0 Z " fill="#4C5050" transform="translate(178,17)"/>
<path d="M0 0 C4.455 0.99 4.455 0.99 9 2 C9 3.32 9 4.64 9 6 C9.99 7.485 9.99 7.485 11 9 C3.65060241 10.3253012 3.65060241 10.3253012 1 9 C-0.49912601 6.00174798 -0.186287 3.29107031 0 0 Z " fill="#ECD1BC" transform="translate(186,8)"/>
<path d="M0 0 C0.99 0.33 1.98 0.66 3 1 C2.071875 1.4021875 2.071875 1.4021875 1.125 1.8125 C-1.2995233 2.95556848 -1.2995233 2.95556848 -3 6 C-3.42713982 8.69263189 -3.42713982 8.69263189 -3.5625 11.7265625 C-3.63726562 12.8403125 -3.71203125 13.9540625 -3.7890625 15.1015625 C-3.93015354 17.45830548 -4.07077548 19.81507659 -4.2109375 22.171875 C-4.28570312 23.28304688 -4.36046875 24.39421875 -4.4375 25.5390625 C-4.49808594 26.56209473 -4.55867187 27.58512695 -4.62109375 28.63916016 C-4.74613281 29.4182373 -4.87117187 30.19731445 -5 31 C-5.66 31.33 -6.32 31.66 -7 32 C-7.31730096 8.16717254 -7.31730096 8.16717254 -4.0625 2.8125 C-2 1 -2 1 0 0 Z " fill="#202020" transform="translate(7,3)"/>
<path d="M0 0 C1.67542976 0.28604898 3.34385343 0.61781233 5 1 C6.06351675 4.38391693 6.21442982 5.5804634 4.5625 8.8125 C4.046875 9.534375 3.53125 10.25625 3 11 C0 10 0 10 -1.25 8.25 C-2.18378811 5.44863567 -1.83266111 3.80076917 -1 1 C-0.67 0.67 -0.34 0.34 0 0 Z " fill="#8D8379" transform="translate(201,78)"/>
<path d="M0 0 C1.9375 1.0625 1.9375 1.0625 4 3 C4.91378144 6.58985565 5.40702579 8.94173294 4.0625 12.4375 C3.711875 12.953125 3.36125 13.46875 3 14 C2.566875 13.525625 2.13375 13.05125 1.6875 12.5625 C-0.02309613 10.76313043 -0.02309613 10.76313043 -3 10 C-2.39009109 6.44219804 -1.4216319 3.3171411 0 0 Z " fill="#323A3E" transform="translate(128,74)"/>
<path d="M0 0 C0.32613618 4.67461851 -0.29417212 7.16674383 -3 11 C-4.70840281 9.36587557 -5.93453047 8.13093906 -7 6 C-7.039992 4.00039988 -7.04346799 1.99952758 -7 0 C-4.3333581 -1.33332095 -2.83319697 -0.67102033 0 0 Z " fill="#353D41" transform="translate(141,63)"/>
<path d="M0 0 C3.3 0.33 6.6 0.66 10 1 C7.49273047 6.01453907 5.87887159 6.5605642 1 9 C0.34 9 -0.32 9 -1 9 C-0.67 6.03 -0.34 3.06 0 0 Z " fill="#EE7E27" transform="translate(202,47)"/>
<path d="M0 0 C2.31 0.66 4.62 1.32 7 2 C5.68 4.31 4.36 6.62 3 9 C5.64 9 8.28 9 11 9 C10.67 9.66 10.34 10.32 10 11 C7.9375 11.625 7.9375 11.625 6 12 C7.32 12.66 8.64 13.32 10 14 C3.25 14.125 3.25 14.125 1 13 C1.33 9.7 1.66 6.4 2 3 C1.34 3 0.68 3 0 3 C0 2.01 0 1.02 0 0 Z " fill="#E6853A" transform="translate(27,58)"/>
<path d="M0 0 C2.31 0 4.62 0 7 0 C7 1.32 7 2.64 7 4 C6.360625 4.28875 5.72125 4.5775 5.0625 4.875 C2.84793921 5.82823451 2.84793921 5.82823451 2 8 C2.99 8 3.98 8 5 8 C5.33 8.99 5.66 9.98 6 11 C4.02 11 2.04 11 0 11 C0 7.37 0 3.74 0 0 Z " fill="#535F63" transform="translate(52,100)"/>
<path d="M0 0 C0.99 0 1.98 0 3 0 C3.66 1.98 4.32 3.96 5 6 C4.21625 6.226875 3.4325 6.45375 2.625 6.6875 C-0.21875 7.78125 -0.21875 7.78125 -1.3125 10.625 C-1.539375 11.40875 -1.76625 12.1925 -2 13 C-2.99 12.67 -3.98 12.34 -5 12 C-4.6875 8.625 -4.6875 8.625 -4 5 C-3.01 4.34 -2.02 3.68 -1 3 C-0.67 2.01 -0.34 1.02 0 0 Z " fill="#3E4141" transform="translate(194,105)"/>
<path d="M0 0 C0.33 1.32 0.66 2.64 1 4 C-1.97 3.67 -4.94 3.34 -8 3 C-8.33 4.98 -8.66 6.96 -9 9 C-9.66 9 -10.32 9 -11 9 C-11.48176187 2.6166552 -11.48176187 2.6166552 -9.4375 0 C-6.03627009 -1.39537637 -3.5344893 -0.74768043 0 0 Z " fill="#454848" transform="translate(62,76)"/>
<path d="M0 0 C1.32 0 2.64 0 4 0 C4.66 3.63 5.32 7.26 6 11 C4.02 11 2.04 11 0 11 C0.33 8.69 0.66 6.38 1 4 C0.34 4 -0.32 4 -1 4 C-0.67 2.68 -0.34 1.36 0 0 Z " fill="#596467" transform="translate(189,23)"/>
<path d="M0 0 C0.33 1.32 0.66 2.64 1 4 C-0.4562545 4.67119549 -1.91507867 5.33681807 -3.375 6 C-4.59316406 6.556875 -4.59316406 6.556875 -5.8359375 7.125 C-8 8 -8 8 -10 8 C-9.67372714 4.98197607 -9.38918764 3.40308719 -7.25 1.1875 C-4.62847443 -0.19608294 -2.92325122 -0.24360427 0 0 Z " fill="#363A3A" transform="translate(36,34)"/>
<path d="M0 0 C0.66 0 1.32 0 2 0 C1.25 4.75 1.25 4.75 -1 7 C-0.01 7.33 0.98 7.66 2 8 C2 8.99 2 9.98 2 11 C-1.34373475 10.44271087 -4.03312999 9.64826111 -7 8 C-7 7.01 -7 6.02 -7 5 C-6.01 5.33 -5.02 5.66 -4 6 C-3.38125 5.01 -2.7625 4.02 -2.125 3 C-1.42375 2.01 -0.7225 1.02 0 0 Z " fill="#EE9A58" transform="translate(143,72)"/>
<path d="M0 0 C0.66 0 1.32 0 2 0 C2.433125 1.2065625 2.433125 1.2065625 2.875 2.4375 C3.73262568 5.1326468 3.73262568 5.1326468 6 6 C6 7.65 6 9.3 6 11 C4.125 12.0625 4.125 12.0625 2 13 C1.34 12.67 0.68 12.34 0 12 C0 8.04 0 4.08 0 0 Z " fill="#EFEFEF" transform="translate(132,76)"/>
<path d="M0 0 C-0.3125 1.9375 -0.3125 1.9375 -1 4 C-1.99 4.33 -2.98 4.66 -4 5 C-3.67 5.99 -3.34 6.98 -3 8 C-5.375 8.625 -5.375 8.625 -8 9 C-8.66 8.34 -9.32 7.68 -10 7 C-9.34 7 -8.68 7 -8 7 C-8 5.02 -8 3.04 -8 1 C-5.29120665 -0.35439668 -2.99066732 -0.06501451 0 0 Z " fill="#CF8A66" transform="translate(212,21)"/>
<path d="M0 0 C1.98 0.495 1.98 0.495 4 1 C4.66 3.64 5.32 6.28 6 9 C3.625 9.125 3.625 9.125 1 9 C-1 7 -1 7 -1.1875 3.9375 C-1 1 -1 1 0 0 Z " fill="#F08029" transform="translate(187,45)"/>
<path d="M0 0 C2.9719385 1.12451727 5.33440687 2.22293791 8 4 C7.25 5.9375 7.25 5.9375 6 8 C3.875 8.75 3.875 8.75 2 9 C0.4375 6.1875 0.4375 6.1875 -1 3 C-0.67 2.01 -0.34 1.02 0 0 Z " fill="#ECB395" transform="translate(197,97)"/>
<path d="M0 0 C3 2 3 2 3.6875 4.125 C3.790625 4.74375 3.89375 5.3625 4 6 C4.66 4.68 5.32 3.36 6 2 C6.33 5.3 6.66 8.6 7 12 C5.68 12.33 4.36 12.66 3 13 C0.75 11.5625 0.75 11.5625 -1 10 C-0.34 10 0.32 10 1 10 C1.11320856 4.91696314 1.11320856 4.91696314 0 0 Z " fill="#F0CEB4" transform="translate(45,77)"/>
<path d="M0 0 C0.33 0 0.66 0 1 0 C1.39253254 4.44870215 0.15305957 7.14243493 -2 11 C-2.99 11 -3.98 11 -5 11 C-5.33 8.36 -5.66 5.72 -6 3 C-4.02 2.67 -2.04 2.34 0 2 C0 1.34 0 0.68 0 0 Z " fill="#B78775" transform="translate(126,74)"/>
<path d="M0 0 C0.99 0 1.98 0 3 0 C3.33 2.64 3.66 5.28 4 8 C2.68 8 1.36 8 0 8 C0 10.64 0 13.28 0 16 C-0.33 16 -0.66 16 -1 16 C-1.02685095 13.52076199 -1.04676547 11.0418116 -1.0625 8.5625 C-1.07506836 7.50192383 -1.07506836 7.50192383 -1.08789062 6.41992188 C-1.09653588 4.61306441 -1.05220011 2.80612397 -1 1 C-0.67 0.67 -0.34 0.34 0 0 Z " fill="#FAC29C" transform="translate(184,106)"/>
<path d="M0 0 C3.625 0.375 3.625 0.375 7 1 C7 1.99 7 2.98 7 4 C5 6 5 6 3 7 C0.375 6.0625 0.375 6.0625 -2 5 C-2 2 -2 2 0 0 Z " fill="#3C4245" transform="translate(199,93)"/>
<path d="M0 0 C0.66 0 1.32 0 2 0 C2 1.32 2 2.64 2 4 C0.88625 4.28875 -0.2275 4.5775 -1.375 4.875 C-5.00291092 5.69241329 -5.00291092 5.69241329 -7 8 C-9.625 8.125 -9.625 8.125 -12 8 C-12 9.98 -12 11.96 -12 14 C-12.99 13.67 -13.98 13.34 -15 13 C-15 11.02 -15 9.04 -15 7 C-13.906875 6.896875 -12.81375 6.79375 -11.6875 6.6875 C-8.08001834 6.37456435 -8.08001834 6.37456435 -6.4375 4.4375 C-5 3 -5 3 -1.8125 2.8125 C-0.4203125 2.9053125 -0.4203125 2.9053125 1 3 C0.67 2.01 0.34 1.02 0 0 Z " fill="#B98256" transform="translate(34,30)"/>
<path d="M0 0 C0.66 0.99 1.32 1.98 2 3 C5.82609414 7.38875504 9.77145815 9.67764519 15 12 C12.71251282 12.77947781 11.38673518 13.1114843 9.03515625 12.43359375 C4.13473734 9.9591248 1.23321402 7.44566928 -2 3 C-1 1 -1 1 0 0 Z " fill="#2D2D2D" transform="translate(4,137)"/>
<path d="M0 0 C0 4.29 0 8.58 0 13 C-0.99 12.67 -1.98 12.34 -3 12 C-3.33 8.37 -3.66 4.74 -4 1 C-2 0 -2 0 0 0 Z " fill="#B46D4E" transform="translate(48,46)"/>
<path d="M0 0 C1.32 0 2.64 0 4 0 C4.33 0.66 4.66 1.32 5 2 C6.32 2 7.64 2 9 2 C9.33 1.34 9.66 0.68 10 0 C11.65 0.33 13.3 0.66 15 1 C14 2 13 3 12 4 C12 4.33 12 4.66 12 5 C7.45194365 5.17835515 4.1205746 4.99785435 0 3 C0 2.01 0 1.02 0 0 Z " fill="#F18939" transform="translate(203,35)"/>
<path d="M0 0 C1.2065625 0.0309375 1.2065625 0.0309375 2.4375 0.0625 C2.1075 1.3825 1.7775 2.7025 1.4375 4.0625 C-0.2125 4.3925 -1.8625 4.7225 -3.5625 5.0625 C-3.2325 6.0525 -2.9025 7.0425 -2.5625 8.0625 C-3.8825 7.7325 -5.2025 7.4025 -6.5625 7.0625 C-3.14390756 0.07668067 -3.14390756 0.07668067 0 0 Z " fill="#40464A" transform="translate(140.5625,85.9375)"/>
<path d="M0 0 C-0.3125 2.875 -0.3125 2.875 -1 6 C-4 8 -4 8 -7 8 C-6.65930765 4.84859577 -6.41923159 3.39218439 -4.0625 1.1875 C-2 0 -2 0 0 0 Z " fill="#BA7759" transform="translate(29,49)"/>
<path d="M0 0 C6.89112013 0.51683401 11.98461732 3.73269448 16.5 8.8125 C16.995 9.534375 17.49 10.25625 18 11 C17.01 11.33 16.02 11.66 15 12 C14.63261719 11.24332031 14.26523438 10.48664062 13.88671875 9.70703125 C11.56780074 6.37988802 9.46909404 5.37818326 5.8125 3.6875 C4.72582031 3.17574219 3.63914063 2.66398438 2.51953125 2.13671875 C1.68808594 1.76160156 0.85664063 1.38648438 0 1 C0 0.67 0 0.34 0 0 Z " fill="#1D1D1D" transform="translate(223,2)"/>
<path d="M0 0 C1.44977894 2.34112451 2.04314411 3.5796929 1.7578125 6.359375 C1.54898438 7.14828125 1.34015625 7.9371875 1.125 8.75 C0.92132813 9.54921875 0.71765625 10.3484375 0.5078125 11.171875 C0.34023437 11.77515625 0.17265625 12.3784375 0 13 C-0.66 12.67 -1.32 12.34 -2 12 C-2.05422947 10.5629191 -2.09289723 9.12524538 -2.125 7.6875 C-2.14820313 6.88699219 -2.17140625 6.08648437 -2.1953125 5.26171875 C-2 3 -2 3 0 0 Z " fill="#D06F24" transform="translate(193,115)"/>
<path d="M0 0 C2.875 0.3125 2.875 0.3125 6 1 C6.66 1.99 7.32 2.98 8 4 C7.67 4.33 7.34 4.66 7 5 C4.66055264 4.71269945 2.3260857 4.38063221 0 4 C0 2.68 0 1.36 0 0 Z " fill="#F8F5F3" transform="translate(61,91)"/>
<path d="M0 0 C2.64 0.33 5.28 0.66 8 1 C8 2.32 8 3.64 8 5 C7.34 5 6.68 5 6 5 C6 4.01 6 3.02 6 2 C5.5875 2.474375 5.175 2.94875 4.75 3.4375 C2.817815 5.16266518 1.51807725 5.56584875 -1 6 C-0.67 4.02 -0.34 2.04 0 0 Z M-3 6 C-1 7 -1 7 -1 7 Z " fill="#C58563" transform="translate(54,79)"/>
<path d="M0 0 C1.90401138 1.90401138 2.93520439 3.33425686 3.19921875 6.046875 C3.1886578 8.03233273 3.09915043 10.0169914 3 12 C2.67 12 2.34 12 2 12 C2 10.35 2 8.7 2 7 C0.02 7.99 0.02 7.99 -2 9 C-1.125 2.25 -1.125 2.25 0 0 Z " fill="#F5EBE3" transform="translate(109,83)"/>
<path d="M0 0 C1.61949011 2.57213134 2.04408751 3.67669159 1.625 6.75 C1.41875 7.4925 1.2125 8.235 1 9 C0.01 9 -0.98 9 -2 9 C-2.33 6.36 -2.66 3.72 -3 1 C-2.01 0.67 -1.02 0.34 0 0 Z " fill="#3A3F42" transform="translate(207,102)"/>
<path d="M0 0 C1.32 0.33 2.64 0.66 4 1 C4.33 2.65 4.66 4.3 5 6 C3.02 6.99 3.02 6.99 1 8 C0 7 0 7 -0.0625 3.4375 C-0.041875 2.303125 -0.02125 1.16875 0 0 Z " fill="#DE792A" transform="translate(39,54)"/>
<path d="M0 0 C0.99 0.33 1.98 0.66 3 1 C2.34 1 1.68 1 1 1 C1 1.66 1 2.32 1 3 C1.928125 3.37125 1.928125 3.37125 2.875 3.75 C5.35068687 5.20628639 5.95125002 6.37812506 7 9 C6.01 9.66 5.02 10.32 4 11 C3.34 10.34 2.68 9.68 2 9 C2 7.68 2 6.36 2 5 C0.68 4.67 -0.64 4.34 -2 4 C-2 3.34 -2 2.68 -2 2 C-1.34 2 -0.68 2 0 2 C0 1.34 0 0.68 0 0 Z " fill="#D1732A" transform="translate(115,89)"/>
<path d="M0 0 C2.4375 0.375 2.4375 0.375 5 1 C5.33 1.66 5.66 2.32 6 3 C6.66 3 7.32 3 8 3 C8 3.66 8 4.32 8 5 C5.03 5 2.06 5 -1 5 C-0.67 3.35 -0.34 1.7 0 0 Z " fill="#F4CAB4" transform="translate(32,91)"/>
<path d="M0 0 C0.66 0.33 1.32 0.66 2 1 C1.5020163 4.73487777 1.12508244 6.81237635 -1 10 C-1.99 9.67 -2.98 9.34 -4 9 C-4 8.01 -4 7.02 -4 6 C-3.01 5.67 -2.02 5.34 -1 5 C-0.67 3.35 -0.34 1.7 0 0 Z " fill="#353D41" transform="translate(205,79)"/>
<path d="M0 0 C0 0.99 0 1.98 0 3 C-5.75 3.125 -5.75 3.125 -8 2 C-8 1.34 -8 0.68 -8 0 C-4.71023192 -1.09658936 -3.28696233 -0.79953138 0 0 Z " fill="#29343A" transform="translate(63,77)"/>
<path d="M0 0 C0.33 0.99 0.66 1.98 1 3 C1.66 3 2.32 3 3 3 C3.33 3.99 3.66 4.98 4 6 C3.01 7.485 3.01 7.485 2 9 C0.68 8.67 -0.64 8.34 -2 8 C-1.34 5.36 -0.68 2.72 0 0 Z " fill="#DA9671" transform="translate(187,24)"/>
<path d="M0 0 C1.65 0.33 3.3 0.66 5 1 C5 1.99 5 2.98 5 4 C2.69 4 0.38 4 -2 4 C-1.34 2.68 -0.68 1.36 0 0 Z " fill="#424649" transform="translate(208,17)"/>
<path d="M0 0 C1.98 0.495 1.98 0.495 4 1 C3.34 3.31 2.68 5.62 2 8 C1.01 7.67 0.02 7.34 -1 7 C-0.67 4.69 -0.34 2.38 0 0 Z " fill="#323A3D" transform="translate(190,110)"/>
<path d="M0 0 C-0.33 1.65 -0.66 3.3 -1 5 C-2.8125 5.625 -2.8125 5.625 -5 6 C-5.99 5.34 -6.98 4.68 -8 4 C-7.01 3.67 -6.02 3.34 -5 3 C-5 2.34 -5 1.68 -5 1 C-2 0 -2 0 0 0 Z " fill="#A07E70" transform="translate(142,90)"/>
<path d="M0 0 C0.66 0.66 1.32 1.32 2 2 C1.38125 2.0825 0.7625 2.165 0.125 2.25 C-2.18437567 2.81258459 -2.18437567 2.81258459 -3.25 5.0625 C-3.4975 5.701875 -3.745 6.34125 -4 7 C-4.66 7 -5.32 7 -6 7 C-6 5.02 -6 3.04 -6 1 C-4.7934375 1.0309375 -4.7934375 1.0309375 -3.5625 1.0625 C-1.06645115 1.29633621 -1.06645115 1.29633621 0 0 Z " fill="#EFECEA" transform="translate(47,63)"/>
<path d="M0 0 C0.66 0 1.32 0 2 0 C2.66 2.31 3.32 4.62 4 7 C2.35 7.33 0.7 7.66 -1 8 C-0.67 5.36 -0.34 2.72 0 0 Z " fill="#F1E2D6" transform="translate(216,52)"/>
<path d="M0 0 C3.91402949 1.26941497 5.79072873 2.51167694 8 6 C7.67 6.66 7.34 7.32 7 8 C5.82512964 7.24172908 4.66027408 6.46792245 3.5 5.6875 C2.52546875 5.04361328 2.52546875 5.04361328 1.53125 4.38671875 C1.0259375 3.92910156 0.520625 3.47148438 0 3 C0 2.01 0 1.02 0 0 Z " fill="#BF7956" transform="translate(34,47)"/>
<path d="M0 0 C0.33 0 0.66 0 1 0 C1 1.65 1 3.3 1 5 C-0.79158489 5.02696365 -2.58328473 5.04637917 -4.375 5.0625 C-5.37273437 5.07410156 -6.37046875 5.08570312 -7.3984375 5.09765625 C-10 5 -10 5 -12 4 C-11.67 3.34 -11.34 2.68 -11 2 C-10.34 2.33 -9.68 2.66 -9 3 C-7.62657169 3.0689472 -6.24997898 3.08467708 -4.875 3.0625 C-3.59625 3.041875 -2.3175 3.02125 -1 3 C-0.67 2.01 -0.34 1.02 0 0 Z " fill="#DFC3AC" transform="translate(193,97)"/>
<path d="M0 0 C0.6875 1.6875 0.6875 1.6875 1 4 C-0.4375 6.75 -0.4375 6.75 -2 9 C-2.99 8.34 -3.98 7.68 -5 7 C-5 6.01 -5 5.02 -5 4 C-4.0409375 3.8453125 -4.0409375 3.8453125 -3.0625 3.6875 C-2.381875 3.460625 -1.70125 3.23375 -1 3 C-0.67 2.01 -0.34 1.02 0 0 Z " fill="#2F393E" transform="translate(84,90)"/>
<path d="M0 0 C1.32 0 2.64 0 4 0 C4 1.65 4 3.3 4 5 C3.01 5.33 2.02 5.66 1 6 C1 5.34 1 4.68 1 4 C0.34 4 -0.32 4 -1 4 C-0.67 2.68 -0.34 1.36 0 0 Z " fill="#495A62" transform="translate(189,23)"/>
<path d="M0 0 C1.90401138 1.90401138 2.93520439 3.33425686 3.19921875 6.046875 C3.1886578 8.03233273 3.09915043 10.0169914 3 12 C2.34 12 1.68 12 1 12 C-0.3271261 8.0186217 -0.06915913 4.14954773 0 0 Z " fill="#E8CEC1" transform="translate(37,97)"/>
<path d="M0 0 C1.98 0.495 1.98 0.495 4 1 C3.67 2.32 3.34 3.64 3 5 C1.68 4.67 0.36 4.34 -1 4 C-0.67 2.68 -0.34 1.36 0 0 Z " fill="#D2BBA5" transform="translate(136,64)"/>
<path d="M0 0 C0 0.99 0 1.98 0 3 C-5.25714286 7 -5.25714286 7 -8 7 C-7.3125 5.125 -7.3125 5.125 -6 3 C-3.4375 1.8125 -3.4375 1.8125 -1 1 C-0.67 0.67 -0.34 0.34 0 0 Z " fill="#C26924" transform="translate(209,49)"/>
<path d="M0 0 C0 1.32 0 2.64 0 4 C-2.31 4.33 -4.62 4.66 -7 5 C-2.25 0 -2.25 0 0 0 Z " fill="#EE7F2A" transform="translate(66,117)"/>
<path d="M0 0 C2 2 2 2 2 6 C0.68 6 -0.64 6 -2 6 C-2 4.35 -2 2.7 -2 1 C-1.34 0.67 -0.68 0.34 0 0 Z " fill="#FBB792" transform="translate(186,108)"/>
<path d="M0 0 C0.33 0 0.66 0 1 0 C1.33 2.31 1.66 4.62 2 7 C1.01 7 0.02 7 -1 7 C-1.33 7.99 -1.66 8.98 -2 10 C-3.39195915 5.82412255 -1.82323219 3.86525224 0 0 Z " fill="#E3D3C7" transform="translate(195,98)"/>
<path d="M0 0 C2.97 1.98 2.97 1.98 6 4 C5.01 5.485 5.01 5.485 4 7 C2.02 5.35 0.04 3.7 -2 2 C-1.34 1.34 -0.68 0.68 0 0 Z " fill="#F18836" transform="translate(46,96)"/>
<path d="M0 0 C1.32 0 2.64 0 4 0 C3.67 1.65 3.34 3.3 3 5 C2.01 5 1.02 5 0 5 C-0.5625 3.0625 -0.5625 3.0625 -1 1 C-0.67 0.67 -0.34 0.34 0 0 Z " fill="#AF7B65" transform="translate(121,80)"/>
<path d="M0 0 C0.33 0.66 0.66 1.32 1 2 C1.66 2.33 2.32 2.66 3 3 C2.34 4.98 1.68 6.96 1 9 C-0.32 7.68 -1.64 6.36 -3 5 C-2.34 5 -1.68 5 -1 5 C-0.67 3.35 -0.34 1.7 0 0 Z " fill="#F2CEB1" transform="translate(139,71)"/>
<path d="M0 0 C0.66 0 1.32 0 2 0 C2 2.31 2 4.62 2 7 C1.34 7 0.68 7 0 7 C-0.66 5.35 -1.32 3.7 -2 2 C-1.34 1.34 -0.68 0.68 0 0 Z " fill="#F4EDE7" transform="translate(198,48)"/>
<path d="M0 0 C0.99 0 1.98 0 3 0 C3 2.31 3 4.62 3 7 C2.01 6.67 1.02 6.34 0 6 C0 4.02 0 2.04 0 0 Z " fill="#EC812F" transform="translate(19,37)"/>
<path d="M0 0 C-0.66 1.98 -1.32 3.96 -2 6 C-2.66 6 -3.32 6 -4 6 C-4.33 4.35 -4.66 2.7 -5 1 C-2 0 -2 0 0 0 Z " fill="#313D42" transform="translate(50,36)"/>
<path d="M0 0 C1 3 1 3 0.0625 5.1875 C-0.4634375 6.0846875 -0.4634375 6.0846875 -1 7 C-1.66 7 -2.32 7 -3 7 C-3.33 5.35 -3.66 3.7 -4 2 C-2.68 1.34 -1.36 0.68 0 0 Z " fill="#313B3F" transform="translate(182,22)"/>
<path d="M0 0 C2.50298434 2.93828597 3.46930939 5.17902761 4 9 C3.34 9 2.68 9 2 9 C0.4375 6.1875 0.4375 6.1875 -1 3 C-0.67 2.01 -0.34 1.02 0 0 Z " fill="#D8A489" transform="translate(197,97)"/>
<path d="M0 0 C0.66 0 1.32 0 2 0 C2.125 2.875 2.125 2.875 2 6 C1.34 6.66 0.68 7.32 0 8 C-0.79953138 4.71303767 -1.09658936 3.28976808 0 0 Z " fill="#DF936A" transform="translate(58,81)"/>
<path d="M0 0 C0.66 0 1.32 0 2 0 C1.6875 2.375 1.6875 2.375 1 5 C0.01 5.66 -0.98 6.32 -2 7 C-2.125 4.625 -2.125 4.625 -2 2 C-1.34 1.34 -0.68 0.68 0 0 Z " fill="#EE8A3E" transform="translate(143,72)"/>
<path d="M0 0 C0.66 0 1.32 0 2 0 C2 4.62 2 9.24 2 14 C-0.57143865 11.42856135 -0.40333707 10.01049945 -0.6875 6.4375 C-0.77386719 5.44621094 -0.86023438 4.45492187 -0.94921875 3.43359375 C-0.96597656 2.63050781 -0.98273437 1.82742187 -1 1 C-0.67 0.67 -0.34 0.34 0 0 Z " fill="#E0D5CC" transform="translate(19,50)"/>
<path d="M0 0 C1.54571278 2.31856917 2.79618552 4.50638429 4 7 C3.01 7 2.02 7 1 7 C-0.6875 5 -0.6875 5 -2 3 C-1 1 -1 1 0 0 Z " fill="#343434" transform="translate(4,137)"/>
<path d="M0 0 C0.66 0 1.32 0 2 0 C2 0.99 2 1.98 2 3 C1.01 3.495 1.01 3.495 0 4 C-0.65213292 6.02463255 -0.65213292 6.02463255 -1 8 C-1.66 8 -2.32 8 -3 8 C-2.25 2.25 -2.25 2.25 0 0 Z " fill="#F3EFED" transform="translate(191,106)"/>
<path d="M0 0 C0.99 0 1.98 0 3 0 C3 1.65 3 3.3 3 5 C1.68 4.67 0.36 4.34 -1 4 C-0.67 2.68 -0.34 1.36 0 0 Z " fill="#E1C5AE" transform="translate(80,89)"/>
<path d="M0 0 C1.32 0.33 2.64 0.66 4 1 C4.33 2.32 4.66 3.64 5 5 C2.525 4.01 2.525 4.01 0 3 C0 2.01 0 1.02 0 0 Z " fill="#C26E2D" transform="translate(13,40)"/>
<path d="M0 0 C0.99 0 1.98 0 3 0 C3 0.66 3 1.32 3 2 C3.66 2 4.32 2 5 2 C5 2.66 5 3.32 5 4 C2.625 4.625 2.625 4.625 0 5 C-0.66 4.34 -1.32 3.68 -2 3 C-1.34 3 -0.68 3 0 3 C0 2.01 0 1.02 0 0 Z " fill="#D6916D" transform="translate(204,25)"/>
<path d="M0 0 C0.66 0 1.32 0 2 0 C2 2.31 2 4.62 2 7 C1.34 7 0.68 7 0 7 C0 6.34 0 5.68 0 5 C-0.66 4.67 -1.32 4.34 -2 4 C-1.34 2.68 -0.68 1.36 0 0 Z " fill="#F0E9E5" transform="translate(44,113)"/>
<path d="M0 0 C1.32 0.33 2.64 0.66 4 1 C3.67 2.32 3.34 3.64 3 5 C2.01 4.67 1.02 4.34 0 4 C0 2.68 0 1.36 0 0 Z " fill="#ECEDEE" transform="translate(45,32)"/>
<path d="M0 0 C2.0625 0.75 2.0625 0.75 4 2 C4.33 2.99 4.66 3.98 5 5 C3.68 5 2.36 5 1 5 C1 4.34 1 3.68 1 3 C0.01 2.34 -0.98 1.68 -2 1 C-1.34 0.67 -0.68 0.34 0 0 Z " fill="#3C4346" transform="translate(30,28)"/>
<path d="M0 0 C1.32 0.33 2.64 0.66 4 1 C3.67 2.32 3.34 3.64 3 5 C2.01 4.67 1.02 4.34 0 4 C0 2.68 0 1.36 0 0 Z " fill="#E7CBB2" transform="translate(178,19)"/>
</svg>
