<?xml version="1.0" encoding="UTF-8"?>
<svg version="1.1" xmlns="http://www.w3.org/2000/svg" width="630" height="776">
<path d="M0 0 C3.3 0 6.6 0 10 0 C10 0.66 10 1.32 10 2 C11.98 2.33 13.96 2.66 16 3 C16 3.66 16 4.32 16 5 C16.66 5 17.32 5 18 5 C19.25433458 8.76300374 19.10695422 12.27210909 19.0625 16.1875 C19.05798828 16.93708984 19.05347656 17.68667969 19.04882812 18.45898438 C19.03706354 20.30602383 19.01912865 22.15302213 19 24 C20.65 24.33 22.3 24.66 24 25 C24.042721 26.66611905 24.04063832 28.33382885 24 30 C23 31 23 31 20.4375 31.0625 C19.633125 31.041875 18.82875 31.02125 18 31 C18.14308594 31.92232422 18.14308594 31.92232422 18.2890625 32.86328125 C18.39992187 33.67152344 18.51078125 34.47976562 18.625 35.3125 C18.74101562 36.11300781 18.85703125 36.91351563 18.9765625 37.73828125 C19 40 19 40 17 43 C20.96 43.33 24.92 43.66 29 44 C29 44.66 29 45.32 29 46 C29.56847656 45.98839844 30.13695312 45.97679687 30.72265625 45.96484375 C35.60670484 45.90776806 40.18503965 46.18043228 45 47 C45 47.66 45 48.32 45 49 C45.66386719 49.04898438 46.32773437 49.09796875 47.01171875 49.1484375 C55.78207381 49.89103691 55.78207381 49.89103691 60 52 C60 52.66 60 53.32 60 54 C63.96 54.495 63.96 54.495 68 55 C68 55.66 68 56.32 68 57 C70.31 57.33 72.62 57.66 75 58 C75 58.66 75 59.32 75 60 C75.99 60 76.98 60 78 60 C78 60.66 78 61.32 78 62 C79.98 62.33 81.96 62.66 84 63 C84 63.66 84 64.32 84 65 C84.763125 65.103125 85.52625 65.20625 86.3125 65.3125 C89 66 89 66 90.5 67.625 C90.995 68.07875 91.49 68.5325 92 69 C94.65466049 68.76956136 94.65466049 68.76956136 97 68 C97 67.34 97 66.68 97 66 C100.465 65.505 100.465 65.505 104 65 C104 64.34 104 63.68 104 63 C105.98 62.67 107.96 62.34 110 62 C110 61.34 110 60.68 110 60 C111.65 60 113.3 60 115 60 C115 59.34 115 58.68 115 58 C118.96 57.01 118.96 57.01 123 56 C121.35 55.67 119.7 55.34 118 55 C118 54.34 118 53.68 118 53 C117.34 53 116.68 53 116 53 C116 49.37 116 45.74 116 42 C114.35 42 112.7 42 111 42 C110.875 39.625 110.875 39.625 111 37 C111.66 36.34 112.32 35.68 113 35 C113.99 35 114.98 35 116 35 C116 32.69 116 30.38 116 28 C114.02 28 112.04 28 110 28 C110 27.34 110 26.68 110 26 C108.865625 26.061875 107.73125 26.12375 106.5625 26.1875 C101.66152009 26.21380222 97.526033 24.76012394 93 23 C93 22.34 93 21.68 93 21 C91.68 20.67 90.36 20.34 89 20 C89 18.68 89 17.36 89 16 C90.74991334 15.97284617 92.49994945 15.95353449 94.25 15.9375 C95.71179688 15.92009766 95.71179688 15.92009766 97.203125 15.90234375 C99.65758678 15.98804423 101.66168914 16.29293934 104 17 C104 17.66 104 18.32 104 19 C107.70869374 19.28774348 111.30089915 19.45163441 115 19 C117.2889924 16.639038 117.2889924 16.639038 119 14 C122.75 13.1875 122.75 13.1875 126 13 C126 12.34 126 11.68 126 11 C132.20970773 10.66733709 136.28264895 11.54970669 142 14 C142 14.66 142 15.32 142 16 C142.99 16.33 143.98 16.66 145 17 C145 17.66 145 18.32 145 19 C145.66 19 146.32 19 147 19 C147 20.65 147 22.3 147 24 C147.66 24 148.32 24 149 24 C149 32.25 149 40.5 149 49 C149.66 49 150.32 49 151 49 C151 48.34 151 47.68 151 47 C158.92 46.505 158.92 46.505 167 46 C167 45.34 167 44.68 167 44 C184.77372479 41.62250068 203.56998831 41.5736944 221 46 C222.66483481 46.34236522 224.33086558 46.67925215 226 47 C226 47.66 226 48.32 226 49 C227.60875 49.185625 227.60875 49.185625 229.25 49.375 C232.37863615 49.89643936 234.33480424 50.40088254 237 52 C237 52.66 237 53.32 237 54 C238.98 54.33 240.96 54.66 243 55 C243 55.66 243 56.32 243 57 C244.98 57.33 246.96 57.66 249 58 C249 58.66 249 59.32 249 60 C250.32 60 251.64 60 253 60 C253.33 60.66 253.66 61.32 254 62 C254.99 62.33 255.98 62.66 257 63 C257 63.66 257 64.32 257 65 C258.65 65.33 260.3 65.66 262 66 C262 66.66 262 67.32 262 68 C263.98 68.33 265.96 68.66 268 69 C268 69.66 268 70.32 268 71 C268.66 71 269.32 71 270 71 C270 71.66 270 72.32 270 73 C271.98 73.33 273.96 73.66 276 74 C276 74.66 276 75.32 276 76 C277.98 76.33 279.96 76.66 282 77 C282 77.66 282 78.32 282 79 C284.31 79.33 286.62 79.66 289 80 C289 80.66 289 81.32 289 82 C289.99 82 290.98 82 292 82 C292 82.66 292 83.32 292 84 C292.825 84.103125 293.65 84.20625 294.5 84.3125 C298.59289012 85.11646056 302.12540225 86.46352158 306 88 C306 88.66 306 89.32 306 90 C306.85271484 90.07347656 306.85271484 90.07347656 307.72265625 90.1484375 C312.71081129 90.63143081 317.22599578 91.47638163 322 93 C322 93.66 322 94.32 322 95 C322.59167969 94.98839844 323.18335938 94.97679687 323.79296875 94.96484375 C328.00231785 94.91677614 331.8922333 94.93993117 336 96 C336 96.66 336 97.32 336 98 C337.258125 98.103125 338.51625 98.20625 339.8125 98.3125 C342.50898757 98.64657811 343.76317068 98.82977893 346 100.4375 C347 102 347 102 347 104 C347.66 104 348.32 104 349 104 C349 104.66 349 105.32 349 106 C349.96679688 105.98839844 350.93359375 105.97679687 351.9296875 105.96484375 C359.36088832 105.91334038 366.61687607 106.02716485 374 107 C374 107.66 374 108.32 374 109 C377.63 109.33 381.26 109.66 385 110 C385 110.66 385 111.32 385 112 C386.32 112.33 387.64 112.66 389 113 C389.38218767 114.65614657 389.71395102 116.32457024 390 118 C389 119 389 119 387.15234375 119.09765625 C385.1015625 119.06510417 383.05078125 119.03255208 381 119 C381.66 119.66 382.32 120.32 383 121 C383.125 124.625 383.125 124.625 383 128 C381.35 128.33 379.7 128.66 378 129 C377.67 129.99 377.34 130.98 377 132 C374.03 132.33 371.06 132.66 368 133 C367.67 132.01 367.34 131.02 367 130 C366.27554688 129.95101562 365.55109375 129.90203125 364.8046875 129.8515625 C359.58541133 129.44793848 354.90186342 128.98724193 350 127 C349.67 127.99 349.34 128.98 349 130 C347.68 130 346.36 130 345 130 C345 130.66 345 131.32 345 132 C341.96799821 133.01066726 339.90926169 133.12900286 336.73828125 133.1328125 C335.70123047 133.13410156 334.66417969 133.13539063 333.59570312 133.13671875 C332.51224609 133.13285156 331.42878906 133.12898437 330.3125 133.125 C329.24837891 133.12886719 328.18425781 133.13273438 327.08789062 133.13671875 C321.29631746 133.12956424 315.726662 132.87250231 310 132 C310 131.34 310 130.68 310 130 C308.82244141 129.92652344 308.82244141 129.92652344 307.62109375 129.8515625 C301.80977697 129.4379964 296.521057 128.88217852 291 127 C291 126.34 291 125.68 291 125 C290.27554688 124.95101562 289.55109375 124.90203125 288.8046875 124.8515625 C283.54269773 124.44463529 278.9751466 123.85121734 274 122 C272.00630969 121.63079809 270.00720923 121.28674418 268 121 C268 120.34 268 119.68 268 119 C264.7 118.67 261.4 118.34 258 118 C258 117.34 258 116.68 258 116 C257.29875 116.04125 256.5975 116.0825 255.875 116.125 C252.59513338 115.9823971 250.08578605 115.09288256 247 114 C245.33911955 113.63893903 243.67381019 113.29537827 242 113 C242 112.34 242 111.68 242 111 C239.03 110.67 236.06 110.34 233 110 C233 109.34 233 108.68 233 108 C231.35 108 229.7 108 228 108 C228 107.34 228 106.68 228 106 C224.37 105.67 220.74 105.34 217 105 C217 104.34 217 103.68 217 103 C210.07 102.505 210.07 102.505 203 102 C203 101.34 203 100.68 203 100 C198.05 100 193.1 100 188 100 C188 100.66 188 101.32 188 102 C187.34 102.33 186.68 102.66 186 103 C185.67 103.99 185.34 104.98 185 106 C184.34 106 183.68 106 183 106 C182.67 109.96 182.34 113.92 182 118 C181.34 118 180.68 118 180 118 C180.01740234 119.01707031 180.01740234 119.01707031 180.03515625 120.0546875 C180.09662786 126.39504455 180.04514697 132.72911815 179 139 C178.67 139.33 178.34 139.66 178 140 C177.76636119 141.84891946 177.58696365 143.70488031 177.4375 145.5625 C177.35371094 146.57441406 177.26992188 147.58632813 177.18359375 148.62890625 C177.12300781 149.41136719 177.06242187 150.19382812 177 151 C176.34 151 175.68 151 175 151 C175.01160156 151.59167969 175.02320313 152.18335938 175.03515625 152.79296875 C175.08322386 157.00231785 175.06006883 160.8922333 174 165 C173.34 165 172.68 165 172 165 C171.67 167.64 171.34 170.28 171 173 C169.68 173.33 168.36 173.66 167 174 C169.31 174.66 171.62 175.32 174 176 C174.33 178.31 174.66 180.62 175 183 C175.66 183 176.32 183 177 183 C177 183.99 177 184.98 177 186 C177.66 186 178.32 186 179 186 C179.13277344 186.92683594 179.26554687 187.85367188 179.40234375 188.80859375 C179.57894531 190.00613281 179.75554687 191.20367187 179.9375 192.4375 C180.19853516 194.22994141 180.19853516 194.22994141 180.46484375 196.05859375 C180.68985213 198.87955676 180.68985213 198.87955676 182 200 C182.07244053 202.01964199 182.08377188 204.04167124 182.0625 206.0625 C182.05347656 207.16722656 182.04445313 208.27195312 182.03515625 209.41015625 C182.01775391 210.69212891 182.01775391 210.69212891 182 212 C181.34 212 180.68 212 180 212 C180.0928125 213.7015625 180.0928125 213.7015625 180.1875 215.4375 C180.21380222 220.33847991 178.76012394 224.473967 177 229 C176.34 229 175.68 229 175 229 C174.67 231.31 174.34 233.62 174 236 C173.34 236 172.68 236 172 236 C171.67 237.32 171.34 238.64 171 240 C170.34 240 169.68 240 169 240 C169 241.32 169 242.64 169 244 C168.34 244.33 167.68 244.66 167 245 C166.67 245.99 166.34 246.98 166 248 C165.34 248 164.68 248 164 248 C163.67 248.99 163.34 249.98 163 251 C162.34 251 161.68 251 161 251 C160.67 252.65 160.34 254.3 160 256 C159.34 256 158.68 256 158 256 C158 256.99 158 257.98 158 259 C157.34 259 156.68 259 156 259 C155.67 259.99 155.34 260.98 155 262 C154.34 262 153.68 262 153 262 C152.67 263.65 152.34 265.3 152 267 C151.34 267 150.68 267 150 267 C149.67 268.65 149.34 270.3 149 272 C147.68 272.33 146.36 272.66 145 273 C144.67 274.65 144.34 276.3 144 278 C143.34 278 142.68 278 142 278 C141.67 279.65 141.34 281.3 141 283 C140.34 283 139.68 283 139 283 C138.896875 283.556875 138.79375 284.11375 138.6875 284.6875 C138 287 138 287 136.5 289.125 C134.339148 293.266633 134.2596775 297.38848575 134 302 C134.66 302 135.32 302 136 302 C136 303.32 136 304.64 136 306 C136.66 306 137.32 306 138 306 C138.33 307.98 138.66 309.96 139 312 C139.66 312 140.32 312 141 312 C141.33 313.98 141.66 315.96 142 318 C142.66 318 143.32 318 144 318 C144.33 320.31 144.66 322.62 145 325 C145.66 325 146.32 325 147 325 C147 325.99 147 326.98 147 328 C147.66 328 148.32 328 149 328 C149.33 329.98 149.66 331.96 150 334 C150.66 334 151.32 334 152 334 C152.33 336.97 152.66 339.94 153 343 C153.66 343 154.32 343 155 343 C155.33 346.3 155.66 349.6 156 353 C156.66 353 157.32 353 158 353 C158 354.98 158 356.96 158 359 C158.66 359 159.32 359 160 359 C160.13277344 359.99902344 160.26554687 360.99804688 160.40234375 362.02734375 C160.57894531 363.31769531 160.75554687 364.60804688 160.9375 365.9375 C161.11152344 367.22527344 161.28554688 368.51304687 161.46484375 369.83984375 C161.66162423 372.85466313 161.66162423 372.85466313 163 374 C163.68420361 378.78942527 164.10087054 383.53894468 164.25 388.375 C164.27578125 389.18710937 164.3015625 389.99921875 164.328125 390.8359375 C163.91955947 393.53052444 163.1692001 394.39489449 161 396 C158.3125 396.1875 158.3125 396.1875 156 396 C156 396.66 156 397.32 156 398 C154.54182203 398.16802051 153.0834516 398.33437143 151.625 398.5 C150.81289063 398.5928125 150.00078125 398.685625 149.1640625 398.78125 C147 399 147 399 145 399 C144.67 400.32 144.34 401.64 144 403 C142.35 403.33 140.7 403.66 139 404 C138.67 404.99 138.34 405.98 138 407 C135.07920195 409.07530387 133.62453269 410 130 410 C130 410.66 130 411.32 130 412 C128.75336669 412.50833591 127.50250613 413.00631145 126.25 413.5 C125.55390625 413.7784375 124.8578125 414.056875 124.140625 414.34375 C122 415 122 415 118 415 C117.875 408.375 117.875 408.375 119 405 C119.66 405 120.32 405 121 405 C121 404.34 121 403.68 121 403 C122.65002828 401.64613064 124.3174387 400.31321858 126 399 C126.33 398.34 126.66 397.68 127 397 C127.66 397 128.32 397 129 397 C129 392.05 129 387.1 129 382 C128.34 382 127.68 382 127 382 C126.67 380.02 126.34 378.04 126 376 C125.34 376 124.68 376 124 376 C123.67 374.02 123.34 372.04 123 370 C122.34 370 121.68 370 121 370 C121 368.68 121 367.36 121 366 C120.01 365.67 119.02 365.34 118 365 C118 364.01 118 363.02 118 362 C117.34 362 116.68 362 116 362 C115.67 359.69 115.34 357.38 115 355 C114.01 354.67 113.02 354.34 112 354 C110 351 110 351 110 347 C109.34 347 108.68 347 108 347 C107.67 346.01 107.34 345.02 107 344 C106.34 343.67 105.68 343.34 105 343 C104.59270772 340.67843403 104.25561323 338.3431213 104 336 C103.38640625 335.91492188 102.7728125 335.82984375 102.140625 335.7421875 C100 335 100 335 98.734375 333.2578125 C98.40953125 332.55398438 98.0846875 331.85015625 97.75 331.125 C97.41484375 330.42632812 97.0796875 329.72765625 96.734375 329.0078125 C96 327 96 327 96 324 C95.34 324 94.68 324 94 324 C93.67 322.02 93.34 320.04 93 318 C92.34 318 91.68 318 91 318 C91 316.68 91 315.36 91 314 C90.34 314 89.68 314 89 314 C88.86722656 313.21753906 88.73445313 312.43507813 88.59765625 311.62890625 C88.42105469 310.61699219 88.24445313 309.60507812 88.0625 308.5625 C87.88847656 307.55316406 87.71445312 306.54382813 87.53515625 305.50390625 C87.25248903 303.0712562 87.25248903 303.0712562 86 302 C85.92755947 299.98035801 85.91622812 297.95832876 85.9375 295.9375 C85.94652344 294.83277344 85.95554687 293.72804688 85.96484375 292.58984375 C85.97644531 291.73519531 85.98804688 290.88054687 86 290 C86.66 290 87.32 290 88 290 C88.33 286.37 88.66 282.74 89 279 C89.66 279 90.32 279 91 279 C91 277.35 91 275.7 91 274 C91.66 274 92.32 274 93 274 C93.33 271.36 93.66 268.72 94 266 C94.66 266 95.32 266 96 266 C96.103125 265.13375 96.20625 264.2675 96.3125 263.375 C97.03398414 259.83316877 98.27123261 257.15687958 100 254 C100.66 254 101.32 254 102 254 C102 253.01 102 252.02 102 251 C102.66 251 103.32 251 104 251 C103.67 250.01 103.34 249.02 103 248 C99.37206002 249.86566488 99.37206002 249.86566488 97 253 C96.34 253 95.68 253 95 253 C95 253.66 95 254.32 95 255 C93.35546875 256.7265625 93.35546875 256.7265625 91.1875 258.625 C90.12595703 259.57246094 90.12595703 259.57246094 89.04296875 260.5390625 C87 262 87 262 84 262 C83.7525 262.721875 83.505 263.44375 83.25 264.1875 C81.37865818 268.39801908 78.49137663 271.98472018 75 275 C74.34 275 73.68 275 73 275 C73.47651001 276.21755981 73.47651001 276.21755981 73.96264648 277.4597168 C75.17469086 281.59618548 75.4302663 285.3601555 75.59765625 289.64453125 C75.65644203 290.86011971 75.65644203 290.86011971 75.71641541 292.1002655 C75.83980362 294.67071131 75.95197251 297.24147161 76.0625 299.8125 C76.17793562 302.40128184 76.29583005 304.9898812 76.41929626 307.57829285 C76.495554 309.18508853 76.56694368 310.79212386 76.6330719 312.39936829 C76.48056913 316.00124678 76.48056913 316.00124678 78 319 C78.16087869 320.8932418 78.2519983 322.79243335 78.31640625 324.69140625 C78.35838135 325.92826172 78.40035645 327.16511719 78.44360352 328.43945312 C78.48375913 329.81378689 78.52337628 331.18813647 78.5625 332.5625 C78.59426834 333.5985437 78.59426834 333.5985437 78.62667847 334.65551758 C79.19367583 353.43270983 79.0942068 372.21661251 79 391 C79.66 391 80.32 391 81 391 C81.33 393.64 81.66 396.28 82 399 C82.66 399 83.32 399 84 399 C84 399.99 84 400.98 84 402 C84.69480469 402.11214844 85.38960938 402.22429687 86.10546875 402.33984375 C89.37032964 403.08446115 92.23600205 404.24400088 95.3125 405.5625 C96.38113281 406.01753906 97.44976562 406.47257812 98.55078125 406.94140625 C99.35902344 407.29074219 100.16726563 407.64007812 101 408 C101 408.66 101 409.32 101 410 C101.99 410.33 102.98 410.66 104 411 C103.67 412.98 103.34 414.96 103 417 C95.41 417 87.82 417 80 417 C80 416.34 80 415.68 80 415 C78.18818595 414.80598367 76.37551468 414.61995625 74.5625 414.4375 C73.55316406 414.33308594 72.54382813 414.22867187 71.50390625 414.12109375 C70.67761719 414.08113281 69.85132813 414.04117187 69 414 C68.67 414.33 68.34 414.66 68 415 C65.30345146 415.07319621 62.63308542 415.09242537 59.9375 415.0625 C59.17888672 415.05798828 58.42027344 415.05347656 57.63867188 415.04882812 C55.75908129 415.0370068 53.87953101 415.01907078 52 415 C52 413.35 52 411.7 52 410 C51.34 410 50.68 410 50 410 C50 408.02 50 406.04 50 404 C49.34 404 48.68 404 48 404 C47.67 399.38 47.34 394.76 47 390 C46.34 390 45.68 390 45 390 C44.67 385.38 44.34 380.76 44 376 C43.34 376 42.68 376 42 376 C41.67 371.38 41.34 366.76 41 362 C40.34 362 39.68 362 39 362 C38.855625 360.865625 38.71125 359.73125 38.5625 358.5625 C38.38828522 355.19222799 38.38828522 355.19222799 37 354 C36.62742948 351.86063023 36.30149918 349.71303715 36 347.5625 C35.47882609 343.13450925 35.47882609 343.13450925 34 339 C33.960008 337.00039988 33.95653201 334.99952758 34 333 C33.34 333 32.68 333 32 333 C32 333.99 32 334.98 32 336 C31.34 336 30.68 336 30 336 C29.938125 336.5775 29.87625 337.155 29.8125 337.75 C28.6726745 340.90643986 26.66405371 342.03367464 24 344 C23.1646875 344.86625 23.1646875 344.86625 22.3125 345.75 C21 347 21 347 19 347 C18.67 348.32 18.34 349.64 18 351 C17.34 351 16.68 351 16 351 C15.67 352.32 15.34 353.64 15 355 C14.34 355 13.68 355 13 355 C12.67 355.99 12.34 356.98 12 358 C11.34 358 10.68 358 10 358 C10 358.66 10 359.32 10 360 C6.67032582 360.83241855 4.24733335 361.2757381 1 360 C0.67 359.34 0.34 358.68 0 358 C-0.99 357.67 -1.98 357.34 -3 357 C-3 356.34 -3 355.68 -3 355 C-3.66 355 -4.32 355 -5 355 C-5 353.02 -5 351.04 -5 349 C-6.65 349 -8.3 349 -10 349 C-10 348.34 -10 347.68 -10 347 C-12.64 346.67 -15.28 346.34 -18 346 C-18 345.34 -18 344.68 -18 344 C-19.175625 343.896875 -20.35125 343.79375 -21.5625 343.6875 C-25.82485903 343.17085042 -29.14087534 341.8491639 -33 340 C-33 339.34 -33 338.68 -33 338 C-33.66 338 -34.32 338 -35 338 C-35 337.34 -35 336.68 -35 336 C-35.66 336 -36.32 336 -37 336 C-36.125 332.125 -36.125 332.125 -35 331 C-33.00035018 330.91241997 -30.9976389 330.89303424 -28.99609375 330.90234375 C-27.78115234 330.90556641 -26.56621094 330.90878906 -25.31445312 330.91210938 C-23.39536133 330.92467773 -23.39536133 330.92467773 -21.4375 330.9375 C-20.15423828 330.94201172 -18.87097656 330.94652344 -17.54882812 330.95117188 C-14.36583978 330.96300455 -11.18294238 330.97948932 -8 331 C-7.67 330.01 -7.34 329.02 -7 328 C-6.34 328 -5.68 328 -5 328 C-5 327.34 -5 326.68 -5 326 C-4.34 326 -3.68 326 -3 326 C-2.67 324.35 -2.34 322.7 -2 321 C-1.34 321 -0.68 321 0 321 C0.33 319.02 0.66 317.04 1 315 C1.66 315 2.32 315 3 315 C3.33 313.02 3.66 311.04 4 309 C4.66 309 5.32 309 6 309 C6 308.01 6 307.02 6 306 C6.66 306 7.32 306 8 306 C8.33 304.02 8.66 302.04 9 300 C9.66 300 10.32 300 11 300 C11.1546875 299.01 11.1546875 299.01 11.3125 298 C12.19213564 294.16158991 13.56969896 290.66903309 15 287 C15.66 287 16.32 287 17 287 C17 286.01 17 285.02 17 284 C17.66 284 18.32 284 19 284 C19 276.74 19 269.48 19 262 C18.34 262 17.68 262 17 262 C16.01 257.38 15.02 252.76 14 248 C13.34 248.99 12.68 249.98 12 251 C11.34 251 10.68 251 10 251 C9.87625 251.70125 9.7525 252.4025 9.625 253.125 C8.96161655 256.17656387 8.02788045 259.05340938 7 262 C6.34 262 5.68 262 5 262 C4.67 264.31 4.34 266.62 4 269 C3.34 269 2.68 269 2 269 C1.938125 269.804375 1.87625 270.60875 1.8125 271.4375 C0.73463007 276.1635451 -1.51591419 279.87513427 -4 284 C-4.66 284 -5.32 284 -6 284 C-6.33 286.31 -6.66 288.62 -7 291 C-7.66 291 -8.32 291 -9 291 C-9.33 292.32 -9.66 293.64 -10 295 C-10.66 295 -11.32 295 -12 295 C-12 296.32 -12 297.64 -12 299 C-13.28965176 300.37562854 -14.62689293 301.70766393 -16 303 C-16.33 303.721875 -16.66 304.44375 -17 305.1875 C-17.33 305.785625 -17.66 306.38375 -18 307 C-19.32594105 307.36162029 -20.65938457 307.69728039 -22 308 C-22.33 308.99 -22.66 309.98 -23 311 C-23.66 311 -24.32 311 -25 311 C-25.33 311.99 -25.66 312.98 -26 314 C-26.66 314 -27.32 314 -28 314 C-28.268125 314.639375 -28.53625 315.27875 -28.8125 315.9375 C-30 318 -30 318 -33 319 C-33.33 319.99 -33.66 320.98 -34 322 C-34.99 322 -35.98 322 -37 322 C-37 322.66 -37 323.32 -37 324 C-38.375 325.625 -38.375 325.625 -40 327 C-40.66 327 -41.32 327 -42 327 C-42 327.66 -42 328.32 -42 329 C-43.65 329.33 -45.3 329.66 -47 330 C-47.33 330.99 -47.66 331.98 -48 333 C-48.99 333 -49.98 333 -51 333 C-51 333.66 -51 334.32 -51 335 C-52.32 335.33 -53.64 335.66 -55 336 C-55 336.66 -55 337.32 -55 338 C-55.99 338 -56.98 338 -58 338 C-58.33 338.99 -58.66 339.98 -59 341 C-61.92079805 343.07530387 -63.37546731 344 -67 344 C-67 344.66 -67 345.32 -67 346 C-67.78375 346.0825 -68.5675 346.165 -69.375 346.25 C-72.1446618 346.70849401 -72.1446618 346.70849401 -73.125 349 C-73.41375 349.66 -73.7025 350.32 -74 351 C-74.99 351.33 -75.98 351.66 -77 352 C-77.33 352.66 -77.66 353.32 -78 354 C-80.5625 354.625 -80.5625 354.625 -83 355 C-83 355.66 -83 356.32 -83 357 C-84.65 357.33 -86.3 357.66 -88 358 C-88.33 359.32 -88.66 360.64 -89 362 C-89.639375 362.103125 -90.27875 362.20625 -90.9375 362.3125 C-91.618125 362.539375 -92.29875 362.76625 -93 363 C-93.33 363.99 -93.66 364.98 -94 366 C-94.66 366 -95.32 366 -96 366 C-96.33 367.65 -96.66 369.3 -97 371 C-97.66 371 -98.32 371 -99 371 C-99 377.6 -99 384.2 -99 391 C-98.34 391 -97.68 391 -97 391 C-97 392.65 -97 394.3 -97 396 C-97.66 396 -98.32 396 -99 396 C-99 397.65 -99 399.3 -99 401 C-100.65 401 -102.3 401 -104 401 C-104 400.34 -104 399.68 -104 399 C-104.99 398.67 -105.98 398.34 -107 398 C-107 397.01 -107 396.02 -107 395 C-107.66 395 -108.32 395 -109 395 C-109 394.34 -109 393.68 -109 393 C-109.66 393 -110.32 393 -111 393 C-111.33 391.02 -111.66 389.04 -112 387 C-112.66 387 -113.32 387 -114 387 C-114.33 384.36 -114.66 381.72 -115 379 C-115.66 379 -116.32 379 -117 379 C-117.33 377.02 -117.66 375.04 -118 373 C-119.32 373 -120.64 373 -122 373 C-122.33 371.35 -122.66 369.7 -123 368 C-123.66 368 -124.32 368 -125 368 C-125.33 366.35 -125.66 364.7 -126 363 C-126.99 362.67 -127.98 362.34 -129 362 C-128.49135273 357.62563349 -127.57073772 354.59903281 -125 351 C-124.34 350.67 -123.68 350.34 -123 350 C-122.67 349.01 -122.34 348.02 -122 347 C-121.34 347 -120.68 347 -120 347 C-120 346.34 -120 345.68 -120 345 C-119.34 345 -118.68 345 -118 345 C-117.896875 344.236875 -117.79375 343.47375 -117.6875 342.6875 C-116.95288806 339.81583516 -116.3283935 338.76957906 -114 337 C-113.34 337 -112.68 337 -112 337 C-111.9175 336.38125 -111.835 335.7625 -111.75 335.125 C-110.76174558 332.32494581 -109.59640015 332.25886068 -107 331 C-105.81669817 329.13355094 -105.81669817 329.13355094 -105 327 C-104.33333333 325.66666667 -103.66666667 324.33333333 -103 323 C-102.34 323 -101.68 323 -101 323 C-100.67 322.01 -100.34 321.02 -100 320 C-99.34 320 -98.68 320 -98 320 C-98 319.34 -98 318.68 -98 318 C-97.34 318 -96.68 318 -96 318 C-95.67 316.68 -95.34 315.36 -95 314 C-94.34 314 -93.68 314 -93 314 C-92.938125 313.4225 -92.87625 312.845 -92.8125 312.25 C-91.66615826 309.07551517 -89.74043158 307.87151425 -87 306 C-86.34 306 -85.68 306 -85 306 C-84.67 304.35 -84.34 302.7 -84 301 C-83.34 301 -82.68 301 -82 301 C-81.67 300.01 -81.34 299.02 -81 298 C-80.34 298 -79.68 298 -79 298 C-78.67 297.01 -78.34 296.02 -78 295 C-77.34 295 -76.68 295 -76 295 C-76 294.34 -76 293.68 -76 293 C-74.34928604 291.97388051 -72.68029994 290.97691857 -71 290 C-70.443125 289.443125 -69.88625 288.88625 -69.3125 288.3125 C-68.879375 287.879375 -68.44625 287.44625 -68 287 C-67.34 287 -66.68 287 -66 287 C-65.67 286.01 -65.34 285.02 -65 284 C-64.34 284 -63.68 284 -63 284 C-62.938125 283.4225 -62.87625 282.845 -62.8125 282.25 C-61.66615826 279.07551517 -59.74043158 277.87151425 -57 276 C-56.34 276 -55.68 276 -55 276 C-54.67 274.35 -54.34 272.7 -54 271 C-53.34 271 -52.68 271 -52 271 C-51.67 267.37 -51.34 263.74 -51 260 C-50.34 260 -49.68 260 -49 260 C-48.67 254.72 -48.34 249.44 -48 244 C-47.34 244 -46.68 244 -46 244 C-46 241.36 -46 238.72 -46 236 C-45.34 236 -44.68 236 -44 236 C-44.01160156 235.443125 -44.02320313 234.88625 -44.03515625 234.3125 C-44.09676433 229.10221657 -43.74999344 224.1562049 -43 219 C-42.34 219 -41.68 219 -41 219 C-40.67 215.37 -40.34 211.74 -40 208 C-39.34 208 -38.68 208 -38 208 C-37.67 205.36 -37.34 202.72 -37 200 C-36.34 200 -35.68 200 -35 200 C-34.87625 199.29875 -34.7525 198.5975 -34.625 197.875 C-33.95731453 194.80364682 -33.13303617 191.9325642 -32 189 C-31.34 188.67 -30.68 188.34 -30 188 C-29.8453125 187.1028125 -29.8453125 187.1028125 -29.6875 186.1875 C-28.6841693 182.99508413 -26.7037837 181.84648643 -24 180 C-23.34 180 -22.68 180 -22 180 C-21.938125 179.4225 -21.87625 178.845 -21.8125 178.25 C-20.6812921 175.11742429 -18.62052199 173.96539149 -16 172 C-15.67 171.34 -15.34 170.68 -15 170 C-14.34 170 -13.68 170 -13 170 C-13 169.34 -13 168.68 -13 168 C-13.66 168 -14.32 168 -15 168 C-15.33 166.35 -15.66 164.7 -16 163 C-16.66 163 -17.32 163 -18 163 C-18.18175781 162.43410156 -18.36351562 161.86820313 -18.55078125 161.28515625 C-18.92783203 160.18494141 -18.92783203 160.18494141 -19.3125 159.0625 C-19.55613281 158.33160156 -19.79976562 157.60070312 -20.05078125 156.84765625 C-20.91240441 154.64067976 -20.91240441 154.64067976 -24 154 C-24 153.34 -24 152.68 -24 152 C-24.99 151.67 -25.98 151.34 -27 151 C-29.28581149 146.97396166 -30.43355981 142.62463797 -30 138 C-30.66 138 -31.32 138 -32 138 C-31.34 135.03 -30.68 132.06 -30 129 C-30.66 129 -31.32 129 -32 129 C-32.12375 128.360625 -32.2475 127.72125 -32.375 127.0625 C-32.58125 126.381875 -32.7875 125.70125 -33 125 C-33.66 124.67 -34.32 124.34 -35 124 C-35 123.01 -35 122.02 -35 121 C-35.66 121 -36.32 121 -37 121 C-37.33 119.35 -37.66 117.7 -38 116 C-38.66 116 -39.32 116 -40 116 C-42.3283935 114.23042094 -42.95288806 113.18416484 -43.6875 110.3125 C-43.790625 109.549375 -43.89375 108.78625 -44 108 C-44 108.66 -44 109.32 -44 110 C-46.97 110.495 -46.97 110.495 -50 111 C-50 111.66 -50 112.32 -50 113 C-52.97 113.495 -52.97 113.495 -56 114 C-56 114.66 -56 115.32 -56 116 C-56.99 116 -57.98 116 -59 116 C-59 116.66 -59 117.32 -59 118 C-61.475 118.495 -61.475 118.495 -64 119 C-64 119.66 -64 120.32 -64 121 C-66.97 121.495 -66.97 121.495 -70 122 C-70 122.66 -70 123.32 -70 124 C-73.465 124.495 -73.465 124.495 -77 125 C-77 125.66 -77 126.32 -77 127 C-79.95481492 129.74375671 -80.77471908 130 -85 130 C-85 130.66 -85 131.32 -85 132 C-86.98 132.33 -88.96 132.66 -91 133 C-91 133.66 -91 134.32 -91 135 C-96.625 138 -96.625 138 -100 138 C-100 138.66 -100 139.32 -100 140 C-102.31 140.33 -104.62 140.66 -107 141 C-107 141.66 -107 142.32 -107 143 C-108.8708878 143.67812114 -110.74694293 144.3419946 -112.625 145 C-113.66914062 145.37125 -114.71328125 145.7425 -115.7890625 146.125 C-119.01774506 147.00483564 -121.67244294 147.15988262 -125 147 C-125 147.66 -125 148.32 -125 149 C-126.65 149 -128.3 149 -130 149 C-130 149.66 -130 150.32 -130 151 C-134.62 151.33 -139.24 151.66 -144 152 C-144 152.66 -144 153.32 -144 154 C-148.12451643 154.19931095 -152.24960947 154.38226449 -156.375 154.5625 C-157.53128906 154.61857422 -158.68757813 154.67464844 -159.87890625 154.73242188 C-166.6942169 155.02120622 -173.23731984 154.92675197 -180 154 C-180 153.34 -180 152.68 -180 152 C-182.31 152 -184.62 152 -187 152 C-187 152.66 -187 153.32 -187 154 C-189.64 154.33 -192.28 154.66 -195 155 C-195 155.66 -195 156.32 -195 157 C-195.99 157.33 -196.98 157.66 -198 158 C-198.33 158.66 -198.66 159.32 -199 160 C-199.66 160 -200.32 160 -201 160 C-201 160.66 -201 161.32 -201 162 C-202.32 162 -203.64 162 -205 162 C-205.495 161.01 -205.495 161.01 -206 160 C-207.65 160 -209.3 160 -211 160 C-211.33 159.34 -211.66 158.68 -212 158 C-213.32 158 -214.64 158 -216 158 C-216 155.03 -216 152.06 -216 149 C-218.64 149 -221.28 149 -224 149 C-224 147.02 -224 145.04 -224 143 C-222.35 142.67 -220.7 142.34 -219 142 C-219 141.34 -219 140.68 -219 140 C-217.02 139.67 -215.04 139.34 -213 139 C-213 138.34 -213 137.68 -213 137 C-210.36 136.67 -207.72 136.34 -205 136 C-205 135.34 -205 134.68 -205 134 C-203.02 134 -201.04 134 -199 134 C-199 133.34 -199 132.68 -199 132 C-195.7 131.67 -192.4 131.34 -189 131 C-188.67 130.01 -188.34 129.02 -188 128 C-187.34 128 -186.68 128 -186 128 C-185.505 126.515 -185.505 126.515 -185 125 C-184.34 125 -183.68 125 -183 125 C-183 124.34 -183 123.68 -183 123 C-182.01 123 -181.02 123 -180 123 C-180 122.34 -180 121.68 -180 121 C-179.09507812 120.81824219 -179.09507812 120.81824219 -178.171875 120.6328125 C-177.37265625 120.46523438 -176.5734375 120.29765625 -175.75 120.125 C-174.96109375 119.96257812 -174.1721875 119.80015625 -173.359375 119.6328125 C-170.98895313 119.08892402 -170.98895313 119.08892402 -168.953125 117.9296875 C-167 117 -167 117 -163 117 C-163 116.34 -163 115.68 -163 115 C-161.35 115 -159.7 115 -158 115 C-158 114.34 -158 113.68 -158 113 C-153.05 112.505 -153.05 112.505 -148 112 C-148 111.34 -148 110.68 -148 110 C-146.02 109.67 -144.04 109.34 -142 109 C-142 108.34 -142 107.68 -142 107 C-139.36 106.67 -136.72 106.34 -134 106 C-134 105.34 -134 104.68 -134 104 C-133.01 104 -132.02 104 -131 104 C-131 103.34 -131 102.68 -131 102 C-129.35 101.67 -127.7 101.34 -126 101 C-126 100.34 -126 99.68 -126 99 C-124.02 98.67 -122.04 98.34 -120 98 C-120 97.34 -120 96.68 -120 96 C-116.53846154 93 -116.53846154 93 -114 93 C-114 92.34 -114 91.68 -114 91 C-112.35 90.67 -110.7 90.34 -109 90 C-109 89.34 -109 88.68 -109 88 C-103.58823529 84 -103.58823529 84 -101 84 C-101 83.34 -101 82.68 -101 82 C-100.01 82 -99.02 82 -98 82 C-98 81.34 -98 80.68 -98 80 C-95.525 79.505 -95.525 79.505 -93 79 C-92.67 78.01 -92.34 77.02 -92 76 C-91.01 76 -90.02 76 -89 76 C-89 75.34 -89 74.68 -89 74 C-86.525 73.505 -86.525 73.505 -84 73 C-84 72.34 -84 71.68 -84 71 C-83.34 71 -82.68 71 -82 71 C-82 70.34 -82 69.68 -82 69 C-80.73308493 68.32591692 -79.46129251 67.66099503 -78.1875 67 C-77.47980469 66.62875 -76.77210938 66.2575 -76.04296875 65.875 C-74 65 -74 65 -71 65 C-70.67 64.01 -70.34 63.02 -70 62 C-68.68 62 -67.36 62 -66 62 C-66 61.34 -66 60.68 -66 60 C-65.01 60 -64.02 60 -63 60 C-63 59.34 -63 58.68 -63 58 C-60.36 57.67 -57.72 57.34 -55 57 C-55 56.34 -55 55.68 -55 55 C-52.03 54.505 -52.03 54.505 -49 54 C-49 53.34 -49 52.68 -49 52 C-47.35 52 -45.7 52 -44 52 C-44 51.34 -44 50.68 -44 50 C-36.45079357 47.00634918 -30.1125455 45.86012853 -22 46 C-22 45.34 -22 44.68 -22 44 C-19.03 44 -16.06 44 -13 44 C-13 40.7 -13 37.4 -13 34 C-13.66 34 -14.32 34 -15 34 C-15 29.38 -15 24.76 -15 20 C-15.66 20.33 -16.32 20.66 -17 21 C-19.6723621 21.13415472 -22.32250488 21.04318541 -25 21 C-25 21.66 -25 22.32 -25 23 C-26.26839526 23.50615298 -27.53983102 24.00469099 -28.8125 24.5 C-29.87404297 24.91765625 -29.87404297 24.91765625 -30.95703125 25.34375 C-33 26 -33 26 -36 26 C-36 26.66 -36 27.32 -36 28 C-38.97 28.495 -38.97 28.495 -42 29 C-42 29.66 -42 30.32 -42 31 C-43.65 31.33 -45.3 31.66 -47 32 C-47 32.66 -47 33.32 -47 34 C-47.99 34 -48.98 34 -50 34 C-50.33 34.99 -50.66 35.98 -51 37 C-52.32 37 -53.64 37 -55 37 C-55 37.66 -55 38.32 -55 39 C-56.32 39.33 -57.64 39.66 -59 40 C-59 40.66 -59 41.32 -59 42 C-61.97 42.495 -61.97 42.495 -65 43 C-65 43.66 -65 44.32 -65 45 C-65.66 45 -66.32 45 -67 45 C-67 45.66 -67 46.32 -67 47 C-69.64 47.33 -72.28 47.66 -75 48 C-75 48.66 -75 49.32 -75 50 C-79.95 50.495 -79.95 50.495 -85 51 C-85 51.66 -85 52.32 -85 53 C-89.14427102 53.04976954 -93.28837953 53.08589288 -97.43286133 53.10986328 C-98.84011876 53.11986557 -100.2473557 53.13347178 -101.65454102 53.15087891 C-103.68771448 53.17538366 -105.72061106 53.18654083 -107.75390625 53.1953125 C-108.97408447 53.20578613 -110.1942627 53.21625977 -111.45141602 53.22705078 C-115.22412322 52.98565981 -118.40917866 52.15246048 -122 51 C-123.33130115 50.65864073 -124.66358148 50.32074044 -126 50 C-126 49.34 -126 48.68 -126 48 C-127.98 47.505 -127.98 47.505 -130 47 C-130.495 45.02 -130.495 45.02 -131 43 C-125.72 43 -120.44 43 -115 43 C-115 42.34 -115 41.68 -115 41 C-113.02 41 -111.04 41 -109 41 C-109 40.34 -109 39.68 -109 39 C-107.88625 38.71125 -106.7725 38.4225 -105.625 38.125 C-101.99708908 37.30758671 -101.99708908 37.30758671 -100 35 C-98.68 35 -97.36 35 -96 35 C-95.67 34.01 -95.34 33.02 -95 32 C-94.01 32 -93.02 32 -92 32 C-92 31.34 -92 30.68 -92 30 C-91.34 30 -90.68 30 -90 30 C-90 29.34 -90 28.68 -90 28 C-88.35 27.67 -86.7 27.34 -85 27 C-84.67 26.01 -84.34 25.02 -84 24 C-83.34 24 -82.68 24 -82 24 C-82 23.34 -82 22.68 -82 22 C-81.01 21.67 -80.02 21.34 -79 21 C-78.67 20.34 -78.34 19.68 -78 19 C-76.68 19 -75.36 19 -74 19 C-74 18.34 -74 17.68 -74 17 C-71.03 16.505 -71.03 16.505 -68 16 C-68 15.34 -68 14.68 -68 14 C-65.36 13.67 -62.72 13.34 -60 13 C-60 12.34 -60 11.68 -60 11 C-55.32798795 9.79431947 -50.78503708 9.90617574 -46 10 C-46 9.34 -46 8.68 -46 8 C-37.42 8 -28.84 8 -20 8 C-20 8.66 -20 9.32 -20 10 C-17.03 10 -14.06 10 -11 10 C-10.67 8.35 -10.34 6.7 -10 5 C-9.34 5 -8.68 5 -8 5 C-8 4.34 -8 3.68 -8 3 C-5.36 2.67 -2.72 2.34 0 2 C0 1.34 0 0.68 0 0 Z M43 88 C43 89.65 43 91.3 43 93 C43.66 93 44.32 93 45 93 C44.67 91.35 44.34 89.7 44 88 C43.67 88 43.34 88 43 88 Z M45 95 C45.33 97.31 45.66 99.62 46 102 C46.66 102 47.32 102 48 102 C48.33 106.29 48.66 110.58 49 115 C49.66 115 50.32 115 51 115 C51 117.64 51 120.28 51 123 C51.66 123.33 52.32 123.66 53 124 C53 123.01 53 122.02 53 121 C53.99 120.67 54.98 120.34 56 120 C56 119.01 56 118.02 56 117 C56.66 117 57.32 117 58 117 C58 116.34 58 115.68 58 115 C58.66 115 59.32 115 60 115 C60.33 113.35 60.66 111.7 61 110 C61.66 110 62.32 110 63 110 C63.33 109.01 63.66 108.02 64 107 C64.66 106.67 65.32 106.34 66 106 C66 105.01 66 104.02 66 103 C60.555 102.505 60.555 102.505 55 102 C55 101.34 55 100.68 55 100 C52.69 99.67 50.38 99.34 48 99 C47.67 97.68 47.34 96.36 47 95 C46.34 95 45.68 95 45 95 Z M53 132 C53.11339204 134.64680904 53.24012873 137.29177518 53.375 139.9375 C53.4059375 140.69224609 53.436875 141.44699219 53.46875 142.22460938 C53.5726315 144.15507395 53.77895614 146.07942081 54 148 C54.66 148.33 55.32 148.66 56 149 C55.67 143.39 55.34 137.78 55 132 C54.34 132 53.68 132 53 132 Z M93.9375 140.8125 C91.66848238 142.88726618 91.66848238 142.88726618 92 146 C91.01 146.33 90.02 146.66 89 147 C89 148.32 89 149.64 89 151 C88.01 151.33 87.02 151.66 86 152 C86 152.99 86 153.98 86 155 C85.34 155 84.68 155 84 155 C84 155.99 84 156.98 84 158 C83.34 158 82.68 158 82 158 C81.9071875 158.86625 81.9071875 158.86625 81.8125 159.75 C80.6812921 162.88257571 78.62052199 164.03460851 76 166 C75.67 166.66 75.34 167.32 75 168 C72.9375 168.625 72.9375 168.625 71 169 C71 169.66 71 170.32 71 171 C70.01 171 69.02 171 68 171 C68 171.66 68 172.32 68 173 C63.05 173 58.1 173 53 173 C52.34 174.32 51.68 175.64 51 177 C50.01 177.495 50.01 177.495 49 178 C49.66 178 50.32 178 51 178 C51 178.99 51 179.98 51 181 C51.66 181 52.32 181 53 181 C53.33 183.64 53.66 186.28 54 189 C54.66 189 55.32 189 56 189 C56.33 192.3 56.66 195.6 57 199 C57.66 199 58.32 199 59 199 C59.33 201.97 59.66 204.94 60 208 C60.66 208 61.32 208 62 208 C62 209.98 62 211.96 62 214 C65.76290733 211.60542261 68.90387348 209.19600157 72 206 C73.66270287 204.66172696 75.32916181 203.32810215 77 202 C78.77277259 200.47992158 78.77277259 200.47992158 80 199 C80 198.34 80 197.68 80 197 C80.66 197 81.32 197 82 197 C82.495 196.01 82.495 196.01 83 195 C83.99 194.67 84.98 194.34 86 194 C86 193.34 86 192.68 86 192 C86.99 191.67 87.98 191.34 89 191 C89 190.34 89 189.68 89 189 C91.475 188.505 91.475 188.505 94 188 C94 187.34 94 186.68 94 186 C94.66 186 95.32 186 96 186 C96.495 185.01 96.495 185.01 97 184 C97.99 183.67 98.98 183.34 100 183 C100 182.34 100 181.68 100 181 C101.98 180.505 101.98 180.505 104 180 C104 179.34 104 178.68 104 178 C105.98 177.505 105.98 177.505 108 177 C107.67 176.01 107.34 175.02 107 174 C106.34 174 105.68 174 105 174 C104.505 170.04 104.505 170.04 104 166 C103.34 166 102.68 166 102 166 C101.13328836 161.91630459 100.51698208 157.82113885 99.9375 153.6875 C99.76089844 152.43324219 99.58429688 151.17898438 99.40234375 149.88671875 C99.20318359 148.45779297 99.20318359 148.45779297 99 147 C98.34 147 97.68 147 97 147 C97 144.36 97 141.72 97 139 C95.66757159 138.8899809 95.66757159 138.8899809 93.9375 140.8125 Z M54 166 C55 170 55 170 55 170 Z M-10 174 C-10 174.66 -10 175.32 -10 176 C-11.32 176.33 -12.64 176.66 -14 177 C-14.103125 177.639375 -14.20625 178.27875 -14.3125 178.9375 C-14.539375 179.618125 -14.76625 180.29875 -15 181 C-15.99 181.33 -16.98 181.66 -18 182 C-18 182.66 -18 183.32 -18 184 C-19.32 184.33 -20.64 184.66 -22 185 C-22.33 186.65 -22.66 188.3 -23 190 C-23.66 190 -24.32 190 -25 190 C-25.495 192.475 -25.495 192.475 -26 195 C-26.66 195 -27.32 195 -28 195 C-28.50615298 196.26839526 -29.00469099 197.53983102 -29.5 198.8125 C-29.7784375 199.52019531 -30.056875 200.22789062 -30.34375 200.95703125 C-31.1529162 203.11841216 -31.1529162 203.11841216 -31 206 C-31.66 206 -32.32 206 -33 206 C-34.17571451 209.67410785 -34.07366746 213.16929183 -34 217 C-34.66 217 -35.32 217 -36 217 C-36.33 220.96 -36.66 224.92 -37 229 C-37.66 229 -38.32 229 -39 229 C-39.74507544 235.37305598 -40.10349817 241.58311325 -40 248 C-40.66 248 -41.32 248 -42 248 C-42 250.64 -42 253.28 -42 256 C-42.66 256 -43.32 256 -44 256 C-44.33 260.29 -44.66 264.58 -45 269 C-45.66 269 -46.32 269 -47 269 C-47.0825 270.27875 -47.165 271.5575 -47.25 272.875 C-47.515625 275.1015625 -47.515625 275.1015625 -48 277 C-50 278.25 -50 278.25 -52 279 C-52.36162029 280.32594105 -52.69728039 281.65938457 -53 283 C-54.485 283.495 -54.485 283.495 -56 284 C-56 284.66 -56 285.32 -56 286 C-56.66 286 -57.32 286 -58 286 C-58.33 286.66 -58.66 287.32 -59 288 C-59.99 288.33 -60.98 288.66 -62 289 C-62.33 289.66 -62.66 290.32 -63 291 C-63.99 291.33 -64.98 291.66 -66 292 C-69.03277199 295.05508026 -69.03277199 295.05508026 -70 299 C-70.99 299.33 -71.98 299.66 -73 300 C-73 300.66 -73 301.32 -73 302 C-74.32 302.33 -75.64 302.66 -77 303 C-77.33 304.65 -77.66 306.3 -78 308 C-78.66 308 -79.32 308 -80 308 C-81.66666667 309.33333333 -81.66666667 309.33333333 -83 311 C-83 311.66 -83 312.32 -83 313 C-83.99 313.33 -84.98 313.66 -86 314 C-86 314.66 -86 315.32 -86 316 C-86.66 316 -87.32 316 -88 316 C-89.38509525 317.62390477 -90.70758949 319.30140333 -92 321 C-92.91388312 322.06489515 -93.83055499 323.12740335 -94.75 324.1875 C-97.20823168 326.65999671 -97.20823168 326.65999671 -97 329 C-97.99 329.33 -98.98 329.66 -100 330 C-100 330.99 -100 331.98 -100 333 C-100.66 333 -101.32 333 -102 333 C-103.66666667 334.33333333 -103.66666667 334.33333333 -105 336 C-105 336.66 -105 337.32 -105 338 C-105.66 338 -106.32 338 -107 338 C-107.33 339.65 -107.66 341.3 -108 343 C-108.99 343.33 -109.98 343.66 -111 344 C-111 344.66 -111 345.32 -111 346 C-111.99 346.33 -112.98 346.66 -114 347 C-114.70151152 348.3153341 -115.36525925 349.65117592 -116 351 C-116.53625 351.515625 -117.0725 352.03125 -117.625 352.5625 C-119.34561132 354.02978279 -119.34561132 354.02978279 -119 357 C-119.99 357.33 -120.98 357.66 -122 358 C-121.67 358.99 -121.34 359.98 -121 361 C-120.34 361 -119.68 361 -119 361 C-119 361.99 -119 362.98 -119 364 C-118.34 364 -117.68 364 -117 364 C-117 363.34 -117 362.68 -117 362 C-115.68 362 -114.36 362 -113 362 C-112.86722656 362.73605469 -112.73445313 363.47210937 -112.59765625 364.23046875 C-112.42105469 365.20628906 -112.24445313 366.18210937 -112.0625 367.1875 C-111.88847656 368.15042969 -111.71445313 369.11335937 -111.53515625 370.10546875 C-111.0476265 372.74239972 -110.53328895 375.3719905 -110 378 C-109.34 378 -108.68 378 -108 378 C-107.67 379.98 -107.34 381.96 -107 384 C-106.67 384 -106.34 384 -106 384 C-106 380.37 -106 376.74 -106 373 C-105.34 373 -104.68 373 -104 373 C-103.67 370.36 -103.34 367.72 -103 365 C-102.34 365 -101.68 365 -101 365 C-100.67 364.01 -100.34 363.02 -100 362 C-99.34 361.67 -98.68 361.34 -98 361 C-98 360.34 -98 359.68 -98 359 C-97.01 358.67 -96.02 358.34 -95 358 C-95 357.34 -95 356.68 -95 356 C-94.34 356 -93.68 356 -93 356 C-93 355.34 -93 354.68 -93 354 C-91.88625 353.566875 -91.88625 353.566875 -90.75 353.125 C-88.43260203 352.17697356 -86.22082885 351.15154089 -84 350 C-84 349.34 -84 348.68 -84 348 C-83.21625 347.896875 -82.4325 347.79375 -81.625 347.6875 C-78.66954819 347.22404978 -78.66954819 347.22404978 -77 344 C-74.875 342.8125 -74.875 342.8125 -73 342 C-73 341.34 -73 340.68 -73 340 C-71.35 339.67 -69.7 339.34 -68 339 C-68 338.34 -68 337.68 -68 337 C-66.35 336.67 -64.7 336.34 -63 336 C-63 335.34 -63 334.68 -63 334 C-62.01 334 -61.02 334 -60 334 C-58.97702078 333.02351983 -57.98095748 332.01868662 -57 331 C-55.6696875 330.2265625 -55.6696875 330.2265625 -54.3125 329.4375 C-53.549375 328.963125 -52.78625 328.48875 -52 328 C-52 327.34 -52 326.68 -52 326 C-50.68 325.67 -49.36 325.34 -48 325 C-48 324.34 -48 323.68 -48 323 C-47.34 323 -46.68 323 -46 323 C-46 322.34 -46 321.68 -46 321 C-45.2575 320.938125 -44.515 320.87625 -43.75 320.8125 C-40.146624 319.74786618 -39.2452874 317.94693971 -37 315 C-35.34338239 313.98343919 -33.67888441 312.97934924 -32 312 C-32 311.34 -32 310.68 -32 310 C-31.01 309.67 -30.02 309.34 -29 309 C-29 308.34 -29 307.68 -29 307 C-28.01 306.67 -27.02 306.34 -26 306 C-26 305.34 -26 304.68 -26 304 C-25.34 304 -24.68 304 -24 304 C-24 303.34 -24 302.68 -24 302 C-23.34 302 -22.68 302 -22 302 C-21.505 300.515 -21.505 300.515 -21 299 C-20.484375 298.505 -19.96875 298.01 -19.4375 297.5 C-17.65404732 295.98527194 -17.65404732 295.98527194 -18 293 C-17.34 293 -16.68 293 -16 293 C-13.95830515 290.09451118 -13 288.59857954 -13 285 C-12.34 285 -11.68 285 -11 285 C-10.67 283.02 -10.34 281.04 -10 279 C-9.34 279 -8.68 279 -8 279 C-5.64089647 274.7362719 -5.64089647 274.7362719 -5 270 C-4.34 270 -3.68 270 -3 270 C-2.67 267.69 -2.34 265.38 -2 263 C-1.34 263 -0.68 263 0 263 C0.33 261.02 0.66 259.04 1 257 C1.66 257 2.32 257 3 257 C3.33 255.02 3.66 253.04 4 251 C4.66 251 5.32 251 6 251 C6 249.68 6 248.36 6 247 C6.66 247 7.32 247 8 247 C8.33 244.36 8.66 241.72 9 239 C9.66 239 10.32 239 11 239 C11.33 237.02 11.66 235.04 12 233 C14.97 232.505 14.97 232.505 18 232 C18.33 235.63 18.66 239.26 19 243 C19.66 243 20.32 243 21 243 C21 245.64 21 248.28 21 251 C21.66 251 22.32 251 23 251 C23.33 255.62 23.66 260.24 24 265 C24.66 265 25.32 265 26 265 C26.33 269.62 26.66 274.24 27 279 C27.66 279 28.32 279 29 279 C29.33 283.62 29.66 288.24 30 293 C30.66 293 31.32 293 32 293 C32 294.98 32 296.96 32 299 C32.66 299 33.32 299 34 299 C33.979375 300.175625 33.95875 301.35125 33.9375 302.5625 C33.93052739 306.47413467 34.35749657 310.14497944 35 314 C35.66 314 36.32 314 37 314 C37.33 318.62 37.66 323.24 38 328 C38.66 328 39.32 328 40 328 C39.979375 329.19625 39.95875 330.3925 39.9375 331.625 C39.93117429 335.18004869 40.30111125 338.50555624 41 342 C41.66 342 42.32 342 43 342 C43 344.64 43 347.28 43 350 C43.66 350 44.32 350 45 350 C45.33 354.62 45.66 359.24 46 364 C46.66 364 47.32 364 48 364 C48.33 368.62 48.66 373.24 49 378 C49.66 378 50.32 378 51 378 C50.979375 378.969375 50.95875 379.93875 50.9375 380.9375 C50.64381501 383.87465895 50.64381501 383.87465895 52 385 C52.397493 387.34723966 52.74368723 389.70328548 53.0625 392.0625 C53.32740234 393.99802734 53.32740234 393.99802734 53.59765625 395.97265625 C53.73042969 396.97167969 53.86320313 397.97070312 54 399 C54.66 399 55.32 399 56 399 C55.979375 400.0725 55.95875 401.145 55.9375 402.25 C55.9857984 405.14790424 56.13155885 407.28612141 57 410 C58.98 410 60.96 410 63 410 C63 408.35 63 406.7 63 405 C63.99 405 64.98 405 66 405 C66 404.34 66 403.68 66 403 C66.66 403 67.32 403 68 403 C68 403.66 68 404.32 68 405 C69.0725 405.495 70.145 405.99 71.25 406.5 C71.85328125 406.7784375 72.4565625 407.056875 73.078125 407.34375 C75.29242836 408.21542924 75.29242836 408.21542924 79 408 C79 408.66 79 409.32 79 410 C80.65 410 82.3 410 84 410 C83.34 409.67 82.68 409.34 82 409 C82 408.34 82 407.68 82 407 C81.38125 406.9175 80.7625 406.835 80.125 406.75 C78 406 78 406 76.8125 404.3125 C75.04638857 399.28587517 74.85012739 394.17361061 74.71875 388.88671875 C74.68100202 387.54361944 74.64324124 386.20052049 74.60546875 384.85742188 C74.55159066 382.75938916 74.49935616 380.66132229 74.44775391 378.56323242 C74.3962035 376.52509977 74.33894869 374.48718511 74.28125 372.44921875 C74.25095703 371.23580811 74.22066406 370.02239746 74.18945312 368.7722168 C74.31140052 366.09231714 74.31140052 366.09231714 73 365 C72.84684177 363.06855281 72.76156635 361.13168957 72.70288086 359.19506836 C72.66291489 357.95385727 72.62294891 356.71264618 72.58177185 355.43382263 C72.5426933 354.06916594 72.50371977 352.70450623 72.46484375 351.33984375 C72.42185306 349.95120457 72.37843661 348.56257851 72.33460999 347.17396545 C72.22021314 343.51292758 72.11162292 339.85173931 72.00421143 336.19049072 C71.8936611 332.45696464 71.77766098 328.72360842 71.66210938 324.99023438 C71.43605011 317.66031217 71.2161204 310.33022269 71 303 C70.34 303 69.68 303 69 303 C69.01740234 301.41058594 69.01740234 301.41058594 69.03515625 299.7890625 C69.04453476 298.40104342 69.05363489 297.01302245 69.0625 295.625 C69.07087891 294.92632812 69.07925781 294.22765625 69.08789062 293.5078125 C69.1835442 289.62704624 69.1835442 289.62704624 68 286 C67.79043996 284.20109441 67.63188906 282.39610564 67.5 280.58984375 C67.4175 279.51798828 67.335 278.44613281 67.25 277.34179688 C67.08304801 275.06838031 66.91638231 272.7949427 66.75 270.52148438 C66.6675 269.45091797 66.585 268.38035156 66.5 267.27734375 C66.4278125 266.28984131 66.355625 265.30233887 66.28125 264.28491211 C66.24251647 262.03737504 66.24251647 262.03737504 65 261 C64.77329092 259.44246949 64.60564908 257.87622641 64.46484375 256.30859375 C64.37783203 255.36435547 64.29082031 254.42011719 64.20117188 253.44726562 C64.11416016 252.45404297 64.02714844 251.46082031 63.9375 250.4375 C63.84662109 249.44041016 63.75574219 248.44332031 63.66210938 247.41601562 C63.43741186 244.94434298 63.21689649 242.47236744 63 240 C62.34 240 61.68 240 61 240 C61.061875 238.948125 61.12375 237.89625 61.1875 236.8125 C61.20146208 228.99373559 58.97517924 221.17686093 56 214 C55.32741333 211.66836622 54.66152556 209.3347961 54 207 C51.38831014 198.53391811 48.13942303 190.28035525 45 182 C43.68 182 42.36 182 41 182 C41 182.66 41 183.32 41 184 C28.79 184 16.58 184 4 184 C4 183.34 4 182.68 4 182 C2.02 181.67 0.04 181.34 -2 181 C-2.495 179.02 -2.495 179.02 -3 177 C-4.65 176.67 -6.3 176.34 -8 176 C-8 175.34 -8 174.68 -8 174 C-8.66 174 -9.32 174 -10 174 Z M166 177 C166 177.66 166 178.32 166 179 C165.34 179 164.68 179 164 179 C163.67 179.66 163.34 180.32 163 181 C160.71484375 182.0703125 160.71484375 182.0703125 157.9375 183.125 C156.55884766 183.65480469 156.55884766 183.65480469 155.15234375 184.1953125 C154.44207031 184.46085938 153.73179687 184.72640625 153 185 C153 185.66 153 186.32 153 187 C141.78 187 130.56 187 119 187 C119 186.34 119 185.68 119 185 C117.02 184.67 115.04 184.34 113 184 C113 183.34 113 182.68 113 182 C111.68 182 110.36 182 109 182 C108.67 182.66 108.34 183.32 108 184 C107.38125 184.144375 106.7625 184.28875 106.125 184.4375 C103.60341474 185.10497845 102.6144908 185.9818865 101 188 C101 188.66 101 189.32 101 190 C100.01 190 99.02 190 98 190 C96.27056525 191.31267956 96.27056525 191.31267956 95 193 C95 193.66 95 194.32 95 195 C94.278125 195.04125 93.55625 195.0825 92.8125 195.125 C88.88786532 196.34599746 87.51942432 198.83456945 85 202 C82.6875 203.375 82.6875 203.375 81 204 C81 204.66 81 205.32 81 206 C80.01 206.33 79.02 206.66 78 207 C78 207.66 78 208.32 78 209 C76.515 209.495 76.515 209.495 75 210 C75 210.66 75 211.32 75 212 C74.34 212 73.68 212 73 212 C73 212.66 73 213.32 73 214 C71.515 214.495 71.515 214.495 70 215 C70 215.66 70 216.32 70 217 C68.515 217.495 68.515 217.495 67 218 C67 218.66 67 219.32 67 220 C66.34 220 65.68 220 65 220 C65 222.31 65 224.62 65 227 C65.66 227 66.32 227 67 227 C67.33 233.27 67.66 239.54 68 246 C68.66 246 69.32 246 70 246 C70.33 252.93 70.66 259.86 71 267 C72.98 266.01 72.98 266.01 75 265 C75 264.34 75 263.68 75 263 C76.485 262.505 76.485 262.505 78 262 C78 261.34 78 260.68 78 260 C78.66 260 79.32 260 80 260 C80 259.34 80 258.68 80 258 C81.485 257.505 81.485 257.505 83 257 C83 256.34 83 255.68 83 255 C84.485 254.505 84.485 254.505 86 254 C86 253.34 86 252.68 86 252 C88.33214148 250.79371992 90.49642139 249.8345262 93 249 C94.33895632 247.33784732 95.67130142 245.67036393 97 244 C99.47835884 241.70640313 101.96357702 239.51821149 105 238 C105 237.34 105 236.68 105 236 C105.99 235.67 106.98 235.34 108 235 C108 234.34 108 233.68 108 233 C109.98 232.505 109.98 232.505 112 232 C112 231.34 112 230.68 112 230 C113.65 230 115.3 230 117 230 C116.505 234.95 116.505 234.95 116 240 C115.34 240 114.68 240 114 240 C114 241.32 114 242.64 114 244 C113.34 244 112.68 244 112 244 C111.67 245.98 111.34 247.96 111 250 C110.34 250 109.68 250 109 250 C108.67 251.65 108.34 253.3 108 255 C107.34 255 106.68 255 106 255 C106 255.99 106 256.98 106 258 C105.34 258 104.68 258 104 258 C103.67 259.98 103.34 261.96 103 264 C102.34 264 101.68 264 101 264 C100.67 265.98 100.34 267.96 100 270 C99.34 270 98.68 270 98 270 C97.67 272.64 97.34 275.28 97 278 C96.34 278 95.68 278 95 278 C95 279.98 95 281.96 95 284 C94.34 284 93.68 284 93 284 C93 291.26 93 298.52 93 306 C93.66 306 94.32 306 95 306 C95 307.32 95 308.64 95 310 C95.66 310 96.32 310 97 310 C97.495 313.465 97.495 313.465 98 317 C98.66 317 99.32 317 100 317 C100.495 319.475 100.495 319.475 101 322 C101.66 322 102.32 322 103 322 C103.33 323.98 103.66 325.96 104 328 C104.66 328 105.32 328 106 328 C107.11058786 330.07309734 107.97398494 331.88618411 108.5 334.1875 C108.665 334.785625 108.83 335.38375 109 336 C109.66 336.33 110.32 336.66 111 337 C111.33 337.99 111.66 338.98 112 340 C112.66 340 113.32 340 114 340 C115.07525194 342.65228812 116.09456151 345.28368454 117 348 C117.66 348 118.32 348 119 348 C119.495 350.475 119.495 350.475 120 353 C120.66 353 121.32 353 122 353 C122.33 354.98 122.66 356.96 123 359 C123.66 359 124.32 359 125 359 C125 359.99 125 360.98 125 362 C125.66 362 126.32 362 127 362 C127.1546875 362.99 127.1546875 362.99 127.3125 364 C128.19213564 367.83841009 129.56969896 371.33096691 131 375 C131.66 375 132.32 375 133 375 C133.33 376.98 133.66 378.96 134 381 C134.66 381 135.32 381 136 381 C136 383.31 136 385.62 136 388 C136.66 388 137.32 388 138 388 C138 389.65 138 391.3 138 393 C137.34 393 136.68 393 136 393 C136 394.65 136 396.3 136 398 C135.01 398.33 134.02 398.66 133 399 C133 399.66 133 400.32 133 401 C132.34 401 131.68 401 131 401 C131.33 401.66 131.66 402.32 132 403 C132.99 402.67 133.98 402.34 135 402 C135 401.34 135 400.68 135 400 C135.721875 399.7525 136.44375 399.505 137.1875 399.25 C140.33728832 397.85009408 142.52690339 396.40439949 145 394 C145.87943404 391.36539052 145.87943404 391.36539052 146 389 C150.55384615 388.63076923 150.55384615 388.63076923 152.8125 390.5 C153.4003125 391.2425 153.4003125 391.2425 154 392 C154.99 391.67 155.98 391.34 157 391 C157.97961897 388.06114308 158.03775226 386.94241475 157.66015625 383.98828125 C157.5199707 382.85229492 157.5199707 382.85229492 157.37695312 381.69335938 C157.27318359 380.90767578 157.16941406 380.12199219 157.0625 379.3125 C156.91264648 378.11657227 156.91264648 378.11657227 156.75976562 376.89648438 C156.51251153 374.93022565 156.25704363 372.96500294 156 371 C155.34 371 154.68 371 154 371 C154.0309375 370.15179687 154.061875 369.30359375 154.09375 368.4296875 C153.99438101 364.79443851 153.36398892 361.65295476 152.5 358.125 C152.2215625 356.97257813 151.943125 355.82015625 151.65625 354.6328125 C151.4396875 353.76398438 151.223125 352.89515625 151 352 C150.34 352 149.68 352 149 352 C148.896875 350.845 148.79375 349.69 148.6875 348.5 C148.13964887 343.98828481 146.7225121 340.19394251 145 336 C144.34 336 143.68 336 143 336 C143 334.68 143 333.36 143 332 C142.34 332 141.68 332 141 332 C140.505 328.535 140.505 328.535 140 325 C139.34 325 138.68 325 138 325 C137.896875 324.484375 137.79375 323.96875 137.6875 323.4375 C136.75736134 320.13973565 135.38604488 317.13366668 134 314 C133.34 314 132.68 314 132 314 C132 313.01 132 312.02 132 311 C131.34 311 130.68 311 130 311 C130 302.42 130 293.84 130 285 C131.32 284.67 132.64 284.34 134 284 C134.185625 283.0409375 134.185625 283.0409375 134.375 282.0625 C134.58125 281.381875 134.7875 280.70125 135 280 C135.66 279.67 136.32 279.34 137 279 C137.65555119 276.47266765 137.65555119 276.47266765 138 274 C138.66 274 139.32 274 140 274 C142.04169485 271.09451118 143 269.59857954 143 266 C143.99 265.67 144.98 265.34 146 265 C146 264.01 146 263.02 146 262 C146.66 262 147.32 262 148 262 C148.495 260.02 148.495 260.02 149 258 C149.66 258 150.32 258 151 258 C151.495 256.515 151.495 256.515 152 255 C152.66 254.360625 153.32 253.72125 154 253.0625 C156.12411418 250.87200726 156.31330134 249.84489443 157 247 C157.99 246.67 158.98 246.34 160 246 C160 245.01 160 244.02 160 243 C160.66 243 161.32 243 162 243 C162.33 241.35 162.66 239.7 163 238 C163.66 238 164.32 238 165 238 C165 237.34 165 236.68 165 236 C165.66 236 166.32 236 167 236 C167.33 234.02 167.66 232.04 168 230 C168.66 230 169.32 230 170 230 C175.7565394 216.14832708 176.50321662 199.89863303 170.875 185.88671875 C170.58625 185.26410156 170.2975 184.64148438 170 184 C169.34 184 168.68 184 168 184 C167.505 180.535 167.505 180.535 167 177 C166.67 177 166.34 177 166 177 Z M104 245 C105 247 105 247 105 247 Z M22 290 C21.67 291.32 21.34 292.64 21 294 C20.34 294 19.68 294 19 294 C18.67 295.98 18.34 297.96 18 300 C17.34 300 16.68 300 16 300 C15.67 302.31 15.34 304.62 15 307 C14.34 307 13.68 307 13 307 C12.54625 307.969375 12.0925 308.93875 11.625 309.9375 C10 313 10 313 8 314 C7.59270772 316.32156597 7.25561323 318.6568787 7 321 C6.34 321 5.68 321 5 321 C4.60167969 321.75925781 4.20335937 322.51851563 3.79296875 323.30078125 C3.26316406 324.29464844 2.73335937 325.28851563 2.1875 326.3125 C1.66542969 327.29863281 1.14335937 328.28476562 0.60546875 329.30078125 C-1.59848867 333.00621818 -2.88810787 334.62936929 -7 336 C-7 336.66 -7 337.32 -7 338 C-11.29 338 -15.58 338 -20 338 C-13.45286397 342.36475736 -5.70952465 343.37826414 2 344 C2 346.31 2 348.62 2 351 C2.66 351 3.32 351 4 351 C4 351.66 4 352.32 4 353 C5.32 353 6.64 353 8 353 C9.38509525 351.37609523 10.70758949 349.69859667 12 348 C13.14709232 346.99797322 14.31534381 346.01982345 15.5 345.0625 C18.77724282 342.33498823 20.89401072 339.70654114 23 336 C23 335.34 23 334.68 23 334 C23.66 334 24.32 334 25 334 C26.66666667 332.66666667 26.66666667 332.66666667 28 331 C28 330.34 28 329.68 28 329 C28.99 328.67 29.98 328.34 31 328 C31.1642672 319.95090734 30.35988732 312.70896525 28 305 C27.34 305 26.68 305 26 305 C26.020625 303.80375 26.04125 302.6075 26.0625 301.375 C26.06882571 297.81995131 25.69888875 294.49444376 25 291 C24.01 290.67 23.02 290.34 22 290 Z " fill="#FE3333" transform="translate(233,178)"/>
<path d="M0 0 C1.32 0 2.64 0 4 0 C4.495 2.97 4.495 2.97 5 6 C3.68 6.33 2.36 6.66 1 7 C0.9071875 7.86625 0.9071875 7.86625 0.8125 8.75 C-0.33384174 11.92448483 -2.25956842 13.12848575 -5 15 C-5.66 15 -6.32 15 -7 15 C-7.495 17.475 -7.495 17.475 -8 20 C-8.66 20 -9.32 20 -10 20 C-10.495 22.475 -10.495 22.475 -11 25 C-11.66 25 -12.32 25 -13 25 C-13.185625 26.3303125 -13.185625 26.3303125 -13.375 27.6875 C-13.94412736 30.70387502 -14.76614436 33.20326054 -16 36 C-16.66 36 -17.32 36 -18 36 C-18.33 39.63 -18.66 43.26 -19 47 C-19.66 47 -20.32 47 -21 47 C-21.33 50.96 -21.66 54.92 -22 59 C-22.66 59 -23.32 59 -24 59 C-23.98839844 59.61746094 -23.97679687 60.23492187 -23.96484375 60.87109375 C-23.90300337 66.67525544 -24.25721044 72.24338088 -25 78 C-25.66 78 -26.32 78 -27 78 C-27 80.64 -27 83.28 -27 86 C-27.66 86 -28.32 86 -29 86 C-29.33 90.29 -29.66 94.58 -30 99 C-30.66 99 -31.32 99 -32 99 C-32.0825 100.2375 -32.165 101.475 -32.25 102.75 C-32.75476417 106.79522268 -33.81403342 108.36019912 -37 111 C-38.051875 112.36125 -38.051875 112.36125 -39.125 113.75 C-40.053125 114.86375 -40.053125 114.86375 -41 116 C-41.66 116 -42.32 116 -43 116 C-43.495 117.485 -43.495 117.485 -44 119 C-44.99 119 -45.98 119 -47 119 C-47.495 120.485 -47.495 120.485 -48 122 C-48.99 122 -49.98 122 -51 122 C-51.495 123.485 -51.495 123.485 -52 125 C-52.66 125 -53.32 125 -54 125 C-54.0928125 125.86625 -54.0928125 125.86625 -54.1875 126.75 C-55.33384174 129.92448483 -57.25956842 131.12848575 -60 133 C-60.66 133 -61.32 133 -62 133 C-62.33 134.65 -62.66 136.3 -63 138 C-63.66 138 -64.32 138 -65 138 C-65.33 138.99 -65.66 139.98 -66 141 C-66.66 141 -67.32 141 -68 141 C-68 141.66 -68 142.32 -68 143 C-69.375 144.625 -69.375 144.625 -71 146 C-71.66 146 -72.32 146 -73 146 C-73.33 146.99 -73.66 147.98 -74 149 C-74.66 149 -75.32 149 -76 149 C-76.268125 149.804375 -76.53625 150.60875 -76.8125 151.4375 C-77.204375 152.283125 -77.59625 153.12875 -78 154 C-78.99 154.33 -79.98 154.66 -81 155 C-81.3721042 156.32303717 -81.70630173 157.65737935 -82 159 C-82.66 159.33 -83.32 159.66 -84 160 C-84.33 160.99 -84.66 161.98 -85 163 C-85.66 163 -86.32 163 -87 163 C-87.33 163.99 -87.66 164.98 -88 166 C-88.66 166 -89.32 166 -90 166 C-90 166.66 -90 167.32 -90 168 C-90.66 168 -91.32 168 -92 168 C-92.061875 168.7425 -92.12375 169.485 -92.1875 170.25 C-93.25213382 173.853376 -95.05306029 174.7547126 -98 177 C-99.01656081 178.65661761 -100.02065076 180.32111559 -101 182 C-101.66 182 -102.32 182 -103 182 C-103.12375 182.78375 -103.2475 183.5675 -103.375 184.375 C-104 187 -104 187 -106 189 C-106 189.66 -106 190.32 -106 191 C-105.34 191 -104.68 191 -104 191 C-104 191.99 -104 192.98 -104 194 C-103.34 194 -102.68 194 -102 194 C-102 193.34 -102 192.68 -102 192 C-100.68 192 -99.36 192 -98 192 C-95.96780512 195.40351338 -95.63108961 198.3232927 -95.375 202.25 C-95.30023438 203.32765625 -95.22546875 204.4053125 -95.1484375 205.515625 C-95.09945312 206.33546875 -95.05046875 207.1553125 -95 208 C-94.34 208 -93.68 208 -93 208 C-92.505 209.98 -92.505 209.98 -92 212 C-91.67 209.03 -91.34 206.06 -91 203 C-90.34 203 -89.68 203 -89 203 C-88.67 200.36 -88.34 197.72 -88 195 C-87.34 195 -86.68 195 -86 195 C-85.67 193.68 -85.34 192.36 -85 191 C-84.34 191 -83.68 191 -83 191 C-83 190.34 -83 189.68 -83 189 C-81.625 187.375 -81.625 187.375 -80 186 C-79.34 186 -78.68 186 -78 186 C-78 185.34 -78 184.68 -78 184 C-72.70588235 180 -72.70588235 180 -69 180 C-69 179.34 -69 178.68 -69 178 C-68.21625 177.9175 -67.4325 177.835 -66.625 177.75 C-63.8553382 177.29150599 -63.8553382 177.29150599 -62.875 175 C-62.441875 174.01 -62.441875 174.01 -62 173 C-61.01 172.67 -60.02 172.34 -59 172 C-58.67 171.34 -58.34 170.68 -58 170 C-55.4375 169.375 -55.4375 169.375 -53 169 C-53 168.34 -53 167.68 -53 167 C-51.35 166.67 -49.7 166.34 -48 166 C-48 165.34 -48 164.68 -48 164 C-47.01 164 -46.02 164 -45 164 C-44.67 163.01 -44.34 162.02 -44 161 C-39.66666667 158 -39.66666667 158 -37 158 C-37 157.34 -37 156.68 -37 156 C-35.68 155.67 -34.36 155.34 -33 155 C-33 154.34 -33 153.68 -33 153 C-32.34 153 -31.68 153 -31 153 C-31 152.34 -31 151.68 -31 151 C-29.35 150.67 -27.7 150.34 -26 150 C-25.67 149.01 -25.34 148.02 -25 147 C-24.34 147 -23.68 147 -23 147 C-22.67 146.01 -22.34 145.02 -22 144 C-19.4375 142.8125 -19.4375 142.8125 -17 142 C-17 141.34 -17 140.68 -17 140 C-15.34997172 138.64613064 -13.6825613 137.31321858 -12 136 C-11.67 135.34 -11.34 134.68 -11 134 C-10.34 134 -9.68 134 -9 134 C-9 133.34 -9 132.68 -9 132 C-8.34 132 -7.68 132 -7 132 C-6.67 130.68 -6.34 129.36 -6 128 C-5.34 128 -4.68 128 -4 128 C-3.67 126.35 -3.34 124.7 -3 123 C-2.34 123 -1.68 123 -1 123 C-0.814375 122.13375 -0.814375 122.13375 -0.625 121.25 C0.00648824 118.97664233 0.88858191 117.0746471 2 115 C2.66 115 3.32 115 4 115 C4.33 113.02 4.66 111.04 5 109 C5.66 109 6.32 109 7 109 C7.12375 108.2575 7.2475 107.515 7.375 106.75 C7.95486701 104.19858515 8.73708739 102.2732427 10 100 C10.66 100 11.32 100 12 100 C12.33 97.69 12.66 95.38 13 93 C13.66 93 14.32 93 15 93 C15.33 91.02 15.66 89.04 16 87 C16.66 87 17.32 87 18 87 C18.33 85.02 18.66 83.04 19 81 C19.66 81 20.32 81 21 81 C21 79.68 21 78.36 21 77 C21.66 77 22.32 77 23 77 C23.33 74.36 23.66 71.72 24 69 C24.66 69 25.32 69 26 69 C26.33 67.02 26.66 65.04 27 63 C29.97 62.505 29.97 62.505 33 62 C34.17571451 65.67410785 34.07366746 69.16929183 34 73 C34.66 73 35.32 73 36 73 C36 75.64 36 78.28 36 81 C36.66 81 37.32 81 38 81 C38.95261487 85.76307437 39.08333357 90.1666528 39 95 C39.66 95 40.32 95 41 95 C41.95261487 99.76307437 42.08333357 104.1666528 42 109 C42.66 109 43.32 109 44 109 C44.95261487 113.76307437 45.08333357 118.1666528 45 123 C45.66 123 46.32 123 47 123 C47 124.98 47 126.96 47 129 C47.66 129 48.32 129 49 129 C49.33 133.95 49.66 138.9 50 144 C50.66 144 51.32 144 52 144 C52.33 148.62 52.66 153.24 53 158 C53.66 158 54.32 158 55 158 C55.33 162.62 55.66 167.24 56 172 C56.66 172 57.32 172 58 172 C58 174.64 58 177.28 58 180 C58.66 180 59.32 180 60 180 C60.95261487 184.76307437 61.08333357 189.1666528 61 194 C61.66 194 62.32 194 63 194 C63.95261487 198.76307437 64.08333357 203.1666528 64 208 C64.66 208 65.32 208 66 208 C66.50921328 210.18537367 67.00694437 212.37342431 67.5 214.5625 C67.91765625 216.38974609 67.91765625 216.38974609 68.34375 218.25390625 C68.98637554 221.92222707 69.11474823 225.28502603 69 229 C69.66 229 70.32 229 71 229 C71.33 232.63 71.66 236.26 72 240 C73.98 240 75.96 240 78 240 C78 238.35 78 236.7 78 235 C78.99 235 79.98 235 81 235 C81 234.34 81 233.68 81 233 C81.66 233 82.32 233 83 233 C83 233.66 83 234.32 83 235 C84.3303125 235.185625 84.3303125 235.185625 85.6875 235.375 C88.70387502 235.94412736 91.20326054 236.76614436 94 238 C94 238.66 94 239.32 94 240 C94.99 239.67 95.98 239.34 97 239 C97 238.34 97 237.68 97 237 C96.401875 236.9175 95.80375 236.835 95.1875 236.75 C92.2771323 235.75215965 91.5110331 234.66229642 90 232 C89.08367125 227.61692055 88.82982527 223.35661231 88.71875 218.88671875 C88.68100202 217.54361944 88.64324124 216.20052049 88.60546875 214.85742188 C88.55159066 212.75938916 88.49935616 210.66132229 88.44775391 208.56323242 C88.3962035 206.52509977 88.33894869 204.48718511 88.28125 202.44921875 C88.25095703 201.23580811 88.22066406 200.02239746 88.18945312 198.7722168 C88.31140052 196.09231714 88.31140052 196.09231714 87 195 C86.83875329 192.555032 86.74005024 190.13561995 86.68359375 187.6875 C86.66276733 186.93434006 86.64194092 186.18118011 86.6204834 185.40519714 C86.55415649 182.93690425 86.49548903 180.46850185 86.4375 178 C86.39465176 176.31420799 86.35176428 174.62841698 86.30883789 172.94262695 C85.98310117 159.62726853 85.87623233 146.31930582 86 133 C85.34 133 84.68 133 84 133 C83.93941406 131.94039062 83.87882813 130.88078125 83.81640625 129.7890625 C83.73199873 128.40102779 83.64735083 127.01300768 83.5625 125.625 C83.52318359 124.92632812 83.48386719 124.22765625 83.44335938 123.5078125 C83.25719866 119.62639508 83.25719866 119.62639508 82 116 C81.79043996 114.20109441 81.63188906 112.39610564 81.5 110.58984375 C81.4175 109.51798828 81.335 108.44613281 81.25 107.34179688 C81.08304801 105.06838031 80.91638231 102.7949427 80.75 100.52148438 C80.6675 99.45091797 80.585 98.38035156 80.5 97.27734375 C80.4278125 96.28984131 80.355625 95.30233887 80.28125 94.28491211 C80.24251647 92.03737504 80.24251647 92.03737504 79 91 C77.84230385 84.05382309 77.87989513 77.01946221 78 70 C77.34 70 76.68 70 76 70 C75.89042969 69.0821875 75.78085937 68.164375 75.66796875 67.21875 C74.8840201 61.15111495 74.12527069 55.55038421 71.71484375 49.9140625 C70.87630004 47.66878153 70.47531078 45.48496249 70.0625 43.125 C69.06379064 37.74670452 67.1335165 33.0166469 65 28 C64.04758963 25.73537978 63.11051121 23.46426099 62.1875 21.1875 C61.74792969 20.12917969 61.30835938 19.07085937 60.85546875 17.98046875 C59.93425919 14.77095782 59.93303475 13.13523634 61 10 C61.66 9.34 62.32 8.68 63 8 C63.99 8 64.98 8 66 8 C66 8.99 66 9.98 66 11 C66.66 11 67.32 11 68 11 C68.33 13.64 68.66 16.28 69 19 C69.66 19 70.32 19 71 19 C71.33 22.3 71.66 25.6 72 29 C72.66 29 73.32 29 74 29 C74.33 31.97 74.66 34.94 75 38 C75.66 38 76.32 38 77 38 C77.33 39.65 77.66 41.3 78 43 C78.45375 42.505 78.9075 42.01 79.375 41.5 C81 40 81 40 83 40 C83.33 39.01 83.66 38.02 84 37 C85.66666667 36.33333333 87.33333333 35.66666667 89 35 C89.33 34.01 89.66 33.02 90 32 C90.66 32 91.32 32 92 32 C92.33 31.01 92.66 30.02 93 29 C93.66 29 94.32 29 95 29 C95 28.34 95 27.68 95 27 C95.66 27 96.32 27 97 27 C97.33 26.01 97.66 25.02 98 24 C98.99 24 99.98 24 101 24 C101 23.34 101 22.68 101 22 C105.35294118 18 105.35294118 18 109 18 C109 17.34 109 16.68 109 16 C109.66 16 110.32 16 111 16 C111.33 15.01 111.66 14.02 112 13 C112.99 13 113.98 13 115 13 C115 12.34 115 11.68 115 11 C116.32 10.67 117.64 10.34 119 10 C119 9.34 119 8.68 119 8 C120.65 8 122.3 8 124 8 C124.99 9.98 124.99 9.98 126 12 C125.34 12 124.68 12 124 12 C123.67 12.99 123.34 13.98 123 15 C121.68 15 120.36 15 119 15 C118.67 15.99 118.34 16.98 118 18 C117.34 18 116.68 18 116 18 C116 18.66 116 19.32 116 20 C115.01 20 114.02 20 113 20 C112.67 20.99 112.34 21.98 112 23 C111.34 23 110.68 23 110 23 C110 23.66 110 24.32 110 25 C108.35 25.33 106.7 25.66 105 26 C104.67 26.99 104.34 27.98 104 29 C103.34 29 102.68 29 102 29 C101.62875 29.9590625 101.62875 29.9590625 101.25 30.9375 C100 33 100 33 97.875 33.75 C97.25625 33.8325 96.6375 33.915 96 34 C96 34.66 96 35.32 96 36 C94.34997172 37.35386936 92.6825613 38.68678142 91 40 C90.67 40.66 90.34 41.32 90 42 C89.34 42 88.68 42 88 42 C88 42.66 88 43.32 88 44 C86.34997172 45.35386936 84.6825613 46.68678142 83 48 C82.67 48.66 82.34 49.32 82 50 C81.34 50 80.68 50 80 50 C80 52.31 80 54.62 80 57 C80.66 57 81.32 57 82 57 C82.96205088 63.37358711 83.10655578 69.55929529 83 76 C83.66 76 84.32 76 85 76 C85.99 85.9 85.99 85.9 87 96 C91.81375192 92.72171131 91.81375192 92.72171131 93 90 C93.66 90 94.32 90 95 90 C95 89.34 95 88.68 95 88 C96.64351457 86.63823078 98.31522656 85.31037934 100 84 C100.86625 83.0925 101.7325 82.185 102.625 81.25 C105 79 105 79 108 79 C108.33 78.01 108.66 77.02 109 76 C109.66 76 110.32 76 111 76 C111.33 75.01 111.66 74.02 112 73 C112.66 73 113.32 73 114 73 C114.37125 72.0409375 114.37125 72.0409375 114.75 71.0625 C116 69 116 69 118.125 68.25 C118.74375 68.1675 119.3625 68.085 120 68 C120 67.34 120 66.68 120 66 C124.47058824 62 124.47058824 62 127 62 C127 61.34 127 60.68 127 60 C128.65 60 130.3 60 132 60 C132.125 66.625 132.125 66.625 131 70 C130.34 70 129.68 70 129 70 C129 71.32 129 72.64 129 74 C128.34 74 127.68 74 127 74 C126.67 75.98 126.34 77.96 126 80 C125.34 80 124.68 80 124 80 C123.67 81.65 123.34 83.3 123 85 C122.34 85 121.68 85 121 85 C121 85.99 121 86.98 121 88 C120.34 88 119.68 88 119 88 C118.67 89.98 118.34 91.96 118 94 C117.34 94 116.68 94 116 94 C115.67 95.98 115.34 97.96 115 100 C114.34 100 113.68 100 113 100 C112.67 102.64 112.34 105.28 112 108 C111.34 108 110.68 108 110 108 C110 109.98 110 111.96 110 114 C109.34 114 108.68 114 108 114 C108 121.26 108 128.52 108 136 C108.66 136 109.32 136 110 136 C110 137.32 110 138.64 110 140 C110.66 140 111.32 140 112 140 C112.33 142.31 112.66 144.62 113 147 C113.66 147 114.32 147 115 147 C115.33 148.65 115.66 150.3 116 152 C116.66 152 117.32 152 118 152 C118.33 153.98 118.66 155.96 119 158 C119.66 158 120.32 158 121 158 C123.74375671 160.95481492 124 161.77471908 124 166 C124.99 166.33 125.98 166.66 127 167 C127 167.99 127 168.98 127 170 C127.66 170 128.32 170 129 170 C131.04169485 172.90548882 132 174.40142046 132 178 C132.66 178 133.32 178 134 178 C134.33 179.65 134.66 181.3 135 183 C135.66 183 136.32 183 137 183 C137.33 184.98 137.66 186.96 138 189 C138.66 189 139.32 189 140 189 C140 189.99 140 190.98 140 192 C140.66 192 141.32 192 142 192 C142.67595315 193.41225926 143.34040059 194.83002905 144 196.25 C144.37125 197.03890625 144.7425 197.8278125 145.125 198.640625 C146 201 146 201 146 205 C146.66 205 147.32 205 148 205 C148.33 206.98 148.66 208.96 149 211 C149.66 211 150.32 211 151 211 C151 213.31 151 215.62 151 218 C151.66 218 152.32 218 153 218 C153 219.65 153 221.3 153 223 C152.34 223 151.68 223 151 223 C151.0928125 224.1446875 151.0928125 224.1446875 151.1875 225.3125 C151 228 151 228 149.5625 229.75 C148.7890625 230.36875 148.7890625 230.36875 148 231 C147.67 231.33 147.34 231.66 147 232 C147.99 232 148.98 232 150 232 C150 231.34 150 230.68 150 230 C152.68654359 228.04615012 155.22640683 226.31361885 158.3125 225.0625 C160.29373672 224.07713392 160.29373672 224.07713392 160.75 221.375 C160.8325 220.59125 160.915 219.8075 161 219 C163.3125 218.3125 163.3125 218.3125 166 218 C167.625 219.4375 167.625 219.4375 169 221 C169.99 221 170.98 221 172 221 C171.67 214.4 171.34 207.8 171 201 C170.34 201 169.68 201 169 201 C168.49161436 198.96040523 167.99366114 196.91820862 167.5 194.875 C167.08234375 193.16957031 167.08234375 193.16957031 166.65625 191.4296875 C166.03546235 188.18533302 165.87993232 185.29185543 166 182 C165.34 182 164.68 182 164 182 C162.07528683 176.66164461 160.60108576 171.65020618 160 166 C159.34 166 158.68 166 158 166 C158 164.68 158 163.36 158 162 C157.34 162 156.68 162 156 162 C155.67 159.69 155.34 157.38 155 155 C154.34 155 153.68 155 153 155 C149 148.5 149 148.5 149 144 C148.34 144 147.68 144 147 144 C147 143.01 147 142.02 147 141 C146.34 141 145.68 141 145 141 C143.83822848 136.85534837 143.85309336 132.83794638 143.875 128.5625 C143.87113281 127.81162109 143.86726563 127.06074219 143.86328125 126.28710938 C143.87013394 122.39135683 144.04698244 118.8045066 145 115 C146.32 114.67 147.64 114.34 149 114 C149.33 112.35 149.66 110.7 150 109 C150.66 109 151.32 109 152 109 C152.33 107.35 152.66 105.7 153 104 C153.66 104 154.32 104 155 104 C155.12375 103.4225 155.2475 102.845 155.375 102.25 C156.01416567 99.94900359 156.79305636 98.05890385 158 96 C158.66 95.67 159.32 95.34 160 95 C160.33 94.01 160.66 93.02 161 92 C161.66 92 162.32 92 163 92 C163.33 90.68 163.66 89.36 164 88 C164.66 88 165.32 88 166 88 C166.33 86.68 166.66 85.36 167 84 C167.66 84 168.32 84 169 84 C169.268125 83.236875 169.53625 82.47375 169.8125 81.6875 C170.96603641 79.07686496 171.98629865 77.92614911 174 76 C174.33 75.01 174.66 74.02 175 73 C175.66 73 176.32 73 177 73 C177.33 71.35 177.66 69.7 178 68 C178.66 68 179.32 68 180 68 C180 67.34 180 66.68 180 66 C180.66 66 181.32 66 182 66 C182.33 64.02 182.66 62.04 183 60 C183.66 60 184.32 60 185 60 C185.12375 58.96875 185.2475 57.9375 185.375 56.875 C186 53 186 53 187.01953125 50.40234375 C188.34926052 45.78802427 188.3294055 41.46499453 188.3125 36.6875 C188.32861328 35.78837891 188.34472656 34.88925781 188.36132812 33.96289062 C188.36529844 28.47194787 187.65027943 24.0078316 185.64526367 18.88598633 C185 17 185 17 185 14 C184.34 14 183.68 14 183 14 C182.67 11.36 182.34 8.72 182 6 C184.3125 5.3125 184.3125 5.3125 187 5 C188.8125 6.125 188.8125 6.125 190 8 C190.1875 10.6875 190.1875 10.6875 190 13 C190.66 13 191.32 13 192 13 C192 13.99 192 14.98 192 16 C192.66 16 193.32 16 194 16 C194.13277344 16.92683594 194.26554687 17.85367187 194.40234375 18.80859375 C194.57894531 20.00613281 194.75554687 21.20367187 194.9375 22.4375 C195.11152344 23.63246094 195.28554688 24.82742188 195.46484375 26.05859375 C195.68985213 28.87955676 195.68985213 28.87955676 197 30 C197.07244053 32.01964199 197.08377188 34.04167124 197.0625 36.0625 C197.05347656 37.16722656 197.04445313 38.27195312 197.03515625 39.41015625 C197.01775391 40.69212891 197.01775391 40.69212891 197 42 C196.34 42 195.68 42 195 42 C195.0928125 43.7015625 195.0928125 43.7015625 195.1875 45.4375 C195.21380222 50.33847991 193.76012394 54.473967 192 59 C191.34 59 190.68 59 190 59 C189.67 61.31 189.34 63.62 189 66 C188.34 66 187.68 66 187 66 C186.67 67.32 186.34 68.64 186 70 C185.34 70 184.68 70 184 70 C184 71.32 184 72.64 184 74 C183.34 74.33 182.68 74.66 182 75 C181.67 75.99 181.34 76.98 181 78 C180.34 78 179.68 78 179 78 C178.67 78.99 178.34 79.98 178 81 C177.34 81 176.68 81 176 81 C175.67 82.65 175.34 84.3 175 86 C174.34 86 173.68 86 173 86 C173 86.99 173 87.98 173 89 C172.34 89 171.68 89 171 89 C170.67 89.99 170.34 90.98 170 92 C169.34 92 168.68 92 168 92 C167.67 93.65 167.34 95.3 167 97 C166.34 97 165.68 97 165 97 C164.67 98.65 164.34 100.3 164 102 C162.68 102.33 161.36 102.66 160 103 C159.67 104.65 159.34 106.3 159 108 C158.34 108 157.68 108 157 108 C156.67 109.65 156.34 111.3 156 113 C155.34 113 154.68 113 154 113 C153.896875 113.556875 153.79375 114.11375 153.6875 114.6875 C153 117 153 117 151.5 119.125 C149.339148 123.266633 149.2596775 127.38848575 149 132 C149.66 132 150.32 132 151 132 C151 133.32 151 134.64 151 136 C151.66 136 152.32 136 153 136 C153.33 137.98 153.66 139.96 154 142 C154.66 142 155.32 142 156 142 C156.33 143.98 156.66 145.96 157 148 C157.66 148 158.32 148 159 148 C159.33 150.31 159.66 152.62 160 155 C160.66 155 161.32 155 162 155 C162 155.99 162 156.98 162 158 C162.66 158 163.32 158 164 158 C164.33 159.98 164.66 161.96 165 164 C165.66 164 166.32 164 167 164 C167.33 166.97 167.66 169.94 168 173 C168.66 173 169.32 173 170 173 C170.33 176.3 170.66 179.6 171 183 C171.66 183 172.32 183 173 183 C173 184.98 173 186.96 173 189 C173.66 189 174.32 189 175 189 C175.13277344 189.99902344 175.26554687 190.99804688 175.40234375 192.02734375 C175.57894531 193.31769531 175.75554687 194.60804688 175.9375 195.9375 C176.11152344 197.22527344 176.28554688 198.51304687 176.46484375 199.83984375 C176.66162423 202.85466313 176.66162423 202.85466313 178 204 C178.68420361 208.78942527 179.10087054 213.53894468 179.25 218.375 C179.27578125 219.18710937 179.3015625 219.99921875 179.328125 220.8359375 C178.91955947 223.53052444 178.1692001 224.39489449 176 226 C173.3125 226.1875 173.3125 226.1875 171 226 C171 226.66 171 227.32 171 228 C169.54182203 228.16802051 168.0834516 228.33437143 166.625 228.5 C165.81289063 228.5928125 165.00078125 228.685625 164.1640625 228.78125 C162 229 162 229 160 229 C159.67 230.32 159.34 231.64 159 233 C157.35 233.33 155.7 233.66 154 234 C153.67 234.99 153.34 235.98 153 237 C150.07920195 239.07530387 148.62453269 240 145 240 C145 240.66 145 241.32 145 242 C143.75336669 242.50833591 142.50250613 243.00631145 141.25 243.5 C140.55390625 243.7784375 139.8578125 244.056875 139.140625 244.34375 C137 245 137 245 133 245 C132.875 238.375 132.875 238.375 134 235 C134.66 235 135.32 235 136 235 C136 234.34 136 233.68 136 233 C137.65002828 231.64613064 139.3174387 230.31321858 141 229 C141.33 228.34 141.66 227.68 142 227 C142.66 227 143.32 227 144 227 C144 222.05 144 217.1 144 212 C143.34 212 142.68 212 142 212 C141.67 210.02 141.34 208.04 141 206 C140.34 206 139.68 206 139 206 C138.67 204.02 138.34 202.04 138 200 C137.34 200 136.68 200 136 200 C136 198.68 136 197.36 136 196 C135.01 195.67 134.02 195.34 133 195 C133 194.01 133 193.02 133 192 C132.34 192 131.68 192 131 192 C130.67 189.69 130.34 187.38 130 185 C129.01 184.67 128.02 184.34 127 184 C125 181 125 181 125 177 C124.34 177 123.68 177 123 177 C122.67 176.01 122.34 175.02 122 174 C121.34 173.67 120.68 173.34 120 173 C119.59270772 170.67843403 119.25561323 168.3431213 119 166 C118.38640625 165.91492188 117.7728125 165.82984375 117.140625 165.7421875 C115 165 115 165 113.734375 163.2578125 C113.40953125 162.55398438 113.0846875 161.85015625 112.75 161.125 C112.41484375 160.42632812 112.0796875 159.72765625 111.734375 159.0078125 C111 157 111 157 111 154 C110.34 154 109.68 154 109 154 C108.67 152.02 108.34 150.04 108 148 C107.34 148 106.68 148 106 148 C106 146.68 106 145.36 106 144 C105.34 144 104.68 144 104 144 C103.86722656 143.21753906 103.73445312 142.43507813 103.59765625 141.62890625 C103.42105469 140.61699219 103.24445313 139.60507812 103.0625 138.5625 C102.88847656 137.55316406 102.71445312 136.54382813 102.53515625 135.50390625 C102.25248903 133.0712562 102.25248903 133.0712562 101 132 C100.92755947 129.98035801 100.91622812 127.95832876 100.9375 125.9375 C100.94652344 124.83277344 100.95554687 123.72804688 100.96484375 122.58984375 C100.98224609 121.30787109 100.98224609 121.30787109 101 120 C101.66 120 102.32 120 103 120 C103.33 116.37 103.66 112.74 104 109 C104.66 109 105.32 109 106 109 C106 107.35 106 105.7 106 104 C106.66 104 107.32 104 108 104 C108.33 101.36 108.66 98.72 109 96 C109.66 96 110.32 96 111 96 C111.103125 95.13375 111.20625 94.2675 111.3125 93.375 C112.03398414 89.83316877 113.27123261 87.15687958 115 84 C115.66 84 116.32 84 117 84 C117 83.01 117 82.02 117 81 C117.66 81 118.32 81 119 81 C118.67 80.01 118.34 79.02 118 78 C114.37206002 79.86566488 114.37206002 79.86566488 112 83 C111.34 83 110.68 83 110 83 C110 83.66 110 84.32 110 85 C108.35546875 86.7265625 108.35546875 86.7265625 106.1875 88.625 C105.47980469 89.25664062 104.77210938 89.88828125 104.04296875 90.5390625 C102 92 102 92 99 92 C98.62875 93.0828125 98.62875 93.0828125 98.25 94.1875 C96.37865818 98.39801908 93.49137663 101.98472018 90 105 C89.34 105 88.68 105 88 105 C88.31767334 105.81170654 88.63534668 106.62341309 88.96264648 107.4597168 C90.17469086 111.59618548 90.4302663 115.3601555 90.59765625 119.64453125 C90.63684677 120.45492355 90.67603729 121.26531586 90.71641541 122.1002655 C90.83980362 124.67071131 90.95197251 127.24147161 91.0625 129.8125 C91.17793562 132.40128184 91.29583005 134.9898812 91.41929626 137.57829285 C91.495554 139.18508853 91.56694368 140.79212386 91.6330719 142.39936829 C91.48056913 146.00124678 91.48056913 146.00124678 93 149 C93.16087869 150.8932418 93.2519983 152.79243335 93.31640625 154.69140625 C93.35838135 155.92826172 93.40035645 157.16511719 93.44360352 158.43945312 C93.48375913 159.81378689 93.52337628 161.18813647 93.5625 162.5625 C93.58367889 163.2531958 93.60485779 163.9438916 93.62667847 164.65551758 C94.19367583 183.43270983 94.0942068 202.21661251 94 221 C94.66 221 95.32 221 96 221 C96.33 223.64 96.66 226.28 97 229 C97.66 229 98.32 229 99 229 C99 229.99 99 230.98 99 232 C99.69480469 232.11214844 100.38960937 232.22429687 101.10546875 232.33984375 C104.37032964 233.08446115 107.23600205 234.24400088 110.3125 235.5625 C111.38113281 236.01753906 112.44976562 236.47257813 113.55078125 236.94140625 C114.35902344 237.29074219 115.16726563 237.64007812 116 238 C116 238.66 116 239.32 116 240 C116.99 240.33 117.98 240.66 119 241 C118.67 242.98 118.34 244.96 118 247 C110.41 247 102.82 247 95 247 C95 246.34 95 245.68 95 245 C93.18818595 244.80598367 91.37551468 244.61995625 89.5625 244.4375 C88.55316406 244.33308594 87.54382813 244.22867188 86.50390625 244.12109375 C85.67761719 244.08113281 84.85132813 244.04117188 84 244 C83.67 244.33 83.34 244.66 83 245 C80.30345146 245.07319621 77.63308542 245.09242537 74.9375 245.0625 C74.17888672 245.05798828 73.42027344 245.05347656 72.63867188 245.04882812 C70.75908129 245.0370068 68.87953101 245.01907078 67 245 C67 243.35 67 241.7 67 240 C66.34 240 65.68 240 65 240 C65 238.02 65 236.04 65 234 C64.34 234 63.68 234 63 234 C62.67 229.38 62.34 224.76 62 220 C61.34 220 60.68 220 60 220 C59.67 215.38 59.34 210.76 59 206 C58.34 206 57.68 206 57 206 C56.67 201.38 56.34 196.76 56 192 C55.34 192 54.68 192 54 192 C53.7834375 190.2984375 53.7834375 190.2984375 53.5625 188.5625 C53.38828522 185.19222799 53.38828522 185.19222799 52 184 C51.62742948 181.86063023 51.30149918 179.71303715 51 177.5625 C50.47882609 173.13450925 50.47882609 173.13450925 49 169 C48.960008 167.00039988 48.95653201 164.99952758 49 163 C48.34 163 47.68 163 47 163 C47 163.99 47 164.98 47 166 C46.34 166 45.68 166 45 166 C44.938125 166.5775 44.87625 167.155 44.8125 167.75 C43.6726745 170.90643986 41.66405371 172.03367464 39 174 C38.1646875 174.86625 38.1646875 174.86625 37.3125 175.75 C36 177 36 177 34 177 C33.67 178.32 33.34 179.64 33 181 C32.34 181 31.68 181 31 181 C30.67 182.32 30.34 183.64 30 185 C29.34 185 28.68 185 28 185 C27.67 185.99 27.34 186.98 27 188 C26.34 188 25.68 188 25 188 C25 188.66 25 189.32 25 190 C21.67032582 190.83241855 19.24733335 191.2757381 16 190 C15.67 189.34 15.34 188.68 15 188 C14.01 187.67 13.02 187.34 12 187 C12 186.34 12 185.68 12 185 C11.34 185 10.68 185 10 185 C10 183.02 10 181.04 10 179 C8.35 179 6.7 179 5 179 C5 178.34 5 177.68 5 177 C2.36 176.67 -0.28 176.34 -3 176 C-3 175.34 -3 174.68 -3 174 C-4.7634375 173.8453125 -4.7634375 173.8453125 -6.5625 173.6875 C-10.82485903 173.17085042 -14.14087534 171.8491639 -18 170 C-18 169.34 -18 168.68 -18 168 C-18.66 168 -19.32 168 -20 168 C-20 167.34 -20 166.68 -20 166 C-20.66 166 -21.32 166 -22 166 C-21.125 162.125 -21.125 162.125 -20 161 C-18.00035018 160.91241997 -15.9976389 160.89303424 -13.99609375 160.90234375 C-12.78115234 160.90556641 -11.56621094 160.90878906 -10.31445312 160.91210938 C-9.03505859 160.92048828 -7.75566406 160.92886719 -6.4375 160.9375 C-5.15423828 160.94201172 -3.87097656 160.94652344 -2.54882812 160.95117188 C0.63416022 160.96300455 3.81705762 160.97948932 7 161 C7.33 160.01 7.66 159.02 8 158 C8.66 158 9.32 158 10 158 C10 157.34 10 156.68 10 156 C10.66 156 11.32 156 12 156 C12.33 154.35 12.66 152.7 13 151 C13.66 151 14.32 151 15 151 C15.33 149.02 15.66 147.04 16 145 C16.66 145 17.32 145 18 145 C18.33 143.02 18.66 141.04 19 139 C19.66 139 20.32 139 21 139 C21 138.01 21 137.02 21 136 C21.66 136 22.32 136 23 136 C23.33 134.02 23.66 132.04 24 130 C24.66 130 25.32 130 26 130 C26.1546875 129.01 26.1546875 129.01 26.3125 128 C27.19213564 124.16158991 28.56969896 120.66903309 30 117 C30.66 117 31.32 117 32 117 C32 116.01 32 115.02 32 114 C32.66 114 33.32 114 34 114 C34 106.74 34 99.48 34 92 C33.34 92 32.68 92 32 92 C31.01 87.38 30.02 82.76 29 78 C28.34 78.99 27.68 79.98 27 81 C26.34 81 25.68 81 25 81 C24.814375 82.051875 24.814375 82.051875 24.625 83.125 C23.96161655 86.17656387 23.02788045 89.05340938 22 92 C21.34 92 20.68 92 20 92 C19.67 94.31 19.34 96.62 19 99 C18.34 99 17.68 99 17 99 C16.938125 99.804375 16.87625 100.60875 16.8125 101.4375 C15.73463007 106.1635451 13.48408581 109.87513427 11 114 C10.34 114 9.68 114 9 114 C8.67 116.31 8.34 118.62 8 121 C7.34 121 6.68 121 6 121 C5.505 122.98 5.505 122.98 5 125 C4.34 125 3.68 125 3 125 C3 126.32 3 127.64 3 129 C1.71034824 130.37562854 0.37310707 131.70766393 -1 133 C-1.33 133.721875 -1.66 134.44375 -2 135.1875 C-2.33 135.785625 -2.66 136.38375 -3 137 C-4.32594105 137.36162029 -5.65938457 137.69728039 -7 138 C-7.33 138.99 -7.66 139.98 -8 141 C-8.66 141 -9.32 141 -10 141 C-10.33 141.99 -10.66 142.98 -11 144 C-11.66 144 -12.32 144 -13 144 C-13.268125 144.639375 -13.53625 145.27875 -13.8125 145.9375 C-15 148 -15 148 -18 149 C-18.33 149.99 -18.66 150.98 -19 152 C-19.99 152 -20.98 152 -22 152 C-22 152.66 -22 153.32 -22 154 C-23.375 155.625 -23.375 155.625 -25 157 C-25.66 157 -26.32 157 -27 157 C-27 157.66 -27 158.32 -27 159 C-28.65 159.33 -30.3 159.66 -32 160 C-32.33 160.99 -32.66 161.98 -33 163 C-33.99 163 -34.98 163 -36 163 C-36 163.66 -36 164.32 -36 165 C-37.32 165.33 -38.64 165.66 -40 166 C-40 166.66 -40 167.32 -40 168 C-40.99 168 -41.98 168 -43 168 C-43.33 168.99 -43.66 169.98 -44 171 C-46.92079805 173.07530387 -48.37546731 174 -52 174 C-52 174.66 -52 175.32 -52 176 C-52.78375 176.0825 -53.5675 176.165 -54.375 176.25 C-57.1446618 176.70849401 -57.1446618 176.70849401 -58.125 179 C-58.558125 179.99 -58.558125 179.99 -59 181 C-59.99 181.33 -60.98 181.66 -62 182 C-62.33 182.66 -62.66 183.32 -63 184 C-65.5625 184.625 -65.5625 184.625 -68 185 C-68 185.66 -68 186.32 -68 187 C-69.65 187.33 -71.3 187.66 -73 188 C-73.33 189.32 -73.66 190.64 -74 192 C-74.639375 192.103125 -75.27875 192.20625 -75.9375 192.3125 C-76.618125 192.539375 -77.29875 192.76625 -78 193 C-78.33 193.99 -78.66 194.98 -79 196 C-79.66 196 -80.32 196 -81 196 C-81.33 197.65 -81.66 199.3 -82 201 C-82.66 201 -83.32 201 -84 201 C-84 207.6 -84 214.2 -84 221 C-83.34 221 -82.68 221 -82 221 C-82 222.65 -82 224.3 -82 226 C-82.66 226 -83.32 226 -84 226 C-84 227.65 -84 229.3 -84 231 C-85.65 231 -87.3 231 -89 231 C-89 230.34 -89 229.68 -89 229 C-89.99 228.67 -90.98 228.34 -92 228 C-92 227.01 -92 226.02 -92 225 C-92.66 225 -93.32 225 -94 225 C-94 224.34 -94 223.68 -94 223 C-94.66 223 -95.32 223 -96 223 C-96.33 221.02 -96.66 219.04 -97 217 C-97.66 217 -98.32 217 -99 217 C-99.33 214.36 -99.66 211.72 -100 209 C-100.66 209 -101.32 209 -102 209 C-102.33 207.02 -102.66 205.04 -103 203 C-104.32 203 -105.64 203 -107 203 C-107.33 201.35 -107.66 199.7 -108 198 C-108.66 198 -109.32 198 -110 198 C-110.33 196.35 -110.66 194.7 -111 193 C-111.99 192.67 -112.98 192.34 -114 192 C-113.49135273 187.62563349 -112.57073772 184.59903281 -110 181 C-109.34 180.67 -108.68 180.34 -108 180 C-107.67 179.01 -107.34 178.02 -107 177 C-106.34 177 -105.68 177 -105 177 C-105 176.34 -105 175.68 -105 175 C-104.34 175 -103.68 175 -103 175 C-102.896875 174.236875 -102.79375 173.47375 -102.6875 172.6875 C-101.95288806 169.81583516 -101.3283935 168.76957906 -99 167 C-98.34 167 -97.68 167 -97 167 C-96.9175 166.38125 -96.835 165.7625 -96.75 165.125 C-95.76174558 162.32494581 -94.59640015 162.25886068 -92 161 C-90.81669817 159.13355094 -90.81669817 159.13355094 -90 157 C-89.33333333 155.66666667 -88.66666667 154.33333333 -88 153 C-87.34 153 -86.68 153 -86 153 C-85.67 152.01 -85.34 151.02 -85 150 C-84.34 150 -83.68 150 -83 150 C-83 149.34 -83 148.68 -83 148 C-82.34 148 -81.68 148 -81 148 C-80.67 146.68 -80.34 145.36 -80 144 C-79.34 144 -78.68 144 -78 144 C-77.938125 143.4225 -77.87625 142.845 -77.8125 142.25 C-76.66615826 139.07551517 -74.74043158 137.87151425 -72 136 C-71.34 136 -70.68 136 -70 136 C-69.67 134.35 -69.34 132.7 -69 131 C-68.34 131 -67.68 131 -67 131 C-66.67 130.01 -66.34 129.02 -66 128 C-65.34 128 -64.68 128 -64 128 C-63.505 126.515 -63.505 126.515 -63 125 C-62.34 125 -61.68 125 -61 125 C-61 124.34 -61 123.68 -61 123 C-59.34928604 121.97388051 -57.68029994 120.97691857 -56 120 C-55.443125 119.443125 -54.88625 118.88625 -54.3125 118.3125 C-53.879375 117.879375 -53.44625 117.44625 -53 117 C-52.34 117 -51.68 117 -51 117 C-50.505 115.515 -50.505 115.515 -50 114 C-49.34 114 -48.68 114 -48 114 C-47.9071875 113.13375 -47.9071875 113.13375 -47.8125 112.25 C-46.66615826 109.07551517 -44.74043158 107.87151425 -42 106 C-41.34 106 -40.68 106 -40 106 C-39.67 104.35 -39.34 102.7 -39 101 C-38.34 101 -37.68 101 -37 101 C-36.67 97.37 -36.34 93.74 -36 90 C-35.34 90 -34.68 90 -34 90 C-33.67 84.72 -33.34 79.44 -33 74 C-32.34 74 -31.68 74 -31 74 C-31 71.36 -31 68.72 -31 66 C-30.34 66 -29.68 66 -29 66 C-29.01160156 65.443125 -29.02320313 64.88625 -29.03515625 64.3125 C-29.09676433 59.10221657 -28.74999344 54.1562049 -28 49 C-27.34 49 -26.68 49 -26 49 C-25.67 45.37 -25.34 41.74 -25 38 C-24.34 38 -23.68 38 -23 38 C-22.67 35.36 -22.34 32.72 -22 30 C-21.34 30 -20.68 30 -20 30 C-19.814375 28.948125 -19.814375 28.948125 -19.625 27.875 C-18.95731453 24.80364682 -18.13303617 21.9325642 -17 19 C-16.01 18.505 -16.01 18.505 -15 18 C-14.896875 17.401875 -14.79375 16.80375 -14.6875 16.1875 C-13.6841693 12.99508413 -11.7037837 11.84648643 -9 10 C-8.34 10 -7.68 10 -7 10 C-6.9071875 9.13375 -6.9071875 9.13375 -6.8125 8.25 C-5.6812921 5.11742429 -3.62052199 3.96539149 -1 2 C-0.67 1.34 -0.34 0.68 0 0 Z M119 75 C120 77 120 77 120 77 Z M37 120 C36.67 121.32 36.34 122.64 36 124 C35.34 124 34.68 124 34 124 C33.67 125.98 33.34 127.96 33 130 C32.34 130 31.68 130 31 130 C30.67 132.31 30.34 134.62 30 137 C29.34 137 28.68 137 28 137 C27.54625 137.969375 27.0925 138.93875 26.625 139.9375 C25 143 25 143 23 144 C22.59270772 146.32156597 22.25561323 148.6568787 22 151 C21.34 151 20.68 151 20 151 C19.60167969 151.75925781 19.20335937 152.51851562 18.79296875 153.30078125 C18.26316406 154.29464844 17.73335937 155.28851563 17.1875 156.3125 C16.66542969 157.29863281 16.14335937 158.28476562 15.60546875 159.30078125 C13.40151133 163.00621818 12.11189213 164.62936929 8 166 C8 166.66 8 167.32 8 168 C3.71 168 -0.58 168 -5 168 C1.54713603 172.36475736 9.29047535 173.37826414 17 174 C17 176.31 17 178.62 17 181 C17.66 181 18.32 181 19 181 C19 181.66 19 182.32 19 183 C20.32 183 21.64 183 23 183 C24.38509525 181.37609523 25.70758949 179.69859667 27 178 C28.14709232 176.99797322 29.31534381 176.01982345 30.5 175.0625 C33.77724282 172.33498823 35.89401072 169.70654114 38 166 C38 165.34 38 164.68 38 164 C38.66 164 39.32 164 40 164 C41.66666667 162.66666667 41.66666667 162.66666667 43 161 C43 160.34 43 159.68 43 159 C43.99 158.67 44.98 158.34 46 158 C46.1642672 149.95090734 45.35988732 142.70896525 43 135 C42.34 135 41.68 135 41 135 C41.020625 133.80375 41.04125 132.6075 41.0625 131.375 C41.06882571 127.81995131 40.69888875 124.49444376 40 121 C39.01 120.67 38.02 120.34 37 120 Z " fill="#000000" transform="translate(218,348)"/>
<path d="M0 0 C3.3 0 6.6 0 10 0 C10 0.66 10 1.32 10 2 C11.98 2.33 13.96 2.66 16 3 C16 3.66 16 4.32 16 5 C16.66 5 17.32 5 18 5 C19.25433458 8.76300374 19.10695422 12.27210909 19.0625 16.1875 C19.05798828 16.93708984 19.05347656 17.68667969 19.04882812 18.45898438 C19.03706354 20.30602383 19.01912865 22.15302213 19 24 C20.65 24.33 22.3 24.66 24 25 C24.042721 26.66611905 24.04063832 28.33382885 24 30 C23 31 23 31 20.4375 31.0625 C19.633125 31.041875 18.82875 31.02125 18 31 C18.14308594 31.92232422 18.14308594 31.92232422 18.2890625 32.86328125 C18.39992187 33.67152344 18.51078125 34.47976562 18.625 35.3125 C18.74101562 36.11300781 18.85703125 36.91351563 18.9765625 37.73828125 C19 40 19 40 17 43 C14.8359375 43.51171875 14.8359375 43.51171875 12.375 43.6875 C11.55773437 43.75324219 10.74046875 43.81898438 9.8984375 43.88671875 C9.27195313 43.92410156 8.64546875 43.96148437 8 44 C8 45.32 8 46.64 8 48 C1.07 48 -5.86 48 -13 48 C-13 43.38 -13 38.76 -13 34 C-13.66 34 -14.32 34 -15 34 C-15 29.38 -15 24.76 -15 20 C-15.66 20.33 -16.32 20.66 -17 21 C-19.6723621 21.13415472 -22.32250488 21.04318541 -25 21 C-25 21.66 -25 22.32 -25 23 C-26.26839526 23.50615298 -27.53983102 24.00469099 -28.8125 24.5 C-29.52019531 24.7784375 -30.22789062 25.056875 -30.95703125 25.34375 C-33 26 -33 26 -36 26 C-36 26.66 -36 27.32 -36 28 C-37.98 28.33 -39.96 28.66 -42 29 C-42 29.66 -42 30.32 -42 31 C-43.65 31.33 -45.3 31.66 -47 32 C-47 32.66 -47 33.32 -47 34 C-47.99 34 -48.98 34 -50 34 C-50.33 34.99 -50.66 35.98 -51 37 C-52.32 37 -53.64 37 -55 37 C-55 37.66 -55 38.32 -55 39 C-56.32 39.33 -57.64 39.66 -59 40 C-59 40.66 -59 41.32 -59 42 C-60.98 42.33 -62.96 42.66 -65 43 C-65 43.66 -65 44.32 -65 45 C-65.66 45 -66.32 45 -67 45 C-67 45.66 -67 46.32 -67 47 C-69.64 47.33 -72.28 47.66 -75 48 C-75 48.66 -75 49.32 -75 50 C-79.95 50.495 -79.95 50.495 -85 51 C-85 51.66 -85 52.32 -85 53 C-89.14427102 53.04976954 -93.28837953 53.08589288 -97.43286133 53.10986328 C-98.84011876 53.11986557 -100.2473557 53.13347178 -101.65454102 53.15087891 C-103.68771448 53.17538366 -105.72061106 53.18654083 -107.75390625 53.1953125 C-108.97408447 53.20578613 -110.1942627 53.21625977 -111.45141602 53.22705078 C-115.22412322 52.98565981 -118.40917866 52.15246048 -122 51 C-123.33130115 50.65864073 -124.66358148 50.32074044 -126 50 C-126 49.34 -126 48.68 -126 48 C-127.32 47.67 -128.64 47.34 -130 47 C-130.33 45.68 -130.66 44.36 -131 43 C-125.72 43 -120.44 43 -115 43 C-115 42.34 -115 41.68 -115 41 C-113.02 41 -111.04 41 -109 41 C-109 40.34 -109 39.68 -109 39 C-107.88625 38.71125 -106.7725 38.4225 -105.625 38.125 C-101.99708908 37.30758671 -101.99708908 37.30758671 -100 35 C-98.68 35 -97.36 35 -96 35 C-95.67 34.01 -95.34 33.02 -95 32 C-94.01 32 -93.02 32 -92 32 C-92 31.34 -92 30.68 -92 30 C-91.34 30 -90.68 30 -90 30 C-90 29.34 -90 28.68 -90 28 C-88.35 27.67 -86.7 27.34 -85 27 C-84.505 25.515 -84.505 25.515 -84 24 C-83.34 24 -82.68 24 -82 24 C-82 23.34 -82 22.68 -82 22 C-81.01 21.67 -80.02 21.34 -79 21 C-78.67 20.34 -78.34 19.68 -78 19 C-76.68 19 -75.36 19 -74 19 C-74 18.34 -74 17.68 -74 17 C-72.02 16.67 -70.04 16.34 -68 16 C-68 15.34 -68 14.68 -68 14 C-65.36 13.67 -62.72 13.34 -60 13 C-60 12.34 -60 11.68 -60 11 C-55.32798795 9.79431947 -50.78503708 9.90617574 -46 10 C-46 9.34 -46 8.68 -46 8 C-37.42 8 -28.84 8 -20 8 C-20 8.66 -20 9.32 -20 10 C-17.03 10 -14.06 10 -11 10 C-10.67 8.35 -10.34 6.7 -10 5 C-9.34 5 -8.68 5 -8 5 C-8 4.34 -8 3.68 -8 3 C-5.36 2.67 -2.72 2.34 0 2 C0 1.34 0 0.68 0 0 Z " fill="#010000" transform="translate(233,178)"/>
<path d="M0 0 C6.20970773 -0.33266291 10.28264895 0.54970669 16 3 C16 3.66 16 4.32 16 5 C16.99 5.33 17.98 5.66 19 6 C19 6.66 19 7.32 19 8 C19.66 8 20.32 8 21 8 C21 9.65 21 11.3 21 13 C21.66 13 22.32 13 23 13 C23 21.25 23 29.5 23 38 C22.34 38 21.68 38 21 38 C21 38.66 21 39.32 21 40 C19.35 40 17.7 40 16 40 C16 40.66 16 41.32 16 42 C7.64194602 44.35194842 0.6062749 45.43150464 -8 44 C-8 43.34 -8 42.68 -8 42 C-8.66 42 -9.32 42 -10 42 C-10 38.37 -10 34.74 -10 31 C-11.65 31 -13.3 31 -15 31 C-15.125 28.625 -15.125 28.625 -15 26 C-14.34 25.34 -13.68 24.68 -13 24 C-12.01 24 -11.02 24 -10 24 C-10 21.69 -10 19.38 -10 17 C-11.98 17 -13.96 17 -16 17 C-16 16.34 -16 15.68 -16 15 C-17.134375 15.061875 -18.26875 15.12375 -19.4375 15.1875 C-24.33847991 15.21380222 -28.473967 13.76012394 -33 12 C-33 11.34 -33 10.68 -33 10 C-34.32 9.67 -35.64 9.34 -37 9 C-37 7.68 -37 6.36 -37 5 C-35.25008666 4.97284617 -33.50005055 4.95353449 -31.75 4.9375 C-30.28820312 4.92009766 -30.28820312 4.92009766 -28.796875 4.90234375 C-26.34241322 4.98804423 -24.33831086 5.29293934 -22 6 C-22 6.66 -22 7.32 -22 8 C-18.29130626 8.28774348 -14.69910085 8.45163441 -11 8 C-8.7110076 5.639038 -8.7110076 5.639038 -7 3 C-3.25 2.1875 -3.25 2.1875 0 2 C0 1.34 0 0.68 0 0 Z " fill="#010000" transform="translate(359,189)"/>
<path d="M0 0 C8.08876337 -0.0793016 15.97442193 -0.03555846 24 1 C24 1.66 24 2.32 24 3 C29.445 3.495 29.445 3.495 35 4 C35 4.66 35 5.32 35 6 C36.32 6.33 37.64 6.66 39 7 C39.38218767 8.65614657 39.71395102 10.32457024 40 12 C39 13 39 13 37.15234375 13.09765625 C35.1015625 13.06510417 33.05078125 13.03255208 31 13 C31.66 13.66 32.32 14.32 33 15 C33.125 18.625 33.125 18.625 33 22 C31.35 22.33 29.7 22.66 28 23 C27.67 23.99 27.34 24.98 27 26 C24.03 26.33 21.06 26.66 18 27 C17.67 26.01 17.34 25.02 17 24 C16.27554688 23.95101563 15.55109375 23.90203125 14.8046875 23.8515625 C13.83789062 23.77679688 12.87109375 23.70203125 11.875 23.625 C10.44800781 23.52058594 10.44800781 23.52058594 8.9921875 23.4140625 C6 23 6 23 0 21 C0 14.07 0 7.14 0 0 Z " fill="#030000" transform="translate(583,284)"/>
<path d="M0 0 C0 3.63 0 7.26 0 11 C0.66 11 1.32 11 2 11 C2.495 13.475 2.495 13.475 3 16 C3.66 16 4.32 16 5 16 C5.495 18.475 5.495 18.475 6 21 C4.68 21 3.36 21 2 21 C2 21.66 2 22.32 2 23 C-1.96 23.495 -1.96 23.495 -6 24 C-6 24.66 -6 25.32 -6 26 C-6.99 26.33 -7.98 26.66 -9 27 C-9.33 27.66 -9.66 28.32 -10 29 C-10.66 29 -11.32 29 -12 29 C-12 29.66 -12 30.32 -12 31 C-13.32 31 -14.64 31 -16 31 C-16.33 30.34 -16.66 29.68 -17 29 C-18.65 29 -20.3 29 -22 29 C-22.33 28.34 -22.66 27.68 -23 27 C-24.32 27 -25.64 27 -27 27 C-27 24.03 -27 21.06 -27 18 C-29.64 18 -32.28 18 -35 18 C-35 16.02 -35 14.04 -35 12 C-33.35 11.67 -31.7 11.34 -30 11 C-30 10.34 -30 9.68 -30 9 C-28.02 8.67 -26.04 8.34 -24 8 C-24 7.34 -24 6.68 -24 6 C-21.36 5.67 -18.72 5.34 -16 5 C-16 4.34 -16 3.68 -16 3 C-14.02 3 -12.04 3 -10 3 C-10 2.34 -10 1.68 -10 1 C-3.375 0 -3.375 0 0 0 Z " fill="#020000" transform="translate(44,309)"/>
<path d="M0 0 C0 1.65 0 3.3 0 5 C0.99 5.33 1.98 5.66 3 6 C2.67 7.65 2.34 9.3 2 11 C1.01 11 0.02 11 -1 11 C-1 11.66 -1 12.32 -1 13 C0.32 13.33 1.64 13.66 3 14 C2.75 15.875 2.75 15.875 2 18 C-0.58152302 19.72101535 -1.84918025 20 -5 20 C-5 20.66 -5 21.32 -5 22 C-3.35 22 -1.7 22 0 22 C0 23.65 0 25.3 0 27 C-3.50776784 28.60355101 -6.14354879 29.22036864 -10 29 C-10 28.34 -10 27.68 -10 27 C-10.99 26.67 -11.98 26.34 -13 26 C-15.28581149 21.97396166 -16.43355981 17.62463797 -16 13 C-16.66 13 -17.32 13 -18 13 C-17.42415568 10.61435923 -16.77772405 8.33317216 -16 6 C-14.67592331 5.31513275 -13.34090759 4.65129797 -12 4 C-11.4225 3.29875 -10.845 2.5975 -10.25 1.875 C-6.87161154 -0.94032371 -4.309255 -0.28728367 0 0 Z " fill="#0F0303" transform="translate(219,303)"/>
<path d="M0 0 C0 0.66 0 1.32 0 2 C0.99 2.33 1.98 2.66 3 3 C2.67 4.65 2.34 6.3 2 8 C1.34 8 0.68 8 0 8 C0.33 6.68 0.66 5.36 1 4 C-1.31 4.33 -3.62 4.66 -6 5 C-6 4.34 -6 3.68 -6 3 C-2.53846154 0 -2.53846154 0 0 0 Z " fill="#7A1818" transform="translate(219,306)"/>
</svg>
