<?xml version="1.0" encoding="UTF-8"?>
<svg version="1.1" xmlns="http://www.w3.org/2000/svg" width="225" height="225">
<path d="M0 0 C74.25 0 148.5 0 225 0 C225 74.25 225 148.5 225 225 C150.75 225 76.5 225 0 225 C0 150.75 0 76.5 0 0 Z " fill="#FDFDFD" transform="translate(0,0)"/>
<path d="M0 0 C1.52565079 -0.00642769 1.52565079 -0.00642769 3.0821228 -0.01298523 C5.22515117 -0.01869956 7.36819892 -0.0192503 9.51123047 -0.01489258 C12.74351215 -0.01174786 15.97486337 -0.03517625 19.20703125 -0.06054688 C41.12262664 -0.12819672 61.08510396 2.56341901 77.5078125 18.60546875 C83.26155925 24.84219424 86.34190071 30.56318576 87.7734375 38.98828125 C87.89823486 39.69307617 88.02303223 40.39787109 88.15161133 41.12402344 C89.1323592 46.83279606 89.86623829 52.51142168 90.1484375 58.30078125 C90.22771484 59.77998047 90.22771484 59.77998047 90.30859375 61.2890625 C90.52594303 68.72618785 90.41378245 76.29153277 85.51953125 82.30078125 C78.32816786 89.04177643 69.77691347 92.30818015 60.4609375 94.98828125 C59.42090576 95.29209717 59.42090576 95.29209717 58.35986328 95.60205078 C45.11692727 99.19036271 31.70823047 99.67720115 18.0859375 99.61328125 C16.8732872 99.61054703 16.8732872 99.61054703 15.63613892 99.60775757 C-7.53604344 99.52003286 -37.43361138 98.32876452 -55.66796875 81.73828125 C-60.65702096 76.16910669 -61.14860749 69.12891993 -61.0703125 61.92578125 C-60.00919391 44.34153036 -58.09538339 28.87594017 -44.8515625 16.30078125 C-44.18382813 15.66269531 -43.51609375 15.02460937 -42.828125 14.3671875 C-30.93598456 4.13812417 -15.36064656 -0.01463751 0 0 Z " fill="#BCBDBF" transform="translate(97.8515625,105.69921875)"/>
<path d="M0 0 C9.89043955 6.1953125 15.95189357 14.95853235 18.62890625 26.33984375 C20.51465713 38.21539887 19.4388314 50.62206245 12.3515625 60.69140625 C11.30188354 61.92908741 10.21753307 63.13814896 9.1015625 64.31640625 C8.52664062 64.94289063 7.95171875 65.569375 7.359375 66.21484375 C0.63329207 72.82929045 -7.63428309 75.44140458 -16.9609375 75.81640625 C-27.24261864 75.39976296 -34.83040354 71.65877029 -41.8984375 64.31640625 C-42.8059375 63.38828125 -43.7134375 62.46015625 -44.6484375 61.50390625 C-51.45146884 51.86627852 -52.81060487 40.86624382 -51.8984375 29.31640625 C-49.60692374 17.85883747 -44.67899039 8.02016021 -34.8984375 1.31640625 C-34.3003125 0.90261719 -33.7021875 0.48882813 -33.0859375 0.0625 C-23.95563452 -5.0554628 -9.25525251 -4.56401627 0 0 Z " fill="#BCBDBF" transform="translate(128.8984375,22.68359375)"/>
</svg>
