<?xml version="1.0" encoding="UTF-8"?>
<svg version="1.1" xmlns="http://www.w3.org/2000/svg" width="430" height="580">
<path d="M0 0 C3.00219931 2.6770864 5.9038716 5.45586404 8.79296875 8.25390625 C9.5833252 9.00559082 9.5833252 9.00559082 10.38964844 9.77246094 C18.68758603 17.67643117 26.04902428 25.98735925 32.79296875 35.25390625 C33.20611328 35.8173877 33.61925781 36.38086914 34.04492188 36.96142578 C52.96723771 63.10330982 64.80842849 93.485349 69.79296875 125.25390625 C69.99921875 126.5171875 70.20546875 127.78046875 70.41796875 129.08203125 C78.94839134 186.58022308 58.49677912 247.90973403 31.79296875 298.25390625 C31.34260254 299.1159668 30.89223633 299.97802734 30.42822266 300.86621094 C19.26484964 322.19838197 6.73579187 342.62670139 -7.20703125 362.25390625 C-7.70912109 362.96708008 -8.21121094 363.68025391 -8.72851562 364.41503906 C-16.03257373 374.77817685 -23.67794789 384.76428669 -31.77587891 394.51855469 C-33.04341288 396.0555099 -34.28902332 397.61048791 -35.53125 399.16796875 C-40.97573425 405.99118561 -46.86053517 412.33256395 -52.84765625 418.67578125 C-55.60155731 421.59583947 -58.29374905 424.56313058 -60.95703125 427.56640625 C-67.24235232 434.58637523 -73.86124991 441.22695541 -81.0234375 447.3515625 C-83.21497661 449.26082823 -85.35044941 451.22398781 -87.48046875 453.20141602 C-93.52701632 458.80962725 -99.7495642 464.11905293 -106.20703125 469.25390625 C-106.76181152 469.69766602 -107.3165918 470.14142578 -107.88818359 470.59863281 C-113.77606196 475.3043826 -119.70044161 479.97087147 -125.76953125 484.44140625 C-126.88521484 485.26705078 -126.88521484 485.26705078 -128.0234375 486.109375 C-130.72148992 487.5235599 -132.18290404 487.56179313 -135.20703125 487.25390625 C-137.52783203 485.92797852 -137.52783203 485.92797852 -139.90234375 484.0703125 C-141.21513306 483.05662598 -141.21513306 483.05662598 -142.55444336 482.02246094 C-143.47104736 481.29446289 -144.38765137 480.56646484 -145.33203125 479.81640625 C-146.27763916 479.07938477 -147.22324707 478.34236328 -148.19750977 477.58300781 C-150.87832967 475.48676232 -153.54536766 473.37439509 -156.20703125 471.25390625 C-156.8098291 470.77614746 -157.41262695 470.29838867 -158.03369141 469.80615234 C-161.13584996 467.3399212 -164.17957812 464.81103106 -167.20703125 462.25390625 C-167.73280762 461.81691406 -168.25858398 461.37992188 -168.80029297 460.9296875 C-176.13928049 454.82953277 -183.10891584 448.51532357 -189.79101562 441.69946289 C-192.46220934 438.97820498 -195.13200945 436.36581169 -198.08203125 433.94140625 C-201.24660494 431.33803775 -203.81688358 428.3648024 -206.46484375 425.24609375 C-208.09776768 423.3788489 -209.79632264 421.66128229 -211.58203125 419.94140625 C-215.3289671 416.26123095 -218.54621282 412.21562193 -221.83203125 408.125 C-224.13753674 405.33791688 -226.54498967 402.7035379 -229.01953125 400.06640625 C-234.78353351 393.80196348 -239.74812237 387.00802099 -244.78710938 380.15722656 C-246.78648813 377.47717898 -248.87688725 374.87153712 -250.95703125 372.25390625 C-277.60488501 338.01657763 -298.69926106 298.29925485 -315.20703125 258.25390625 C-315.50077637 257.55233398 -315.79452148 256.85076172 -316.09716797 256.12792969 C-324.49762541 235.8737806 -330.68204674 213.87245289 -334.20703125 192.25390625 C-334.4184375 191.01125 -334.62984375 189.76859375 -334.84765625 188.48828125 C-343.07606334 136.06157321 -331.23423571 81.51410011 -300.20703125 38.25390625 C-299.78711914 37.66722168 -299.36720703 37.08053711 -298.93457031 36.47607422 C-293.34626986 28.76544108 -287.19288792 21.61089819 -280.61914062 14.73339844 C-279.68268565 13.75225785 -278.75160894 12.76595378 -277.82617188 11.77441406 C-265.6767671 -1.22322137 -251.36216322 -11.52583864 -236.20703125 -20.74609375 C-235.18351562 -21.39835937 -234.16 -22.050625 -233.10546875 -22.72265625 C-161.20678692 -66.63158359 -62.58777309 -54.39945098 0 0 Z M-249.20703125 24.25390625 C-250.53626115 25.38375166 -251.86945632 26.50895264 -253.20703125 27.62890625 C-276.26556875 47.86866462 -292.06227611 76.79143944 -300.58203125 105.94140625 C-300.80858398 106.7106543 -301.03513672 107.47990234 -301.26855469 108.27246094 C-305.31607899 123.03223002 -306.76476555 137.74729446 -306.64453125 153.00390625 C-306.64148987 153.82985291 -306.63844849 154.65579956 -306.63531494 155.5067749 C-306.56336339 168.77176342 -305.62621201 181.38383926 -302.20703125 194.25390625 C-301.88557129 195.51509277 -301.88557129 195.51509277 -301.55761719 196.80175781 C-293.94653971 226.12711746 -279.16835727 252.39620774 -258.20703125 274.25390625 C-257.7584375 274.73891602 -257.30984375 275.22392578 -256.84765625 275.72363281 C-244.30704856 289.26715201 -229.48826042 299.65573956 -213.20703125 308.25390625 C-211.58667969 309.14142578 -211.58667969 309.14142578 -209.93359375 310.046875 C-193.94997749 318.48577729 -177.00474188 323.41002932 -159.20703125 326.25390625 C-158.14081543 326.42897705 -157.07459961 326.60404785 -155.97607422 326.78442383 C-151.80812053 327.30359567 -147.74181702 327.45084896 -143.546875 327.4921875 C-142.72813904 327.50198135 -141.90940308 327.51177521 -141.06585693 327.52186584 C-115.39340764 327.77501561 -115.39340764 327.77501561 -90.20703125 323.25390625 C-89.40152832 323.03959961 -88.59602539 322.82529297 -87.76611328 322.60449219 C-61.10023922 315.3363091 -36.79336297 302.13247551 -16.5 283.35546875 C-14.47232863 281.49705785 -12.39176573 279.75162876 -10.26953125 278.00390625 C-4.58895591 273.03197411 0.11593869 267.15139307 4.79296875 261.25390625 C5.21336426 260.72442383 5.63375977 260.19494141 6.06689453 259.64941406 C27.32760206 232.42152899 40.31436164 197.84435133 41.79296875 163.25390625 C41.83381592 162.3093457 41.83381592 162.3093457 41.87548828 161.34570312 C43.58379939 114.97418906 27.65523952 70.32687703 -3.70703125 36.06640625 C-5.52948709 34.11828557 -7.36792968 32.18643097 -9.20703125 30.25390625 C-9.96113281 29.42375 -10.71523438 28.59359375 -11.4921875 27.73828125 C-22.65859137 15.86320337 -36.86108457 6.81373658 -51.20703125 -0.74609375 C-51.82223633 -1.07947754 -52.43744141 -1.41286133 -53.07128906 -1.75634766 C-115.28807776 -35.39003023 -197.89948094 -24.26519024 -249.20703125 24.25390625 Z " fill="#F1992C" transform="translate(351.20703125,70.74609375)"/>
<path d="M0 0 C0.33 0 0.66 0 1 0 C1.92347813 6.20227881 2.37917648 11.1146687 0 17 C-0.66 17.33 -1.32 17.66 -2 18 C-4.29985359 21.19424109 -4.11940352 24.0606259 -3.875 27.90234375 C-4.03328334 30.558536 -5.00456625 32.53703341 -6 35 C-6.57552847 38.07747865 -7.00452806 41.15742418 -7.4375 44.2578125 C-8 47 -8 47 -10 50 C-10.29690733 52.4783833 -10.29690733 52.4783833 -10.24291992 55.28173828 C-10.24599655 56.3594046 -10.24907318 57.43707092 -10.25224304 58.5473938 C-10.24505753 59.70995697 -10.23787201 60.87252014 -10.23046875 62.0703125 C-10.23001053 63.26228241 -10.22955231 64.45425232 -10.2290802 65.68234253 C-10.22605778 68.20246374 -10.21817181 70.72258308 -10.20581055 73.24267578 C-10.18754114 77.11627764 -10.18530093 80.98964079 -10.18554688 84.86328125 C-10.18063231 87.30729375 -10.17480425 89.75130462 -10.16796875 92.1953125 C-10.16685593 93.36192413 -10.1657431 94.52853577 -10.16459656 95.73049927 C-10.15502678 97.33754227 -10.15502678 97.33754227 -10.14526367 98.97705078 C-10.14145187 99.92508575 -10.13764008 100.87312073 -10.13371277 101.84988403 C-10.23925338 103.98136468 -10.23925338 103.98136468 -9 105 C-8.92741054 107.18639453 -8.91626217 109.37500389 -8.9375 111.5625 C-8.94652344 112.76003906 -8.95554687 113.95757812 -8.96484375 115.19140625 C-8.97644531 116.11824219 -8.98804688 117.04507813 -9 118 C-9.33 118 -9.66 118 -10 118 C-11.95577647 105.99473059 -13.5959126 94.17313288 -14 82 C-14.04125 80.83984375 -14.0825 79.6796875 -14.125 78.484375 C-14.60538006 51.22280663 -9.20754444 25.54724403 0 0 Z " fill="#E8AB5B" transform="translate(28,151)"/>
<path d="M0 0 C1.53600197 4.6080059 -0.49986052 8.67226266 -1.91015625 13.16601562 C-6.26917327 27.81078334 -7.54715743 42.54043747 -7.4375 57.75 C-7.43645264 58.57062927 -7.43540527 59.39125854 -7.43432617 60.23675537 C-7.40310158 72.13939451 -6.56202298 83.49502537 -3.875 95.1328125 C-3 99 -3 99 -3 103 C-3.66 103 -4.32 103 -5 103 C-6.5476555 99.90468901 -6.44409451 96.6333237 -6.71875 93.21484375 C-6.7665741 91.02929332 -6.7665741 91.02929332 -8 90 C-9.83878806 83.2899266 -10.27770075 76.75647021 -10.1953125 69.8359375 C-10.1924826 68.91785309 -10.18965271 67.99976868 -10.18673706 67.05386353 C-10.17566399 64.16076864 -10.15058467 61.26799914 -10.125 58.375 C-10.11495352 56.39713993 -10.10583061 54.41927494 -10.09765625 52.44140625 C-10.07576705 47.62748141 -10.04132832 42.8137956 -10 38 C-9.34 38 -8.68 38 -8 38 C-8.14308594 36.57107422 -8.14308594 36.57107422 -8.2890625 35.11328125 C-8.39992187 33.85902344 -8.51078125 32.60476562 -8.625 31.3125 C-8.74101563 30.07113281 -8.85703125 28.82976562 -8.9765625 27.55078125 C-9.0002699 23.95911043 -8.45607969 22.20952776 -7 19 C-6.51266953 16.86056569 -6.05581235 14.71402756 -5.625 12.5625 C-4.50266564 7.48609534 -3.30736987 3.9916533 0 0 Z " fill="#E8B06B" transform="translate(53,166)"/>
<path d="M0 0 C-7.78808563 -0.51648735 -15.34925042 -1.44876534 -23 -3 C-23 -3.66 -23 -4.32 -23 -5 C-23.61488281 -4.98839844 -24.22976562 -4.97679687 -24.86328125 -4.96484375 C-25.67152344 -4.95582031 -26.47976562 -4.94679688 -27.3125 -4.9375 C-28.51326172 -4.92009766 -28.51326172 -4.92009766 -29.73828125 -4.90234375 C-32 -5 -32 -5 -35 -6 C-36.91654051 -6.11659934 -38.83672153 -6.17666749 -40.7565918 -6.20532227 C-41.93758957 -6.22526749 -43.11858734 -6.24521271 -44.33537292 -6.26576233 C-45.61044205 -6.28247482 -46.88551117 -6.29918732 -48.19921875 -6.31640625 C-49.50454056 -6.33718735 -50.80986237 -6.35796844 -52.15473938 -6.37937927 C-55.62182353 -6.43452273 -59.08896646 -6.48396595 -62.55615234 -6.53222656 C-66.09543069 -6.5824981 -69.63462389 -6.63815463 -73.17382812 -6.69335938 C-80.11581156 -6.80084638 -87.05787194 -6.90231227 -94 -7 C-94 -7.33 -94 -7.66 -94 -8 C-67.77796664 -11.93154985 -23.43124446 -15.62082964 0 0 Z " fill="#EAAB5D" transform="translate(280,32)"/>
<path d="M0 0 C15.93983706 23.90975559 10.10270193 68.56157772 6 95 C5.67 95 5.34 95 5 95 C4.97222486 93.66679321 4.95326659 92.33340287 4.9375 91 C4.92009766 89.88625 4.92009766 89.88625 4.90234375 88.75 C5 86 5 86 5.49560547 82.45605469 C6.11242122 77.6176754 6.16185414 72.82544306 6.16796875 67.953125 C6.17129715 67.01950134 6.17462555 66.08587769 6.17805481 65.1239624 C6.18308844 63.16418955 6.18546425 61.20440822 6.18530273 59.24462891 C6.18750369 56.24497587 6.20573633 53.24568259 6.22460938 50.24609375 C6.22754115 48.33593875 6.22952739 46.42578202 6.23046875 44.515625 C6.23765427 43.62079407 6.24483978 42.72596313 6.25224304 41.80401611 C6.24916641 40.96924744 6.24608978 40.13447876 6.24291992 39.27441406 C6.24434494 38.54353577 6.24576996 37.81265747 6.24723816 37.05963135 C5.96227167 34.68570206 5.11918331 33.09534492 4 31 C3.75363388 28.29982731 3.90934334 25.71969994 4 23 C3.34 23 2.68 23 2 23 C2.04125 21.906875 2.0825 20.81375 2.125 19.6875 C2.14111426 15.16744935 1.3459621 10.9317602 0.4375 6.515625 C0 4 0 4 0 0 Z " fill="#E2AD6A" transform="translate(414,169)"/>
<path d="M0 0 C0 0.33 0 0.66 0 1 C-0.65258789 1.13986328 -1.30517578 1.27972656 -1.97753906 1.42382812 C-23.66821406 6.14943227 -42.64988043 13.17195382 -62 24 C-62 23.01 -62 22.02 -62 21 C-61.34 21 -60.68 21 -60 21 C-60 20.34 -60 19.68 -60 19 C-58.68 19 -57.36 19 -56 19 C-56 18.34 -56 17.68 -56 17 C-55.01 17 -54.02 17 -53 17 C-53 16.34 -53 15.68 -53 15 C-52.06027344 14.74476562 -52.06027344 14.74476562 -51.1015625 14.484375 C-50.28429687 14.24203125 -49.46703125 13.9996875 -48.625 13.75 C-47.81289062 13.51796875 -47.00078125 13.2859375 -46.1640625 13.046875 C-43.82919454 12.20177009 -43.82919454 12.20177009 -43.0703125 9.95703125 C-42.54050781 8.98830078 -42.54050781 8.98830078 -42 8 C-39.390625 7.27734375 -39.390625 7.27734375 -36.25 6.9375 C-28.99846149 5.97464168 -28.99846149 5.97464168 -23 2 C-20.26920014 1.59467001 -17.55451593 1.24520752 -14.8125 0.9375 C-14.05646484 0.84662109 -13.30042969 0.75574219 -12.52148438 0.66210938 C-8.32281554 0.17778764 -4.23476656 -0.1013102 0 0 Z " fill="#E8AA5C" transform="translate(190,52)"/>
<path d="M0 0 C3.40398335 5.10597502 4.3512548 8.24821716 4.5625 14.3125 C4.7827388 20.16709479 4.7827388 20.16709479 5.51171875 25.97265625 C7.31498654 37.15291657 6.27804078 48.99439001 4.625 60.125 C4.49899414 60.98367676 4.37298828 61.84235352 4.24316406 62.72705078 C3.26525189 68.73474811 3.26525189 68.73474811 1 71 C1.09087891 70.10414185 1.09087891 70.10414185 1.18359375 69.19018555 C3.3249285 47.65535853 3.25450854 27.91052661 0.27539062 6.44750977 C0 4 0 4 0 0 Z " fill="#E2A660" transform="translate(389,186)"/>
<path d="M0 0 C0 5.31258228 -3.07276431 9.6894293 -6 14 C-7.96474779 15.84430349 -9.93391737 17.31144359 -12.1796875 18.79296875 C-14.18458632 20.03567568 -14.18458632 20.03567568 -16.25 22.25 C-19.42735528 25.42735528 -22.63624478 26.27270746 -27 27 C-25.84960919 25.84960919 -24.69888266 24.69955293 -23.546875 23.55078125 C-22.48959702 22.49083338 -21.43774005 21.42545767 -20.390625 20.35546875 C-17.36417036 17.28042424 -14.28963795 14.35582893 -11 11.5625 C-6.91392833 8.05103216 -3.43878769 4.13729144 0 0 Z " fill="#EB9A37" transform="translate(352,336)"/>
<path d="M0 0 C1.43666016 0.56267578 1.43666016 0.56267578 2.90234375 1.13671875 C15.37927356 5.95648707 28.01349653 9.8113496 41 13 C41 13.33 41 13.66 41 14 C34.07 13.505 34.07 13.505 27 13 C27 12.34 27 11.68 27 11 C23.37 11.33 19.74 11.66 16 12 C16.66 11.01 17.32 10.02 18 9 C15.36 9.33 12.72 9.66 10 10 C10 9.01 10 8.02 10 7 C8.02 7.33 6.04 7.66 4 8 C3.896875 7.360625 3.79375 6.72125 3.6875 6.0625 C3.460625 5.381875 3.23375 4.70125 3 4 C2.01 3.67 1.02 3.34 0 3 C0 2.01 0 1.02 0 0 Z " fill="#E6AB62" transform="translate(144,382)"/>
<path d="M0 0 C-6.70572326 3.74980926 -13.12503636 3.40181926 -20.66796875 3.328125 C-21.98034012 3.32625183 -23.29271149 3.32437866 -24.64485168 3.32244873 C-27.41106658 3.31786633 -30.17698701 3.30351752 -32.94311523 3.28125 C-36.48381062 3.25288607 -40.02427573 3.24202756 -43.56507397 3.2375679 C-46.9535742 3.23240864 -50.3419958 3.21787454 -53.73046875 3.203125 C-55.00029099 3.19887512 -56.27011322 3.19462524 -57.57841492 3.19024658 C-58.75676407 3.18063904 -59.93511322 3.17103149 -61.14916992 3.16113281 C-62.70301643 3.15089081 -62.70301643 3.15089081 -64.28825378 3.14044189 C-66.68517109 3.01630505 -68.70982801 2.68653629 -71 2 C-71 1.34 -71 0.68 -71 0 C-70.22213135 0.07001221 -69.4442627 0.14002441 -68.64282227 0.2121582 C-58.94170602 1.00258847 -49.29726732 1.18621022 -39.56811523 1.18530273 C-36.937826 1.18749973 -34.30795056 1.20576443 -31.67773438 1.22460938 C-23.10117994 1.25133955 -14.96988532 1.01610189 -6.53344727 -0.66674805 C-3.99693481 -1.0004032 -2.40298051 -0.80949587 0 0 Z " fill="#EDB574" transform="translate(256,396)"/>
<path d="M0 0 C-1.83488117 2.36738165 -2.83765764 2.96604751 -5.8203125 3.58984375 C-6.91085938 3.70457031 -8.00140625 3.81929687 -9.125 3.9375 C-13.37931429 4.48750527 -16.76085997 5.13698641 -20.5625 7.125 C-25.86651786 9.79680004 -31.19431861 9.35364557 -37 9 C-34.36279174 7.24186116 -32.64360594 6.45286161 -29.68359375 5.5625 C-28.41225586 5.17964844 -28.41225586 5.17964844 -27.11523438 4.7890625 C-26.23158203 4.52867188 -25.34792969 4.26828125 -24.4375 4 C-23.58091797 3.73960938 -22.72433594 3.47921875 -21.84179688 3.2109375 C-5.34150717 -1.70562738 -5.34150717 -1.70562738 0 0 Z " fill="#E9AB5C" transform="translate(185,26)"/>
<path d="M0 0 C0 0.66 0 1.32 0 2 C-2.70533532 3.46413471 -5.41400693 4.92140832 -8.125 6.375 C-8.88554687 6.7875 -9.64609375 7.2 -10.4296875 7.625 C-16.45412663 10.84495884 -22.11069739 12.97011907 -28.875 14.125 C-29.84179688 14.29257812 -30.80859375 14.46015625 -31.8046875 14.6328125 C-32.89136719 14.81457031 -32.89136719 14.81457031 -34 15 C-34 15.66 -34 16.32 -34 17 C-37.63 17 -41.26 17 -45 17 C-42.18451064 15.59225532 -40.02213575 14.61797952 -37.0859375 13.7734375 C-26.37720249 10.59576793 -10.59064402 0 0 0 Z " fill="#E5AA62" transform="translate(302,378)"/>
<path d="M0 0 C1.98146451 0.44829514 3.96014211 0.90892498 5.9375 1.375 C7.03964844 1.63023438 8.14179688 1.88546875 9.27734375 2.1484375 C10.17582031 2.42945312 11.07429688 2.71046875 12 3 C12.33 3.66 12.66 4.32 13 5 C14.64363134 5.72159424 16.31050386 6.39351421 18 7 C18 7.99 18 8.98 18 10 C18.7425 10.0825 19.485 10.165 20.25 10.25 C23.55699631 11.15190808 24.68452365 12.53513808 27 15 C29.13309192 16.23512079 29.13309192 16.23512079 31 17 C31 17.66 31 18.32 31 19 C31.804375 19.2475 32.60875 19.495 33.4375 19.75 C34.283125 20.1625 35.12875 20.575 36 21 C36.66015625 23.078125 36.66015625 23.078125 37 25 C32.15918023 21.84450267 27.43426354 18.59475126 22.8125 15.125 C17.97446195 11.5597697 12.95609953 8.56251409 7.68286133 5.70166016 C4.72941487 4.08212321 2.21165527 2.56709986 0 0 Z " fill="#E6A758" transform="translate(297,68)"/>
<path d="M0 0 C7.04751824 -0.02534293 14.09502473 -0.04286391 21.14257812 -0.05493164 C23.54036905 -0.0599622 25.93815691 -0.06678733 28.3359375 -0.07543945 C31.78125771 -0.08756082 35.22653737 -0.09324108 38.671875 -0.09765625 C39.74491882 -0.10281754 40.81796265 -0.10797882 41.92352295 -0.11329651 C43.42462616 -0.11340981 43.42462616 -0.11340981 44.95605469 -0.11352539 C45.83541687 -0.115746 46.71477905 -0.11796661 47.62078857 -0.12025452 C49.88519763 -0.00580255 51.82971862 0.36504547 54 1 C54 1.66 54 2.32 54 3 C54.66 3.33 55.32 3.66 56 4 C54.89011719 3.855625 53.78023437 3.71125 52.63671875 3.5625 C35.11847879 1.50239464 17.60645304 1.80594838 0 2 C0 1.34 0 0.68 0 0 Z " fill="#E3A85F" transform="translate(195,49)"/>
<path d="M0 0 C0.99 0.33 1.98 0.66 3 1 C-4.85592378 10.50980247 -13.68495625 20.12330417 -24 27 C-24 26.01 -24 25.02 -24 24 C-23.01 23.34 -22.02 22.68 -21 22 C-20.34 21.01 -19.68 20.02 -19 19 C-18.34 18.34 -17.68 17.68 -17 17 C-16.01 17 -15.02 17 -14 17 C-14 15.35 -14 13.7 -14 12 C-12.68 12 -11.36 12 -10 12 C-10.33 10.68 -10.66 9.36 -11 8 C-8.50907189 6.75453595 -7.58919267 7.2232422 -5 8 C-4.67 6.35 -4.34 4.7 -4 3 C-2.68 2.67 -1.36 2.34 0 2 C0 1.34 0 0.68 0 0 Z " fill="#EBA453" transform="translate(289,495)"/>
<path d="M0 0 C0.33 0 0.66 0 1 0 C1.01981934 1.0737085 1.03963867 2.14741699 1.06005859 3.25366211 C1.13668444 7.27390229 1.22530932 11.29380712 1.31738281 15.3137207 C1.35543894 17.04672579 1.39033058 18.77980361 1.421875 20.51293945 C1.468038 23.01800362 1.52594178 25.52257707 1.5859375 28.02734375 C1.59748871 28.79022202 1.60903992 29.55310028 1.62094116 30.33909607 C1.76658446 35.76388442 2.69931829 40.74221537 4 46 C4.56436288 48.59992214 5.09340234 51.20552359 5.625 53.8125 C5.88539062 55.07707031 6.14578125 56.34164062 6.4140625 57.64453125 C7 61 7 61 7 65 C6.34 65 5.68 65 5 65 C3.4523445 61.90468901 3.55590549 58.6333237 3.28125 55.21484375 C3.2334259 53.02929332 3.2334259 53.02929332 2 52 C0.16121194 45.2899266 -0.27770075 38.75647021 -0.1953125 31.8359375 C-0.1924826 30.91785309 -0.18965271 29.99976868 -0.18673706 29.05386353 C-0.17566399 26.16076864 -0.15058467 23.26799914 -0.125 20.375 C-0.11495352 18.39713993 -0.10583061 16.41927494 -0.09765625 14.44140625 C-0.07576705 9.62748141 -0.04132832 4.8137956 0 0 Z " fill="#E29B47" transform="translate(43,204)"/>
<path d="M0 0 C7.28505759 -0.25011369 14.08873567 0.44082854 21.25 1.75 C22.74865601 2.01635254 22.74865601 2.01635254 24.27758789 2.28808594 C32.01742033 3.71067001 39.51163995 5.56011839 47 8 C47 8.33 47 8.66 47 9 C39.21191437 8.48351265 31.65074958 7.55123466 24 6 C24 5.34 24 4.68 24 4 C22.824375 4.061875 21.64875 4.12375 20.4375 4.1875 C13.49175052 4.22089303 6.74693255 2.49339218 0 1 C0 0.67 0 0.34 0 0 Z " fill="#E6AE68" transform="translate(233,23)"/>
<path d="M0 0 C6.63398527 5.39975545 12.56016625 11.47039831 18.56396484 17.54785156 C20.36855113 19.37268652 22.18305603 21.18747681 24 23 C22.01432292 22.44661458 20.02864583 21.89322917 18.04296875 21.33984375 C15.80755841 20.80436183 15.80755841 20.80436183 13 22 C12.31292445 19.50935112 12 17.62113708 12 15 C10.46100047 13.39232837 10.46100047 13.39232837 8.5 11.9375 C6.53125 10.40234375 6.53125 10.40234375 5 9 C5 8.34 5 7.68 5 7 C3.68 6.67 2.36 6.34 1 6 C0.67 4.02 0.34 2.04 0 0 Z " fill="#E7AD6A" transform="translate(86,338)"/>
<path d="M0 0 C1.9375 0.9375 1.9375 0.9375 4 3 C4.49321986 5.35980192 4.68797168 7.63332845 4.82421875 10.0390625 C4.78901896 12.00273558 4.78901896 12.00273558 6 13 C6.04063832 14.66617115 6.042721 16.33388095 6 18 C6.99 18 7.98 18 9 18 C8.79375 18.9075 8.5875 19.815 8.375 20.75 C7.71211996 23.86794035 7.71211996 23.86794035 8.96875 25.90625 C10.18456839 28.37472975 10.20533979 30.0184472 10.125 32.75 C10.10695313 33.54921875 10.08890625 34.3484375 10.0703125 35.171875 C10.04710937 35.77515625 10.02390625 36.3784375 10 37 C8.18138171 34.27207257 7.43484983 32.51433127 6.5625 29.4296875 C6.30726562 28.5325 6.05203125 27.6353125 5.7890625 26.7109375 C5.52867188 25.77507812 5.26828125 24.83921875 5 23.875 C4.73960938 22.96234375 4.47921875 22.0496875 4.2109375 21.109375 C0 6.1796875 0 6.1796875 0 0 Z " fill="#E8B16B" transform="translate(19,270)"/>
<path d="M0 0 C3.02199386 3.67984286 5.769572 7.49781357 8.4375 11.4375 C10.75909159 14.85730535 13.08890776 18.1558365 15.78515625 21.28515625 C18 24 18 24 18 26 C16.68 25.67 15.36 25.34 14 25 C13.67 23.68 13.34 22.36 13 21 C11.35 20.67 9.7 20.34 8 20 C8.33 18.35 8.66 16.7 9 15 C7.68 15 6.36 15 5 15 C3 12 3 12 3 8 C1.68 8 0.36 8 -1 8 C-0.67 5.36 -0.34 2.72 0 0 Z " fill="#E8AB5B" transform="translate(68,312)"/>
<path d="M0 0 C2.475 0.495 2.475 0.495 5 1 C1.34287342 4.75947154 -2.47837115 8.19870139 -6.5 11.5625 C-7.33337891 12.26536133 -7.33337891 12.26536133 -8.18359375 12.98242188 C-9.7836032 14.32831218 -11.39122305 15.66461331 -13 17 C-14.37671875 18.15822266 -14.37671875 18.15822266 -15.78125 19.33984375 C-18 21 -18 21 -20 21 C-20 20.01 -20 19.02 -20 18 C-19.01 18 -18.02 18 -17 18 C-17 17.01 -17 16.02 -17 15 C-15.68 15 -14.36 15 -13 15 C-13 14.01 -13 13.02 -13 12 C-11.68 12 -10.36 12 -9 12 C-9 10.68 -9 9.36 -9 8 C-3.77272727 3 -3.77272727 3 -1 3 C-0.67 2.01 -0.34 1.02 0 0 Z " fill="#E7A75B" transform="translate(252,528)"/>
<path d="M0 0 C2.31796826 3.47695239 3.08989378 6.80449822 4 10.8125 C4.17370117 11.56789062 4.34740234 12.32328125 4.52636719 13.1015625 C6.74605992 23.01313607 8.35100462 32.82086602 8 43 C7.67 43 7.34 43 7 43 C6.86722656 42.30132812 6.73445313 41.60265625 6.59765625 40.8828125 C6.42105469 39.97273438 6.24445313 39.06265625 6.0625 38.125 C5.88847656 37.22007812 5.71445312 36.31515625 5.53515625 35.3828125 C5.10036299 33.00043683 5.10036299 33.00043683 4 31 C3.86584528 28.3276379 3.95681459 25.67749512 4 23 C3.34 23 2.68 23 2 23 C2.04125 21.906875 2.0825 20.81375 2.125 19.6875 C2.14111426 15.16744935 1.3459621 10.9317602 0.4375 6.515625 C0 4 0 4 0 0 Z " fill="#E7A556" transform="translate(414,169)"/>
<path d="M0 0 C0.33 0.66 0.66 1.32 1 2 C0.67 2.66 0.34 3.32 0 4 C1.98567708 4.1953125 3.97135417 4.390625 5.95703125 4.5859375 C8 5 8 5 11 7 C11 7.66 11 8.32 11 9 C2.5537319 6.95838673 -5.80695561 4.92608728 -14 2 C-14 1.34 -14 0.68 -14 0 C-12.2300132 -0.19532961 -10.45895721 -0.38098882 -8.6875 -0.5625 C-7.70136719 -0.66691406 -6.71523438 -0.77132812 -5.69921875 -0.87890625 C-3 -1 -3 -1 0 0 Z " fill="#EA9D3E" transform="translate(263,50)"/>
<path d="M0 0 C0 3.75366417 -1.11420063 5.78715662 -3 9 C-3.99 9.33 -4.98 9.66 -6 10 C-6 10.66 -6 11.32 -6 12 C-6.66 12 -7.32 12 -8 12 C-8.12375 13.0209375 -8.12375 13.0209375 -8.25 14.0625 C-9.2061879 17.80756926 -10.60746094 20.94636463 -13 24 C-15.75 25.4375 -15.75 25.4375 -18 26 C-16.47688836 21.5152824 -14.01733419 17.91666698 -11.25 14.125 C-10.80479004 13.50802246 -10.35958008 12.89104492 -9.90087891 12.25537109 C-6.79248017 7.98569172 -3.54538988 3.91858881 0 0 Z " fill="#E8A04E" transform="translate(63,94)"/>
<path d="M0 0 C0.99 0 1.98 0 3 0 C3.45375 1.134375 3.9075 2.26875 4.375 3.4375 C5.57095806 7.04721692 5.57095806 7.04721692 8 8 C8.66666667 9.66666667 9.33333333 11.33333333 10 13 C10.66 13.33 11.32 13.66 12 14 C12.625 17.0625 12.625 17.0625 13 20 C13.66 20 14.32 20 15 20 C15.33 21.32 15.66 22.64 16 24 C16.66 24 17.32 24 18 24 C18.33 25.65 18.66 27.3 19 29 C19.66 29 20.32 29 21 29 C22.0625 30.8125 22.0625 30.8125 23 33 C22.67 33.99 22.34 34.98 22 36 C16.19752203 27.52735517 10.65999908 18.93122076 5.375 10.125 C4.84229492 9.2390918 4.30958984 8.35318359 3.76074219 7.44042969 C0 1.13137106 0 1.13137106 0 0 Z " fill="#E5AF69" transform="translate(65,388)"/>
<path d="M0 0 C2.8125 0.1875 2.8125 0.1875 6 1 C7.6875 3.5 7.6875 3.5 9 6 C9.99 6.33 10.98 6.66 12 7 C12.33 7.99 12.66 8.98 13 10 C13.99 9.67 14.98 9.34 16 9 C17.125 12.75 17.125 12.75 16 15 C16.99 14.67 17.98 14.34 19 14 C19 15.65 19 17.3 19 19 C14.60174687 17.36787715 11.98885042 14.02454133 8.9375 10.625 C8.14375977 9.75875 8.14375977 9.75875 7.33398438 8.875 C4.73378452 6.0170639 2.24404215 3.1525298 0 0 Z " fill="#E7A859" transform="translate(138,488)"/>
<path d="M0 0 C0.66 0 1.32 0 2 0 C1.67 1.65 1.34 3.3 1 5 C0.01 4.67 -0.98 4.34 -2 4 C-2 4.66 -2 5.32 -2 6 C-3.32 6.33 -4.64 6.66 -6 7 C-6 8.98 -6 10.96 -6 13 C-6.61875 12.814375 -7.2375 12.62875 -7.875 12.4375 C-10.04160178 11.76313824 -10.04160178 11.76313824 -12 13 C-12.66 12.67 -13.32 12.34 -14 12 C-14 12.66 -14 13.32 -14 14 C-16.31 14.33 -18.62 14.66 -21 15 C-18.92508078 12.79077663 -16.86366697 11.16332293 -14.27734375 9.58984375 C-13.57416016 9.15736328 -12.87097656 8.72488281 -12.14648438 8.27929688 C-11.41751953 7.83650391 -10.68855469 7.39371094 -9.9375 6.9375 C-8.48675842 6.05327492 -7.0374714 5.16665771 -5.58984375 4.27734375 C-4.94909912 3.88796631 -4.30835449 3.49858887 -3.64819336 3.09741211 C-1.84097455 1.97209865 -1.84097455 1.97209865 0 0 Z " fill="#ECA44E" transform="translate(323,363)"/>
<path d="M0 0 C1.32 0.33 2.64 0.66 4 1 C2.28211261 2.34783459 0.5501903 3.67779443 -1.1875 5 C-2.15042969 5.7425 -3.11335938 6.485 -4.10546875 7.25 C-7.2137275 9.12921716 -8.46448804 9.67990615 -12 9 C-14.45703125 7.46875 -14.45703125 7.46875 -16.8125 5.5 C-17.60269531 4.8503125 -18.39289063 4.200625 -19.20703125 3.53125 C-19.79871094 3.0259375 -20.39039063 2.520625 -21 2 C-19 1 -19 1 -15.4375 1.8125 C-12 3 -12 3 -11 5 C-8.69 5 -6.38 5 -4 5 C-4 4.01 -4 3.02 -4 2 C-2.68 2 -1.36 2 0 2 C0 1.34 0 0.68 0 0 Z " fill="#E7A657" transform="translate(228,549)"/>
<path d="M0 0 C0 1.32 0 2.64 0 4 C-0.639375 4.12375 -1.27875 4.2475 -1.9375 4.375 C-2.618125 4.58125 -3.29875 4.7875 -4 5 C-4.33 5.66 -4.66 6.32 -5 7 C-5.8971875 7.37125 -5.8971875 7.37125 -6.8125 7.75 C-9.26787023 8.92582128 -9.26787023 8.92582128 -10.8125 11.875 C-14.20560558 16.72229369 -18.7922714 18.3961357 -24 21 C-7.10869565 0 -7.10869565 0 0 0 Z " fill="#E8AB5F" transform="translate(96,64)"/>
<path d="M0 0 C2.69673919 1.29630899 5.18965614 2.7137343 7.671875 4.3828125 C8.33574219 4.82753906 8.99960938 5.27226562 9.68359375 5.73046875 C10.36550781 6.19066406 11.04742187 6.65085937 11.75 7.125 C12.44738281 7.59292969 13.14476563 8.06085938 13.86328125 8.54296875 C15.57692526 9.69322295 17.28865316 10.84633086 19 12 C16.68719735 13.44810616 15.58355661 14.12565635 12.859375 13.5390625 C12.16328125 13.23742187 11.4671875 12.93578125 10.75 12.625 C10.04359375 12.32851563 9.3371875 12.03203125 8.609375 11.7265625 C8.07828125 11.48679687 7.5471875 11.24703125 7 11 C7 10.01 7 9.02 7 8 C5.35 8 3.7 8 2 8 C2.33 6.35 2.66 4.7 3 3 C2.01 2.67 1.02 2.34 0 2 C0 1.34 0 0.68 0 0 Z " fill="#E9AE67" transform="translate(110,361)"/>
<path d="M0 0 C1.03948258 3.11844775 1.45196105 4.76094579 1 8 C-1.48629232 11.80256472 -2.86111782 13.6991632 -7.3125 14.875 C-8.6428125 14.936875 -8.6428125 14.936875 -10 15 C-8.37815499 11.41486894 -6.20743761 8.41007677 -3.875 5.25 C-3.15054687 4.26515625 -2.42609375 3.2803125 -1.6796875 2.265625 C-1.12539063 1.51796875 -0.57109375 0.7703125 0 0 Z " fill="#EDA34C" transform="translate(363,321)"/>
<path d="M0 0 C3.34474657 4.1685409 4.9267667 8.52549928 6.75 13.5 C7.07871094 14.35464844 7.40742188 15.20929688 7.74609375 16.08984375 C8.05160156 16.91613281 8.35710937 17.74242187 8.671875 18.59375 C8.9512793 19.34333984 9.23068359 20.09292969 9.51855469 20.86523438 C10.06202866 23.27503985 9.78307395 24.6835702 9 27 C8.67 26.01 8.34 25.02 8 24 C7.34 24 6.68 24 6 24 C5.87882812 23.43152344 5.75765625 22.86304688 5.6328125 22.27734375 C3.88508352 13.22042667 3.88508352 13.22042667 0 5 C-0.125 2.3125 -0.125 2.3125 0 0 Z " fill="#E7A963" transform="translate(404,142)"/>
<path d="M0 0 C4.39383706 1.59623144 8.28995807 3.78024333 12.3125 6.125 C12.95767578 6.49753906 13.60285156 6.87007812 14.26757812 7.25390625 C15.84675945 8.16632213 17.42361864 9.08275509 19 10 C14.32030251 11.55989916 10.44944268 9.85925675 6 8 C2.77666975 5.36871 1.30994869 3.92984608 0 0 Z " fill="#E9A858" transform="translate(310,44)"/>
<path d="M0 0 C0.66 0 1.32 0 2 0 C0.36047417 4.6393176 -2.06871052 8.63855858 -4.625 12.8125 C-5.04523438 13.50537109 -5.46546875 14.19824219 -5.8984375 14.91210938 C-6.9289467 16.61010748 -7.96401681 18.30533614 -9 20 C-9.66 18.68 -10.32 17.36 -11 16 C-10.525625 15.608125 -10.05125 15.21625 -9.5625 14.8125 C-7.80096465 13.07994921 -7.80096465 13.07994921 -7.5625 10.5625 C-6.848948 7.31187422 -5.54257074 6.08028515 -3 4 C-2.34 4 -1.68 4 -1 4 C-0.67 2.68 -0.34 1.36 0 0 Z " fill="#E8AA5C" transform="translate(368,391)"/>
<path d="M0 0 C2.15255287 0.73049082 4.29695864 1.4850272 6.4375 2.25 C7.63246094 2.66765625 8.82742187 3.0853125 10.05859375 3.515625 C13 5 13 5 13.91015625 7.171875 C13.93980469 7.77515625 13.96945313 8.3784375 14 9 C12.68 9.33 11.36 9.66 10 10 C10 9.01 10 8.02 10 7 C8.02 7.33 6.04 7.66 4 8 C3.896875 7.360625 3.79375 6.72125 3.6875 6.0625 C3.460625 5.381875 3.23375 4.70125 3 4 C2.01 3.67 1.02 3.34 0 3 C0 2.01 0 1.02 0 0 Z " fill="#E9A451" transform="translate(144,382)"/>
<path d="M0 0 C2.475 0.495 2.475 0.495 5 1 C5 1.66 5 2.32 5 3 C6.32 3.33 7.64 3.66 9 4 C9.061875 4.61875 9.12375 5.2375 9.1875 5.875 C9.455625 6.57625 9.72375 7.2775 10 8 C11.64551962 8.71727778 13.31422289 9.38325228 15 10 C15.99 11.485 15.99 11.485 17 13 C16.67 13.99 16.34 14.98 16 16 C13.32933711 13.52510877 10.6641548 11.04439421 8 8.5625 C7.236875 7.85544922 6.47375 7.14839844 5.6875 6.41992188 C4.965625 5.74638672 4.24375 5.07285156 3.5 4.37890625 C2.8296875 3.7557251 2.159375 3.13254395 1.46875 2.49047852 C0 1 0 1 0 0 Z " fill="#E9A555" transform="translate(164,514)"/>
<path d="M0 0 C-1.6640362 2.00869095 -2.62345629 2.91238503 -5.19921875 3.51171875 C-6.02035156 3.56972656 -6.84148437 3.62773437 -7.6875 3.6875 C-9.00427734 3.78417969 -9.00427734 3.78417969 -10.34765625 3.8828125 C-13.90749576 4.04009554 -17.43719196 4.06597793 -21 4 C-17.62239627 1.74826418 -15.01777776 1.1633205 -11.0625 0.3125 C-9.83660156 0.04050781 -8.61070312 -0.23148438 -7.34765625 -0.51171875 C-4.37544136 -0.94523901 -2.76075615 -1.03095906 0 0 Z " fill="#E7A958" transform="translate(185,26)"/>
<path d="M0 0 C3.34097385 0.59660247 5.54300129 1.63075125 8 4 C8 5.32 8 6.64 8 8 C9.65 8.33 11.3 8.66 13 9 C13.33 11.31 13.66 13.62 14 16 C9.08419924 11.24277346 4.43022305 6.21202712 0 1 C0 0.67 0 0.34 0 0 Z " fill="#E3A75C" transform="translate(124,472)"/>
<path d="M0 0 C-6.20337009 3.31484432 -11.49246131 3.36372414 -18.4375 3.1875 C-19.45521484 3.17396484 -20.47292969 3.16042969 -21.52148438 3.14648438 C-24.01488214 3.1113661 -26.50715512 3.06218559 -29 3 C-29 2.67 -29 2.34 -29 2 C-27.69804687 1.86722656 -26.39609375 1.73445313 -25.0546875 1.59765625 C-23.32811487 1.41936886 -21.60155293 1.24097798 -19.875 1.0625 C-19.0190625 0.97548828 -18.163125 0.88847656 -17.28125 0.79882812 C-13.67120659 0.423939 -10.11033613 0.01888636 -6.53125 -0.59375 C-3.9716719 -1.00454649 -2.42773869 -0.84037109 0 0 Z " fill="#E6AD68" transform="translate(256,396)"/>
<path d="M0 0 C4.25 6.375 4.25 6.375 4.1953125 11.32421875 C4.18886719 12.35224609 4.18242187 13.38027344 4.17578125 14.43945312 C4.15902344 15.51130859 4.14226562 16.58316406 4.125 17.6875 C4.11597656 18.77095703 4.10695313 19.85441406 4.09765625 20.97070312 C4.0740734 23.6473571 4.04116126 26.32356797 4 29 C3.67 29 3.34 29 3 29 C2.49611916 24.91713576 1.99756732 20.83363807 1.5 16.75 C1.35691406 15.59113281 1.21382813 14.43226563 1.06640625 13.23828125 C0.93105469 12.12324219 0.79570312 11.00820312 0.65625 9.859375 C0.53056641 8.83295898 0.40488281 7.80654297 0.27539062 6.74902344 C0 4 0 4 0 0 Z " fill="#E8AD69" transform="translate(389,186)"/>
<path d="M0 0 C0.58136719 0.22300781 1.16273437 0.44601563 1.76171875 0.67578125 C1.06046875 1.11148438 0.35921875 1.5471875 -0.36328125 1.99609375 C-6.19090968 5.65419747 -11.81808624 9.43591524 -17.23828125 13.67578125 C-17.23828125 11.69578125 -17.23828125 9.71578125 -17.23828125 7.67578125 C-16.24828125 7.46953125 -15.25828125 7.26328125 -14.23828125 7.05078125 C-10.09203661 5.91539986 -7.33918427 3.60874579 -4.1328125 0.8203125 C-2.23828125 -0.32421875 -2.23828125 -0.32421875 0 0 Z " fill="#E5B065" transform="translate(125.23828125,76.32421875)"/>
<path d="M0 0 C5.09210286 3.56320845 9.22660027 7.04741286 13 12 C8.59033771 11.51003752 7.02554636 10.12314463 4 7 C1.8618034 6.2127322 1.8618034 6.2127322 0 6 C0 4.02 0 2.04 0 0 Z " fill="#E6A455" transform="translate(347,68)"/>
<path d="M0 0 C1.32 0 2.64 0 4 0 C4.495 0.515625 4.99 1.03125 5.5 1.5625 C6.2425 2.2740625 6.2425 2.2740625 7 3 C9.16299211 2.77242269 9.16299211 2.77242269 11 2 C11.28875 2.78375 11.5775 3.5675 11.875 4.375 C12.84912254 7.09671632 12.84912254 7.09671632 15 9 C14.67 9.66 14.34 10.32 14 11 C10.50004453 9.43810398 7.72827143 7.33666309 4.75 4.9375 C3.85796875 4.22464844 2.9659375 3.51179687 2.046875 2.77734375 C1.37140625 2.19082031 0.6959375 1.60429688 0 1 C0 0.67 0 0.34 0 0 Z " fill="#EBA756" transform="translate(181,530)"/>
<path d="M0 0 C0.33 0 0.66 0 1 0 C1.67245837 3.58227157 2.33695539 7.1659751 3 10.75 C3.19078125 11.76578125 3.3815625 12.7815625 3.578125 13.828125 C3.75859375 14.8078125 3.9390625 15.7875 4.125 16.796875 C4.29257812 17.69760742 4.46015625 18.59833984 4.6328125 19.52636719 C5 22 5 22 5 26 C4.34 26 3.68 26 3 26 C1.4523445 22.90468901 1.55590549 19.6333237 1.28125 16.21484375 C1.2334259 14.02929332 1.2334259 14.02929332 0 13 C-0.07258946 10.81360547 -0.08373783 8.62499611 -0.0625 6.4375 C-0.05347656 5.23996094 -0.04445312 4.04242188 -0.03515625 2.80859375 C-0.02355469 1.88175781 -0.01195312 0.95492187 0 0 Z " fill="#E8B36D" transform="translate(45,243)"/>
<path d="M0 0 C0.99 0.33 1.98 0.66 3 1 C0.69 5.29 -1.62 9.58 -4 14 C-4.66 12.68 -5.32 11.36 -6 10 C-5.34 9.67 -4.68 9.34 -4 9 C-3.34227572 5.97065509 -3.34227572 5.97065509 -3 3 C-2.01 2.67 -1.02 2.34 0 2 C0 1.34 0 0.68 0 0 Z " fill="#E8A756" transform="translate(375,377)"/>
<path d="M0 0 C1.65 0.33 3.3 0.66 5 1 C1.83047153 4.26008643 -1.39937989 7.22237877 -5 10 C-5.66 8.68 -6.32 7.36 -7 6 C-3.25 3 -3.25 3 -1 3 C-0.67 2.01 -0.34 1.02 0 0 Z " fill="#E8A24E" transform="translate(252,528)"/>
<path d="M0 0 C4.37934119 0.51958285 8.68803391 1.05675742 13 2 C13 2.66 13 3.32 13 4 C13.94875 4.0825 14.8975 4.165 15.875 4.25 C19 5 19 5 20.375 7.0625 C20.58125 7.701875 20.7875 8.34125 21 9 C20.34644531 8.73445313 19.69289063 8.46890625 19.01953125 8.1953125 C15.25978753 6.70697928 11.47535194 5.2899438 7.6875 3.875 C6.94693359 3.59785156 6.20636719 3.32070313 5.44335938 3.03515625 C3.62909368 2.35626973 1.81457256 1.67806589 0 1 C0 0.67 0 0.34 0 0 Z " fill="#E7A85F" transform="translate(275,59)"/>
<path d="M0 0 C1.9375 0.9375 1.9375 0.9375 4 3 C4.49321986 5.35980192 4.68797168 7.63332845 4.82421875 10.0390625 C4.78901896 12.00273558 4.78901896 12.00273558 6 13 C6.04063832 14.66617115 6.042721 16.33388095 6 18 C5.34 17.34 4.68 16.68 4 16 C4 15.01 4 14.02 4 13 C3.34 13 2.68 13 2 13 C1.66127487 11.58461283 1.32925376 10.16762037 1 8.75 C0.814375 7.96109375 0.62875 7.1721875 0.4375 6.359375 C0 4 0 4 0 0 Z " fill="#E9AB5B" transform="translate(19,270)"/>
<path d="M0 0 C0.33 0 0.66 0 1 0 C1.054138 2.24973447 1.09285491 4.49984383 1.125 6.75 C1.14820313 8.00296875 1.17140625 9.2559375 1.1953125 10.546875 C1.01537302 13.72820492 0.68998582 15.36521896 -1 18 C-1.99 18 -2.98 18 -4 18 C-2.68 12.06 -1.36 6.12 0 0 Z " fill="#E4AA5D" transform="translate(389,258)"/>
<path d="M0 0 C1.875 0.1875 1.875 0.1875 4 1 C5.25 3.5625 5.25 3.5625 6 6 C6.66 6 7.32 6 8 6 C8 6.99 8 7.98 8 9 C8.66 9 9.32 9 10 9 C9.34 10.32 8.68 11.64 8 13 C6.66094733 11.2126038 5.32890934 9.41995047 4 7.625 C3.2575 6.62726563 2.515 5.62953125 1.75 4.6015625 C0 2 0 2 0 0 Z " fill="#E8AA5E" transform="translate(91,428)"/>
<path d="M0 0 C2 0 2 0 3.4375 1.42578125 C3.953125 2.04839844 4.46875 2.67101562 5 3.3125 C5.515625 3.92738281 6.03125 4.54226563 6.5625 5.17578125 C8.99399996 8.26140756 11.13843278 11.54280373 13 15 C12.67 15.66 12.34 16.32 12 17 C10.18232326 14.7331445 8.37076857 12.46184027 6.5625 10.1875 C5.7880957 9.22360352 5.7880957 9.22360352 4.99804688 8.24023438 C4.50498047 7.61826172 4.01191406 6.99628906 3.50390625 6.35546875 C3.04830322 5.78465576 2.5927002 5.21384277 2.12329102 4.62573242 C1 3 1 3 0 0 Z " fill="#E7AC62" transform="translate(100,441)"/>
<path d="M0 0 C4.554787 3.80014774 8.95279259 7.65665546 13 12 C13 12.66 13 13.32 13 14 C11.1875 13.8125 11.1875 13.8125 9 13 C7.375 10.5625 7.375 10.5625 6 8 C3.8614515 5.8614515 2.86724686 5.57344937 0 5 C0 3.35 0 1.7 0 0 Z " fill="#E4A255" transform="translate(360,80)"/>
<path d="M0 0 C2.08630053 0.76276595 4.1689432 1.53554157 6.25 2.3125 C7.41015625 2.74175781 8.5703125 3.17101563 9.765625 3.61328125 C12.5941299 4.82598565 14.66536544 6.02942974 17 8 C15.20741442 7.91306859 13.41584856 7.80489496 11.625 7.6875 C10.62726563 7.62949219 9.62953125 7.57148437 8.6015625 7.51171875 C7.74304688 7.34285156 6.88453125 7.17398438 6 7 C5.34 6.01 4.68 5.02 4 4 C1.94996045 2.80767387 1.94996045 2.80767387 0 2 C0 1.34 0 0.68 0 0 Z " fill="#E8AF6B" transform="translate(293,36)"/>
<path d="M0 0 C0 3.10551666 -0.5393715 4.35261084 -2 7 C-2.99 7 -3.98 7 -5 7 C-5.226875 7.639375 -5.45375 8.27875 -5.6875 8.9375 C-7 11 -7 11 -9.625 11.75 C-10.40875 11.8325 -11.1925 11.915 -12 12 C-8 8 -4 4 0 0 Z " fill="#EBB26C" transform="translate(337,351)"/>
<path d="M0 0 C1.48117801 0.28127421 2.95993249 0.57533732 4.4375 0.875 C5.67306641 1.11863281 5.67306641 1.11863281 6.93359375 1.3671875 C7.61550781 1.57601562 8.29742187 1.78484375 9 2 C9.33 2.66 9.66 3.32 10 4 C10.99 4 11.98 4 13 4 C13 4.99 13 5.98 13 7 C6.86592242 6.63195535 4.26093821 5.15701288 0 1 C0 0.67 0 0.34 0 0 Z " fill="#EF9A36" transform="translate(207,550)"/>
<path d="M0 0 C0.66 0 1.32 0 2 0 C1.41632611 6.30367803 -0.04071619 11.98660063 -2 18 C-2.33 18 -2.66 18 -3 18 C-2.9278125 17.09636719 -2.855625 16.19273437 -2.78125 15.26171875 C-2.6884375 14.08222656 -2.595625 12.90273438 -2.5 11.6875 C-2.4071875 10.51574219 -2.314375 9.34398437 -2.21875 8.13671875 C-2.07635011 6.094806 -2 4.0468721 -2 2 C-1.34 2 -0.68 2 0 2 C0 1.34 0 0.68 0 0 Z " fill="#E7AB5D" transform="translate(412,286)"/>
<path d="M0 0 C0.66 0 1.32 0 2 0 C1.39700836 7.23589973 -0.1150587 13.99370876 -2 21 C-3.03115279 17.73086376 -2.9638984 15.13958652 -2.5625 11.75 C-2.46066406 10.85796875 -2.35882813 9.9659375 -2.25390625 9.046875 C-2.17011719 8.37140625 -2.08632813 7.6959375 -2 7 C-1.34 7 -0.68 7 0 7 C0 4.69 0 2.38 0 0 Z " fill="#E6B067" transform="translate(417,265)"/>
<path d="M0 0 C0.33 0 0.66 0 1 0 C1.08117951 2.41734542 1.14056926 4.83194949 1.1875 7.25 C1.21263672 7.93191406 1.23777344 8.61382812 1.26367188 9.31640625 C1.31137459 12.59199289 1.21085076 14.65348556 -0.51171875 17.484375 C-1.00285156 17.98453125 -1.49398438 18.4846875 -2 19 C-2.24794402 12.4294834 -1.32388229 6.43028541 0 0 Z " fill="#E9B779" transform="translate(18,184)"/>
<path d="M0 0 C1.32 0.33 2.64 0.66 4 1 C2.56354149 2.60509934 1.12579294 4.20904424 -0.3125 5.8125 C-1.11300781 6.70582031 -1.91351563 7.59914063 -2.73828125 8.51953125 C-4.45224581 10.39926786 -6.17877604 12.22592747 -8 14 C-6.88194029 10.12979331 -5.9704892 7.71218579 -3 5 C-2.67 4.01 -2.34 3.02 -2 2 C-1.34 2 -0.68 2 0 2 C0 1.34 0 0.68 0 0 Z " fill="#E5AF63" transform="translate(86,107)"/>
<path d="M0 0 C2 1 4 2 6 3 C6.33 3.99 6.66 4.98 7 6 C7.66 6.33 8.32 6.66 9 7 C10.1875 8.875 10.1875 8.875 11 11 C10.67 11.99 10.34 12.98 10 14 C8.33041937 11.85637773 6.66423643 9.71026458 5 7.5625 C4.52304688 6.95083984 4.04609375 6.33917969 3.5546875 5.70898438 C0 1.11328125 0 1.11328125 0 0 Z " fill="#E6AB5F" transform="translate(113,458)"/>
<path d="M0 0 C1.29065057 3.8719517 0.22324098 6.44232601 -0.9375 10.1875 C-1.23043945 11.16879883 -1.23043945 11.16879883 -1.52929688 12.16992188 C-2.01182563 13.78227407 -2.50490205 15.39146289 -3 17 C-3.33 17 -3.66 17 -4 17 C-4.44534366 10.04769059 -4.67289916 5.40303965 0 0 Z " fill="#E9AB61" transform="translate(53,166)"/>
<path d="M0 0 C0.66 0.66 1.32 1.32 2 2 C-1.3 7.28 -4.6 12.56 -8 18 C-9 14 -9 14 -8 12 C-7.34 12 -6.68 12 -6 12 C-5.87625 11.4225 -5.7525 10.845 -5.625 10.25 C-4.98583433 7.94900359 -4.20694364 6.05890385 -3 4 C-2.34 3.67 -1.68 3.34 -1 3 C-0.67 2.01 -0.34 1.02 0 0 Z " fill="#E7AC64" transform="translate(76,120)"/>
<path d="M0 0 C2.8125 2.5625 2.8125 2.5625 5 5 C3.01432292 4.44661458 1.02864583 3.89322917 -0.95703125 3.33984375 C-3.19244159 2.80436183 -3.19244159 2.80436183 -6 4 C-6.33 2.68 -6.66 1.36 -7 0 C-4.19664415 -1.40167793 -2.9650644 -0.96536981 0 0 Z " fill="#E9A34F" transform="translate(105,356)"/>
<path d="M0 0 C0.66 0.33 1.32 0.66 2 1 C1.67 2.65 1.34 4.3 1 6 C1.99 5.67 2.98 5.34 4 5 C4 6.65 4 8.3 4 10 C2.125 9.375 2.125 9.375 0 8 C-1.25 4.875 -1.25 4.875 -2 2 C-1.34 1.34 -0.68 0.68 0 0 Z " fill="#EFA850" transform="translate(153,497)"/>
<path d="M0 0 C1.10176129 3.35216734 0.89303058 5.75121078 0.1875 9.1875 C0.01605469 10.06792969 -0.15539062 10.94835937 -0.33203125 11.85546875 C-0.66267578 12.91701172 -0.66267578 12.91701172 -1 14 C-1.99 14.495 -1.99 14.495 -3 15 C-3.66 15.99 -4.32 16.98 -5 18 C-4.42934122 11.58008874 -2.32655091 5.98410537 0 0 Z " fill="#EBB87A" transform="translate(28,151)"/>
<path d="M0 0 C0.33 0 0.66 0 1 0 C1.12375 0.969375 1.2475 1.93875 1.375 2.9375 C1.58125 3.948125 1.7875 4.95875 2 6 C2.66 6.33 3.32 6.66 4 7 C4 7.66 4 8.32 4 9 C1.1080406 9.96398647 -0.9994375 10 -4 10 C-2.8905928 6.51329166 -1.73662334 3.22515763 0 0 Z " fill="#EBA850" transform="translate(36,134)"/>
<path d="M0 0 C4.22480792 1.56474367 6.35761529 4.45364158 9 8 C10.3125 10.875 10.3125 10.875 11 13 C10.01 13.495 10.01 13.495 9 14 C2.66514806 4.58997722 2.66514806 4.58997722 0 0 Z " fill="#E6AF67" transform="translate(356,117)"/>
<path d="M0 0 C0 3.75366417 -1.11420063 5.78715662 -3 9 C-3.99 9.33 -4.98 9.66 -6 10 C-6 10.66 -6 11.32 -6 12 C-6.99 11.67 -7.98 11.34 -9 11 C-7.68823998 9.35357683 -6.3755713 7.70787757 -5.0625 6.0625 C-4.33160156 5.14597656 -3.60070313 4.22945313 -2.84765625 3.28515625 C-1 1 -1 1 0 0 Z " fill="#E4AD67" transform="translate(63,94)"/>
<path d="M0 0 C0.33 0.66 0.66 1.32 1 2 C-1.16798732 7.4770206 -1.16798732 7.4770206 -4.1875 9.375 C-4.785625 9.58125 -5.38375 9.7875 -6 10 C-6 6 -6 6 -4.6875 4.296875 C-4.130625 3.78640625 -3.57375 3.2759375 -3 2.75 C-2.1646875 1.96882813 -2.1646875 1.96882813 -1.3125 1.171875 C-0.879375 0.78515625 -0.44625 0.3984375 0 0 Z " fill="#EAAA60" transform="translate(71,85)"/>
<path d="M0 0 C1.37478516 0.01740234 1.37478516 0.01740234 2.77734375 0.03515625 C3.69644531 0.04417969 4.61554688 0.05320312 5.5625 0.0625 C6.27277344 0.07410156 6.98304688 0.08570313 7.71484375 0.09765625 C6.72484375 0.42765625 5.73484375 0.75765625 4.71484375 1.09765625 C4.71484375 1.75765625 4.71484375 2.41765625 4.71484375 3.09765625 C3.39484375 2.76765625 2.07484375 2.43765625 0.71484375 2.09765625 C0.71484375 2.75765625 0.71484375 3.41765625 0.71484375 4.09765625 C-1.92515625 3.76765625 -4.56515625 3.43765625 -7.28515625 3.09765625 C-6.64578125 2.78828125 -6.00640625 2.47890625 -5.34765625 2.16015625 C-1.25884046 0.0537966 -1.25884046 0.0537966 0 0 Z " fill="#F19C40" transform="translate(258.28515625,394.90234375)"/>
<path d="M0 0 C0.66 0 1.32 0 2 0 C0.35433477 5.68502535 -2.29032784 10.76681636 -5 16 C-6.23593891 12.29218328 -5.5678132 11.32489747 -4.0625 7.8125 C-3.68222656 6.91144531 -3.30195313 6.01039063 -2.91015625 5.08203125 C-2.60980469 4.39496094 -2.30945313 3.70789063 -2 3 C-1.34 3 -0.68 3 0 3 C0 2.01 0 1.02 0 0 Z " fill="#E9B371" transform="translate(384,361)"/>
<path d="M0 0 C2.92869654 2.82410024 5.58427923 5.72152181 8 9 C8 9.66 8 10.32 8 11 C6.68 10.67 5.36 10.34 4 10 C3.67 8.68 3.34 7.36 3 6 C1.35 5.67 -0.3 5.34 -2 5 C-1.34 4.67 -0.68 4.34 0 4 C0 2.68 0 1.36 0 0 Z " fill="#E8AD67" transform="translate(78,327)"/>
<path d="M0 0 C0.99 0 1.98 0 3 0 C3 0.99 3 1.98 3 3 C3.66 3 4.32 3 5 3 C5 5.97 5 8.94 5 12 C2.32522069 9.32522069 1.3535886 6.507025 0 3 C0 2.01 0 1.02 0 0 Z " fill="#E9A553" transform="translate(377,150)"/>
<path d="M0 0 C2.4375 0.8125 2.4375 0.8125 5 2 C5.33 2.99 5.66 3.98 6 5 C6.33 4.34 6.66 3.68 7 3 C7.99 3 8.98 3 10 3 C10 4.98 10 6.96 10 9 C4.93126149 6.92642516 2.73152399 4.72763768 0 0 Z " fill="#EAA148" transform="translate(351,111)"/>
<path d="M0 0 C0 0.66 0 1.32 0 2 C-0.99 2 -1.98 2 -3 2 C-3 2.99 -3 3.98 -3 5 C-9.96428571 7.27678571 -9.96428571 7.27678571 -14 6 C-12.04414675 4.99515796 -10.08523763 3.99626195 -8.125 3 C-6.48917969 2.1646875 -6.48917969 2.1646875 -4.8203125 1.3125 C-2 0 -2 0 0 0 Z " fill="#E6AD64" transform="translate(136,40)"/>
<path d="M0 0 C4.95 2.31 9.9 4.62 15 7 C11 8 11 8 8 7 C8 6.34 8 5.68 8 5 C7.236875 4.855625 6.47375 4.71125 5.6875 4.5625 C3 4 3 4 0 3 C0 2.01 0 1.02 0 0 Z " fill="#E7B274" transform="translate(129,374)"/>
<path d="M0 0 C8.71428571 1.85714286 8.71428571 1.85714286 11 5 C7.69564916 6.12377697 5.9493138 5.89554742 2.75 4.5625 C2.04359375 4.27503906 1.3371875 3.98757813 0.609375 3.69140625 C0.07828125 3.46324219 -0.4528125 3.23507812 -1 3 C-0.67 2.01 -0.34 1.02 0 0 Z " fill="#EBA550" transform="translate(118,369)"/>
<path d="M0 0 C0.99 0.33 1.98 0.66 3 1 C2.67 1.99 2.34 2.98 2 4 C1.01 4 0.02 4 -1 4 C-1 4.99 -1 5.98 -1 7 C-1.99 7.495 -1.99 7.495 -3 8 C-3.65555119 10.52733235 -3.65555119 10.52733235 -4 13 C-4.66 12.67 -5.32 12.34 -6 12 C-5.01 9.03 -4.02 6.06 -3 3 C-2.01 3 -1.02 3 0 3 C0 2.01 0 1.02 0 0 Z " fill="#E9A143" transform="translate(385,357)"/>
<path d="M0 0 C0.99 0.33 1.98 0.66 3 1 C3 1.66 3 2.32 3 3 C3.99 3.33 4.98 3.66 6 4 C6.73046875 6.06640625 6.73046875 6.06640625 7.1875 8.5625 C7.34605469 9.38878906 7.50460937 10.21507812 7.66796875 11.06640625 C7.77753906 11.70449219 7.88710938 12.34257812 8 13 C4.48901975 8.98745115 2.23462006 4.79016959 0 0 Z " fill="#E8A959" transform="translate(366,131)"/>
<path d="M0 0 C2.74172892 2.74172892 4.04915895 4.66582038 5.75 8.0625 C6.19859375 8.94035156 6.6471875 9.81820312 7.109375 10.72265625 C7.40328125 11.47417969 7.6971875 12.22570312 8 13 C7.67 13.66 7.34 14.32 7 15 C4 11.25 4 11.25 4 9 C3.34 9 2.68 9 2 9 C1.34 6.03 0.68 3.06 0 0 Z " fill="#DFAA63" transform="translate(394,123)"/>
<path d="M0 0 C5.75 0.875 5.75 0.875 8 2 C8 3.98 8 5.96 8 8 C6.85073734 7.04578192 5.70569459 6.08647955 4.5625 5.125 C3.92441406 4.59132813 3.28632813 4.05765625 2.62890625 3.5078125 C1 2 1 2 0 0 Z " fill="#ECA351" transform="translate(336,95)"/>
<path d="M0 0 C2.475 0.99 2.475 0.99 5 2 C3.75453595 5.73639216 2.36595047 6.18756513 -1 8 C-1.625 5.6875 -1.625 5.6875 -2 3 C-1.34 2.01 -0.68 1.02 0 0 Z " fill="#E9A346" transform="translate(259,520)"/>
<path d="M0 0 C0.99 0.33 1.98 0.66 3 1 C4.19493974 4.03173281 4.10493955 7.02459427 4.0625 10.25 C4.05347656 11.14203125 4.04445313 12.0340625 4.03515625 12.953125 C4.02355469 13.62859375 4.01195312 14.3040625 4 15 C3.67 15 3.34 15 3 15 C2.49564306 13.0636296 1.99666126 11.12585854 1.5 9.1875 C1.2215625 8.10855469 0.943125 7.02960938 0.65625 5.91796875 C0 3 0 3 0 0 Z " fill="#E2A85E" transform="translate(385,171)"/>
<path d="M0 0 C0.66 0.33 1.32 0.66 2 1 C-0.64 4.3 -3.28 7.6 -6 11 C-7 8 -7 8 -5.6875 5.3125 C-5.130625 4.549375 -4.57375 3.78625 -4 3 C-3.34 3 -2.68 3 -2 3 C-2 2.34 -2 1.68 -2 1 C-1.34 0.67 -0.68 0.34 0 0 Z " fill="#E7B063" transform="translate(321,460)"/>
<path d="M0 0 C1.73169596 3.1622274 2.7128976 6.26742722 3.625 9.75 C3.88539062 10.73484375 4.14578125 11.7196875 4.4140625 12.734375 C4.60742188 13.48203125 4.80078125 14.2296875 5 15 C4.34 14.67 3.68 14.34 3 14 C3 13.34 3 12.68 3 12 C2.34 12 1.68 12 1 12 C-0.3271261 8.0186217 -0.06915913 4.14954773 0 0 Z " fill="#EAB676" transform="translate(50,269)"/>
<path d="M0 0 C3.21764451 4.82646677 4.36261136 10.19821824 4 16 C3.34 15.67 2.68 15.34 2 15 C1.3671875 12.63671875 1.3671875 12.63671875 0.875 9.6875 C0.70742188 8.72199219 0.53984375 7.75648438 0.3671875 6.76171875 C0 4 0 4 0 0 Z " fill="#E6B06D" transform="translate(414,169)"/>
<path d="M0 0 C0.33 0.66 0.66 1.32 1 2 C-0.21484375 4.8203125 -0.21484375 4.8203125 -1.9375 8.125 C-2.50339844 9.22070312 -3.06929687 10.31640625 -3.65234375 11.4453125 C-4.09707031 12.28835937 -4.54179688 13.13140625 -5 14 C-5.66 14 -6.32 14 -7 14 C-5.53967505 8.68972746 -3.01679014 4.53669968 0 0 Z " fill="#E6B36C" transform="translate(44,120)"/>
<path d="M0 0 C0.99 0.33 1.98 0.66 3 1 C3 3.64 3 6.28 3 9 C1.68 9 0.36 9 -1 9 C-1 7.68 -1 6.36 -1 5 C-0.34 5 0.32 5 1 5 C0.67 3.35 0.34 1.7 0 0 Z " fill="#EF9D39" transform="translate(145,385)"/>
<path d="M0 0 C-0.33 1.65 -0.66 3.3 -1 5 C-1.99 4.67 -2.98 4.34 -4 4 C-4 4.66 -4 5.32 -4 6 C-5.98 6.33 -7.96 6.66 -10 7 C-3.24137931 0 -3.24137931 0 0 0 Z " fill="#E6AF67" transform="translate(325,363)"/>
<path d="M0 0 C1.14926266 0.95421808 2.29430541 1.91352045 3.4375 2.875 C4.07558594 3.40867187 4.71367188 3.94234375 5.37109375 4.4921875 C7 6 7 6 8 8 C7.01 8.33 6.02 8.66 5 9 C5 8.34 5 7.68 5 7 C3.68 6.67 2.36 6.34 1 6 C0.67 4.02 0.34 2.04 0 0 Z " fill="#EDA65A" transform="translate(86,338)"/>
<path d="M0 0 C0.33 0 0.66 0 1 0 C1.20086443 3.71599191 1.1519437 4.77208445 -1 8 C-2.32 8 -3.64 8 -5 8 C-3.6299034 5.0490227 -2.06764583 2.51713405 0 0 Z " fill="#EBA85F" transform="translate(358,328)"/>
<path d="M0 0 C0.99 0.33 1.98 0.66 3 1 C0 4 -3 7 -6 10 C-6 8.02 -6 6.04 -6 4 C-4.7934375 3.566875 -4.7934375 3.566875 -3.5625 3.125 C-0.8673532 2.26737432 -0.8673532 2.26737432 0 0 Z " fill="#E5A756" transform="translate(96,97)"/>
<path d="M0 0 C0.99 0.33 1.98 0.66 3 1 C0.03 3.97 -2.94 6.94 -6 10 C-6.33 9.01 -6.66 8.02 -7 7 C-6.01 6.34 -5.02 5.68 -4 5 C-3.34 4.01 -2.68 3.02 -2 2 C-1.34 1.34 -0.68 0.68 0 0 Z " fill="#E1A353" transform="translate(272,512)"/>
<path d="M0 0 C0.99 0.33 1.98 0.66 3 1 C2.02433888 2.16959987 1.044375 3.33561177 0.0625 4.5 C-0.48277344 5.1496875 -1.02804687 5.799375 -1.58984375 6.46875 C-2.05519531 6.9740625 -2.52054687 7.479375 -3 8 C-3.33 8 -3.66 8 -4 8 C-4 6.35 -4 4.7 -4 3 C-2.68 2.67 -1.36 2.34 0 2 C0 1.34 0 0.68 0 0 Z " fill="#E9B46A" transform="translate(289,495)"/>
<path d="M0 0 C1.65 0 3.3 0 5 0 C3.60667426 3.36720387 2.0210714 4.9859524 -1 7 C-0.67 4.69 -0.34 2.38 0 0 Z " fill="#E6A857" transform="translate(299,482)"/>
<path d="M0 0 C0.33 0.99 0.66 1.98 1 3 C-1 5 -1 5 -2.9453125 5.1953125 C-4.96354167 5.13020833 -6.98177083 5.06510417 -9 5 C-9 4.34 -9 3.68 -9 3 C-7.88625 2.814375 -7.88625 2.814375 -6.75 2.625 C-4.19858515 2.04513299 -2.2732427 1.26291261 0 0 Z " fill="#EF9C3A" transform="translate(286,387)"/>
<path d="M0 0 C1.10176129 3.35216734 0.89303058 5.75121078 0.1875 9.1875 C0.01605469 10.06792969 -0.15539062 10.94835937 -0.33203125 11.85546875 C-0.55246094 12.56316406 -0.77289062 13.27085937 -1 14 C-1.99 14.495 -1.99 14.495 -3 15 C-2.44854729 9.76119922 -1.57077907 5.02649303 0 0 Z " fill="#E9B575" transform="translate(22,169)"/>
<path d="M0 0 C6.75 1.625 6.75 1.625 9 5 C8.67 5.99 8.34 6.98 8 8 C6.66372225 6.85760183 5.33104612 5.71098945 4 4.5625 C3.2575 3.92441406 2.515 3.28632812 1.75 2.62890625 C1.1725 2.09136719 0.595 1.55382812 0 1 C0 0.67 0 0.34 0 0 Z " fill="#E6AD6A" transform="translate(172,522)"/>
<path d="M0 0 C2.375 0.3125 2.375 0.3125 5 1 C7.1519437 4.22791555 7.20086443 5.28400809 7 9 C6.67 7.68 6.34 6.36 6 5 C4.68 5 3.36 5 2 5 C1.34 3.35 0.68 1.7 0 0 Z " fill="#E9A048" transform="translate(71,322)"/>
<path d="M0 0 C0.33 0 0.66 0 1 0 C1.42820102 3.63970867 0.97413512 5.04569463 -0.875 8.3125 C-1.926875 9.6428125 -1.926875 9.6428125 -3 11 C-3.66 11 -4.32 11 -5 11 C-3.77782954 6.95743617 -2.37245704 3.50711041 0 0 Z " fill="#E8B06A" transform="translate(373,304)"/>
<path d="M0 0 C1.46491133 0.37074916 2.92195569 0.77267189 4.375 1.1875 C5.59316406 1.51814453 5.59316406 1.51814453 6.8359375 1.85546875 C9 3 9 3 10.2890625 5.61328125 C10.64097656 6.79470703 10.64097656 6.79470703 11 8 C9.16399255 6.85845641 7.33125195 5.71165684 5.5 4.5625 C4.4790625 3.92441406 3.458125 3.28632812 2.40625 2.62890625 C1.6121875 2.09136719 0.818125 1.55382812 0 1 C0 0.67 0 0.34 0 0 Z " fill="#E4AF6A" transform="translate(311,76)"/>
<path d="M0 0 C1.65 0 3.3 0 5 0 C3.50902342 3.7952131 1.24299151 5.61042731 -2 8 C-1.67 6.35 -1.34 4.7 -1 3 C-0.01 3 0.98 3 2 3 C2 2.34 2 1.68 2 1 C1.34 0.67 0.68 0.34 0 0 Z " fill="#E6AE64" transform="translate(306,474)"/>
<path d="M0 0 C0.66 0 1.32 0 2 0 C6.57142857 7.28571429 6.57142857 7.28571429 6 12 C3.25207517 8.59780735 0 4.51535412 0 0 Z " fill="#E3AF68" transform="translate(45,348)"/>
<path d="M0 0 C2.125 0.9375 2.125 0.9375 4 2 C1.03 4.475 1.03 4.475 -2 7 C-2 5.02 -2 3.04 -2 1 C-1.34 0.67 -0.68 0.34 0 0 Z " fill="#E6A54D" transform="translate(110,83)"/>
<path d="M0 0 C0 1.32 0 2.64 0 4 C-0.639375 4.12375 -1.27875 4.2475 -1.9375 4.375 C-2.9584375 4.684375 -2.9584375 4.684375 -4 5 C-4.33 5.66 -4.66 6.32 -5 7 C-5 3 -5 3 -3.625 1.25 C-2 0 -2 0 0 0 Z " fill="#E6A556" transform="translate(96,64)"/>
<path d="M0 0 C2.97 1.65 5.94 3.3 9 5 C8.34 5.66 7.68 6.32 7 7 C4.875 6.625 4.875 6.625 3 6 C3 5.01 3 4.02 3 3 C2.01 2.67 1.02 2.34 0 2 C0 1.34 0 0.68 0 0 Z " fill="#E8A966" transform="translate(329,55)"/>
<path d="M0 0 C1.4370809 -0.05422947 2.87475462 -0.09289723 4.3125 -0.125 C5.11300781 -0.14820313 5.91351563 -0.17140625 6.73828125 -0.1953125 C9 0 9 0 12 2 C12 2.66 12 3.32 12 4 C6.06 2.515 6.06 2.515 0 1 C0 0.67 0 0.34 0 0 Z " fill="#E9A95F" transform="translate(262,55)"/>
<path d="M0 0 C-0.33 0.66 -0.66 1.32 -1 2 C-3.75078884 2.91692961 -5.35948913 3.10886083 -8.1875 3.0625 C-10.0746875 3.0315625 -10.0746875 3.0315625 -12 3 C-7.86112344 0.24074896 -4.92824278 -0.13689563 0 0 Z " fill="#E7B97D" transform="translate(176,27)"/>
<path d="M0 0 C1 2 1 2 0.4375 4 C-1.57302108 6.79724672 -3.74418077 7.15065585 -7 8 C-6.02133662 6.85373678 -5.04205413 5.70800212 -4.0625 4.5625 C-3.51722656 3.92441406 -2.97195313 3.28632813 -2.41015625 2.62890625 C-1.63204305 1.73008851 -0.84063472 0.84063472 0 0 Z " fill="#E4A255" transform="translate(345,344)"/>
<path d="M0 0 C4.455 2.97 4.455 2.97 9 6 C7 7 7 7 4.5 6.375 C2 5 2 5 0 0 Z " fill="#E4AF68" transform="translate(338,61)"/>
<path d="M0 0 C-0.33 0.99 -0.66 1.98 -1 3 C-3.06640625 3.94921875 -3.06640625 3.94921875 -5.5625 4.6875 C-6.38878906 4.93886719 -7.21507813 5.19023438 -8.06640625 5.44921875 C-8.70449219 5.63097656 -9.34257813 5.81273437 -10 6 C-7.24414811 3.13166436 -4.18005857 0 0 0 Z " fill="#E8AE6E" transform="translate(122,47)"/>
<path d="M0 0 C0 3.57575896 -1.08840607 5.05295935 -3 8 C-3.99 7.67 -4.98 7.34 -6 7 C-4.02 4.69 -2.04 2.38 0 0 Z " fill="#E8AC62" transform="translate(352,336)"/>
<path d="M0 0 C0.99 0.33 1.98 0.66 3 1 C-0.465 3.97 -0.465 3.97 -4 7 C-4.33 6.34 -4.66 5.68 -5 5 C-4.67 4.34 -4.34 3.68 -4 3 C-3.01 3 -2.02 3 -1 3 C-0.67 2.01 -0.34 1.02 0 0 Z " fill="#E7AD66" transform="translate(104,90)"/>
<path d="M0 0 C3.45925163 1.2491742 6.14693203 2.67527795 9 5 C5.93606987 5.25532751 4.36766788 5.21861333 1.6875 3.625 C1.130625 3.08875 0.57375 2.5525 0 2 C0 1.34 0 0.68 0 0 Z " fill="#E9B06E" transform="translate(310,44)"/>
<path d="M0 0 C5.445 1.485 5.445 1.485 11 3 C10.34 3.66 9.68 4.32 9 5 C6.03 4.01 3.06 3.02 0 2 C0 1.34 0 0.68 0 0 Z " fill="#E9B679" transform="translate(281,32)"/>
<path d="M0 0 C1.32 0 2.64 0 4 0 C3.6875 1.875 3.6875 1.875 3 4 C2.01 4.66 1.02 5.32 0 6 C0 4.02 0 2.04 0 0 Z " fill="#EAB05E" transform="translate(275,507)"/>
<path d="M0 0 C1.0625 1.8125 1.0625 1.8125 2 4 C1.67 4.99 1.34 5.98 1 7 C-0.65 5.02 -2.3 3.04 -4 1 C-2.68 1.33 -1.36 1.66 0 2 C0 1.34 0 0.68 0 0 Z " fill="#EAA652" transform="translate(348,102)"/>
<path d="M0 0 C2.875 0.1875 2.875 0.1875 6 1 C7.375 3.5625 7.375 3.5625 8 6 C4.63408134 4.55746343 2.48952921 2.66735273 0 0 Z " fill="#E4A762" transform="translate(207,550)"/>
<path d="M0 0 C0.66 0 1.32 0 2 0 C0.68775452 3.93673644 -0.91910327 6.22719294 -4 9 C-3.34 7.02 -2.68 5.04 -2 3 C-1.34 3 -0.68 3 0 3 C0 2.01 0 1.02 0 0 Z " fill="#E4B06B" transform="translate(355,412)"/>
<path d="M0 0 C0.66 0.33 1.32 0.66 2 1 C2 1.66 2 2.32 2 3 C0.68 3.33 -0.64 3.66 -2 4 C-2 4.66 -2 5.32 -2 6 C-3.32 5.34 -4.64 4.68 -6 4 C-4.02 3.34 -2.04 2.68 0 2 C0 1.34 0 0.68 0 0 Z " fill="#EC9E3C" transform="translate(302,378)"/>
<path d="M0 0 C-0.33 1.32 -0.66 2.64 -1 4 C-3.31 4.33 -5.62 4.66 -8 5 C-3.22727273 0 -3.22727273 0 0 0 Z " fill="#E7B372" transform="translate(310,373)"/>
<path d="M0 0 C0.33 0.66 0.66 1.32 1 2 C1.66 2 2.32 2 3 2 C3 4.64 3 7.28 3 10 C0.70366176 6.55549263 0.45983515 4.06187717 0 0 Z " fill="#E79B3E" transform="translate(33,313)"/>
<path d="M0 0 C1 3 1 3 -0.25 5.625 C-2 8 -2 8 -5 9 C-3.7508258 5.54074837 -2.32472205 2.85306797 0 0 Z " fill="#E6B474" transform="translate(53,106)"/>
</svg>
