<?xml version="1.0" encoding="UTF-8"?>
<svg version="1.1" xmlns="http://www.w3.org/2000/svg" width="529" height="514">
<path d="M0 0 C0 0.66 0 1.32 0 2 C0.72058594 1.97679687 1.44117188 1.95359375 2.18359375 1.9296875 C10.60923568 1.78808007 18.91510943 2.27506638 27.3125 2.9375 C28.44034912 3.02435059 29.56819824 3.11120117 30.73022461 3.20068359 C31.7847583 3.28785645 32.83929199 3.3750293 33.92578125 3.46484375 C34.87880127 3.543396 35.83182129 3.62194824 36.8137207 3.70288086 C39 4 39 4 40 5 C41.38371139 5.11693667 42.77315563 5.16720305 44.16162109 5.18945312 C45.04699554 5.20617065 45.93237 5.22288818 46.84457397 5.2401123 C47.81109894 5.25368774 48.7776239 5.26726318 49.7734375 5.28125 C50.76695221 5.29965942 51.76046692 5.31806885 52.78408813 5.33703613 C55.98099642 5.39598147 59.17796186 5.44861303 62.375 5.5 C65.53632374 5.55166666 68.69758274 5.60486434 71.85879517 5.66296387 C73.8277838 5.69910044 75.79684311 5.73163859 77.76596069 5.7598877 C82.49694818 5.84614657 87.21218657 6.02874934 91.93212891 6.36914062 C93.24040146 6.46322205 93.24040146 6.46322205 94.57510376 6.5592041 C98.71056314 7.31094494 100.95129018 9.1545375 104 12 C104 12.99 104 13.98 104 15 C103.34 15 102.68 15 102 15 C102.33 15.99 102.66 16.98 103 18 C103.11904875 20.01829161 103.17521712 22.04073771 103.1875 24.0625 C103.20167969 25.12597656 103.21585937 26.18945312 103.23046875 27.28515625 C103 30 103 30 101 32 C96.48180247 33.3529066 91.85700054 33.11338307 87.1875 33.0625 C86.39923828 33.05798828 85.61097656 33.05347656 84.79882812 33.04882812 C82.86585239 33.03711312 80.93291607 33.01917998 79 33 C79 33.66 79 34.32 79 35 C77.58461283 35.33872513 76.16762037 35.67074624 74.75 36 C73.96109375 36.185625 73.1721875 36.37125 72.359375 36.5625 C70 37 70 37 66 37 C65.67 38.32 65.34 39.64 65 41 C64.34 41 63.68 41 63 41 C62.34 45.62 61.68 50.24 61 55 C60.34 55 59.68 55 59 55 C59.33 55.66 59.66 56.32 60 57 C60.55171875 56.83628906 61.1034375 56.67257813 61.671875 56.50390625 C64.26614007 55.94239586 66.59835411 55.90260992 69.25 55.9375 C70.14203125 55.94652344 71.0340625 55.95554688 71.953125 55.96484375 C72.62859375 55.97644531 73.3040625 55.98804688 74 56 C74 55.34 74 54.68 74 54 C80.6 54 87.2 54 94 54 C94 54.66 94 55.32 94 56 C94.73863281 55.97679687 95.47726562 55.95359375 96.23828125 55.9296875 C108.68672306 55.70824127 119.56478753 58.20458832 131 63 C131 63.66 131 64.32 131 65 C131.78375 65.144375 132.5675 65.28875 133.375 65.4375 C136 66 136 66 138 67 C138 67.66 138 68.32 138 69 C138.72832031 69.22945313 139.45664062 69.45890625 140.20703125 69.6953125 C143.54977589 71.25681839 145.266911 73.10509001 147.6875 75.875 C148.45449219 76.73867187 149.22148437 77.60234375 150.01171875 78.4921875 C152.63067195 81.79546442 154 83.75378249 154 88 C154.66 88 155.32 88 156 88 C158.23496385 95.17494346 158.29901132 101.95919014 158.25 109.4375 C158.25773437 110.61376953 158.26546875 111.79003906 158.2734375 113.00195312 C158.25856336 119.65441433 157.73221523 125.57293158 156 132 C155.34 132 154.68 132 154 132 C153.731875 132.969375 153.46375 133.93875 153.1875 134.9375 C152.795625 135.948125 152.40375 136.95875 152 138 C151.01 138.33 150.02 138.66 149 139 C148.31765487 140.32537819 147.65303719 141.65993856 147 143 C145.23046875 144.78125 145.23046875 144.78125 143.1875 146.5 C142.12015625 147.40105469 142.12015625 147.40105469 141.03125 148.3203125 C140.3609375 148.87460938 139.690625 149.42890625 139 150 C138.071875 150.78375 137.14375 151.5675 136.1875 152.375 C134 154 134 154 131 155 C130.67 155.66 130.34 156.32 130 157 C127.09740189 158.3749149 125.23861295 159 122 159 C122 159.66 122 160.32 122 161 C112.58997722 164.44419134 112.58997722 164.44419134 108 164 C108 164.66 108 165.32 108 166 C107.34 166.66 106.68 167.32 106 168 C106.495 168.94875 106.99 169.8975 107.5 170.875 C109 174 109 174 109 176 C109.66 176 110.32 176 111 176 C111.66 177.98 112.32 179.96 113 182 C113.66 182 114.32 182 115 182 C118 187.625 118 187.625 118 191 C118.66 191 119.32 191 120 191 C120.66 193.31 121.32 195.62 122 198 C122.66 198 123.32 198 124 198 C124.50833591 199.24663331 125.00631145 200.49749387 125.5 201.75 C125.7784375 202.44609375 126.056875 203.1421875 126.34375 203.859375 C127 206 127 206 127 210 C127.66 210 128.32 210 129 210 C130.26305335 215.07476794 131.27036084 219.72796354 131 225 C131.66 225 132.32 225 133 225 C133.02886751 229.14581887 133.04675327 233.29161216 133.0625 237.4375 C133.07087891 238.62150391 133.07925781 239.80550781 133.08789062 241.02539062 C133.09272461 242.71245117 133.09272461 242.71245117 133.09765625 244.43359375 C133.10551147 245.99678345 133.10551147 245.99678345 133.11352539 247.59155273 C133 250 133 250 132 251 C131.70071191 252.9946903 131.46064363 254.99833124 131.24609375 257.00390625 C131.04790039 258.82631836 131.04790039 258.82631836 130.84570312 260.68554688 C130.71099609 261.96494141 130.57628906 263.24433594 130.4375 264.5625 C130.29892578 265.84576172 130.16035156 267.12902344 130.01757812 268.45117188 C129.67447856 271.63371616 129.33547212 274.81664414 129 278 C128.34 278 127.68 278 127 278 C126.95101563 278.7734375 126.90203125 279.546875 126.8515625 280.34375 C126.41252377 286.46001367 125.69992464 292.10692791 124 298 C123.34 298 122.68 298 122 298 C121.9175 298.969375 121.835 299.93875 121.75 300.9375 C121.18910805 304.94503236 119.70024014 308.27584578 117.98046875 311.9140625 C116.9077249 314.12358876 116.9077249 314.12358876 115.875 317 C115 319 115 319 113 320 C112.67 320.825 112.34 321.65 112 322.5 C111 325 111 325 109 326 C107.94647157 328.30965848 106.94280904 330.6429774 106 333 C105.34 333 104.68 333 104 333 C103.6596875 334.2375 103.6596875 334.2375 103.3125 335.5 C101.75058943 339.66509486 99.77149893 343.5000943 97 347 C96.34 347 95.68 347 95 347 C94.9175 347.53625 94.835 348.0725 94.75 348.625 C93.73545658 351.83772084 91.90216316 354.23321723 90 357 C89.30570621 358.3191582 88.62469505 359.64649406 88 361 C87.34 361 86.68 361 86 361 C85.89558594 361.72574219 85.79117187 362.45148438 85.68359375 363.19921875 C84.93657973 366.25984191 83.82451352 368.21471478 82.0625 370.8125 C81.53785156 371.60269531 81.01320313 372.39289063 80.47265625 373.20703125 C79.74369141 374.09455078 79.74369141 374.09455078 79 375 C78.34 375 77.68 375 77 375 C76.731875 376.134375 76.46375 377.26875 76.1875 378.4375 C75.795625 379.613125 75.40375 380.78875 75 382 C74.01 382.33 73.02 382.66 72 383 C71.32843384 384.93618425 71.32843384 384.93618425 71 387 C70.67 387.66 70.34 388.32 70 389 C69.34 389 68.68 389 68 389 C67.731875 390.134375 67.46375 391.26875 67.1875 392.4375 C66.795625 393.613125 66.40375 394.78875 66 396 C65.01 396.33 64.02 396.66 63 397 C62.32843384 398.93618425 62.32843384 398.93618425 62 401 C61.67 401.66 61.34 402.32 61 403 C60.34 403 59.68 403 59 403 C58.87625 403.5775 58.7525 404.155 58.625 404.75 C57.99351176 407.02335767 57.11141809 408.9253529 56 411 C55.34 411 54.68 411 54 411 C53.855625 411.598125 53.71125 412.19625 53.5625 412.8125 C53.1127561 414.56150404 52.57107659 416.28677023 52 418 C51.34 418 50.68 418 50 418 C49.731875 418.969375 49.46375 419.93875 49.1875 420.9375 C48.795625 421.948125 48.40375 422.95875 48 424 C47.01 424.33 46.02 424.66 45 425 C44.3185177 426.89179203 44.3185177 426.89179203 44 429 C43.67 429.99 43.34 430.98 43 432 C42.34 432 41.68 432 41 432 C40.80664062 432.63808594 40.61328125 433.27617187 40.4140625 433.93359375 C40.02347656 435.17302734 40.02347656 435.17302734 39.625 436.4375 C39.24214844 437.67306641 39.24214844 437.67306641 38.8515625 438.93359375 C38 441 38 441 36 442 C34.86649466 444.01669827 34.86649466 444.01669827 34 446 C33.34 446 32.68 446 32 446 C31.731875 446.804375 31.46375 447.60875 31.1875 448.4375 C30.795625 449.283125 30.40375 450.12875 30 451 C29.01 451.33 28.02 451.66 27 452 C26.29848848 453.3153341 25.63474075 454.65117592 25 456 C24 457 23 458 22 459 C20.82425289 461.09989652 20.82425289 461.09989652 20 463 C23.17539556 466.42578949 23.17539556 466.42578949 27 469 C27 469.66 27 470.32 27 471 C28.65 471.66 30.3 472.32 32 473 C32 473.66 32 474.32 32 475 C32.845625 475.165 33.69125 475.33 34.5625 475.5 C38.7014621 477.30609255 40.58126717 479.57696077 43.38671875 483.02734375 C44.91778556 485.00206027 44.91778556 485.00206027 46.6484375 486.48046875 C48.86411399 488.97150388 48.86695066 491.54333181 49.140625 494.76953125 C48.92648108 498.16609179 47.4876893 499.79661804 45 502 C44.34 502 43.68 502 43 502 C43 502.66 43 503.32 43 504 C39.62902617 505.49821059 37.79557881 506 34 506 C34 506.66 34 507.32 34 508 C30.24763775 508.86937044 26.77158163 509.12963289 22.92329407 509.14044189 C21.09196175 509.14900711 21.09196175 509.14900711 19.22363281 509.15774536 C17.87866221 509.15899056 16.5336915 509.16011569 15.1887207 509.16113281 C13.76580172 509.16576454 12.34288397 509.17078968 10.91996765 509.17617798 C7.06021171 509.18927131 3.20047315 509.19574114 -0.65930152 509.20018864 C-3.07406136 509.20312481 -5.48881652 509.20723068 -7.90357399 509.21169281 C-15.46838218 509.22536074 -23.03317959 509.23503039 -30.59799927 509.2388947 C-39.31240557 509.24337143 -48.0266547 509.26090433 -56.74101323 509.2898953 C-63.4885638 509.31155896 -70.23607031 509.3216015 -76.98365527 509.32293582 C-81.00813874 509.32398066 -85.03247434 509.32981948 -89.05692101 509.34775543 C-92.84661855 509.36431702 -96.63605835 509.36635276 -100.42577934 509.35761642 C-101.81000207 509.35685031 -103.19423913 509.36113213 -104.57842636 509.37107468 C-115.26117103 509.44325468 -124.2847902 508.64015984 -133 502 C-134.05380859 501.34257813 -134.05380859 501.34257813 -135.12890625 500.671875 C-137 499 -137 499 -137.56640625 496.765625 C-137.55811672 491.42716629 -137.09624633 487.77027337 -133.62890625 483.6015625 C-126.43893986 476.53229099 -126.43893986 476.53229099 -121.81640625 475.5234375 C-121.21699219 475.35070312 -120.61757812 475.17796875 -120 475 C-119.67 474.01 -119.34 473.02 -119 472 C-117.66666667 471.66666667 -116.33333333 471.33333333 -115 471 C-114.67 470.01 -114.34 469.02 -114 468 C-112 466.66666667 -110 465.33333333 -108 464 C-107.67 463.01 -107.34 462.02 -107 461 C-107.5775 460.773125 -108.155 460.54625 -108.75 460.3125 C-111.63110459 458.63185566 -112.97376298 456.66305437 -115 454 C-116.75627876 451.97383437 -118.53475421 449.96870629 -120.31640625 447.96484375 C-125 442.49883991 -125 442.49883991 -125 439 C-125.66 439 -126.32 439 -127 439 C-130 433.375 -130 433.375 -130 430 C-130.99 429.67 -131.98 429.34 -133 429 C-134.60546875 426.8203125 -134.60546875 426.8203125 -136.1875 424.125 C-136.71730469 423.24070312 -137.24710937 422.35640625 -137.79296875 421.4453125 C-139 419 -139 419 -139 416 C-139.99 415.67 -140.98 415.34 -142 415 C-142.33 413.35 -142.66 411.7 -143 410 C-143.99 409.67 -144.98 409.34 -146 409 C-147.64820195 406.39757586 -148 405.13751221 -148 402 C-148.66 402 -149.32 402 -150 402 C-150.4021875 400.5459375 -150.4021875 400.5459375 -150.8125 399.0625 C-151.4003125 397.5465625 -151.4003125 397.5465625 -152 396 C-152.99 395.67 -153.98 395.34 -155 395 C-156.64820195 392.39757586 -157 391.13751221 -157 388 C-157.66 388 -158.32 388 -159 388 C-159.66 386.02 -160.32 384.04 -161 382 C-161.66 382 -162.32 382 -163 382 C-165.04169485 379.09451118 -166 377.59857954 -166 374 C-166.99 373.67 -167.98 373.34 -169 373 C-169.495 371.515 -169.495 371.515 -170 370 C-170.66 369.67 -171.32 369.34 -172 369 C-172.84228734 366.7068617 -173.46932939 364.38505043 -174.12109375 362.03125 C-174.41113281 361.3609375 -174.70117188 360.690625 -175 360 C-175.99 359.67 -176.98 359.34 -178 359 C-178.495 357.515 -178.495 357.515 -179 356 C-179.66 355.67 -180.32 355.34 -181 355 C-181.8515625 352.93359375 -181.8515625 352.93359375 -182.625 350.4375 C-182.88539063 349.61121094 -183.14578125 348.78492188 -183.4140625 347.93359375 C-183.60742188 347.29550781 -183.80078125 346.65742188 -184 346 C-184.66 346 -185.32 346 -186 346 C-188.04169485 343.09451118 -189 341.59857954 -189 338 C-189.66 338 -190.32 338 -191 338 C-191.598125 336.948125 -192.19625 335.89625 -192.8125 334.8125 C-194.08633659 332.57308622 -195.38820565 330.37609806 -196.75 328.1875 C-198 326 -198 326 -198 324 C-198.66 324 -199.32 324 -200 324 C-200.97214605 322.0557079 -201.94351674 320.1111015 -202.91015625 318.1640625 C-203.82677905 316.34395844 -204.78383898 314.54429904 -205.75 312.75 C-207 310 -207 310 -207 306 C-207.66 306 -208.32 306 -209 306 C-210.49821059 302.62902617 -211 300.79557881 -211 297 C-211.66 297 -212.32 297 -213 297 C-213.50812114 294.48056604 -214.00664534 291.95983127 -214.5 289.4375 C-214.71462891 288.38079102 -214.71462891 288.38079102 -214.93359375 287.30273438 C-215.80874925 282.78109762 -216.14523405 278.60512972 -216 274 C-216.66 274 -217.32 274 -218 274 C-218.08564209 273.0713916 -218.17128418 272.1427832 -218.25952148 271.18603516 C-218.57874841 267.74545436 -218.90155374 264.30524867 -219.22680664 260.86523438 C-219.36691943 259.37546034 -219.50559864 257.88555075 -219.64282227 256.39550781 C-219.84015435 254.25548766 -220.0426135 252.11600571 -220.24609375 249.9765625 C-220.36654053 248.68830566 -220.4869873 247.40004883 -220.61108398 246.07275391 C-220.81593945 243.09198525 -220.81593945 243.09198525 -222 241 C-222.0962762 238.98103136 -222.12981825 236.9587571 -222.125 234.9375 C-222.12757813 233.85339844 -222.13015625 232.76929688 -222.1328125 231.65234375 C-222 229 -222 229 -221 228 C-220.43725235 225.31455654 -219.91938977 222.63746613 -219.4375 219.9375 C-219.22963867 218.79958008 -219.22963867 218.79958008 -219.01757812 217.63867188 C-218.67488173 215.75975025 -218.3369927 213.87995299 -218 212 C-217.34 212 -216.68 212 -216 212 C-215.86722656 211.30132812 -215.73445313 210.60265625 -215.59765625 209.8828125 C-215.42105469 208.97273437 -215.24445313 208.06265625 -215.0625 207.125 C-214.88847656 206.22007812 -214.71445313 205.31515625 -214.53515625 204.3828125 C-214 202 -214 202 -213 200 C-212.34 200 -211.68 200 -211 200 C-210.855625 199.05125 -210.71125 198.1025 -210.5625 197.125 C-210 194 -210 194 -209 192 C-208.34 192 -207.68 192 -207 192 C-206.87625 191.443125 -206.7525 190.88625 -206.625 190.3125 C-205.93456646 187.7578959 -205.10518316 185.40539865 -204 183 C-203.34 182.67 -202.68 182.34 -202 182 C-200.96244882 180.01922047 -199.97004121 178.01470098 -199 176 C-197.69702887 173.64806655 -196.34909946 171.32603355 -195 169 C-194.34 169 -193.68 169 -193 169 C-193.33 168.34 -193.66 167.68 -194 167 C-194.99 166.67 -195.98 166.34 -197 166 C-197 165.34 -197 164.68 -197 164 C-197.90492188 163.92652344 -197.90492188 163.92652344 -198.828125 163.8515625 C-199.62734375 163.77679688 -200.4265625 163.70203125 -201.25 163.625 C-202.03890625 163.55539063 -202.8278125 163.48578125 -203.640625 163.4140625 C-206.085877 162.98492887 -207.84836903 162.21399362 -210 161 C-210 160.34 -210 159.68 -210 159 C-211.423125 158.7834375 -211.423125 158.7834375 -212.875 158.5625 C-216 158 -216 158 -218 157 C-218 156.34 -218 155.68 -218 155 C-218.969375 154.731875 -219.93875 154.46375 -220.9375 154.1875 C-221.948125 153.795625 -222.95875 153.40375 -224 153 C-224.33 152.01 -224.66 151.02 -225 150 C-225.721875 149.71125 -226.44375 149.4225 -227.1875 149.125 C-233.79128696 146.48348522 -238.34495476 140.94394242 -242 135 C-242.875 132 -242.875 132 -243 130 C-243.66 130 -244.32 130 -245 130 C-246.21378091 126.2152214 -246.1443667 122.46197787 -246.1328125 118.53125 C-246.13376923 117.813927 -246.13472595 117.096604 -246.13571167 116.35754395 C-246.13639056 114.84464429 -246.13455658 113.33174168 -246.13037109 111.81884766 C-246.1250187 109.50807123 -246.1303259 107.19748916 -246.13671875 104.88671875 C-246.13605792 103.41406207 -246.13477665 101.94140552 -246.1328125 100.46875 C-246.13483673 99.78010864 -246.13686096 99.09146729 -246.13894653 98.38195801 C-246.12301232 95.10897984 -246.00395078 92.130492 -245 89 C-244.34 89 -243.68 89 -243 89 C-242.84144531 88.40832031 -242.68289062 87.81664063 -242.51953125 87.20703125 C-240.9354003 81.84199107 -239.3443307 78.72371203 -235 75 C-234.13375 74.13375 -233.2675 73.2675 -232.375 72.375 C-231.199375 71.199375 -231.199375 71.199375 -230 70 C-229.57847656 69.51660156 -229.15695313 69.03320312 -228.72265625 68.53515625 C-216.91560989 58.01323058 -198.01262141 55.7781386 -183 56 C-183 55.34 -183 54.68 -183 54 C-179.35418313 53.97112488 -175.70839537 53.95324415 -172.0625 53.9375 C-171.02158203 53.92912109 -169.98066406 53.92074219 -168.90820312 53.91210938 C-167.91884766 53.90888672 -166.92949219 53.90566406 -165.91015625 53.90234375 C-164.99371338 53.89710693 -164.07727051 53.89187012 -163.13305664 53.88647461 C-161 54 -161 54 -160 55 C-157.98688551 55.39569108 -155.96402792 55.74252191 -153.9375 56.0625 C-152.83277344 56.23910156 -151.72804688 56.41570313 -150.58984375 56.59765625 C-149.73519531 56.73042969 -148.88054687 56.86320312 -148 57 C-148 55.02 -148 53.04 -148 51 C-148.66 51 -149.32 51 -150 51 C-150.99 45.555 -150.99 45.555 -152 40 C-153.485 39.505 -153.485 39.505 -155 39 C-155 38.34 -155 37.68 -155 37 C-156.258125 36.855625 -157.51625 36.71125 -158.8125 36.5625 C-161.42667123 36.26251314 -163.47439892 35.84186703 -166 35 C-166 34.34 -166 33.68 -166 33 C-167.21816406 33.02320313 -168.43632812 33.04640625 -169.69140625 33.0703125 C-171.31509799 33.0890835 -172.93879642 33.10728227 -174.5625 33.125 C-175.36236328 33.14175781 -176.16222656 33.15851562 -176.98632812 33.17578125 C-182.06500335 33.21723982 -186.18811906 32.64056075 -191 31 C-190.98839844 29.96359375 -190.97679687 28.9271875 -190.96484375 27.859375 C-190.95546163 26.48958514 -190.94636188 25.11979332 -190.9375 23.75 C-190.92493164 22.72712891 -190.92493164 22.72712891 -190.91210938 21.68359375 C-190.89571608 18.30657446 -190.94371232 15.22708361 -192 12 C-191.01 11.67 -190.02 11.34 -189 11 C-189 10.34 -189 9.68 -189 9 C-185.29251193 7.32833719 -182.13061209 6.65725982 -178.08203125 6.3671875 C-176.34131348 6.24138306 -176.34131348 6.24138306 -174.56542969 6.11303711 C-173.32696289 6.03448486 -172.08849609 5.95593262 -170.8125 5.875 C-169.53922852 5.78935791 -168.26595703 5.70371582 -166.95410156 5.61547852 C-156.91972239 4.99468658 -146.91548544 4.84238172 -136.86254883 4.98583984 C-135.32957153 5.00638428 -135.32957153 5.00638428 -133.765625 5.02734375 C-132.86618164 5.04531006 -131.96673828 5.06327637 -131.04003906 5.08178711 C-129.00510098 5.2311721 -129.00510098 5.2311721 -128 4 C-125.13250112 3.70913846 -122.28071436 3.47629853 -119.40625 3.28125 C-118.54439087 3.21844849 -117.68253174 3.15564697 -116.79455566 3.09094238 C-113.09121409 2.82123358 -109.38713692 2.5622795 -105.68310547 2.30224609 C-102.98637584 2.11141518 -100.29007336 1.91522432 -97.59375 1.71875 C-96.74897095 1.661427 -95.90419189 1.604104 -95.03381348 1.54504395 C-91.20031899 1.61041466 -91.20031899 1.61041466 -88 0 C-59.10958908 -2.71791322 -28.92328767 -1.93744511 0 0 Z M-121 49 C-124.78651126 55.31085211 -124.15634883 63.0765395 -124.125 70.1875 C-124.12886719 71.07630859 -124.13273437 71.96511719 -124.13671875 72.88085938 C-124.13542969 73.73873047 -124.13414062 74.59660156 -124.1328125 75.48046875 C-124.13168457 76.25285889 -124.13055664 77.02524902 -124.12939453 77.82104492 C-124.00013658 79.99769998 -123.59889703 81.90802355 -123 84 C-121.68 84 -120.36 84 -119 84 C-117.84969672 80.54909017 -117.87052866 77.85360188 -117.8671875 74.21484375 C-117.86623077 73.55795059 -117.86527405 72.90105743 -117.86428833 72.22425842 C-117.86360887 70.83822534 -117.86544686 69.45218905 -117.86962891 68.06616211 C-117.87498909 65.94182217 -117.8696717 63.81769283 -117.86328125 61.69335938 C-117.86394191 60.3463537 -117.86522281 58.99934815 -117.8671875 57.65234375 C-117.86887939 55.81144165 -117.86887939 55.81144165 -117.87060547 53.93334961 C-117.79757184 51.06538723 -117.79757184 51.06538723 -119 49 C-119.66 49 -120.32 49 -121 49 Z M4 49 C2.6378818 50.13507808 2.6378818 50.13507808 2.88647461 53.14282227 C2.88663367 54.53402697 2.89232494 55.92523761 2.90234375 57.31640625 C2.9037587 58.04746078 2.90517365 58.77851532 2.90663147 59.53172302 C2.91224592 61.87535632 2.92480078 64.21889539 2.9375 66.5625 C2.94251314 68.14778508 2.94707637 69.73307166 2.95117188 71.31835938 C2.96222003 75.2122761 2.97949428 79.10612205 3 83 C4.94603274 83.59070014 4.94603274 83.59070014 7 84 C9.72917501 81.27082499 8.18567712 72.98924535 8.1875 69.3125 C8.19974609 68.03181641 8.21199219 66.75113281 8.22460938 65.43164062 C8.22654297 64.19220703 8.22847656 62.95277344 8.23046875 61.67578125 C8.23457764 60.54052002 8.23868652 59.40525879 8.24291992 58.2355957 C7.98973887 54.86332583 7.20166893 52.14898579 6 49 C5.34 49 4.68 49 4 49 Z M-179 61 C-180.8221928 61.21400171 -182.64539082 61.42163549 -184.47192383 61.59472656 C-198.50729538 62.9364425 -215.1599206 66.02935828 -225 77 C-226.02792571 78.31192474 -227.03050346 79.64432517 -228 81 C-228.43183594 81.58523437 -228.86367187 82.17046875 -229.30859375 82.7734375 C-231.40333146 85.61808627 -231.40333146 85.61808627 -232 89 C-232.66 89 -233.32 89 -234 89 C-236.1016733 94.7102067 -237.35238238 99.95556887 -238 106 C-238.495 106.495 -238.495 106.495 -239 107 C-239.30783305 112.13055091 -238.56794783 116.13110936 -237 121 C-236.67322266 122.24910156 -236.67322266 122.24910156 -236.33984375 123.5234375 C-234.63350642 130.14460002 -234.63350642 130.14460002 -230 135 C-229.34 135 -228.68 135 -228 135 C-227.79375 135.556875 -227.5875 136.11375 -227.375 136.6875 C-225.42316968 139.97012371 -223.05769006 141.70673246 -220 144 C-219.34 144 -218.68 144 -218 144 C-218 144.66 -218 145.32 -218 146 C-215.58757287 147.17620825 -213.17072309 148.3410956 -210.75 149.5 C-210.06808594 149.83386719 -209.38617188 150.16773438 -208.68359375 150.51171875 C-205.1479008 152.19374744 -202.98070714 153 -199 153 C-199 153.66 -199 154.32 -199 155 C-197.39935157 155.53154742 -195.79431126 156.04988353 -194.1875 156.5625 C-193.29417969 156.85253906 -192.40085938 157.14257812 -191.48046875 157.44140625 C-188.88784861 158.24979556 -188.88784861 158.24979556 -186 157 C-186.66 157 -187.32 157 -188 157 C-188 156.34 -188 155.68 -188 155 C-189.43554025 154.49440092 -190.8735202 153.9957251 -192.3125 153.5 C-193.11300781 153.2215625 -193.91351563 152.943125 -194.73828125 152.65625 C-197.08769422 151.86066893 -197.08769422 151.86066893 -200 152 C-200 151.34 -200 150.68 -200 150 C-202.31 149.34 -204.62 148.68 -207 148 C-207 147.34 -207 146.68 -207 146 C-208.11375 145.5875 -209.2275 145.175 -210.375 144.75 C-213.82387141 143.28180575 -213.82387141 143.28180575 -215.25 141 C-215.62125 140.01 -215.62125 140.01 -216 139 C-216.98020375 137.9805881 -217.97803008 136.97753644 -219 136 C-219.495 135.01 -219.495 135.01 -220 134 C-220.66 134 -221.32 134 -222 134 C-222.12375 133.484375 -222.2475 132.96875 -222.375 132.4375 C-223.18641628 129.27297649 -224.0945913 126.13875015 -225 123 C-225.66 123 -226.32 123 -227 123 C-227 115.08 -227 107.16 -227 99 C-226.34 99 -225.68 99 -225 99 C-224.54625 98.030625 -224.0925 97.06125 -223.625 96.0625 C-222 93 -222 93 -220 92 C-219.731875 91.401875 -219.46375 90.80375 -219.1875 90.1875 C-217.33561295 86.77612911 -214.43843924 84.71921962 -211 83 C-211 82.34 -211 81.68 -211 81 C-207.7 80.01 -204.4 79.02 -201 78 C-201 77.34 -201 76.68 -201 76 C-200.0925 75.855625 -199.185 75.71125 -198.25 75.5625 C-195.78523044 75.13590527 -193.41152893 74.64925779 -191 74 C-191 73.34 -191 72.68 -191 72 C-175.68867214 70.85042746 -160.34381226 70.46600836 -145 70 C-145.18464366 65.65815798 -145.18464366 65.65815798 -147 62 C-149.33297433 61.95907063 -151.66705225 61.95758277 -154 62 C-154 61.34 -154 60.68 -154 60 C-157.97915159 59.97113016 -161.95827653 59.95324594 -165.9375 59.9375 C-167.07380859 59.92912109 -168.21011719 59.92074219 -169.38085938 59.91210938 C-170.46044922 59.90888672 -171.54003906 59.90566406 -172.65234375 59.90234375 C-173.65257568 59.89710693 -174.65280762 59.89187012 -175.68334961 59.88647461 C-177.96207228 59.73818905 -177.96207228 59.73818905 -179 61 Z M66 60 C66 60.66 66 61.32 66 62 C63.36 62 60.72 62 58 62 C57.67 64.64 57.34 67.28 57 70 C57.83023682 70.01981934 58.66047363 70.03963867 59.51586914 70.06005859 C99.10868454 71.05434227 99.10868454 71.05434227 109 76 C109.99 76 110.98 76 112 76 C112 76.66 112 77.32 112 78 C113.43554025 78.50559908 114.8735202 79.0042749 116.3125 79.5 C117.11300781 79.7784375 117.91351563 80.056875 118.73828125 80.34375 C121.08769422 81.13933107 121.08769422 81.13933107 124 81 C124.226875 81.556875 124.45375 82.11375 124.6875 82.6875 C126.37550036 85.66159588 128.46676517 87.72008865 131 90 C131.66 90 132.32 90 133 90 C133.309375 90.94875 133.61875 91.8975 133.9375 92.875 C134.87394742 95.86080408 134.87394742 95.86080408 136 98 C136.66 98 137.32 98 138 98 C138.8149484 107.1775727 139.11139151 115.81819633 138 125 C137.34 125 136.68 125 136 125 C133.70954986 129.81209901 133.70954986 129.81209901 133 135 C131.515 135.495 131.515 135.495 130 136 C129.505 137.485 129.505 137.485 129 139 C127.44140625 140.5703125 127.44140625 140.5703125 125.5625 142.125 C124.94503906 142.64320313 124.32757813 143.16140625 123.69140625 143.6953125 C122 145 122 145 120 146 C120 146.66 120 147.32 120 148 C119.236875 148.144375 118.47375 148.28875 117.6875 148.4375 C114.91827092 148.9632594 114.91827092 148.9632594 112 150 C112 150.66 112 151.32 112 152 C111.37351562 152.13277344 110.74703125 152.26554687 110.1015625 152.40234375 C108.87566406 152.66724609 108.87566406 152.66724609 107.625 152.9375 C106.40683594 153.19853516 106.40683594 153.19853516 105.1640625 153.46484375 C102.970537 153.92330693 102.970537 153.92330693 101 155 C101 155.66 101 156.32 101 157 C105.95 156.01 105.95 156.01 111 155 C111 154.34 111 153.68 111 153 C112.670625 152.7834375 112.670625 152.7834375 114.375 152.5625 C117.82142047 152.21627965 117.82142047 152.21627965 120 151 C120 150.34 120 149.68 120 149 C120.7425 148.87625 121.485 148.7525 122.25 148.625 C124.80141485 148.04513299 126.7267573 147.26291261 129 146 C129 145.34 129 144.68 129 144 C129.57492187 143.89429688 130.14984375 143.78859375 130.7421875 143.6796875 C133.34152376 142.89718835 134.97309338 141.76961304 137.125 140.125 C137.80820312 139.61195313 138.49140625 139.09890625 139.1953125 138.5703125 C141.2321727 136.93728294 141.2321727 136.93728294 143 134 C143 133.01 143 132.02 143 131 C143.99 130.67 144.98 130.34 146 130 C148.01430083 126.28944583 148.19402245 123.17148265 148 119 C148.66 119 149.32 119 150 119 C150.52307656 105.69155774 150.52307656 105.69155774 147 93 C146.505 91.329375 146.505 91.329375 146 89.625 C144.99276005 86.98099514 144.09771449 85.82409956 142 84 C141.505 83.01 141.505 83.01 141 82 C140.34 82 139.68 82 139 82 C138.773125 81.21625 138.54625 80.4325 138.3125 79.625 C137.21875 76.78125 137.21875 76.78125 134.375 75.6875 C133.199375 75.3471875 133.199375 75.3471875 132 75 C132 74.34 132 73.68 132 73 C130.35 72.34 128.7 71.68 127 71 C127 70.34 127 69.68 127 69 C125.58603098 68.49242138 124.16868271 67.99425075 122.75 67.5 C121.56664062 67.08234375 121.56664062 67.08234375 120.359375 66.65625 C117.76587262 65.82135139 117.76587262 65.82135139 114 66 C114 65.34 114 64.68 114 64 C106.58856436 62.57374434 99.55137932 61.69928135 92 62 C92 61.34 92 60.68 92 60 C83.42 60 74.84 60 66 60 Z M54 76 C53.40024294 81.48729895 52.86032012 86.9105236 52.875 92.4375 C52.87242187 93.42621094 52.86984375 94.41492188 52.8671875 95.43359375 C52.89179591 98.12001449 52.89179591 98.12001449 54 101 C54.66 101 55.32 101 56 101 C56.268125 101.969375 56.53625 102.93875 56.8125 103.9375 C57.204375 104.948125 57.59625 105.95875 58 107 C58.99 107.33 59.98 107.66 61 108 C61.185625 108.8353125 61.185625 108.8353125 61.375 109.6875 C62.30908817 113.14362622 64.68047186 115.37509981 67 118 C67.85681015 119.03949339 68.71104733 120.08111376 69.5625 121.125 C71.8701699 123.92659653 71.8701699 123.92659653 74.0625 126.0625 C76.7676158 128.7676158 79.28216846 131.56433691 81 135 C81.66 135 82.32 135 83 135 C83.12375 135.5775 83.2475 136.155 83.375 136.75 C84.01416567 139.05099641 84.79305636 140.94109615 86 143 C90.2382509 145.11912545 95.11812346 144.25196473 99.5 143 C100.325 142.67 101.15 142.34 102 142 C102 141.34 102 140.68 102 140 C102.66 139.9175 103.32 139.835 104 139.75 C107.999834 138.7500415 111.36900186 136.91295131 115 135 C115.68835938 134.68804687 116.37671875 134.37609375 117.0859375 134.0546875 C120.12174658 132.38189474 121.86369334 129.6840776 124 127 C124.51046875 126.52691406 125.0209375 126.05382812 125.546875 125.56640625 C129.36385395 121.45186712 130.1875 115.35705918 130.1875 109.9375 C130.125625 108.638125 130.06375 107.33875 130 106 C130.99 105.505 130.99 105.505 132 105 C129.16758895 98.54561198 126.75554248 94.12897613 121 90 C120.52691406 89.49726562 120.05382812 88.99453125 119.56640625 88.4765625 C117.80075952 86.81218727 116.33410882 86.13655771 114.0625 85.3125 C113.39347656 85.06113281 112.72445312 84.80976562 112.03515625 84.55078125 C109.70787818 83.82584289 109.70787818 83.82584289 106 84 C106 83.34 106 82.68 106 82 C101.82262526 80.40861915 98.46839215 79.78721942 94 80 C94 79.34 94 78.68 94 78 C85.47823718 76.96494237 76.94750111 76.68723398 68.375 76.4375 C66.97525068 76.39419373 65.57551096 76.35057613 64.17578125 76.30664062 C60.78393549 76.20137645 57.39202646 76.09923991 54 76 Z M-160.25 76.4375 C-161.45269531 76.47681641 -162.65539062 76.51613281 -163.89453125 76.55664062 C-169.98936841 76.77407444 -175.96548858 77.10683227 -182 78 C-182 78.66 -182 79.32 -182 80 C-183.03125 79.95875 -184.0625 79.9175 -185.125 79.875 C-188.86829627 79.99575149 -191.53734547 80.64872018 -195 82 C-195 82.66 -195 83.32 -195 84 C-195.63808594 84.10957031 -196.27617187 84.21914062 -196.93359375 84.33203125 C-197.75988281 84.49058594 -198.58617187 84.64914063 -199.4375 84.8125 C-200.26121094 84.96332031 -201.08492187 85.11414063 -201.93359375 85.26953125 C-202.61550781 85.51058594 -203.29742187 85.75164062 -204 86 C-204.33 86.99 -204.66 87.98 -205 89 C-206.32191107 89.3760851 -207.65790395 89.70391371 -209 90 C-214.16956591 93.31296912 -217.27925579 97.02800538 -219 103 C-220.04872301 110.91712021 -217.99568033 118.29373652 -214.25 125.25 C-210.80674494 129.45842285 -207.37176468 133.29351691 -202.0625 134.875 C-201.381875 134.91625 -200.70125 134.9575 -200 135 C-200 135.66 -200 136.32 -200 137 C-195.05 138.485 -195.05 138.485 -190 140 C-190 140.66 -190 141.32 -190 142 C-184.75614911 143.7479503 -180.52677733 144.19392201 -175 144 C-174.54625 143.030625 -174.0925 142.06125 -173.625 141.0625 C-172 138 -172 138 -170 137 C-168.42451317 134.37418862 -168 133.12900213 -168 130 C-167.443125 129.814375 -166.88625 129.62875 -166.3125 129.4375 C-163.54029983 127.71424044 -162.22261588 125.54935012 -160.4296875 122.87109375 C-158.46130161 120.29498216 -156.10965436 118.42583163 -153.55078125 116.45703125 C-151.78687657 114.79976061 -151.05037388 113.15885356 -150 111 C-149.34 110.67 -148.68 110.34 -148 110 C-145.9904432 107.06295544 -145 105.60777515 -145 102 C-144.34 102 -143.68 102 -143 102 C-141.01190264 97.14020646 -140.86849769 93.02160747 -141.3125 87.875 C-141.36083984 87.17246094 -141.40917969 86.46992187 -141.45898438 85.74609375 C-141.7081075 82.40973589 -142.02730491 79.20906244 -143 76 C-148.75516744 76 -154.4988918 76.23362474 -160.25 76.4375 Z M97 157 C101 158 101 158 101 158 Z M-162 164 C-162 164.66 -162 165.32 -162 166 C-162.763125 166.268125 -163.52625 166.53625 -164.3125 166.8125 C-166.99963506 167.99983875 -168.08709578 168.84798276 -170 171 C-170.763125 171.7425 -171.52625 172.485 -172.3125 173.25 C-177.13625904 178.18593948 -181.10765131 182.66437906 -184 189 C-184.556875 189.886875 -185.11375 190.77375 -185.6875 191.6875 C-187.24680276 193.9916753 -187.24680276 193.9916753 -187 197 C-187.66 197 -188.32 197 -189 197 C-189.50559908 198.43554025 -190.0042749 199.8735202 -190.5 201.3125 C-190.7784375 202.11300781 -191.056875 202.91351563 -191.34375 203.73828125 C-192.13933107 206.08769422 -192.13933107 206.08769422 -192 209 C-192.66 209 -193.32 209 -194 209 C-194.33 212.3 -194.66 215.6 -195 219 C-194.34 219.33 -193.68 219.66 -193 220 C-192.01 219.505 -192.01 219.505 -191 219 C-191 217.68 -191 216.36 -191 215 C-190.34 215 -189.68 215 -189 215 C-188.49242138 213.58603098 -187.99425075 212.16868271 -187.5 210.75 C-187.2215625 209.96109375 -186.943125 209.1721875 -186.65625 208.359375 C-185.82135139 205.76587262 -185.82135139 205.76587262 -186 202 C-185.34 202 -184.68 202 -184 202 C-183.01 198.37 -182.02 194.74 -181 191 C-180.34 191 -179.68 191 -179 191 C-178.731875 190.071875 -178.46375 189.14375 -178.1875 188.1875 C-177.01747462 185.04690557 -176.32614388 184.19533383 -174 182 C-173.07528479 180.902565 -172.1588875 179.79807882 -171.25 178.6875 C-168.54697931 175.48190762 -165.60583388 172.85742287 -162.3203125 170.26171875 C-161.88460937 169.84535156 -161.44890625 169.42898437 -161 169 C-161 168.34 -161 167.68 -161 167 C-160.195625 166.731875 -159.39125 166.46375 -158.5625 166.1875 C-157.716875 165.795625 -156.87125 165.40375 -156 165 C-155.67 164.01 -155.34 163.02 -155 162 C-158.10551666 162 -159.35261084 162.5393715 -162 164 Z M40 162 C41.14080816 165.42242447 41.882589 165.88074799 44.75 167.875 C50.34662738 171.92256087 55.86214176 176.72428352 59 183 C59.66 183 60.32 183 61 183 C61.66 184.98 62.32 186.96 63 189 C63.66 189 64.32 189 65 189 C65.12375 189.680625 65.2475 190.36125 65.375 191.0625 C66.09100877 194.4277412 67.02945125 197.70013425 68 201 C68.66 201 69.32 201 70 201 C70.66 204.3 71.32 207.6 72 211 C72.66 211 73.32 211 74 211 C74.1546875 212.3921875 74.1546875 212.3921875 74.3125 213.8125 C75.0070192 217.03254358 75.47740939 218.02579865 78 220 C80.28880522 217.25246634 80.28880522 217.25246634 79.7578125 214.51953125 C79.54898438 213.62621094 79.34015625 212.73289063 79.125 211.8125 C78.92132813 210.91144531 78.71765625 210.01039063 78.5078125 209.08203125 C78.25644531 208.05142578 78.25644531 208.05142578 78 207 C77.34 207 76.68 207 76 207 C75.80083984 206.07767578 75.80083984 206.07767578 75.59765625 205.13671875 C75.42105469 204.32847656 75.24445313 203.52023438 75.0625 202.6875 C74.88847656 201.88699219 74.71445312 201.08648437 74.53515625 200.26171875 C74.00113841 197.854599 74.00113841 197.854599 73 195 C72.34 195 71.68 195 71 195 C70.01 192.03 69.02 189.06 68 186 C67.34 186 66.68 186 66 186 C65.773125 185.113125 65.54625 184.22625 65.3125 183.3125 C63.81610154 179.5358753 62.07508263 177.61382024 59 175 C58.34 175 57.68 175 57 175 C56.79375 174.443125 56.5875 173.88625 56.375 173.3125 C54.42316968 170.02987629 52.05769006 168.29326754 49 166 C48.34 166 47.68 166 47 166 C47 165.34 47 164.68 47 164 C44.69 163.34 42.38 162.68 40 162 Z M-56.25 180.5 C-57.86648437 180.91765625 -57.86648437 180.91765625 -59.515625 181.34375 C-60.33546875 181.5603125 -61.1553125 181.776875 -62 182 C-62 182.66 -62 183.32 -62 184 C-63.98 184 -65.96 184 -68 184 C-68 184.66 -68 185.32 -68 186 C-68.66 186 -69.32 186 -70 186 C-70 189.96 -70 193.92 -70 198 C-70.66 198 -71.32 198 -72 198 C-72 206.58 -72 215.16 -72 224 C-71.34 224 -70.68 224 -70 224 C-69.87625 224.763125 -69.7525 225.52625 -69.625 226.3125 C-69.11897208 229.20267136 -69.11897208 229.20267136 -67 232 C-66.34 232 -65.68 232 -65 232 C-64.7834375 232.9590625 -64.7834375 232.9590625 -64.5625 233.9375 C-64.18992819 235.97545146 -64.18992819 235.97545146 -63 237 C-58.83535074 237.16017882 -55.05273808 236.98248196 -51 236 C-51 235.34 -51 234.68 -51 234 C-49.7625 233.855625 -48.525 233.71125 -47.25 233.5625 C-44.43495501 233.21311498 -41.7298503 232.79620634 -39 232 C-39 231.34 -39 230.68 -39 230 C-37.02 229.505 -37.02 229.505 -35 229 C-34.5821609 224.90453929 -34.5821609 224.90453929 -37.3125 222.125 C-39.64365895 220.30134216 -40.74346603 219.9945185 -43.7421875 220.05859375 C-48.09788287 220.80379893 -51.29313357 221.52875572 -55 224 C-58.1875 224.125 -58.1875 224.125 -61 224 C-61.13277344 223.32453125 -61.26554688 222.6490625 -61.40234375 221.953125 C-61.57894531 221.06109375 -61.75554687 220.1690625 -61.9375 219.25 C-62.11152344 218.36828125 -62.28554687 217.4865625 -62.46484375 216.578125 C-62.92368488 214.36764947 -63.43336074 212.18487932 -64 210 C-60.535 209.505 -60.535 209.505 -57 209 C-57 208.34 -57 207.68 -57 207 C-56.071875 206.855625 -55.14375 206.71125 -54.1875 206.5625 C-50.99274889 206.07899889 -50.99274889 206.07899889 -48 205 C-47.61781233 203.34385343 -47.28604898 201.67542976 -47 200 C-48.11101184 198.66351983 -48.11101184 198.66351983 -50.9375 198.875 C-53.91545728 198.78674336 -53.91545728 198.78674336 -56 200 C-56 200.66 -56 201.32 -56 202 C-57.1446875 202.2165625 -57.1446875 202.2165625 -58.3125 202.4375 C-61.08172908 202.9632594 -61.08172908 202.9632594 -64 204 C-63.67 199.38 -63.34 194.76 -63 190 C-61.164375 189.54625 -59.32875 189.0925 -57.4375 188.625 C-52.92998417 187.49945463 -48.45517195 186.3163008 -44 185 C-43.67 183.68 -43.34 182.36 -43 181 C-47.64561429 177.90292381 -51.1394525 179.1668137 -56.25 180.5 Z M-100 189 C-101.25949049 190.03406673 -101.25949049 190.03406673 -101.09765625 192.28515625 C-101.08605469 193.20167969 -101.07445312 194.11820313 -101.0625 195.0625 C-101.05347656 195.98160156 -101.04445312 196.90070313 -101.03515625 197.84765625 C-101.02355469 198.55792969 -101.01195312 199.26820313 -101 200 C-101.66 200 -102.32 200 -103 200 C-103.33921452 203.18690233 -103.67029417 206.37460104 -104 209.5625 C-104.09539062 210.45775391 -104.19078125 211.35300781 -104.2890625 212.27539062 C-104.79567965 217.21490788 -105.10897382 222.03488014 -105 227 C-109.83083522 225.38972159 -112.75784318 223.23588228 -115.25 218.75 C-115.4975 218.1725 -115.745 217.595 -116 217 C-116.66 217 -117.32 217 -118 217 C-118.0825 215.80375 -118.165 214.6075 -118.25 213.375 C-118.7767929 208.95622973 -120.29865987 206.48560017 -123 203 C-124.65 203.33 -126.3 203.66 -128 204 C-128 206.31 -128 208.62 -128 211 C-128.66 211 -129.32 211 -130 211 C-130.50579714 214.04080421 -131.00480759 217.08246646 -131.5 220.125 C-131.71462891 221.40890625 -131.71462891 221.40890625 -131.93359375 222.71875 C-132.65695734 227.19671505 -133.17918816 231.44563435 -133 236 C-135.32421875 235.4140625 -135.32421875 235.4140625 -138 234 C-139.58203125 230.9609375 -139.58203125 230.9609375 -140.8125 227.375 C-141.23144531 226.18648437 -141.65039062 224.99796875 -142.08203125 223.7734375 C-142.38496094 222.85820312 -142.68789062 221.94296875 -143 221 C-143.66 221 -144.32 221 -145 221 C-145.0825 219.700625 -145.165 218.40125 -145.25 217.0625 C-145.80338263 211.85905135 -147.64679993 207.62978432 -150 203 C-150.99 203.33 -151.98 203.66 -153 204 C-152.34 204 -151.68 204 -151 204 C-150.95101562 204.82242188 -150.90203125 205.64484375 -150.8515625 206.4921875 C-150.3838056 213.47628184 -149.58560773 220.18034735 -148 227 C-147.34 227 -146.68 227 -146 227 C-145.34 229.97 -144.68 232.94 -144 236 C-143.34 236 -142.68 236 -142 236 C-141.82984375 236.61488281 -141.6596875 237.22976562 -141.484375 237.86328125 C-140.03300513 242.90013638 -140.03300513 242.90013638 -137 247.0625 C-134.91540797 248.21221694 -134.91540797 248.21221694 -132 248 C-132 248.66 -132 249.32 -132 250 C-130.68 250 -129.36 250 -128 250 C-125.09621828 244.20039212 -124.31701545 238.99160056 -123.8125 232.5625 C-123.73064453 231.64017578 -123.64878906 230.71785156 -123.56445312 229.76757812 C-123.36581083 227.51240384 -123.17793147 225.25688658 -123 223 C-119.49076998 224.60280727 -118.67193178 225.55778751 -117 229 C-114.58333229 231.75041666 -114.58333229 231.75041666 -112 234 C-111.34 234 -110.68 234 -110 234 C-109.731875 234.598125 -109.46375 235.19625 -109.1875 235.8125 C-107.96414758 238.06604393 -107.02039668 239.42858036 -105 241 C-101.4201575 242.10682786 -101.4201575 242.10682786 -98 241 C-95.97003253 235.5867534 -95.76566681 230.74116324 -96 225 C-95.34 225 -94.68 225 -94 225 C-93.34 215.1 -92.68 205.2 -92 195 C-93.32 194.34 -94.64 193.68 -96 193 C-96 192.01 -96 191.02 -96 190 C-97.94603274 189.40929986 -97.94603274 189.40929986 -100 189 Z M-5 240 C-5 240.66 -5 241.32 -5 242 C-9.95 243.485 -9.95 243.485 -15 245 C-15 245.66 -15 246.32 -15 247 C-16.1446875 247.2165625 -16.1446875 247.2165625 -17.3125 247.4375 C-20.08172908 247.9632594 -20.08172908 247.9632594 -23 249 C-23.33 249.66 -23.66 250.32 -24 251 C-26.0625 252.125 -26.0625 252.125 -28 253 C-28 253.66 -28 254.32 -28 255 C-27.01 255 -26.02 255 -25 255 C-25.14049518 256.47968324 -25.28754826 257.95874516 -25.4375 259.4375 C-25.51871094 260.26121094 -25.59992188 261.08492188 -25.68359375 261.93359375 C-26 264 -26 264 -27 265 C-27.30723707 268.03168829 -27.27851194 271.07966967 -27.3125 274.125 C-27.34150391 274.96804688 -27.37050781 275.81109375 -27.40039062 276.6796875 C-27.46067402 282.65238092 -26.50845007 286.12786405 -23 291 C-20.02155049 292.67083753 -18.41356386 293 -15 293 C-14.67 293.99 -14.34 294.98 -14 296 C-12.741875 296.20625 -11.48375 296.4125 -10.1875 296.625 C-9.47980469 296.74101562 -8.77210938 296.85703125 -8.04296875 296.9765625 C-5.68244176 297.19577848 -5.68244176 297.19577848 -3 295 C-3 294.34 -3 293.68 -3 293 C-1.35 292.34 0.3 291.68 2 291 C2.33 288.36 2.66 285.72 3 283 C3.66 283 4.32 283 5 283 C5.32835656 279.32728956 5.32835656 279.32728956 3.625 276.1875 C2.06631217 274.8033278 2.06631217 274.8033278 0 275 C-0.66 276.98 -1.32 278.96 -2 281 C-2.66 281 -3.32 281 -4 281 C-5.02104551 281.97850195 -6.0206121 282.97980427 -7 284 C-7.99 284.495 -7.99 284.495 -9 285 C-9 285.66 -9 286.32 -9 287 C-9.99 287 -10.98 287 -12 287 C-12.33 285.02 -12.66 283.04 -13 281 C-13.66 281 -14.32 281 -15 281 C-15 276.71 -15 272.42 -15 268 C-14.01 268 -13.02 268 -12 268 C-12 267.34 -12 266.68 -12 266 C-10.824375 265.87625 -9.64875 265.7525 -8.4375 265.625 C-4.45879574 265.13564065 -0.82233441 264.1944795 3 263 C3 262.34 3 261.68 3 261 C3.99 260.67 4.98 260.34 6 260 C0.93683317 259.84360875 -3.50398438 260.37233929 -8.4375 261.5 C-9.67371094 261.7784375 -10.90992188 262.056875 -12.18359375 262.34375 C-13.11300781 262.5603125 -14.04242188 262.776875 -15 263 C-15.33 259.04 -15.66 255.08 -16 251 C-15.01 250.67 -14.02 250.34 -13 250 C-13 249.34 -13 248.68 -13 248 C-10.03 247.01 -7.06 246.02 -4 245 C-4 244.34 -4 243.68 -4 243 C-1.69 242.34 0.62 241.68 3 241 C3 240.01 3 239.02 3 238 C-0.20395416 238 -2.09399739 238.74335022 -5 240 Z M-59 254 C-59 254.66 -59 255.32 -59 256 C-60.28777344 256.15275391 -60.28777344 256.15275391 -61.6015625 256.30859375 C-65.28495755 257.05797412 -68.05023208 258.32623231 -71.375 260.0625 C-72.96441406 260.88427734 -72.96441406 260.88427734 -74.5859375 261.72265625 C-75.38257813 262.14417969 -76.17921875 262.56570313 -77 263 C-77 263.66 -77 264.32 -77 265 C-77.804375 265.28875 -78.60875 265.5775 -79.4375 265.875 C-82.1326468 266.73262568 -82.1326468 266.73262568 -83 269 C-83.14128517 270.77680673 -83.22594863 272.55828673 -83.28125 274.33984375 C-83.31863281 275.40267578 -83.35601562 276.46550781 -83.39453125 277.56054688 C-83.42933594 278.67494141 -83.46414062 279.78933594 -83.5 280.9375 C-83.56884752 283.13424589 -83.64158753 285.33087421 -83.71875 287.52734375 C-83.74904297 288.50437256 -83.77933594 289.48140137 -83.81054688 290.48803711 C-84 293 -84 293 -85 296 C-84.34 296 -83.68 296 -83 296 C-82.67 298.97 -82.34 301.94 -82 305 C-80.68 305.33 -79.36 305.66 -78 306 C-77.67 306.66 -77.34 307.32 -77 308 C-74.63189682 307.05275873 -73.24792047 306.34708866 -71.75 304.25 C-70.79891575 301.39674726 -70.80084149 298.98737759 -71 296 C-71.33 295.67 -71.66 295.34 -72 295 C-72.23192865 293.48530552 -72.41215238 291.96245438 -72.5625 290.4375 C-72.64628906 289.61121094 -72.73007813 288.78492188 -72.81640625 287.93359375 C-72.87699219 287.29550781 -72.93757812 286.65742188 -73 286 C-61.89820359 288.69461078 -61.89820359 288.69461078 -57.875 290.0625 C-50.94790317 292.32133592 -44.26699543 293.26914798 -37 293 C-37 292.34 -37 291.68 -37 291 C-36.34 290.67 -35.68 290.34 -35 290 C-38.44069624 287.70620251 -39.72290301 287 -44 287 C-44 286.34 -44 285.68 -44 285 C-53.94588472 283.27851598 -53.94588472 283.27851598 -64 283 C-63 280 -63 280 -60 278.4375 C-59.01 277.963125 -58.02 277.48875 -57 277 C-56.67 276.34 -56.34 275.68 -56 275 C-55.154375 274.505 -54.30875 274.01 -53.4375 273.5 C-52.633125 273.005 -51.82875 272.51 -51 272 C-51 271.34 -51 270.68 -51 270 C-50.4225 269.7525 -49.845 269.505 -49.25 269.25 C-46.61295899 267.78497722 -44.92641136 266.32497923 -43 264 C-42.20318682 261.35815459 -42.20318682 261.35815459 -42 259 C-41.34 259 -40.68 259 -40 259 C-40.57344937 256.13275314 -40.8614515 255.1385485 -43 253 C-45.76210595 252.71786556 -45.76210595 252.71786556 -48.875 252.8125 C-49.92429687 252.81894531 -50.97359375 252.82539063 -52.0546875 252.83203125 C-54.54066704 252.97380462 -56.62847586 253.2839601 -59 254 Z M-132 269 C-132.33 269.99 -132.66 270.98 -133 272 C-133.66 272 -134.32 272 -135 272 C-135 272.66 -135 273.32 -135 274 C-135.66 274 -136.32 274 -137 274 C-137 274.66 -137 275.32 -137 276 C-137.66 276 -138.32 276 -139 276 C-139.50812114 278.51943396 -140.00664534 281.04016873 -140.5 283.5625 C-140.64308594 284.26697266 -140.78617187 284.97144531 -140.93359375 285.69726562 C-141.80874925 290.21890238 -142.14523405 294.39487028 -142 299 C-142.66 299 -143.32 299 -144 299 C-144 303.95 -144 308.9 -144 314 C-141.525 313.505 -141.525 313.505 -139 313 C-138.01 307.72 -137.02 302.44 -136 297 C-134.72125 296.7525 -133.4425 296.505 -132.125 296.25 C-126.830253 295.08835439 -121.96810741 293.13659734 -117 291 C-115.29304267 296.65571861 -113.60665302 302.31492008 -112 308 C-111.34 308 -110.68 308 -110 308 C-110 308.99 -110 309.98 -110 311 C-105.29593798 310.8709086 -105.29593798 310.8709086 -101.5625 308.4375 C-99.48246389 299.42401021 -102.77556521 292.32009895 -106 284 C-106.495 282.515 -106.495 282.515 -107 281 C-107.66 281 -108.32 281 -109 281 C-109.226875 280.21625 -109.45375 279.4325 -109.6875 278.625 C-110.78125 275.78125 -110.78125 275.78125 -113.625 274.6875 C-114.40875 274.460625 -115.1925 274.23375 -116 274 C-116 273.34 -116 272.68 -116 272 C-121.52760359 269.89424625 -126.06997733 268.62148791 -132 269 Z M51.3125 302 C50.31863281 302.185625 49.32476562 302.37125 48.30078125 302.5625 C47.54152344 302.706875 46.78226562 302.85125 46 303 C46 303.66 46 304.32 46 305 C44.2984375 305.12375 44.2984375 305.12375 42.5625 305.25 C36.85770371 305.94149046 32.08042759 308.45978621 27 311 C27 311.66 27 312.32 27 313 C29.475 313.495 29.475 313.495 32 314 C32.33 313.01 32.66 312.02 33 311 C33.59167969 310.93941406 34.18335938 310.87882812 34.79296875 310.81640625 C38.90978208 310.37987629 42.95544533 309.91328654 47 309 C47 311.64 47 314.28 47 317 C46.34 317 45.68 317 45 317 C43.39357857 324.85999057 42.74125928 332.55514238 42.625 340.5625 C42.59921875 341.43100586 42.5734375 342.29951172 42.546875 343.19433594 C42.53464046 347.10480087 42.53144898 349.30550326 44.7578125 352.60546875 C47.3433334 354.21353663 48.30794646 354.33841071 51.25 353.75 C52.4875 353.5025 53.725 353.255 55 353 C56.18564665 348.85023673 55.70899628 346.89271375 54 343 C53.21579924 339.03465976 52.84380403 335.19256848 52.71875 331.15625 C52.68136719 330.07472656 52.64398438 328.99320312 52.60546875 327.87890625 C52.53515625 325.62630208 52.46484375 323.37369792 52.39453125 321.12109375 C52.35714844 320.03957031 52.31976563 318.95804687 52.28125 317.84375 C52.25095703 316.86599609 52.22066406 315.88824219 52.18945312 314.88085938 C51.99135731 311.86857769 51.54340054 308.96780297 51 306 C52.8871875 306.0928125 52.8871875 306.0928125 54.8125 306.1875 C58.16958979 306.23632922 58.16958979 306.23632922 61 304.5 C61.33 304.005 61.66 303.51 62 303 C61.34 302.34 60.68 301.68 60 301 C56.95438718 301 54.30174598 301.4373184 51.3125 302 Z M-14.609375 318.53515625 C-15.00640625 319.08042969 -15.4034375 319.62570312 -15.8125 320.1875 C-16.8953125 321.5796875 -16.8953125 321.5796875 -18 323 C-21.3125 323.375 -21.3125 323.375 -24 323 C-24.33 323.66 -24.66 324.32 -25 325 C-24.67 325.99 -24.34 326.98 -24 328 C-23.92809953 330.09392158 -23.91609619 332.19010992 -23.9375 334.28515625 C-23.94523438 335.53876953 -23.95296875 336.79238281 -23.9609375 338.08398438 C-23.98671072 340.70898702 -24.01274674 343.33398711 -24.0390625 345.95898438 C-24.16437847 356.52037518 -24.16437847 356.52037518 -23 367 C-21.87465895 368.35618499 -21.87465895 368.35618499 -18.9375 368.0625 C-17.968125 368.041875 -16.99875 368.02125 -16 368 C-15.34 369.32 -14.68 370.64 -14 372 C-13.34 372 -12.68 372 -12 372 C-12 371.34 -12 370.68 -12 370 C-10.02 369.505 -10.02 369.505 -8 369 C-8 364.05 -8 359.1 -8 354 C-4.90755208 353.77213542 -1.81510417 353.54427083 1.27734375 353.31640625 C3.91109903 353.29581916 3.91109903 353.29581916 5 352 C8.42216034 351.58981389 11.87109419 351.48309183 15.3125 351.3125 C16.27607422 351.25255859 17.23964844 351.19261719 18.23242188 351.13085938 C19.16248047 351.08380859 20.09253906 351.03675781 21.05078125 350.98828125 C22.32949097 350.91927612 22.32949097 350.91927612 23.6340332 350.84887695 C26.22716129 351.01450963 27.78082012 351.68836054 30 353 C29.34 350.69 28.68 348.38 28 346 C27.34 346 26.68 346 26 346 C26 345.34 26 344.68 26 344 C17.57203517 342.27572915 17.57203517 342.27572915 9 342 C8.505 341.01 8.505 341.01 8 340 C8.66 340 9.32 340 10 340 C10.268125 339.401875 10.53625 338.80375 10.8125 338.1875 C12 336 12 336 13.5 334.75 C15.92358031 331.92248963 16.63410531 328.66585055 17 325 C16.26092952 321.60505739 16.26092952 321.60505739 15 319 C14.01 319 13.02 319 12 319 C11.505 317.515 11.505 317.515 11 316 C3.3667283 313.15623211 -8.18648831 312.40847064 -14.609375 318.53515625 Z M-74 330 C-74 330.99 -74 331.98 -74 333 C-74.66 333 -75.32 333 -76 333 C-76.11069824 333.79696289 -76.22139648 334.59392578 -76.33544922 335.41503906 C-76.8413971 339.02774908 -77.35807328 342.63884526 -77.875 346.25 C-78.04902344 347.50425781 -78.22304687 348.75851562 -78.40234375 350.05078125 C-78.57636719 351.25605469 -78.75039062 352.46132813 -78.9296875 353.703125 C-79.16534424 355.36843262 -79.16534424 355.36843262 -79.40576172 357.06738281 C-79.95180845 359.76217053 -80.75060723 361.59050269 -82 364 C-82.19089068 366.58825308 -82.27969259 369.0417449 -82.25 371.625 C-82.25773438 372.305625 -82.26546875 372.98625 -82.2734375 373.6875 C-82.36718477 377.79796984 -82.36718477 377.79796984 -80 381 C-77.67409146 377.36576791 -77.83734167 374.22911669 -78 370 C-77.34 370 -76.68 370 -76 370 C-75.67 367.36 -75.34 364.72 -75 362 C-73.68 362 -72.36 362 -71 362 C-71 361.34 -71 360.68 -71 360 C-69.9275 359.855625 -68.855 359.71125 -67.75 359.5625 C-65.08337051 359.16250558 -62.58600271 358.72408076 -60 358 C-60 357.34 -60 356.68 -60 356 C-58.35 356 -56.7 356 -55 356 C-54.67 357.98 -54.34 359.96 -54 362 C-53.34 362 -52.68 362 -52 362 C-51.773125 363.051875 -51.54625 364.10375 -51.3125 365.1875 C-50.18840766 369.16630167 -48.2038144 371.35685312 -45 374 C-44.34 374 -43.68 374 -43 374 C-43 374.66 -43 375.32 -43 376 C-41.68 376.33 -40.36 376.66 -39 377 C-36.68985458 373.73861824 -36.79449144 370.84260622 -37.37890625 366.9609375 C-38.37353946 363.82064901 -40.57402151 362.12273118 -43 360 C-43.495 358.515 -43.495 358.515 -44 357 C-44.66 357 -45.32 357 -46 357 C-46.99 353.7 -47.98 350.4 -49 347 C-49.66 347 -50.32 347 -51 347 C-51.2165625 345.6078125 -51.2165625 345.6078125 -51.4375 344.1875 C-51.92100111 340.99274889 -51.92100111 340.99274889 -53 338 C-53.66 338 -54.32 338 -55 338 C-55.04125 337.443125 -55.0825 336.88625 -55.125 336.3125 C-56.46706151 332.76562314 -58.73203352 330.74813377 -62 329 C-68.50619461 327.2933208 -68.50619461 327.2933208 -74 330 Z M-119 409 C-119.99 409.495 -119.99 409.495 -121 410 C-121.22958315 412.04569007 -121.22958315 412.04569007 -119.8125 413.25 C-119.214375 413.8275 -118.61625 414.405 -118 415 C-116.33333333 417 -114.66666667 419 -113 421 C-112.443125 421.53625 -111.88625 422.0725 -111.3125 422.625 C-109.75238063 424.25941077 -108.91966125 425.94844798 -108 428 C-107.34 428 -106.68 428 -106 428 C-105.731875 428.639375 -105.46375 429.27875 -105.1875 429.9375 C-104.11332248 432.33131686 -104.11332248 432.33131686 -101 433 C-101 433.66 -101 434.32 -101 435 C-100.01 435.33 -99.02 435.66 -98 436 C-97.22431525 434.23990773 -97.22431525 434.23990773 -97 432 C-98.10649226 429.56194268 -98.10649226 429.56194268 -99.8125 427.25 C-100.35519531 426.45078125 -100.89789063 425.6515625 -101.45703125 424.828125 C-101.96621094 424.22484375 -102.47539062 423.6215625 -103 423 C-103.66 423 -104.32 423 -105 423 C-105.226875 422.443125 -105.45375 421.88625 -105.6875 421.3125 C-107.3703574 418.34746553 -109.53621374 416.34646311 -112 414 C-112.70125 413.2575 -113.4025 412.515 -114.125 411.75 C-115.97977175 409.77556277 -115.97977175 409.77556277 -119 409 Z M-2 412 C-2 412.66 -2 413.32 -2 414 C-2.5775 414.226875 -3.155 414.45375 -3.75 414.6875 C-6.61564185 416.35912441 -8.01134409 418.34845878 -10 421 C-14.51832761 426.58476518 -14.51832761 426.58476518 -16.8125 428.5625 C-18.54183802 430.65590919 -18.21259206 432.37803131 -18 435 C-17.01 435 -16.02 435 -15 435 C-15 434.34 -15 433.68 -15 433 C-14.443125 432.95875 -13.88625 432.9175 -13.3125 432.875 C-9.705605 431.51022892 -8.26961504 429.08919824 -6 426 C-6 425.34 -6 424.68 -6 424 C-5.34 424 -4.68 424 -4 424 C-2.76969274 422.4011809 -1.61359837 420.74469415 -0.5 419.0625 C2.79157895 414.10421053 2.79157895 414.10421053 5 413 C5 411.68 5 410.36 5 409 C2.05728556 409 0.38499757 410.36815955 -2 412 Z " fill="#E50000" transform="translate(309,3)"/>
<path d="M0 0 C1.4540625 0.0309375 1.4540625 0.0309375 2.9375 0.0625 C3.2675 1.0525 3.5975 2.0425 3.9375 3.0625 C3.2775 3.0625 2.6175 3.0625 1.9375 3.0625 C1.855 3.84625 1.7725 4.63 1.6875 5.4375 C1.44 6.30375 1.1925 7.17 0.9375 8.0625 C-1 9.125 -1 9.125 -3.0625 10.0625 C-3.371875 10.68125 -3.68125 11.3 -4 11.9375 C-5.4622678 14.8620356 -7.39402191 16.21997941 -10.0625 18.0625 C-12.375 18.8125 -12.375 18.8125 -14.0625 19.0625 C-14.0625 19.7225 -14.0625 20.3825 -14.0625 21.0625 C-18.5175 22.5475 -18.5175 22.5475 -23.0625 24.0625 C-24.8104503 18.81864911 -25.25642201 14.58927733 -25.0625 9.0625 C-18.4375 6.0625 -18.4375 6.0625 -15.0625 6.0625 C-15.0625 5.4025 -15.0625 4.7425 -15.0625 4.0625 C-14.28003906 3.85753906 -13.49757812 3.65257812 -12.69140625 3.44140625 C-11.67949219 3.17199219 -10.66757813 2.90257812 -9.625 2.625 C-8.61566406 2.35816406 -7.60632813 2.09132813 -6.56640625 1.81640625 C-0.57248185 0.0116833 -0.57248185 0.0116833 0 0 Z " fill="#E40000" transform="translate(258.0625,259.9375)"/>
<path d="M0 0 C3.3125 -0.25 3.3125 -0.25 7 0 C9.7637768 2.81592353 10.53214244 5.41867891 11.1875 9.25 C11.34605469 10.14203125 11.50460938 11.0340625 11.66796875 11.953125 C11.77753906 12.62859375 11.88710937 13.3040625 12 14 C9 16 9 16 6 16 C6 16.66 6 17.32 6 18 C2.19956554 19.73734147 0.40285423 20 -4 20 C-3.67 16.04 -3.34 12.08 -3 8 C-2.34 8 -1.68 8 -1 8 C-0.67 5.36 -0.34 2.72 0 0 Z " fill="#E50000" transform="translate(239,340)"/>
<path d="M0 0 C1.98 0 3.96 0 6 0 C7 2 7 2 6 5.25 C4.29555591 9.06508746 1.7924037 11.22103934 -1.4765625 13.73828125 C-3.13958444 14.94283829 -3.13958444 14.94283829 -4 17 C-4.66 17 -5.32 17 -6 17 C-5.85904936 15.3745692 -5.71207913 13.74965949 -5.5625 12.125 C-5.48128906 11.22007812 -5.40007812 10.31515625 -5.31640625 9.3828125 C-5 7 -5 7 -4 5 C-3.34 5 -2.68 5 -2 5 C-1.34 3.35 -0.68 1.7 0 0 Z " fill="#E40000" transform="translate(307,327)"/>
<path d="M0 0 C1.65 0 3.3 0 5 0 C5 0.66 5 1.32 5 2 C6.98 2.66 8.96 3.32 11 4 C11.33 5.65 11.66 7.3 12 9 C10.58461283 9.33872513 9.16762037 9.67074624 7.75 10 C6.96109375 10.185625 6.1721875 10.37125 5.359375 10.5625 C3 11 3 11 -1 11 C-1.14285714 3.57142857 -1.14285714 3.57142857 0 0 Z " fill="#E40000" transform="translate(176,282)"/>
</svg>
